<?xml version="1.0" standalone="no"?>
<!DOCTYPE svg PUBLIC "-//W3C//DTD SVG 1.0//EN" "http://www.w3.org/TR/2001/REC-SVG-20010904/DTD/svg10.dtd">
<svg xmlns="http://www.w3.org/2000/svg" xmlns:xlink="http://www.w3.org/1999/xlink" id="body_14" width="504" height="373">

<defs>
                    <clipPath  id="1">

                        <path clip-rule="evenodd" d="M0 0L503 0L503 372L0 372z" />                    </clipPath>
                    <clipPath  id="2">

                        <path clip-rule="evenodd" d="M0 0L503 0L503 372L0 372z" />                    </clipPath>
                    <clipPath  id="3">

                        <path clip-rule="evenodd" d="M0 0L503 0L503 372L0 372z" />                    </clipPath>
                    <clipPath  id="4">

                        <path clip-rule="evenodd" d="M0 0L503 0L503 372L0 372z" />                    </clipPath>
                    <clipPath  id="5">

                        <path clip-rule="evenodd" d="M0 0L503 0L503 372L0 372z" />                    </clipPath>
                    <clipPath  id="6">

                        <path clip-rule="evenodd" d="M0 0L503 0L503 372L0 372z" />                    </clipPath>
                    <clipPath  id="7">

                        <path clip-rule="evenodd" d="M0 0L503 0L503 372L0 372z" />                    </clipPath>
                    <clipPath  id="8">

                        <path clip-rule="evenodd" d="M0 0L503 0L503 372L0 372z" />                    </clipPath>
                    <clipPath  id="9">

                        <path clip-rule="evenodd" d="M0 0L503 0L503 372L0 372z" />                    </clipPath>
                    <clipPath  id="10">

                        <path clip-rule="evenodd" d="M0 0L503 0L503 372L0 372z" />                    </clipPath>
                    <clipPath  id="11">

                        <path clip-rule="evenodd" d="M0 0L503 0L503 372L0 372z" />                    </clipPath>
                    <clipPath  id="12">

                        <path clip-rule="evenodd" d="M0 0L503 0L503 372L0 372z" />                    </clipPath>
                    <clipPath  id="13">

                        <path clip-rule="evenodd" d="M0 0L503 0L503 372L0 372z" />                    </clipPath>
                    <clipPath  id="14">

                        <path clip-rule="evenodd" d="M0 0L503 0L503 372L0 372z" />                    </clipPath>
                    <clipPath  id="15">

                        <path clip-rule="evenodd" d="M0 0L503 0L503 372L0 372z" />                    </clipPath>
                    <clipPath  id="16">

                        <path clip-rule="evenodd" d="M0 0L503 0L503 372L0 372z" />                    </clipPath>
                    <clipPath  id="17">

                        <path clip-rule="evenodd" d="M0 0L503 0L503 372L0 372z" />                    </clipPath>
                    <clipPath  id="18">

                        <path clip-rule="evenodd" d="M0 0L503 0L503 372L0 372z" />                    </clipPath>
                    <clipPath  id="19">

                        <path clip-rule="evenodd" d="M0 0L503 0L503 372L0 372z" />                    </clipPath>
                    <clipPath  id="20">

                        <path clip-rule="evenodd" d="M0 0L503 0L503 372L0 372z" />                    </clipPath>
                    <clipPath  id="21">

                        <path clip-rule="evenodd" d="M0 0L503 0L503 372L0 372z" />                    </clipPath>
                        <clipPath  id="22">

                            <path clip-rule="evenodd" d="M0 0L503 0L503 372L0 372z" />                        </clipPath>
</defs>

<g transform="matrix(1.3333334 0 0 1.3333334 0 0)">
    <path d="M0 0L378 0L378 279.75L0 279.75z" stroke="none" fill="#FFFFFF" fill-rule="evenodd" />
	<g transform="matrix(0.75 0 0 0.75 -0 -0)">
		<g>
			<g>
				<g transform="matrix(1 0 0 1 0 0)">
					<g>
					</g>
					<g>
					</g>
				</g>
				<g>
				</g>
				<g clip-path="url(#1)" >
				</g>
				<g transform="matrix(1 0 0 1 0 0)">
					<g>
					</g>
				</g>
				<g>
				</g>
				<g clip-path="url(#2)" >
					<text transform="matrix(0 -1 1 0 19.757952 237.53261)" x="0" y="0" style="fill:#262626;font-family:ABeeZee;" font-size="16">
Computation time (s)
					</text>
				</g>
				<g transform="matrix(1 0 0 1 0 0)">
					<g>
					</g>
				</g>
				<g>
				</g>
				<g clip-path="url(#3)" >
					<text transform="matrix(1 0 0 1 63.989986 342.40396)" x="0" y="3.1560001" style="fill:#262626;font-family:ABeeZee;" font-size="16">
64
					</text>
				</g>
				<g transform="matrix(1 0 0 1 0 0)">
					<g>
					</g>
				</g>
				<g>
				</g>
				<g clip-path="url(#4)" >
					<text transform="matrix(1 0 0 1 122.78177 342.40396)" x="0" y="3.1560001" style="fill:#262626;font-family:ABeeZee;" font-size="16">
128
					</text>
				</g>
				<g transform="matrix(1 0 0 1 0 0)">
					<g>
					</g>
				</g>
				<g>
				</g>
				<g clip-path="url(#5)" >
					<text transform="matrix(1 0 0 1 190.87793 342.40396)" x="0" y="3.1560001" style="fill:#262626;font-family:ABeeZee;" font-size="16">
256
					</text>
				</g>
				<g transform="matrix(1 0 0 1 0 0)">
					<g>
					</g>
				</g>
				<g>
				</g>
				<g clip-path="url(#6)" >
					<text transform="matrix(1 0 0 1 259.80392 342.40396)" x="0" y="3.1560001" style="fill:#262626;font-family:ABeeZee;" font-size="16">
512
					</text>
				</g>
				<g transform="matrix(1 0 0 1 0 0)">
					<g>
					</g>
				</g>
				<g>
				</g>
				<g clip-path="url(#7)" >
					<text transform="matrix(1 0 0 1 325.49506 342.40396)" x="0" y="3.1560001" style="fill:#262626;font-family:ABeeZee;" font-size="16">
1024
					</text>
				</g>
				<g transform="matrix(1 0 0 1 0 0)">
					<g>
					</g>
				</g>
				<g>
				</g>
				<g clip-path="url(#8)" >
					<text transform="matrix(1 0 0 1 393.3063 342.40396)" x="0" y="3.1560001" style="fill:#262626;font-family:ABeeZee;" font-size="16">
2048
					</text>
				</g>
				<g transform="matrix(1 0 0 1 0 0)">
					<g>
					</g>
				</g>
				<g>
				</g>
				<g clip-path="url(#9)" >
					<text transform="matrix(1 0 0 1 461.58508 342.40396)" x="0" y="3.1560001" style="fill:#262626;font-family:ABeeZee;" font-size="16">
4096
					</text>
				</g>
				<g transform="matrix(1 0 0 1 0 0)">
					<g>
                        <path transform="matrix(96 0 0 96 67.061516 325.13928)"  d="M0 -3.2509477L4.2627544 -3.2509477L4.2627544 0L0 0" stroke="none" fill="#FFFFFF" fill-rule="evenodd" />
                        <path transform="matrix(96 0 0 96 67.061516 325.13928)"  d="M0 0L4.2627544 0" stroke="#262626" stroke-width="0.0066343737" stroke-linecap="round" fill="none" />
                        <path transform="matrix(96 0 0 96 67.061516 13.048274)"  d="M0 0L4.2627544 0" stroke="#262626" stroke-width="0.0066343737" stroke-linecap="round" fill="none" />
                        <path transform="matrix(96 0 0 96 67.061516 325.13928)"  d="M0 0L0 -0.040873803" stroke="#262626" stroke-width="0.0066343737" stroke-linecap="round" fill="none" />
                        <path transform="matrix(96 0 0 96 135.30487 325.13928)"  d="M0 0L0 -0.040873803" stroke="#262626" stroke-width="0.0066343737" stroke-linecap="round" fill="none" />
                        <path transform="matrix(96 0 0 96 203.48927 325.13928)"  d="M0 0L0 -0.040873803" stroke="#262626" stroke-width="0.0066343737" stroke-linecap="round" fill="none" />
                        <path transform="matrix(96 0 0 96 271.67374 325.13928)"  d="M0 0L0 -0.040873803" stroke="#262626" stroke-width="0.0066343737" stroke-linecap="round" fill="none" />
                        <path transform="matrix(96 0 0 96 339.91708 325.13928)"  d="M0 0L0 -0.040873803" stroke="#262626" stroke-width="0.0066343737" stroke-linecap="round" fill="none" />
                        <path transform="matrix(96 0 0 96 408.1015 325.13928)"  d="M0 0L0 -0.040873803" stroke="#262626" stroke-width="0.0066343737" stroke-linecap="round" fill="none" />
                        <path transform="matrix(96 0 0 96 476.2859 325.13928)"  d="M0 0L0 -0.040873803" stroke="#262626" stroke-width="0.0066343737" stroke-linecap="round" fill="none" />
                        <path transform="matrix(96 0 0 96 67.061516 17.028986)"  d="M0 -0.041466087L0 8.240703E-08" stroke="#262626" stroke-width="0.0066343737" stroke-linecap="round" fill="none" />
                        <path transform="matrix(96 0 0 96 135.30487 17.028986)"  d="M0 -0.041466087L0 8.240703E-08" stroke="#262626" stroke-width="0.0066343737" stroke-linecap="round" fill="none" />
                        <path transform="matrix(96 0 0 96 203.48927 17.028986)"  d="M0 -0.041466087L0 8.240703E-08" stroke="#262626" stroke-width="0.0066343737" stroke-linecap="round" fill="none" />
                        <path transform="matrix(96 0 0 96 271.67374 17.028986)"  d="M0 -0.041466087L0 8.240703E-08" stroke="#262626" stroke-width="0.0066343737" stroke-linecap="round" fill="none" />
                        <path transform="matrix(96 0 0 96 339.91708 17.028986)"  d="M0 -0.041466087L0 8.240703E-08" stroke="#262626" stroke-width="0.0066343737" stroke-linecap="round" fill="none" />
                        <path transform="matrix(96 0 0 96 408.1015 17.028986)"  d="M0 -0.041466087L0 8.240703E-08" stroke="#262626" stroke-width="0.0066343737" stroke-linecap="round" fill="none" />
                        <path transform="matrix(96 0 0 96 476.2859 17.028986)"  d="M0 -0.041466087L0 8.240703E-08" stroke="#262626" stroke-width="0.0066343737" stroke-linecap="round" fill="none" />
					</g>
				</g>
				<g>
				</g>
				<g clip-path="url(#10)" >
					<text transform="matrix(1 0 0 1 241.18208 359.78976)" x="0" y="3.1560001" style="fill:#262626;font-family:ABeeZee;" font-size="16">
Length N
					</text>
				</g>
				<g transform="matrix(1 0 0 1 0 0)">
					<g>
                        <path transform="matrix(96 0 0 96 67.061516 325.13928)"  d="M0 0L0 -3.2509477" stroke="#262626" stroke-width="0.0066343737" stroke-linecap="round" fill="none" />
                        <path transform="matrix(96 0 0 96 476.2859 325.13928)"  d="M0 0L0 -3.2509477" stroke="#262626" stroke-width="0.0066343737" stroke-linecap="round" fill="none" />
                        <path transform="matrix(96 0 0 96 67.061516 325.13928)"  d="M0 0L0.042971324 0" stroke="#262626" stroke-width="0.0066343737" stroke-linecap="round" fill="none" />
                        <path transform="matrix(96 0 0 96 67.061516 290.5067)"  d="M0 0L0.042971324 0" stroke="#262626" stroke-width="0.0066343737" stroke-linecap="round" fill="none" />
                        <path transform="matrix(96 0 0 96 67.061516 255.81734)"  d="M0 0L0.042971324 0" stroke="#262626" stroke-width="0.0066343737" stroke-linecap="round" fill="none" />
                        <path transform="matrix(96 0 0 96 67.061516 221.12791)"  d="M0 0L0.042971324 0" stroke="#262626" stroke-width="0.0066343737" stroke-linecap="round" fill="none" />
                        <path transform="matrix(96 0 0 96 67.061516 186.43849)"  d="M0 0L0.042971324 0" stroke="#262626" stroke-width="0.0066343737" stroke-linecap="round" fill="none" />
                        <path transform="matrix(96 0 0 96 67.061516 151.80597)"  d="M0 0L0.042971324 0" stroke="#262626" stroke-width="0.0066343737" stroke-linecap="round" fill="none" />
                        <path transform="matrix(96 0 0 96 67.061516 117.11654)"  d="M0 0L0.042971324 0" stroke="#262626" stroke-width="0.0066343737" stroke-linecap="round" fill="none" />
                        <path transform="matrix(96 0 0 96 67.061516 82.42712)"  d="M0 0L0.042971324 0" stroke="#262626" stroke-width="0.0066343737" stroke-linecap="round" fill="none" />
                        <path transform="matrix(96 0 0 96 67.061516 47.737698)"  d="M0 0L0.042971324 0" stroke="#262626" stroke-width="0.0066343737" stroke-linecap="round" fill="none" />
                        <path transform="matrix(96 0 0 96 67.061516 13.048274)"  d="M0 0L0.042971324 0" stroke="#262626" stroke-width="0.0066343737" stroke-linecap="round" fill="none" />
                        <path transform="matrix(96 0 0 96 472.21957 325.13928)"  d="M0.04235764 0L2.0274966E-07 0" stroke="#262626" stroke-width="0.0066343737" stroke-linecap="round" fill="none" />
                        <path transform="matrix(96 0 0 96 472.21957 290.5067)"  d="M0.04235764 0L2.0274966E-07 0" stroke="#262626" stroke-width="0.0066343737" stroke-linecap="round" fill="none" />
                        <path transform="matrix(96 0 0 96 472.21957 255.81734)"  d="M0.04235764 0L2.0274966E-07 0" stroke="#262626" stroke-width="0.0066343737" stroke-linecap="round" fill="none" />
                        <path transform="matrix(96 0 0 96 472.21957 221.12791)"  d="M0.04235764 0L2.0274966E-07 0" stroke="#262626" stroke-width="0.0066343737" stroke-linecap="round" fill="none" />
                        <path transform="matrix(96 0 0 96 472.21957 186.43849)"  d="M0.04235764 0L2.0274966E-07 0" stroke="#262626" stroke-width="0.0066343737" stroke-linecap="round" fill="none" />
                        <path transform="matrix(96 0 0 96 472.21957 151.80597)"  d="M0.04235764 0L2.0274966E-07 0" stroke="#262626" stroke-width="0.0066343737" stroke-linecap="round" fill="none" />
                        <path transform="matrix(96 0 0 96 472.21957 117.11654)"  d="M0.04235764 0L2.0274966E-07 0" stroke="#262626" stroke-width="0.0066343737" stroke-linecap="round" fill="none" />
                        <path transform="matrix(96 0 0 96 472.21957 82.42712)"  d="M0.04235764 0L2.0274966E-07 0" stroke="#262626" stroke-width="0.0066343737" stroke-linecap="round" fill="none" />
                        <path transform="matrix(96 0 0 96 472.21957 47.737698)"  d="M0.04235764 0L2.0274966E-07 0" stroke="#262626" stroke-width="0.0066343737" stroke-linecap="round" fill="none" />
                        <path transform="matrix(96 0 0 96 472.21957 13.048274)"  d="M0.04235764 0L2.0274966E-07 0" stroke="#262626" stroke-width="0.0066343737" stroke-linecap="round" fill="none" />
					</g>
				</g>
				<g>
				</g>
				<g clip-path="url(#11)" >
					<text transform="matrix(1 0 0 1 56.47868 331.8489)" x="0" y="3.1560001" style="fill:#262626;font-family:ABeeZee;" font-size="16">
0
					</text>
				</g>
				<g transform="matrix(1 0 0 1 0 0)">
					<g>
					</g>
				</g>
				<g>
				</g>
				<g clip-path="url(#12)" >
					<text transform="matrix(1 0 0 1 38.960957 297.2732)" x="0" y="3.1560001" style="fill:#262626;font-family:ABeeZee;" font-size="16">
0.01
					</text>
				</g>
				<g transform="matrix(1 0 0 1 0 0)">
					<g>
					</g>
				</g>
				<g>
				</g>
				<g clip-path="url(#13)" >
					<text transform="matrix(1 0 0 1 38.960957 262.69754)" x="0" y="3.1560001" style="fill:#262626;font-family:ABeeZee;" font-size="16">
0.02
					</text>
				</g>
				<g transform="matrix(1 0 0 1 0 0)">
					<g>
					</g>
				</g>
				<g>
				</g>
				<g clip-path="url(#14)" >
					<text transform="matrix(1 0 0 1 38.960957 228.12186)" x="0" y="3.1560001" style="fill:#262626;font-family:ABeeZee;" font-size="16">
0.03
					</text>
				</g>
				<g transform="matrix(1 0 0 1 0 0)">
					<g>
					</g>
				</g>
				<g>
				</g>
				<g clip-path="url(#15)" >
					<text transform="matrix(1 0 0 1 38.960957 193.54619)" x="0" y="3.1560001" style="fill:#262626;font-family:ABeeZee;" font-size="16">
0.04
					</text>
				</g>
				<g transform="matrix(1 0 0 1 0 0)">
					<g>
					</g>
				</g>
				<g>
				</g>
				<g clip-path="url(#16)" >
					<text transform="matrix(1 0 0 1 38.960957 158.06062)" x="0" y="3.1560001" style="fill:#262626;font-family:ABeeZee;" font-size="16">
0.05
					</text>
				</g>
				<g transform="matrix(1 0 0 1 0 0)">
					<g>
					</g>
				</g>
				<g>
				</g>
				<g clip-path="url(#17)" >
					<text transform="matrix(1 0 0 1 38.960957 123.48491)" x="0" y="3.1560001" style="fill:#262626;font-family:ABeeZee;" font-size="16">
0.06
					</text>
				</g>
				<g transform="matrix(1 0 0 1 0 0)">
					<g>
					</g>
				</g>
				<g>
				</g>
				<g clip-path="url(#18)" >
					<text transform="matrix(1 0 0 1 38.960957 88.90929)" x="0" y="3.1560001" style="fill:#262626;font-family:ABeeZee;" font-size="16">
0.07
					</text>
				</g>
				<g transform="matrix(1 0 0 1 0 0)">
					<g>
					</g>
				</g>
				<g>
				</g>
				<g clip-path="url(#19)" >
					<text transform="matrix(1 0 0 1 38.960957 54.333572)" x="0" y="3.1560001" style="fill:#262626;font-family:ABeeZee;" font-size="16">
0.08
					</text>
				</g>
				<g transform="matrix(1 0 0 1 0 0)">
					<g>
					</g>
				</g>
				<g>
				</g>
				<g clip-path="url(#20)" >
					<text transform="matrix(1 0 0 1 38.960957 19.757952)" x="0" y="3.1560001" style="fill:#262626;font-family:ABeeZee;" font-size="16">
0.09
					</text>
				</g>
				<g transform="matrix(1 0 0 1 0 0)">
					<g>
                        <path transform="matrix(96 0 0 96 67.061516 314.78934)"  d="M0 0L0.7108683 0L1.4211227 -0.10840442L2.1313772 -0.21680884L2.8422453 -0.50588727L3.5524998 -1.2647182L4.2627544 -3.107001" stroke="#8134AF" stroke-width="0.016284373" stroke-linecap="round" fill="none" />
                        <path transform="matrix(96 0 0 96 62.523746 319.16815)"  d="M0.047268443 -0.07582386C 0.06445697 -0.07582386 0.07857612 -0.062199257 0.07857612 -0.04561279C 0.07857612 -0.02902632 0.06445697 -0.015994094 0.047268443 -0.015994094C 0.03007992 -0.015994094 0.01657465 -0.02902632 0.01657465 -0.04561279C 0.01657465 -0.062199257 0.03007992 -0.07582386 0.047268443 -0.07582386zM0.047268443 -0.09181795C 0.021485656 -0.09181795 7.806256E-18 -0.071084864 0 -0.04561279C -6.3425827E-18 -0.020733085 0.021485656 2.6020852E-18 0.047268443 0C 0.073665105 -6.3425827E-18 0.09515076 -0.020733085 0.09515076 -0.04561279C 0.09515076 -0.071084864 0.073665105 -0.09181795 0.047268443 -0.09181795z" stroke="none" fill="#8134AF" fill-rule="nonzero" />
                        <path transform="matrix(96 0 0 96 130.70818 319.16815)"  d="M0.047882322 -0.07582386C 0.065070845 -0.07582386 0.07857612 -0.062199257 0.07857612 -0.04561279C 0.07857612 -0.02902632 0.065070845 -0.015994094 0.047882322 -0.015994094C 0.030693796 -0.015994094 0.01657465 -0.02902632 0.01657465 -0.04561279C 0.01657465 -0.062199257 0.030693796 -0.07582386 0.047882322 -0.07582386zM0.047882322 -0.09181795C 0.021485656 -0.09181795 5.2041704E-18 -0.071084864 0 -0.04561279C -3.4152368E-18 -0.020733085 0.021485656 2.6020852E-18 0.047882322 0C 0.07427898 -6.3425827E-18 0.09515076 -0.020733085 0.09515076 -0.04561279C 0.09515076 -0.071084864 0.07427898 -0.09181795 0.047882322 -0.09181795z" stroke="none" fill="#8134AF" fill-rule="nonzero" />
                        <path transform="matrix(96 0 0 96 198.9515 308.76132)"  d="M0.047268443 -0.07582386C 0.06445697 -0.07582386 0.07857612 -0.062199257 0.07857612 -0.04561279C 0.07857612 -0.02902632 0.06445697 -0.015994094 0.047268443 -0.015994094C 0.03007992 -0.015994094 0.015960773 -0.02902632 0.015960773 -0.04561279C 0.015960773 -0.062199257 0.03007992 -0.07582386 0.047268443 -0.07582386zM0.047268443 -0.09181795C 0.02087178 -0.09181795 1.0408341E-17 -0.071084864 0 -0.04561279C -3.4152368E-18 -0.020733085 0.02087178 5.2041704E-18 0.047268443 0C 0.073665105 3.4152368E-18 0.094536886 -0.020733085 0.094536886 -0.04561279C 0.094536886 -0.071084864 0.073665105 -0.09181795 0.047268443 -0.09181795z" stroke="none" fill="#8134AF" fill-rule="nonzero" />
                        <path transform="matrix(96 0 0 96 267.13596 298.35452)"  d="M0.047268443 -0.07582386C 0.06445697 -0.07582386 0.07857612 -0.062199257 0.07857612 -0.04561279C 0.07857612 -0.02902632 0.06445697 -0.015994094 0.047268443 -0.015994094C 0.03007992 -0.015994094 0.01657465 -0.02902632 0.01657465 -0.04561279C 0.01657465 -0.062199257 0.03007992 -0.07582386 0.047268443 -0.07582386zM0.047268443 -0.09181795C 0.021485656 -0.09181795 0 -0.071084864 0 -0.04561279C 3.903128E-18 -0.020733085 0.021485656 2.6020852E-18 0.047268443 0C 0.073665105 1.4636729E-18 0.09515076 -0.020733085 0.09515076 -0.04561279C 0.09515076 -0.071084864 0.073665105 -0.09181795 0.047268443 -0.09181795z" stroke="none" fill="#8134AF" fill-rule="nonzero" />
                        <path transform="matrix(96 0 0 96 335.32037 270.60297)"  d="M0.047882322 -0.07582386C 0.065070845 -0.07582386 0.07857612 -0.062199257 0.07857612 -0.04561279C 0.07857612 -0.02902632 0.065070845 -0.015401721 0.047882322 -0.015401721C 0.030693796 -0.015401721 0.01657465 -0.02902632 0.01657465 -0.04561279C 0.01657465 -0.062199257 0.030693796 -0.07582386 0.047882322 -0.07582386zM0.047882322 -0.09122558C 0.021485656 -0.09122558 5.2041704E-18 -0.071084864 0 -0.04561279C 4.87891E-19 -0.020140711 0.021485656 0 0.047882322 0C 0.07427898 -4.87891E-19 0.09515076 -0.020140711 0.09515076 -0.04561279C 0.09515076 -0.071084864 0.07427898 -0.09122558 0.047882322 -0.09122558z" stroke="none" fill="#8134AF" fill-rule="nonzero" />
                        <path transform="matrix(96 0 0 96 403.56372 197.81209)"  d="M0.047268443 -0.07582386C 0.06445697 -0.07582386 0.07857612 -0.06279163 0.07857612 -0.046205163C 0.07857612 -0.029618694 0.06445697 -0.015994094 0.047268443 -0.015994094C 0.03007992 -0.015994094 0.015960773 -0.029618694 0.015960773 -0.046205163C 0.015960773 -0.06279163 0.03007992 -0.07582386 0.047268443 -0.07582386zM0.047268443 -0.09181795C 0.02087178 -0.09181795 2.6020852E-18 -0.071084864 0 -0.046205163C -1.951564E-18 -0.020733085 0.02087178 2.6020852E-18 0.047268443 0C 0.073665105 0 0.094536886 -0.020733085 0.094536886 -0.046205163C 0.094536886 -0.071084864 0.073665105 -0.09181795 0.047268443 -0.09181795z" stroke="none" fill="#8134AF" fill-rule="nonzero" />
                        <path transform="matrix(96 0 0 96 471.74814 20.952936)"  d="M0.047268443 -0.07582386C 0.06445697 -0.07582386 0.07857612 -0.06279163 0.07857612 -0.046205163C 0.07857612 -0.029618694 0.06445697 -0.015994094 0.047268443 -0.015994094C 0.03007992 -0.015994094 0.01657465 -0.029618694 0.01657465 -0.046205163C 0.01657465 -0.06279163 0.03007992 -0.07582386 0.047268443 -0.07582386zM0.047268443 -0.09181795C 0.021485656 -0.09181795 5.2041704E-18 -0.071084864 0 -0.046205163C 1.951564E-18 -0.020733085 0.021485656 2.6020852E-18 0.047268443 0C 0.073665105 0 0.09515076 -0.020733085 0.09515076 -0.046205163C 0.09515076 -0.071084864 0.073665105 -0.09181795 0.047268443 -0.09181795z" stroke="none" fill="#8134AF" fill-rule="nonzero" />
                        <path transform="matrix(96 0 0 96 67.061516 314.78934)"  d="M0 0L0.7108683 0L1.4211227 -0.10840442L2.1313772 -0.21680884L2.8422453 -0.50588727L3.5524998 -1.2647182L4.2627544 -3.107001" stroke="#8134AF" stroke-width="0.016284373" stroke-linecap="round" fill="none" />
                        <path transform="matrix(96 0 0 96 62.523746 319.16815)"  d="M0.047268443 -0.07582386C 0.06445697 -0.07582386 0.07857612 -0.062199257 0.07857612 -0.04561279C 0.07857612 -0.02902632 0.06445697 -0.015994094 0.047268443 -0.015994094C 0.03007992 -0.015994094 0.01657465 -0.02902632 0.01657465 -0.04561279C 0.01657465 -0.062199257 0.03007992 -0.07582386 0.047268443 -0.07582386zM0.047268443 -0.09181795C 0.021485656 -0.09181795 7.806256E-18 -0.071084864 0 -0.04561279C -6.3425827E-18 -0.020733085 0.021485656 2.6020852E-18 0.047268443 0C 0.073665105 -6.3425827E-18 0.09515076 -0.020733085 0.09515076 -0.04561279C 0.09515076 -0.071084864 0.073665105 -0.09181795 0.047268443 -0.09181795z" stroke="none" fill="#8134AF" fill-rule="nonzero" />
                        <path transform="matrix(96 0 0 96 130.70818 319.16815)"  d="M0.047882322 -0.07582386C 0.065070845 -0.07582386 0.07857612 -0.062199257 0.07857612 -0.04561279C 0.07857612 -0.02902632 0.065070845 -0.015994094 0.047882322 -0.015994094C 0.030693796 -0.015994094 0.01657465 -0.02902632 0.01657465 -0.04561279C 0.01657465 -0.062199257 0.030693796 -0.07582386 0.047882322 -0.07582386zM0.047882322 -0.09181795C 0.021485656 -0.09181795 5.2041704E-18 -0.071084864 0 -0.04561279C -3.4152368E-18 -0.020733085 0.021485656 2.6020852E-18 0.047882322 0C 0.07427898 -6.3425827E-18 0.09515076 -0.020733085 0.09515076 -0.04561279C 0.09515076 -0.071084864 0.07427898 -0.09181795 0.047882322 -0.09181795z" stroke="none" fill="#8134AF" fill-rule="nonzero" />
                        <path transform="matrix(96 0 0 96 198.9515 308.76132)"  d="M0.047268443 -0.07582386C 0.06445697 -0.07582386 0.07857612 -0.062199257 0.07857612 -0.04561279C 0.07857612 -0.02902632 0.06445697 -0.015994094 0.047268443 -0.015994094C 0.03007992 -0.015994094 0.015960773 -0.02902632 0.015960773 -0.04561279C 0.015960773 -0.062199257 0.03007992 -0.07582386 0.047268443 -0.07582386zM0.047268443 -0.09181795C 0.02087178 -0.09181795 1.0408341E-17 -0.071084864 0 -0.04561279C -3.4152368E-18 -0.020733085 0.02087178 5.2041704E-18 0.047268443 0C 0.073665105 3.4152368E-18 0.094536886 -0.020733085 0.094536886 -0.04561279C 0.094536886 -0.071084864 0.073665105 -0.09181795 0.047268443 -0.09181795z" stroke="none" fill="#8134AF" fill-rule="nonzero" />
                        <path transform="matrix(96 0 0 96 267.13596 298.35452)"  d="M0.047268443 -0.07582386C 0.06445697 -0.07582386 0.07857612 -0.062199257 0.07857612 -0.04561279C 0.07857612 -0.02902632 0.06445697 -0.015994094 0.047268443 -0.015994094C 0.03007992 -0.015994094 0.01657465 -0.02902632 0.01657465 -0.04561279C 0.01657465 -0.062199257 0.03007992 -0.07582386 0.047268443 -0.07582386zM0.047268443 -0.09181795C 0.021485656 -0.09181795 0 -0.071084864 0 -0.04561279C 3.903128E-18 -0.020733085 0.021485656 2.6020852E-18 0.047268443 0C 0.073665105 1.4636729E-18 0.09515076 -0.020733085 0.09515076 -0.04561279C 0.09515076 -0.071084864 0.073665105 -0.09181795 0.047268443 -0.09181795z" stroke="none" fill="#8134AF" fill-rule="nonzero" />
                        <path transform="matrix(96 0 0 96 335.32037 270.60297)"  d="M0.047882322 -0.07582386C 0.065070845 -0.07582386 0.07857612 -0.062199257 0.07857612 -0.04561279C 0.07857612 -0.02902632 0.065070845 -0.015401721 0.047882322 -0.015401721C 0.030693796 -0.015401721 0.01657465 -0.02902632 0.01657465 -0.04561279C 0.01657465 -0.062199257 0.030693796 -0.07582386 0.047882322 -0.07582386zM0.047882322 -0.09122558C 0.021485656 -0.09122558 5.2041704E-18 -0.071084864 0 -0.04561279C 4.87891E-19 -0.020140711 0.021485656 0 0.047882322 0C 0.07427898 -4.87891E-19 0.09515076 -0.020140711 0.09515076 -0.04561279C 0.09515076 -0.071084864 0.07427898 -0.09122558 0.047882322 -0.09122558z" stroke="none" fill="#8134AF" fill-rule="nonzero" />
                        <path transform="matrix(96 0 0 96 403.56372 197.81209)"  d="M0.047268443 -0.07582386C 0.06445697 -0.07582386 0.07857612 -0.06279163 0.07857612 -0.046205163C 0.07857612 -0.029618694 0.06445697 -0.015994094 0.047268443 -0.015994094C 0.03007992 -0.015994094 0.015960773 -0.029618694 0.015960773 -0.046205163C 0.015960773 -0.06279163 0.03007992 -0.07582386 0.047268443 -0.07582386zM0.047268443 -0.09181795C 0.02087178 -0.09181795 2.6020852E-18 -0.071084864 0 -0.046205163C -1.951564E-18 -0.020733085 0.02087178 2.6020852E-18 0.047268443 0C 0.073665105 0 0.094536886 -0.020733085 0.094536886 -0.046205163C 0.094536886 -0.071084864 0.073665105 -0.09181795 0.047268443 -0.09181795z" stroke="none" fill="#8134AF" fill-rule="nonzero" />
                        <path transform="matrix(96 0 0 96 471.74814 20.952936)"  d="M0.047268443 -0.07582386C 0.06445697 -0.07582386 0.07857612 -0.06279163 0.07857612 -0.046205163C 0.07857612 -0.029618694 0.06445697 -0.015994094 0.047268443 -0.015994094C 0.03007992 -0.015994094 0.01657465 -0.029618694 0.01657465 -0.046205163C 0.01657465 -0.06279163 0.03007992 -0.07582386 0.047268443 -0.07582386zM0.047268443 -0.09181795C 0.021485656 -0.09181795 5.2041704E-18 -0.071084864 0 -0.046205163C 1.951564E-18 -0.020733085 0.021485656 2.6020852E-18 0.047268443 0C 0.073665105 0 0.09515076 -0.020733085 0.09515076 -0.046205163C 0.09515076 -0.071084864 0.073665105 -0.09181795 0.047268443 -0.09181795z" stroke="none" fill="#8134AF" fill-rule="nonzero" />
                        <path transform="matrix(96 0 0 96 392.54688 40.561153)"  d="M0 -0.18955964L0.71808386 -0.18955964L0.71808386 0L0 0" stroke="none" fill="#FFFFFF" fill-rule="evenodd" />
					</g>
				</g>
				<g>
				</g>
				<g clip-path="url(#21)" >
					<text transform="matrix(1 0 0 1 431.10324 37.267868)" x="0" y="3.1560001" style="fill:#000000;font-family:ABeeZee;" font-size="16">
SDE
					</text>
				</g>
				<g transform="matrix(1 0 0 1 0 0)">
					<g clip-path="url(#22)" >
                        <path transform="matrix(96 0 0 96 396.1751 31.462275)"  d="M0 0L0.3779389 0" stroke="#8134AF" stroke-width="0.016284373" stroke-linecap="round" fill="none" />
                        <path transform="matrix(96 0 0 96 409.95096 35.898006)"  d="M0.04547077 -0.07582386C 0.062005594 -0.07582386 0.07558777 -0.06279163 0.07558777 -0.046205163C 0.07558777 -0.029618694 0.062005594 -0.015994094 0.04547077 -0.015994094C 0.028935945 -0.015994094 0.015944296 -0.029618694 0.015944296 -0.046205163C 0.015944296 -0.06279163 0.028935945 -0.07582386 0.04547077 -0.07582386zM0.04547077 -0.09181795C 0.02066853 -0.09181795 7.806256E-18 -0.071084864 0 -0.046205163C 3.4152368E-18 -0.020733085 0.02066853 2.6020852E-18 0.04547077 0C 0.07086354 0 0.09153207 -0.020733085 0.09153207 -0.046205163C 0.09153207 -0.071084864 0.07086354 -0.09181795 0.04547077 -0.09181795z" stroke="none" fill="#8134AF" fill-rule="nonzero" />
                        <path transform="matrix(96 0 0 96 392.54688 40.561153)"  d="M0 0L0 -0.18955964L0.71808386 -0.18955964L0.71808386 0L0 0z" stroke="#262626" stroke-width="0.0066343737" stroke-linecap="round" fill="none" />
					</g>
					<g>
					</g>
				</g>
			</g>
		</g>
	</g>
</g>
</svg>