<?xml version="1.0" standalone="no"?>
<!DOCTYPE svg PUBLIC "-//W3C//DTD SVG 1.0//EN" "http://www.w3.org/TR/2001/REC-SVG-20010904/DTD/svg10.dtd">
<svg xmlns="http://www.w3.org/2000/svg" xmlns:xlink="http://www.w3.org/1999/xlink" id="body_4" width="532" height="390">

<defs>
                    <clipPath  id="1">

                        <path clip-rule="evenodd" d="M0 0L531 0L531 389L0 389z" />                    </clipPath>
                    <clipPath  id="2">

                        <path clip-rule="evenodd" d="M0 0L531 0L531 389L0 389z" />                    </clipPath>
                    <clipPath  id="3">

                        <path clip-rule="evenodd" d="M0 0L531 0L531 389L0 389z" />                    </clipPath>
                    <clipPath  id="4">

                        <path clip-rule="evenodd" d="M0 0L531 0L531 389L0 389z" />                    </clipPath>
                    <clipPath  id="5">

                        <path clip-rule="evenodd" d="M0 0L531 0L531 389L0 389z" />                    </clipPath>
                    <clipPath  id="6">

                        <path clip-rule="evenodd" d="M0 0L531 0L531 389L0 389z" />                    </clipPath>
                    <clipPath  id="7">

                        <path clip-rule="evenodd" d="M0 0L531 0L531 389L0 389z" />                    </clipPath>
                    <clipPath  id="8">

                        <path clip-rule="evenodd" d="M0 0L531 0L531 389L0 389z" />                    </clipPath>
                    <clipPath  id="9">

                        <path clip-rule="evenodd" d="M0 0L531 0L531 389L0 389z" />                    </clipPath>
                    <clipPath  id="10">

                        <path clip-rule="evenodd" d="M0 0L531 0L531 389L0 389z" />                    </clipPath>
                    <clipPath  id="11">

                        <path clip-rule="evenodd" d="M0 0L531 0L531 389L0 389z" />                    </clipPath>
                    <clipPath  id="12">

                        <path clip-rule="evenodd" d="M0 0L531 0L531 389L0 389z" />                    </clipPath>
                    <clipPath  id="13">

                        <path clip-rule="evenodd" d="M0 0L531 0L531 389L0 389z" />                    </clipPath>
                    <clipPath  id="14">

                        <path clip-rule="evenodd" d="M0 0L531 0L531 389L0 389z" />                    </clipPath>
                    <clipPath  id="15">

                        <path clip-rule="evenodd" d="M0 0L531 0L531 389L0 389z" />                    </clipPath>
                    <clipPath  id="16">

                        <path clip-rule="evenodd" d="M0 0L531 0L531 389L0 389z" />                    </clipPath>
                    <clipPath  id="17">

                        <path clip-rule="evenodd" d="M0 0L531 0L531 389L0 389z" />                    </clipPath>
                    <clipPath  id="18">

                        <path clip-rule="evenodd" d="M0 0L531 0L531 389L0 389z" />                    </clipPath>
                    <clipPath  id="19">

                        <path clip-rule="evenodd" d="M0 0L531 0L531 389L0 389z" />                    </clipPath>
                    <clipPath  id="20">

                        <path clip-rule="evenodd" d="M0 0L531 0L531 389L0 389z" />                    </clipPath>
                    <clipPath  id="21">

                        <path clip-rule="evenodd" d="M0 0L531 0L531 389L0 389z" />                    </clipPath>
                    <clipPath  id="22">

                        <path clip-rule="evenodd" d="M0 0L531 0L531 389L0 389z" />                    </clipPath>
                    <clipPath  id="23">

                        <path clip-rule="evenodd" d="M0 0L531 0L531 389L0 389z" />                    </clipPath>
                    <clipPath  id="24">

                        <path clip-rule="evenodd" d="M0 0L531 0L531 389L0 389z" />                    </clipPath>
                    <clipPath  id="25">

                        <path clip-rule="evenodd" d="M0 0L531 0L531 389L0 389z" />                    </clipPath>
                    <clipPath  id="26">

                        <path clip-rule="evenodd" d="M0 0L531 0L531 389L0 389z" />                    </clipPath>
                        <clipPath  id="27">

                            <path clip-rule="evenodd" d="M0 0L531 0L531 389L0 389z" />                        </clipPath>
</defs>

<g transform="matrix(1.3333334 0 0 1.3333334 0 0)">
    <path d="M0 0L399 0L399 292.5L0 292.5z" stroke="none" fill="#FFFFFF" fill-rule="evenodd" />
	<g transform="matrix(0.75 0 0 0.75 -0 -0)">
		<g>
			<g>
				<g transform="matrix(1 0 0 1 0 0)">
					<g>
					</g>
					<g>
					</g>
				</g>
				<g>
				</g>
				<g clip-path="url(#1)" >
				</g>
				<g transform="matrix(1 0 0 1 0 0)">
					<g>
                        <path transform="matrix(96 0 0 96 1.5 383.65222)"  d="M0 -3.9807525L5.500328 -3.9807525L5.500328 0L0 0" stroke="none" fill="#FFFFFF" fill-rule="evenodd" />
                        <path transform="matrix(96 0 0 96 1.5 383.65222)"  d="M0 -3.9807525L5.500328 -3.9807525L5.500328 0L0 0" stroke="none" fill="#FFFFFF" fill-rule="evenodd" />
                        <path transform="matrix(96 0 0 96 70.33267 341.79745)"  d="M0 -3.2509477L4.2627544 -3.2509477L4.2627544 0L0 0" stroke="none" fill="#FFFFFF" fill-rule="evenodd" />
                        <path transform="matrix(96 0 0 96 70.33267 341.79745)"  d="M0 0L4.2627544 0" stroke="#262626" stroke-width="0.0066343737" stroke-linecap="round" fill="none" />
                        <path transform="matrix(96 0 0 96 70.33267 341.79745)"  d="M0 0L0 -0.040873803" stroke="#262626" stroke-width="0.0066343737" stroke-linecap="round" fill="none" />
                        <path transform="matrix(96 0 0 96 121.48573 341.79745)"  d="M0 0L0 -0.040873803" stroke="#262626" stroke-width="0.0066343737" stroke-linecap="round" fill="none" />
                        <path transform="matrix(96 0 0 96 172.63878 341.79745)"  d="M0 0L0 -0.040873803" stroke="#262626" stroke-width="0.0066343737" stroke-linecap="round" fill="none" />
                        <path transform="matrix(96 0 0 96 223.79181 341.79745)"  d="M0 0L0 -0.040873803" stroke="#262626" stroke-width="0.0066343737" stroke-linecap="round" fill="none" />
                        <path transform="matrix(96 0 0 96 274.94485 341.79745)"  d="M0 0L0 -0.040873803" stroke="#262626" stroke-width="0.0066343737" stroke-linecap="round" fill="none" />
                        <path transform="matrix(96 0 0 96 326.09793 341.79745)"  d="M0 0L0 -0.040873803" stroke="#262626" stroke-width="0.0066343737" stroke-linecap="round" fill="none" />
                        <path transform="matrix(96 0 0 96 377.25098 341.79745)"  d="M0 0L0 -0.040873803" stroke="#262626" stroke-width="0.0066343737" stroke-linecap="round" fill="none" />
                        <path transform="matrix(96 0 0 96 428.40405 341.79745)"  d="M0 0L0 -0.040873803" stroke="#262626" stroke-width="0.0066343737" stroke-linecap="round" fill="none" />
                        <path transform="matrix(96 0 0 96 479.55707 341.79745)"  d="M0 0L0 -0.040873803" stroke="#262626" stroke-width="0.0066343737" stroke-linecap="round" fill="none" />
					</g>
				</g>
				<g>
				</g>
				<g clip-path="url(#2)" >
					<text transform="matrix(1 0 0 1 66.61142 359.99417)" x="0" y="2.3669999" style="fill:#262626;font-family:ABeeZee;" font-size="12">
30
					</text>
				</g>
				<g transform="matrix(1 0 0 1 0 0)">
					<g>
					</g>
				</g>
				<g>
				</g>
				<g clip-path="url(#3)" >
					<text transform="matrix(1 0 0 1 117.52875 359.99417)" x="0" y="2.3669999" style="fill:#262626;font-family:ABeeZee;" font-size="12">
25
					</text>
				</g>
				<g transform="matrix(1 0 0 1 0 0)">
					<g>
					</g>
				</g>
				<g>
				</g>
				<g clip-path="url(#4)" >
					<text transform="matrix(1 0 0 1 169.38898 359.99417)" x="0" y="2.3669999" style="fill:#262626;font-family:ABeeZee;" font-size="12">
20
					</text>
				</g>
				<g transform="matrix(1 0 0 1 0 0)">
					<g>
					</g>
				</g>
				<g>
				</g>
				<g clip-path="url(#5)" >
					<text transform="matrix(1 0 0 1 216.83618 359.99417)" x="0" y="2.3669999" style="fill:#262626;font-family:ABeeZee;" font-size="12">
15
					</text>
				</g>
				<g transform="matrix(1 0 0 1 0 0)">
					<g>
					</g>
				</g>
				<g>
				</g>
				<g clip-path="url(#6)" >
					<text transform="matrix(1 0 0 1 270.6599 359.99417)" x="0" y="2.3669999" style="fill:#262626;font-family:ABeeZee;" font-size="12">
10
					</text>
				</g>
				<g transform="matrix(1 0 0 1 0 0)">
					<g>
					</g>
				</g>
				<g>
				</g>
				<g clip-path="url(#7)" >
					<text transform="matrix(1 0 0 1 325.43024 359.99417)" x="0" y="2.3669999" style="fill:#262626;font-family:ABeeZee;" font-size="12">
5
					</text>
				</g>
				<g transform="matrix(1 0 0 1 0 0)">
					<g>
					</g>
				</g>
				<g>
				</g>
				<g clip-path="url(#8)" >
					<text transform="matrix(1 0 0 1 377.29053 359.99417)" x="0" y="2.3669999" style="fill:#262626;font-family:ABeeZee;" font-size="12">
0
					</text>
				</g>
				<g transform="matrix(1 0 0 1 0 0)">
					<g>
					</g>
				</g>
				<g>
				</g>
				<g clip-path="url(#9)" >
					<text transform="matrix(1 0 0 1 426.2383 359.99417)" x="0" y="2.3669999" style="fill:#262626;font-family:ABeeZee;" font-size="12">
-
					</text>
				</g>
				<g transform="matrix(1 0 0 1 0 0)">
					<g>
					</g>
				</g>
				<g>
				</g>
				<g clip-path="url(#10)" >
					<text transform="matrix(1 0 0 1 430.17728 359.99417)" x="0" y="2.3669999" style="fill:#262626;font-family:ABeeZee;" font-size="12">
5
					</text>
				</g>
				<g transform="matrix(1 0 0 1 0 0)">
					<g>
					</g>
				</g>
				<g>
				</g>
				<g clip-path="url(#11)" >
					<text transform="matrix(1 0 0 1 474.4161 359.99417)" x="0" y="2.3669999" style="fill:#262626;font-family:ABeeZee;" font-size="12">
-
					</text>
				</g>
				<g transform="matrix(1 0 0 1 0 0)">
					<g>
					</g>
				</g>
				<g>
				</g>
				<g clip-path="url(#12)" >
					<text transform="matrix(1 0 0 1 478.35507 359.99417)" x="0" y="2.3669999" style="fill:#262626;font-family:ABeeZee;" font-size="12">
10
					</text>
				</g>
				<g transform="matrix(1 0 0 1 0 0)">
					<g>
					</g>
				</g>
				<g>
				</g>
				<g clip-path="url(#13)" >
					<text transform="matrix(1 0 0 1 265.1455 378.19183)" x="0" y="2.7615" style="fill:#262626;font-family:ABeeZee;" font-size="14">
SNR
					</text>
				</g>
				<g transform="matrix(1 0 0 1 0 0)">
					<g>
                        <path transform="matrix(96 0 0 96 70.33267 341.79745)"  d="M0 0L0 -3.2509477" stroke="#262626" stroke-width="0.0066343737" stroke-linecap="round" fill="none" />
                        <path transform="matrix(96 0 0 96 70.33267 341.79745)"  d="M0 0L0.042971324 0" stroke="#262626" stroke-width="0.0066343737" stroke-linecap="round" fill="none" />
                        <path transform="matrix(96 0 0 96 70.33267 289.82022)"  d="M0 0L0.042971324 0" stroke="#262626" stroke-width="0.0066343737" stroke-linecap="round" fill="none" />
                        <path transform="matrix(96 0 0 96 70.33267 237.7861)"  d="M0 0L0.042971324 0" stroke="#262626" stroke-width="0.0066343737" stroke-linecap="round" fill="none" />
                        <path transform="matrix(96 0 0 96 70.33267 185.75195)"  d="M0 0L0.042971324 0" stroke="#262626" stroke-width="0.0066343737" stroke-linecap="round" fill="none" />
                        <path transform="matrix(96 0 0 96 70.33267 133.77472)"  d="M0 0L0.042971324 0" stroke="#262626" stroke-width="0.0066343737" stroke-linecap="round" fill="none" />
                        <path transform="matrix(96 0 0 96 70.33267 81.74059)"  d="M0 0L0.042971324 0" stroke="#262626" stroke-width="0.0066343737" stroke-linecap="round" fill="none" />
                        <path transform="matrix(96 0 0 96 70.33267 29.706505)"  d="M0 0L0.042971324 0" stroke="#262626" stroke-width="0.0066343737" stroke-linecap="round" fill="none" />
					</g>
				</g>
				<g>
				</g>
				<g clip-path="url(#14)" >
					<text transform="matrix(1 0 0 1 60.46066 347.25574)" x="0" y="2.3669999" style="fill:#262626;font-family:ABeeZee;" font-size="12">
0
					</text>
				</g>
				<g transform="matrix(1 0 0 1 0 0)">
					<g>
					</g>
				</g>
				<g>
				</g>
				<g clip-path="url(#15)" >
					<text transform="matrix(1 0 0 1 50.828373 295.3922)" x="0" y="2.3669999" style="fill:#262626;font-family:ABeeZee;" font-size="12">
0.2
					</text>
				</g>
				<g transform="matrix(1 0 0 1 0 0)">
					<g>
					</g>
				</g>
				<g>
				</g>
				<g clip-path="url(#16)" >
					<text transform="matrix(1 0 0 1 50.828373 243.5287)" x="0" y="2.3669999" style="fill:#262626;font-family:ABeeZee;" font-size="12">
0.4
					</text>
				</g>
				<g transform="matrix(1 0 0 1 0 0)">
					<g>
					</g>
				</g>
				<g>
				</g>
				<g clip-path="url(#17)" >
					<text transform="matrix(1 0 0 1 50.828373 191.66522)" x="0" y="2.3669999" style="fill:#262626;font-family:ABeeZee;" font-size="12">
0.6
					</text>
				</g>
				<g transform="matrix(1 0 0 1 0 0)">
					<g>
					</g>
				</g>
				<g>
				</g>
				<g clip-path="url(#18)" >
					<text transform="matrix(1 0 0 1 50.828373 138.8918)" x="0" y="2.3669999" style="fill:#262626;font-family:ABeeZee;" font-size="12">
0.8
					</text>
				</g>
				<g transform="matrix(1 0 0 1 0 0)">
					<g>
					</g>
				</g>
				<g>
				</g>
				<g clip-path="url(#19)" >
					<text transform="matrix(1 0 0 1 60.46066 87.028275)" x="0" y="2.3669999" style="fill:#262626;font-family:ABeeZee;" font-size="12">
1
					</text>
				</g>
				<g transform="matrix(1 0 0 1 0 0)">
					<g>
					</g>
				</g>
				<g>
				</g>
				<g clip-path="url(#20)" >
					<text transform="matrix(1 0 0 1 50.828373 35.16475)" x="0" y="2.3669999" style="fill:#262626;font-family:ABeeZee;" font-size="12">
1.2
					</text>
				</g>
				<g transform="matrix(1 0 0 1 0 0)">
					<g>
					</g>
				</g>
				<g>
				</g>
				<g clip-path="url(#21)" >
					<text transform="matrix(0 -1 1 0 40.15837 186.9805)" x="0" y="0" style="fill:#262626;font-family:ABeeZee;" font-size="14">
S
					</text>
				</g>
				<g transform="matrix(1 0 0 1 0 0)">
					<g>
					</g>
				</g>
				<g>
				</g>
				<g clip-path="url(#22)" >
					<text transform="matrix(1 0 0 1 269.94974 24.246105)" x="0" y="2.7615" style="fill:#000000;font-family:ABeeZee;" font-size="14">
FE
					</text>
				</g>
				<g transform="matrix(1 0 0 1 0 0)">
					<g>
                        <path transform="matrix(96 0 0 96 70.33267 340.94446)"  d="M0 0L0.10681441 -0.10129593L0.21362881 -0.2245097L0.31982934 -0.3921515L0.42664376 -0.55446196L0.5328443 -0.6871537L0.6396587 -0.9140329L0.7464731 -1.009405L0.85267365 -1.188302L0.95948803 -1.3612752L1.0656886 -1.4483541L1.172503 -1.7214384L1.2793174 -1.8085175L1.385518 -1.9619423L1.4923323 -2.1301765L1.5985328 -2.2296953L1.7053473 -2.3665335L1.8121617 -2.4311023L1.9183621 -2.5057414L2.0251765 -2.6177L2.1313772 -2.6171079L2.2381916 -2.7515767L2.345006 -2.7184036L2.4512064 -2.6798995L2.5580208 -2.7290664L2.6642215 -2.7497995L2.771036 -2.812591L2.8778503 -2.8226614L2.9840508 -2.7746792L3.0908651 -2.8232539L3.1970656 -2.7580926L3.3038802 -2.7948198L3.4106946 -2.785342L3.516895 -2.7746792L3.6237094 -2.8137758L3.72991 -2.8114064L3.8367243 -2.804298L3.943539 -2.8173301L4.0497394 -2.8374708L4.1565537 -2.790081L4.2627544 -2.8463564" stroke="#8134AF" stroke-width="0.016284373" stroke-linecap="round" fill="none" />
                        <path transform="matrix(96 0 0 96 65.79491 345.38016)"  d="M0.047268443 -0.07582386C 0.06445697 -0.07582386 0.07857612 -0.06279163 0.07857612 -0.046205163C 0.07857612 -0.029618694 0.06445697 -0.015994094 0.047268443 -0.015994094C 0.03007992 -0.015994094 0.01657465 -0.029618694 0.01657465 -0.046205163C 0.01657465 -0.06279163 0.03007992 -0.07582386 0.047268443 -0.07582386zM0.047268443 -0.09181795C 0.021485656 -0.09181795 7.806256E-18 -0.071084864 0 -0.046205163C -6.3425827E-18 -0.020733085 0.021485656 2.6020852E-18 0.047268443 0C 0.073665105 1.4636729E-18 0.09515076 -0.020733085 0.09515076 -0.046205163C 0.09515076 -0.071084864 0.073665105 -0.09181795 0.047268443 -0.09181795z" stroke="none" fill="#8134AF" fill-rule="nonzero" />
                        <path transform="matrix(96 0 0 96 76.04909 335.65573)"  d="M0.047268443 -0.07582386C 0.06445697 -0.07582386 0.07857612 -0.06279163 0.07857612 -0.046205163C 0.07857612 -0.029618694 0.06445697 -0.015994094 0.047268443 -0.015994094C 0.03007992 -0.015994094 0.015960773 -0.029618694 0.015960773 -0.046205163C 0.015960773 -0.06279163 0.03007992 -0.07582386 0.047268443 -0.07582386zM0.047268443 -0.09181795C 0.02087178 -0.09181795 7.806256E-18 -0.07167724 0 -0.046205163C -3.4152368E-18 -0.020733085 0.02087178 2.6020852E-18 0.047268443 0C 0.073665105 0 0.094536886 -0.020733085 0.094536886 -0.046205163C 0.094536886 -0.07167724 0.073665105 -0.09181795 0.047268443 -0.09181795z" stroke="none" fill="#8134AF" fill-rule="nonzero" />
                        <path transform="matrix(96 0 0 96 86.24434 323.77036)"  d="M0.047882322 -0.07582386C 0.065070845 -0.07582386 0.07857612 -0.062199257 0.07857612 -0.04561279C 0.07857612 -0.02902632 0.065070845 -0.015994094 0.047882322 -0.015994094C 0.030693796 -0.015994094 0.01657465 -0.02902632 0.01657465 -0.04561279C 0.01657465 -0.062199257 0.030693796 -0.07582386 0.047882322 -0.07582386zM0.047882322 -0.09181795C 0.021485656 -0.09181795 5.2041704E-18 -0.071084864 0 -0.04561279C -5.3668008E-18 -0.020733085 0.021485656 5.2041704E-18 0.047882322 0C 0.073665105 3.4152368E-18 0.09515076 -0.020733085 0.09515076 -0.04561279C 0.09515076 -0.071084864 0.073665105 -0.09181795 0.047882322 -0.09181795z" stroke="none" fill="#8134AF" fill-rule="nonzero" />
                        <path transform="matrix(96 0 0 96 96.49852 307.67673)"  d="M0.047268443 -0.07582386C 0.06445697 -0.07582386 0.07857612 -0.062199257 0.07857612 -0.04561279C 0.07857612 -0.02902632 0.06445697 -0.015994094 0.047268443 -0.015994094C 0.03007992 -0.015994094 0.01657465 -0.02902632 0.01657465 -0.04561279C 0.01657465 -0.062199257 0.03007992 -0.07582386 0.047268443 -0.07582386zM0.047268443 -0.09181795C 0.021485656 -0.09181795 7.806256E-18 -0.071084864 0 -0.04561279C 3.4152368E-18 -0.020140711 0.021485656 2.6020852E-18 0.047268443 0C 0.073665105 -4.87891E-19 0.09515076 -0.020140711 0.09515076 -0.04561279C 0.09515076 -0.071084864 0.073665105 -0.09181795 0.047268443 -0.09181795z" stroke="none" fill="#8134AF" fill-rule="nonzero" />
                        <path transform="matrix(96 0 0 96 106.7527 292.09494)"  d="M0.047268443 -0.07582386C 0.06445697 -0.07582386 0.07857612 -0.062199257 0.07857612 -0.04561279C 0.07857612 -0.02902632 0.06445697 -0.015401721 0.047268443 -0.015401721C 0.03007992 -0.015401721 0.015960773 -0.02902632 0.015960773 -0.04561279C 0.015960773 -0.062199257 0.03007992 -0.07582386 0.047268443 -0.07582386zM0.047268443 -0.09122558C 0.02087178 -0.09122558 7.806256E-18 -0.071084864 0 -0.04561279C -4.391019E-18 -0.020140711 0.02087178 0 0.047268443 0C 0.073665105 -4.87891E-19 0.094536886 -0.020140711 0.094536886 -0.04561279C 0.094536886 -0.071084864 0.073665105 -0.09122558 0.047268443 -0.09122558z" stroke="none" fill="#8134AF" fill-rule="nonzero" />
                        <path transform="matrix(96 0 0 96 116.94797 279.4134)"  d="M0.047268443 -0.07582386C 0.06445697 -0.07582386 0.07857612 -0.06279163 0.07857612 -0.046205163C 0.07857612 -0.029618694 0.06445697 -0.015994094 0.047268443 -0.015994094C 0.03007992 -0.015994094 0.01657465 -0.029618694 0.01657465 -0.046205163C 0.01657465 -0.06279163 0.03007992 -0.07582386 0.047268443 -0.07582386zM0.047268443 -0.09181795C 0.021485656 -0.09181795 5.2041704E-18 -0.071084864 0 -0.046205163C 1.951564E-18 -0.020733085 0.021485656 2.6020852E-18 0.047268443 0C 0.073665105 1.4636729E-18 0.09515076 -0.020733085 0.09515076 -0.046205163C 0.09515076 -0.071084864 0.073665105 -0.09181795 0.047268443 -0.09181795z" stroke="none" fill="#8134AF" fill-rule="nonzero" />
                        <path transform="matrix(96 0 0 96 127.20215 257.57614)"  d="M0.047268443 -0.07582386C 0.06445697 -0.07582386 0.07857612 -0.062199257 0.07857612 -0.04561279C 0.07857612 -0.02902632 0.06445697 -0.015401721 0.047268443 -0.015401721C 0.03007992 -0.015401721 0.015960773 -0.02902632 0.015960773 -0.04561279C 0.015960773 -0.062199257 0.03007992 -0.07582386 0.047268443 -0.07582386zM0.047268443 -0.09122558C 0.02087178 -0.09122558 7.806256E-18 -0.071084864 0 -0.04561279C 3.4152368E-18 -0.020140711 0.02087178 0 0.047268443 0C 0.073665105 -4.87891E-19 0.094536886 -0.020140711 0.094536886 -0.04561279C 0.094536886 -0.071084864 0.073665105 -0.09122558 0.047268443 -0.09122558z" stroke="none" fill="#8134AF" fill-rule="nonzero" />
                        <path transform="matrix(96 0 0 96 137.39738 248.47726)"  d="M0.047882322 -0.07582386C 0.065070845 -0.07582386 0.07857612 -0.06279163 0.07857612 -0.046205163C 0.07857612 -0.029618694 0.065070845 -0.015994094 0.047882322 -0.015994094C 0.030693796 -0.015994094 0.01657465 -0.029618694 0.01657465 -0.046205163C 0.01657465 -0.06279163 0.030693796 -0.07582386 0.047882322 -0.07582386zM0.047882322 -0.09181795C 0.021485656 -0.09181795 1.0408341E-17 -0.071084864 0 -0.046205163C -1.4636729E-18 -0.020733085 0.021485656 2.6020852E-18 0.047882322 0C 0.073665105 0 0.09515076 -0.020733085 0.09515076 -0.046205163C 0.09515076 -0.071084864 0.073665105 -0.09181795 0.047882322 -0.09181795z" stroke="none" fill="#8134AF" fill-rule="nonzero" />
                        <path transform="matrix(96 0 0 96 147.65157 231.30316)"  d="M0.047268443 -0.07582386C 0.06445697 -0.07582386 0.07857612 -0.06279163 0.07857612 -0.046205163C 0.07857612 -0.029618694 0.06445697 -0.015994094 0.047268443 -0.015994094C 0.03007992 -0.015994094 0.01657465 -0.029618694 0.01657465 -0.046205163C 0.01657465 -0.06279163 0.03007992 -0.07582386 0.047268443 -0.07582386zM0.047268443 -0.09181795C 0.021485656 -0.09181795 7.806256E-18 -0.071084864 0 -0.046205163C 3.4152368E-18 -0.020733085 0.021485656 2.6020852E-18 0.047268443 0C 0.073665105 0 0.09515076 -0.020733085 0.09515076 -0.046205163C 0.09515076 -0.071084864 0.073665105 -0.09181795 0.047268443 -0.09181795z" stroke="none" fill="#8134AF" fill-rule="nonzero" />
                        <path transform="matrix(96 0 0 96 157.90575 214.64087)"  d="M0.047268443 -0.07582386C 0.06445697 -0.07582386 0.07857612 -0.062199257 0.07857612 -0.04561279C 0.07857612 -0.02902632 0.06445697 -0.015401721 0.047268443 -0.015401721C 0.03007992 -0.015401721 0.015960773 -0.02902632 0.015960773 -0.04561279C 0.015960773 -0.062199257 0.03007992 -0.07582386 0.047268443 -0.07582386zM0.047268443 -0.09122558C 0.02087178 -0.09122558 7.806256E-18 -0.071084864 0 -0.04561279C 3.4152368E-18 -0.020140711 0.02087178 2.6020852E-18 0.047268443 0C 0.073665105 -4.87891E-19 0.094536886 -0.020140711 0.094536886 -0.04561279C 0.094536886 -0.071084864 0.073665105 -0.09122558 0.047268443 -0.09122558z" stroke="none" fill="#8134AF" fill-rule="nonzero" />
                        <path transform="matrix(96 0 0 96 168.10101 206.28128)"  d="M0.047268443 -0.07582386C 0.06445697 -0.07582386 0.07857612 -0.062199257 0.07857612 -0.04561279C 0.07857612 -0.02902632 0.06445697 -0.015401721 0.047268443 -0.015401721C 0.03007992 -0.015401721 0.01657465 -0.02902632 0.01657465 -0.04561279C 0.01657465 -0.062199257 0.03007992 -0.07582386 0.047268443 -0.07582386zM0.047268443 -0.09122558C 0.021485656 -0.09122558 7.806256E-18 -0.071084864 0 -0.04561279C 3.4152368E-18 -0.020140711 0.021485656 0 0.047268443 0C 0.073665105 -4.87891E-19 0.09515076 -0.020140711 0.09515076 -0.04561279C 0.09515076 -0.071084864 0.073665105 -0.09122558 0.047268443 -0.09122558z" stroke="none" fill="#8134AF" fill-rule="nonzero" />
                        <path transform="matrix(96 0 0 96 178.3552 180.12207)"  d="M0.047268443 -0.07582386C 0.06445697 -0.07582386 0.07857612 -0.06279163 0.07857612 -0.046205163C 0.07857612 -0.029618694 0.06445697 -0.015994094 0.047268443 -0.015994094C 0.03007992 -0.015994094 0.015960773 -0.029618694 0.015960773 -0.046205163C 0.015960773 -0.06279163 0.03007992 -0.07582386 0.047268443 -0.07582386zM0.047268443 -0.09181795C 0.02087178 -0.09181795 7.806256E-18 -0.071084864 0 -0.046205163C -4.391019E-18 -0.020733085 0.02087178 2.6020852E-18 0.047268443 0C 0.073665105 0 0.094536886 -0.020733085 0.094536886 -0.046205163C 0.094536886 -0.071084864 0.073665105 -0.09181795 0.047268443 -0.09181795z" stroke="none" fill="#8134AF" fill-rule="nonzero" />
                        <path transform="matrix(96 0 0 96 188.55045 171.76248)"  d="M0.047882322 -0.07582386C 0.065070845 -0.07582386 0.07857612 -0.06279163 0.07857612 -0.046205163C 0.07857612 -0.029618694 0.065070845 -0.015994094 0.047882322 -0.015994094C 0.030693796 -0.015994094 0.01657465 -0.029618694 0.01657465 -0.046205163C 0.01657465 -0.06279163 0.030693796 -0.07582386 0.047882322 -0.07582386zM0.047882322 -0.09181795C 0.021485656 -0.09181795 7.806256E-18 -0.071084864 0 -0.046205163C -6.3425827E-18 -0.020733085 0.021485656 2.6020852E-18 0.047882322 0C 0.073665105 1.4636729E-18 0.09515076 -0.020733085 0.09515076 -0.046205163C 0.09515076 -0.071084864 0.073665105 -0.09181795 0.047882322 -0.09181795z" stroke="none" fill="#8134AF" fill-rule="nonzero" />
                        <path transform="matrix(96 0 0 96 198.80463 156.97684)"  d="M0.047268443 -0.07582386C 0.06445697 -0.07582386 0.07857612 -0.062199257 0.07857612 -0.04561279C 0.07857612 -0.02902632 0.06445697 -0.015994094 0.047268443 -0.015994094C 0.03007992 -0.015994094 0.01657465 -0.02902632 0.01657465 -0.04561279C 0.01657465 -0.062199257 0.03007992 -0.07582386 0.047268443 -0.07582386zM0.047268443 -0.09181795C 0.021485656 -0.09181795 5.2041704E-18 -0.071084864 0 -0.04561279C 3.903128E-18 -0.020733085 0.021485656 5.2041704E-18 0.047268443 0C 0.073665105 3.4152368E-18 0.09515076 -0.020733085 0.09515076 -0.04561279C 0.09515076 -0.071084864 0.073665105 -0.09181795 0.047268443 -0.09181795z" stroke="none" fill="#8134AF" fill-rule="nonzero" />
                        <path transform="matrix(96 0 0 96 209.0588 140.88321)"  d="M0.047268443 -0.07582386C 0.06445697 -0.07582386 0.07857612 -0.06279163 0.07857612 -0.046205163C 0.07857612 -0.029618694 0.06445697 -0.015994094 0.047268443 -0.015994094C 0.03007992 -0.015994094 0.015960773 -0.029618694 0.015960773 -0.046205163C 0.015960773 -0.06279163 0.03007992 -0.07582386 0.047268443 -0.07582386zM0.047268443 -0.09181795C 0.02087178 -0.09181795 1.0408341E-17 -0.071084864 0 -0.046205163C 2.4394549E-18 -0.020733085 0.02087178 2.6020852E-18 0.047268443 0C 0.073665105 0 0.094536886 -0.020733085 0.094536886 -0.046205163C 0.094536886 -0.071084864 0.073665105 -0.09181795 0.047268443 -0.09181795z" stroke="none" fill="#8134AF" fill-rule="nonzero" />
                        <path transform="matrix(96 0 0 96 219.25404 131.27255)"  d="M0.047268443 -0.07582386C 0.06445697 -0.07582386 0.07857612 -0.062199257 0.07857612 -0.04561279C 0.07857612 -0.02902632 0.06445697 -0.015401721 0.047268443 -0.015401721C 0.03007992 -0.015401721 0.01657465 -0.02902632 0.01657465 -0.04561279C 0.01657465 -0.062199257 0.03007992 -0.07582386 0.047268443 -0.07582386zM0.047268443 -0.09122558C 0.021485656 -0.09122558 5.2041704E-18 -0.071084864 0 -0.04561279C 0 -0.020140711 0.021485656 2.6020852E-18 0.047268443 0C 0.073665105 1.4636729E-18 0.09515076 -0.020140711 0.09515076 -0.04561279C 0.09515076 -0.071084864 0.073665105 -0.09122558 0.047268443 -0.09122558z" stroke="none" fill="#8134AF" fill-rule="nonzero" />
                        <path transform="matrix(96 0 0 96 229.50826 118.136055)"  d="M0.047268443 -0.07582386C 0.06445697 -0.07582386 0.07857612 -0.062199257 0.07857612 -0.04561279C 0.07857612 -0.02902632 0.06445697 -0.015401721 0.047268443 -0.015401721C 0.03007992 -0.015401721 0.015960773 -0.02902632 0.015960773 -0.04561279C 0.015960773 -0.062199257 0.03007992 -0.07582386 0.047268443 -0.07582386zM0.047268443 -0.09122558C 0.02087178 -0.09122558 1.0408341E-17 -0.071084864 0 -0.04561279C -3.4152368E-18 -0.020140711 0.02087178 2.6020852E-18 0.047268443 0C 0.073665105 1.4636729E-18 0.094536886 -0.020140711 0.094536886 -0.04561279C 0.094536886 -0.071084864 0.073665105 -0.09122558 0.047268443 -0.09122558z" stroke="none" fill="#8134AF" fill-rule="nonzero" />
                        <path transform="matrix(96 0 0 96 239.70348 111.93743)"  d="M0.047882322 -0.07582386C 0.065070845 -0.07582386 0.07857612 -0.062199257 0.07857612 -0.04561279C 0.07857612 -0.02902632 0.065070845 -0.015401721 0.047882322 -0.015401721C 0.030693796 -0.015401721 0.01657465 -0.02902632 0.01657465 -0.04561279C 0.01657465 -0.062199257 0.030693796 -0.07582386 0.047882322 -0.07582386zM0.047882322 -0.09122558C 0.021485656 -0.09122558 2.6020852E-18 -0.071084864 0 -0.04561279C -4.391019E-18 -0.020140711 0.021485656 2.6020852E-18 0.047882322 0C 0.073665105 1.4636729E-18 0.09515076 -0.020140711 0.09515076 -0.04561279C 0.09515076 -0.071084864 0.073665105 -0.09122558 0.047882322 -0.09122558z" stroke="none" fill="#8134AF" fill-rule="nonzero" />
                        <path transform="matrix(96 0 0 96 249.95766 104.7721)"  d="M0.047268443 -0.07582386C 0.06445697 -0.07582386 0.07857612 -0.062199257 0.07857612 -0.04561279C 0.07857612 -0.02902632 0.06445697 -0.015994094 0.047268443 -0.015994094C 0.03007992 -0.015994094 0.01657465 -0.02902632 0.01657465 -0.04561279C 0.01657465 -0.062199257 0.03007992 -0.07582386 0.047268443 -0.07582386zM0.047268443 -0.09181795C 0.021485656 -0.09181795 5.2041704E-18 -0.071084864 0 -0.04561279C 0 -0.020733085 0.021485656 2.6020852E-18 0.047268443 0C 0.073665105 1.4636729E-18 0.09515076 -0.020733085 0.09515076 -0.04561279C 0.09515076 -0.071084864 0.073665105 -0.09181795 0.047268443 -0.09181795z" stroke="none" fill="#8134AF" fill-rule="nonzero" />
                        <path transform="matrix(96 0 0 96 260.21188 94.08094)"  d="M0.047268443 -0.07582386C 0.06445697 -0.07582386 0.07857612 -0.06279163 0.07857612 -0.046205163C 0.07857612 -0.029618694 0.06445697 -0.015994094 0.047268443 -0.015994094C 0.03007992 -0.015994094 0.015960773 -0.029618694 0.015960773 -0.046205163C 0.015960773 -0.06279163 0.03007992 -0.07582386 0.047268443 -0.07582386zM0.047268443 -0.09181795C 0.02087178 -0.09181795 1.0408341E-17 -0.071084864 0 -0.046205163C -3.4152368E-18 -0.020733085 0.02087178 2.6020852E-18 0.047268443 0C 0.073665105 0 0.094536886 -0.020733085 0.094536886 -0.046205163C 0.094536886 -0.071084864 0.073665105 -0.09181795 0.047268443 -0.09181795z" stroke="none" fill="#8134AF" fill-rule="nonzero" />
                        <path transform="matrix(96 0 0 96 270.4071 94.08094)"  d="M0.047268443 -0.07582386C 0.06445697 -0.07582386 0.07857612 -0.062199257 0.07857612 -0.04561279C 0.07857612 -0.02902632 0.06445697 -0.015401721 0.047268443 -0.015401721C 0.03007992 -0.015401721 0.01657465 -0.02902632 0.01657465 -0.04561279C 0.01657465 -0.062199257 0.03007992 -0.07582386 0.047268443 -0.07582386zM0.047268443 -0.09122558C 0.021485656 -0.09122558 0 -0.071084864 0 -0.04561279C 3.903128E-18 -0.020140711 0.021485656 2.6020852E-18 0.047268443 0C 0.073665105 -4.87891E-19 0.09515076 -0.020140711 0.09515076 -0.04561279C 0.09515076 -0.071084864 0.073665105 -0.09122558 0.047268443 -0.09122558z" stroke="none" fill="#8134AF" fill-rule="nonzero" />
                        <path transform="matrix(96 0 0 96 280.6613 81.17191)"  d="M0.047268443 -0.07582386C 0.06445697 -0.07582386 0.07857612 -0.062199257 0.07857612 -0.04561279C 0.07857612 -0.02902632 0.06445697 -0.015994094 0.047268443 -0.015994094C 0.03007992 -0.015994094 0.015960773 -0.02902632 0.015960773 -0.04561279C 0.015960773 -0.062199257 0.03007992 -0.07582386 0.047268443 -0.07582386zM0.047268443 -0.09181795C 0.02087178 -0.09181795 1.0408341E-17 -0.071084864 0 -0.04561279C -3.4152368E-18 -0.020733085 0.02087178 5.2041704E-18 0.047268443 0C 0.073665105 3.4152368E-18 0.094536886 -0.020733085 0.094536886 -0.04561279C 0.094536886 -0.071084864 0.073665105 -0.09181795 0.047268443 -0.09181795z" stroke="none" fill="#8134AF" fill-rule="nonzero" />
                        <path transform="matrix(96 0 0 96 290.85654 84.35653)"  d="M0.047882322 -0.07582386C 0.065070845 -0.07582386 0.07857612 -0.062199257 0.07857612 -0.04561279C 0.07857612 -0.02902632 0.065070845 -0.015401721 0.047882322 -0.015401721C 0.030693796 -0.015401721 0.01657465 -0.02902632 0.01657465 -0.04561279C 0.01657465 -0.062199257 0.030693796 -0.07582386 0.047882322 -0.07582386zM0.047882322 -0.09122558C 0.021485656 -0.09122558 5.2041704E-18 -0.071084864 0 -0.04561279C 4.87891E-19 -0.020140711 0.021485656 2.6020852E-18 0.047882322 0C 0.073665105 -4.87891E-19 0.09515076 -0.020140711 0.09515076 -0.04561279C 0.09515076 -0.071084864 0.073665105 -0.09122558 0.047882322 -0.09122558z" stroke="none" fill="#8134AF" fill-rule="nonzero" />
                        <path transform="matrix(96 0 0 96 301.11072 88.052925)"  d="M0.047268443 -0.07582386C 0.06445697 -0.07582386 0.07857612 -0.062199257 0.07857612 -0.04561279C 0.07857612 -0.02902632 0.06445697 -0.015994094 0.047268443 -0.015994094C 0.03007992 -0.015994094 0.01657465 -0.02902632 0.01657465 -0.04561279C 0.01657465 -0.062199257 0.03007992 -0.07582386 0.047268443 -0.07582386zM0.047268443 -0.09181795C 0.021485656 -0.09181795 0 -0.071084864 0 -0.04561279C 3.903128E-18 -0.020140711 0.021485656 0 0.047268443 0C 0.073665105 -4.87891E-19 0.09515076 -0.020140711 0.09515076 -0.04561279C 0.09515076 -0.071084864 0.073665105 -0.09181795 0.047268443 -0.09181795z" stroke="none" fill="#8134AF" fill-rule="nonzero" />
                        <path transform="matrix(96 0 0 96 311.3649 83.38978)"  d="M0.047268443 -0.07582386C 0.06445697 -0.07582386 0.07857612 -0.06279163 0.07857612 -0.046205163C 0.07857612 -0.029618694 0.06445697 -0.015994094 0.047268443 -0.015994094C 0.03007992 -0.015994094 0.015960773 -0.029618694 0.015960773 -0.046205163C 0.015960773 -0.06279163 0.03007992 -0.07582386 0.047268443 -0.07582386zM0.047268443 -0.09181795C 0.02087178 -0.09181795 5.2041704E-18 -0.071084864 0 -0.046205163C 9.7578196E-18 -0.020733085 0.02087178 2.6020852E-18 0.047268443 0C 0.073665105 0 0.094536886 -0.020733085 0.094536886 -0.046205163C 0.094536886 -0.071084864 0.073665105 -0.09181795 0.047268443 -0.09181795z" stroke="none" fill="#8134AF" fill-rule="nonzero" />
                        <path transform="matrix(96 0 0 96 321.56018 81.34252)"  d="M0.047268443 -0.07582386C 0.06445697 -0.07582386 0.07857612 -0.062199257 0.07857612 -0.04561279C 0.07857612 -0.02902632 0.06445697 -0.015994094 0.047268443 -0.015994094C 0.03007992 -0.015994094 0.01657465 -0.02902632 0.01657465 -0.04561279C 0.01657465 -0.062199257 0.03007992 -0.07582386 0.047268443 -0.07582386zM0.047268443 -0.09181795C 0.021485656 -0.09181795 0 -0.071084864 0 -0.04561279C 3.903128E-18 -0.020140711 0.021485656 0 0.047268443 0C 0.073665105 -4.87891E-19 0.09515076 -0.020140711 0.09515076 -0.04561279C 0.09515076 -0.071084864 0.073665105 -0.09181795 0.047268443 -0.09181795z" stroke="none" fill="#8134AF" fill-rule="nonzero" />
                        <path transform="matrix(96 0 0 96 331.81436 75.31455)"  d="M0.047268443 -0.07582386C 0.06445697 -0.07582386 0.07857612 -0.062199257 0.07857612 -0.04561279C 0.07857612 -0.02902632 0.06445697 -0.015401721 0.047268443 -0.015401721C 0.03007992 -0.015401721 0.015960773 -0.02902632 0.015960773 -0.04561279C 0.015960773 -0.062199257 0.03007992 -0.07582386 0.047268443 -0.07582386zM0.047268443 -0.09122558C 0.02087178 -0.09122558 1.0408341E-17 -0.071084864 0 -0.04561279C 6.3425827E-18 -0.020140711 0.02087178 0 0.047268443 0C 0.073665105 -4.87891E-19 0.094536886 -0.020140711 0.094536886 -0.04561279C 0.094536886 -0.071084864 0.073665105 -0.09122558 0.047268443 -0.09122558z" stroke="none" fill="#8134AF" fill-rule="nonzero" />
                        <path transform="matrix(96 0 0 96 342.00958 74.347755)"  d="M0.047882322 -0.07582386C 0.065070845 -0.07582386 0.07857612 -0.062199257 0.07857612 -0.04561279C 0.07857612 -0.02902632 0.065070845 -0.015401721 0.047882322 -0.015401721C 0.030693796 -0.015401721 0.01657465 -0.02902632 0.01657465 -0.04561279C 0.01657465 -0.062199257 0.030693796 -0.07582386 0.047882322 -0.07582386zM0.047882322 -0.09122558C 0.021485656 -0.09122558 7.806256E-18 -0.071084864 0 -0.04561279C 5.3668008E-18 -0.020140711 0.021485656 5.2041704E-18 0.047882322 0C 0.073665105 1.4636729E-18 0.09515076 -0.020140711 0.09515076 -0.04561279C 0.09515076 -0.071084864 0.073665105 -0.09122558 0.047882322 -0.09122558z" stroke="none" fill="#8134AF" fill-rule="nonzero" />
                        <path transform="matrix(96 0 0 96 352.26376 78.954094)"  d="M0.047268443 -0.07582386C 0.06445697 -0.07582386 0.07857612 -0.062199257 0.07857612 -0.04561279C 0.07857612 -0.02902632 0.06445697 -0.015994094 0.047268443 -0.015994094C 0.03007992 -0.015994094 0.01657465 -0.02902632 0.01657465 -0.04561279C 0.01657465 -0.062199257 0.03007992 -0.07582386 0.047268443 -0.07582386zM0.047268443 -0.09181795C 0.021485656 -0.09181795 0 -0.071084864 0 -0.04561279C 3.903128E-18 -0.020733085 0.021485656 2.6020852E-18 0.047268443 0C 0.073665105 1.4636729E-18 0.09515076 -0.020733085 0.09515076 -0.04561279C 0.09515076 -0.071084864 0.073665105 -0.09181795 0.047268443 -0.09181795z" stroke="none" fill="#8134AF" fill-rule="nonzero" />
                        <path transform="matrix(96 0 0 96 362.51794 74.347755)"  d="M0.047268443 -0.07582386C 0.06445697 -0.07582386 0.07857612 -0.06279163 0.07857612 -0.046205163C 0.07857612 -0.029618694 0.06445697 -0.015994094 0.047268443 -0.015994094C 0.03007992 -0.015994094 0.015960773 -0.029618694 0.015960773 -0.046205163C 0.015960773 -0.06279163 0.03007992 -0.07582386 0.047268443 -0.07582386zM0.047268443 -0.09181795C 0.02087178 -0.09181795 1.0408341E-17 -0.07167724 0 -0.046205163C 6.3425827E-18 -0.020733085 0.02087178 2.6020852E-18 0.047268443 0C 0.073665105 0 0.094536886 -0.020733085 0.094536886 -0.046205163C 0.094536886 -0.07167724 0.073665105 -0.09181795 0.047268443 -0.09181795z" stroke="none" fill="#8134AF" fill-rule="nonzero" />
                        <path transform="matrix(96 0 0 96 372.7132 80.54638)"  d="M0.047268443 -0.07582386C 0.06445697 -0.07582386 0.07857612 -0.062199257 0.07857612 -0.04561279C 0.07857612 -0.02902632 0.06445697 -0.015401721 0.047268443 -0.015401721C 0.03007992 -0.015401721 0.01657465 -0.02902632 0.01657465 -0.04561279C 0.01657465 -0.062199257 0.03007992 -0.07582386 0.047268443 -0.07582386zM0.047268443 -0.09122558C 0.021485656 -0.09122558 5.2041704E-18 -0.071084864 0 -0.04561279C 3.903128E-18 -0.020140711 0.021485656 0 0.047268443 0C 0.073665105 -4.87891E-19 0.09515076 -0.020140711 0.09515076 -0.04561279C 0.09515076 -0.071084864 0.073665105 -0.09122558 0.047268443 -0.09122558z" stroke="none" fill="#8134AF" fill-rule="nonzero" />
                        <path transform="matrix(96 0 0 96 382.96738 77.077446)"  d="M0.047268443 -0.07582386C 0.06445697 -0.07582386 0.07857612 -0.06279163 0.07857612 -0.046205163C 0.07857612 -0.029618694 0.06445697 -0.015994094 0.047268443 -0.015994094C 0.03007992 -0.015994094 0.015960773 -0.029618694 0.015960773 -0.046205163C 0.015960773 -0.06279163 0.03007992 -0.07582386 0.047268443 -0.07582386zM0.047268443 -0.09181795C 0.02087178 -0.09181795 1.0408341E-17 -0.07167724 0 -0.046205163C 2.4394549E-18 -0.020733085 0.02087178 2.6020852E-18 0.047268443 0C 0.073665105 0 0.094536886 -0.020733085 0.094536886 -0.046205163C 0.094536886 -0.07167724 0.073665105 -0.09181795 0.047268443 -0.09181795z" stroke="none" fill="#8134AF" fill-rule="nonzero" />
                        <path transform="matrix(96 0 0 96 393.16266 77.93044)"  d="M0.047882322 -0.07582386C 0.065070845 -0.07582386 0.07857612 -0.062199257 0.07857612 -0.04561279C 0.07857612 -0.02902632 0.065070845 -0.015994094 0.047882322 -0.015994094C 0.030693796 -0.015994094 0.01657465 -0.02902632 0.01657465 -0.04561279C 0.01657465 -0.062199257 0.030693796 -0.07582386 0.047882322 -0.07582386zM0.047882322 -0.09181795C 0.021485656 -0.09181795 2.6020852E-18 -0.071084864 0 -0.04561279C -4.391019E-18 -0.020733085 0.021485656 5.2041704E-18 0.047882322 0C 0.073665105 3.4152368E-18 0.09515076 -0.020733085 0.09515076 -0.04561279C 0.09515076 -0.071084864 0.073665105 -0.09181795 0.047882322 -0.09181795z" stroke="none" fill="#8134AF" fill-rule="nonzero" />
                        <path transform="matrix(96 0 0 96 403.41684 78.954094)"  d="M0.047268443 -0.07582386C 0.06445697 -0.07582386 0.07857612 -0.062199257 0.07857612 -0.04561279C 0.07857612 -0.02902632 0.06445697 -0.015994094 0.047268443 -0.015994094C 0.03007992 -0.015994094 0.01657465 -0.02902632 0.01657465 -0.04561279C 0.01657465 -0.062199257 0.03007992 -0.07582386 0.047268443 -0.07582386zM0.047268443 -0.09181795C 0.021485656 -0.09181795 5.2041704E-18 -0.071084864 0 -0.04561279C 0 -0.020733085 0.021485656 2.6020852E-18 0.047268443 0C 0.073665105 1.4636729E-18 0.09515076 -0.020733085 0.09515076 -0.04561279C 0.09515076 -0.071084864 0.073665105 -0.09181795 0.047268443 -0.09181795z" stroke="none" fill="#8134AF" fill-rule="nonzero" />
                        <path transform="matrix(96 0 0 96 413.67102 75.2008)"  d="M0.047268443 -0.07582386C 0.06445697 -0.07582386 0.07857612 -0.062199257 0.07857612 -0.04561279C 0.07857612 -0.02902632 0.06445697 -0.015401721 0.047268443 -0.015401721C 0.03007992 -0.015401721 0.015960773 -0.02902632 0.015960773 -0.04561279C 0.015960773 -0.062199257 0.03007992 -0.07582386 0.047268443 -0.07582386zM0.047268443 -0.09122558C 0.02087178 -0.09122558 5.2041704E-18 -0.071084864 0 -0.04561279C 1.951564E-18 -0.020140711 0.02087178 2.6020852E-18 0.047268443 0C 0.073665105 -4.87891E-19 0.094536886 -0.020140711 0.094536886 -0.04561279C 0.094536886 -0.071084864 0.073665105 -0.09122558 0.047268443 -0.09122558z" stroke="none" fill="#8134AF" fill-rule="nonzero" />
                        <path transform="matrix(96 0 0 96 423.86627 75.42826)"  d="M0.047268443 -0.07582386C 0.06445697 -0.07582386 0.07857612 -0.062199257 0.07857612 -0.04561279C 0.07857612 -0.02902632 0.06445697 -0.015401721 0.047268443 -0.015401721C 0.03007992 -0.015401721 0.01657465 -0.02902632 0.01657465 -0.04561279C 0.01657465 -0.062199257 0.03007992 -0.07582386 0.047268443 -0.07582386zM0.047268443 -0.09122558C 0.021485656 -0.09122558 5.2041704E-18 -0.071084864 0 -0.04561279C 4.87891E-19 -0.020140711 0.021485656 0 0.047268443 0C 0.073665105 -4.87891E-19 0.09515076 -0.020140711 0.09515076 -0.04561279C 0.09515076 -0.071084864 0.073665105 -0.09122558 0.047268443 -0.09122558z" stroke="none" fill="#8134AF" fill-rule="nonzero" />
                        <path transform="matrix(96 0 0 96 434.12045 76.110695)"  d="M0.047268443 -0.07582386C 0.06445697 -0.07582386 0.07857612 -0.062199257 0.07857612 -0.04561279C 0.07857612 -0.029618694 0.06445697 -0.015994094 0.047268443 -0.015994094C 0.03007992 -0.015994094 0.015960773 -0.029618694 0.015960773 -0.04561279C 0.015960773 -0.062199257 0.03007992 -0.07582386 0.047268443 -0.07582386zM0.047268443 -0.09181795C 0.02087178 -0.09181795 2.6020852E-18 -0.071084864 0 -0.04561279C -1.951564E-18 -0.020733085 0.02087178 5.2041704E-18 0.047268443 0C 0.073665105 3.4152368E-18 0.094536886 -0.020733085 0.094536886 -0.04561279C 0.094536886 -0.071084864 0.073665105 -0.09181795 0.047268443 -0.09181795z" stroke="none" fill="#8134AF" fill-rule="nonzero" />
                        <path transform="matrix(96 0 0 96 444.31567 74.85958)"  d="M0.047882322 -0.07582386C 0.065070845 -0.07582386 0.07857612 -0.062199257 0.07857612 -0.04561279C 0.07857612 -0.02902632 0.065070845 -0.015401721 0.047882322 -0.015401721C 0.030693796 -0.015401721 0.01657465 -0.02902632 0.01657465 -0.04561279C 0.01657465 -0.062199257 0.030693796 -0.07582386 0.047882322 -0.07582386zM0.047882322 -0.09122558C 0.021485656 -0.09122558 2.6020852E-18 -0.071084864 0 -0.04561279C -4.391019E-18 -0.020140711 0.021485656 2.6020852E-18 0.047882322 0C 0.073665105 -4.87891E-19 0.09515076 -0.020140711 0.09515076 -0.04561279C 0.09515076 -0.071084864 0.073665105 -0.09122558 0.047882322 -0.09122558z" stroke="none" fill="#8134AF" fill-rule="nonzero" />
                        <path transform="matrix(96 0 0 96 454.56985 72.98293)"  d="M0.047268443 -0.07582386C 0.06445697 -0.07582386 0.07857612 -0.06279163 0.07857612 -0.046205163C 0.07857612 -0.029618694 0.06445697 -0.015994094 0.047268443 -0.015994094C 0.03007992 -0.015994094 0.01657465 -0.029618694 0.01657465 -0.046205163C 0.01657465 -0.06279163 0.03007992 -0.07582386 0.047268443 -0.07582386zM0.047268443 -0.09181795C 0.021485656 -0.09181795 5.2041704E-18 -0.071084864 0 -0.046205163C 0 -0.020733085 0.021485656 2.6020852E-18 0.047268443 0C 0.073665105 0 0.09515076 -0.020733085 0.09515076 -0.046205163C 0.09515076 -0.071084864 0.073665105 -0.09181795 0.047268443 -0.09181795z" stroke="none" fill="#8134AF" fill-rule="nonzero" />
                        <path transform="matrix(96 0 0 96 464.82404 77.53237)"  d="M0.047268443 -0.07582386C 0.06445697 -0.07582386 0.07857612 -0.062199257 0.07857612 -0.046205163C 0.07857612 -0.029618694 0.06445697 -0.015994094 0.047268443 -0.015994094C 0.03007992 -0.015994094 0.015960773 -0.029618694 0.015960773 -0.046205163C 0.015960773 -0.062199257 0.03007992 -0.07582386 0.047268443 -0.07582386zM0.047268443 -0.09181795C 0.02087178 -0.09181795 5.2041704E-18 -0.071084864 0 -0.046205163C 0 -0.020733085 0.02087178 2.6020852E-18 0.047268443 0C 0.073665105 0 0.094536886 -0.020733085 0.094536886 -0.046205163C 0.094536886 -0.071084864 0.073665105 -0.09181795 0.047268443 -0.09181795z" stroke="none" fill="#8134AF" fill-rule="nonzero" />
                        <path transform="matrix(96 0 0 96 475.01932 72.07308)"  d="M0.047268443 -0.07582386C 0.06445697 -0.07582386 0.07857612 -0.062199257 0.07857612 -0.04561279C 0.07857612 -0.02902632 0.06445697 -0.015401721 0.047268443 -0.015401721C 0.03007992 -0.015401721 0.01657465 -0.02902632 0.01657465 -0.04561279C 0.01657465 -0.062199257 0.03007992 -0.07582386 0.047268443 -0.07582386zM0.047268443 -0.09122558C 0.021485656 -0.09122558 5.2041704E-18 -0.071084864 0 -0.04561279C 1.951564E-18 -0.020140711 0.021485656 0 0.047268443 0C 0.073665105 -4.87891E-19 0.09515076 -0.020140711 0.09515076 -0.04561279C 0.09515076 -0.071084864 0.073665105 -0.09122558 0.047268443 -0.09122558z" stroke="none" fill="#8134AF" fill-rule="nonzero" />
                        <path transform="matrix(96 0 0 96 70.33267 336.33817)"  d="M0 -0.004738991L0.10681441 0L0.21362881 -0.040281422L0.31982934 -0.21858595L0.42664376 -0.3086268L0.5328443 -0.39333624L0.6396587 -0.5331365L0.7464731 -0.70847917L0.85267365 -0.8624964L0.95948803 -0.9549067L1.0656886 -1.1415044L1.172503 -1.2007419L1.2793174 -1.3192166L1.385518 -1.535433L1.4923323 -1.6154035L1.5985328 -1.7119604L1.7053473 -1.8256962L1.8121617 -1.8428751L1.9183621 -1.9163295L2.0251765 -2.0063703L2.1313772 -2.0182178L2.2381916 -2.0727162L2.345006 -1.9974847L2.4512064 -2.0999653L2.5580208 -2.1189213L2.6642215 -2.0602763L2.771036 -2.0816019L2.8778503 -2.075678L2.9840508 -2.0721238L3.0908651 -2.0667925L3.1970656 -2.069162L3.3038802 -2.1106281L3.4106946 -2.026511L3.516895 -2.0981882L3.6237094 -2.0816019L3.72991 -2.0816019L3.8367243 -2.0827866L3.943539 -2.0650153L4.0497394 -2.0839713L4.1565537 -2.0999653L4.2627544 -2.0034084" stroke="#DD2A7B" stroke-width="0.016284373" stroke-linecap="round" fill="none" />
                        <path transform="matrix(96 0 0 96 66.03064 338.32852)"  d="M0.04481294 -0.07582386L0 0L0.090239756 0L0.04481294 -0.07582386z" stroke="#DD2A7B" stroke-width="0.016284373" stroke-linecap="round" fill="none" />
                        <path transform="matrix(96 0 0 96 76.225876 338.78345)"  d="M0.045426816 -0.07582386L0 0L0.09085363 0L0.045426816 -0.07582386z" stroke="#DD2A7B" stroke-width="0.016284373" stroke-linecap="round" fill="none" />
                        <path transform="matrix(96 0 0 96 86.48006 334.8596)"  d="M0.045426816 -0.075231485L0 0L0.09085363 0L0.045426816 -0.075231485z" stroke="#DD2A7B" stroke-width="0.016284373" stroke-linecap="round" fill="none" />
                        <path transform="matrix(96 0 0 96 96.67532 317.74234)"  d="M0.045426816 -0.075231485L0 0L0.09085363 0L0.045426816 -0.075231485z" stroke="#DD2A7B" stroke-width="0.016284373" stroke-linecap="round" fill="none" />
                        <path transform="matrix(96 0 0 96 106.929504 309.1553)"  d="M0.045426816 -0.07582386L0 0L0.09085363 0L0.045426816 -0.07582386z" stroke="#DD2A7B" stroke-width="0.016284373" stroke-linecap="round" fill="none" />
                        <path transform="matrix(96 0 0 96 117.183685 300.9663)"  d="M0.04481294 -0.07582386L0 0L0.090239756 0L0.04481294 -0.07582386z" stroke="#DD2A7B" stroke-width="0.016284373" stroke-linecap="round" fill="none" />
                        <path transform="matrix(96 0 0 96 127.37894 287.5455)"  d="M0.045426816 -0.07582386L0 0L0.09085363 0L0.045426816 -0.07582386z" stroke="#DD2A7B" stroke-width="0.016284373" stroke-linecap="round" fill="none" />
                        <path transform="matrix(96 0 0 96 137.63312 270.76947)"  d="M0.045426816 -0.07582386L0 0L0.09085363 0L0.045426816 -0.07582386z" stroke="#DD2A7B" stroke-width="0.016284373" stroke-linecap="round" fill="none" />
                        <path transform="matrix(96 0 0 96 147.82835 255.9838)"  d="M0.045426816 -0.07582386L0 0L0.09085363 0L0.045426816 -0.07582386z" stroke="#DD2A7B" stroke-width="0.016284373" stroke-linecap="round" fill="none" />
                        <path transform="matrix(96 0 0 96 158.08257 247.05557)"  d="M0.045426816 -0.07582386L0 0L0.09085363 0L0.045426816 -0.07582386z" stroke="#DD2A7B" stroke-width="0.016284373" stroke-linecap="round" fill="none" />
                        <path transform="matrix(96 0 0 96 168.33675 229.19904)"  d="M0.04481294 -0.07582386L0 0L0.090239756 0L0.04481294 -0.07582386z" stroke="#DD2A7B" stroke-width="0.016284373" stroke-linecap="round" fill="none" />
                        <path transform="matrix(96 0 0 96 178.53198 223.45538)"  d="M0.045426816 -0.07582386L0 0L0.09085363 0L0.045426816 -0.07582386z" stroke="#DD2A7B" stroke-width="0.016284373" stroke-linecap="round" fill="none" />
                        <path transform="matrix(96 0 0 96 188.78616 212.1387)"  d="M0.045426816 -0.07582386L0 0L0.09085363 0L0.045426816 -0.07582386z" stroke="#DD2A7B" stroke-width="0.016284373" stroke-linecap="round" fill="none" />
                        <path transform="matrix(96 0 0 96 198.98141 191.3819)"  d="M0.045426816 -0.07582386L0 0L0.09085363 0L0.045426816 -0.07582386z" stroke="#DD2A7B" stroke-width="0.016284373" stroke-linecap="round" fill="none" />
                        <path transform="matrix(96 0 0 96 209.2356 183.70474)"  d="M0.045426816 -0.07582386L0 0L0.09085363 0L0.045426816 -0.07582386z" stroke="#DD2A7B" stroke-width="0.016284373" stroke-linecap="round" fill="none" />
                        <path transform="matrix(96 0 0 96 219.48979 174.43527)"  d="M0.04481294 -0.07582386L0 0L0.090239756 0L0.04481294 -0.07582386z" stroke="#DD2A7B" stroke-width="0.016284373" stroke-linecap="round" fill="none" />
                        <path transform="matrix(96 0 0 96 229.68504 163.51663)"  d="M0.045426816 -0.07582386L0 0L0.09085363 0L0.045426816 -0.07582386z" stroke="#DD2A7B" stroke-width="0.016284373" stroke-linecap="round" fill="none" />
                        <path transform="matrix(96 0 0 96 239.93922 161.86746)"  d="M0.045426816 -0.07582386L0 0L0.09085363 0L0.045426816 -0.07582386z" stroke="#DD2A7B" stroke-width="0.016284373" stroke-linecap="round" fill="none" />
                        <path transform="matrix(96 0 0 96 250.13449 154.81583)"  d="M0.045426816 -0.07582386L0 0L0.09085363 0L0.045426816 -0.07582386z" stroke="#DD2A7B" stroke-width="0.016284373" stroke-linecap="round" fill="none" />
                        <path transform="matrix(96 0 0 96 260.38867 146.11508)"  d="M0.045426816 -0.075231485L0 0L0.09085363 0L0.045426816 -0.075231485z" stroke="#DD2A7B" stroke-width="0.016284373" stroke-linecap="round" fill="none" />
                        <path transform="matrix(96 0 0 96 270.64285 144.97772)"  d="M0.04481294 -0.075231485L0 0L0.090239756 0L0.04481294 -0.075231485z" stroke="#DD2A7B" stroke-width="0.016284373" stroke-linecap="round" fill="none" />
                        <path transform="matrix(96 0 0 96 280.83807 139.80273)"  d="M0.045426816 -0.07582386L0 0L0.09085363 0L0.045426816 -0.07582386z" stroke="#DD2A7B" stroke-width="0.016284373" stroke-linecap="round" fill="none" />
                        <path transform="matrix(96 0 0 96 291.09225 146.96808)"  d="M0.045426816 -0.07582386L0 0L0.09085363 0L0.045426816 -0.07582386z" stroke="#DD2A7B" stroke-width="0.016284373" stroke-linecap="round" fill="none" />
                        <path transform="matrix(96 0 0 96 301.2875 137.1868)"  d="M0.045426816 -0.07582386L0 0L0.09085363 0L0.045426816 -0.07582386z" stroke="#DD2A7B" stroke-width="0.016284373" stroke-linecap="round" fill="none" />
                        <path transform="matrix(96 0 0 96 311.5417 135.367)"  d="M0.045426816 -0.07582386L0 0L0.09085363 0L0.045426816 -0.07582386z" stroke="#DD2A7B" stroke-width="0.016284373" stroke-linecap="round" fill="none" />
                        <path transform="matrix(96 0 0 96 321.79587 140.94006)"  d="M0.04481294 -0.07582386L0 0L0.090239756 0L0.04481294 -0.07582386z" stroke="#DD2A7B" stroke-width="0.016284373" stroke-linecap="round" fill="none" />
                        <path transform="matrix(96 0 0 96 331.99115 138.89285)"  d="M0.045426816 -0.07582386L0 0L0.09085363 0L0.045426816 -0.07582386z" stroke="#DD2A7B" stroke-width="0.016284373" stroke-linecap="round" fill="none" />
                        <path transform="matrix(96 0 0 96 342.24533 139.51837)"  d="M0.045426816 -0.07582386L0 0L0.09085363 0L0.045426816 -0.07582386z" stroke="#DD2A7B" stroke-width="0.016284373" stroke-linecap="round" fill="none" />
                        <path transform="matrix(96 0 0 96 352.44058 139.85959)"  d="M0.045426816 -0.07582386L0 0L0.09085363 0L0.045426816 -0.07582386z" stroke="#DD2A7B" stroke-width="0.016284373" stroke-linecap="round" fill="none" />
                        <path transform="matrix(96 0 0 96 362.69476 140.31451)"  d="M0.045426816 -0.07582386L0 0L0.09085363 0L0.045426816 -0.07582386z" stroke="#DD2A7B" stroke-width="0.016284373" stroke-linecap="round" fill="none" />
                        <path transform="matrix(96 0 0 96 372.94894 140.14392)"  d="M0.04481294 -0.07582386L0 0L0.090239756 0L0.04481294 -0.07582386z" stroke="#DD2A7B" stroke-width="0.016284373" stroke-linecap="round" fill="none" />
                        <path transform="matrix(96 0 0 96 383.14417 136.16315)"  d="M0.045426816 -0.07582386L0 0L0.09085363 0L0.045426816 -0.07582386z" stroke="#DD2A7B" stroke-width="0.016284373" stroke-linecap="round" fill="none" />
                        <path transform="matrix(96 0 0 96 393.39835 144.23843)"  d="M0.045426816 -0.07582386L0 0L0.09085363 0L0.045426816 -0.07582386z" stroke="#DD2A7B" stroke-width="0.016284373" stroke-linecap="round" fill="none" />
                        <path transform="matrix(96 0 0 96 403.59363 137.35742)"  d="M0.045426816 -0.07582386L0 0L0.09085363 0L0.045426816 -0.07582386z" stroke="#DD2A7B" stroke-width="0.016284373" stroke-linecap="round" fill="none" />
                        <path transform="matrix(96 0 0 96 413.8478 138.89285)"  d="M0.045426816 -0.07582386L0 0L0.09085363 0L0.045426816 -0.07582386z" stroke="#DD2A7B" stroke-width="0.016284373" stroke-linecap="round" fill="none" />
                        <path transform="matrix(96 0 0 96 424.102 138.9497)"  d="M0.04481294 -0.07582386L0 0L0.090239756 0L0.04481294 -0.07582386z" stroke="#DD2A7B" stroke-width="0.016284373" stroke-linecap="round" fill="none" />
                        <path transform="matrix(96 0 0 96 434.29724 138.83594)"  d="M0.045426816 -0.07582386L0 0L0.09085363 0L0.045426816 -0.07582386z" stroke="#DD2A7B" stroke-width="0.016284373" stroke-linecap="round" fill="none" />
                        <path transform="matrix(96 0 0 96 444.55142 140.54199)"  d="M0.045426816 -0.07582386L0 0L0.09085363 0L0.045426816 -0.07582386z" stroke="#DD2A7B" stroke-width="0.016284373" stroke-linecap="round" fill="none" />
                        <path transform="matrix(96 0 0 96 454.74664 138.72223)"  d="M0.045426816 -0.07582386L0 0L0.09085363 0L0.045426816 -0.07582386z" stroke="#DD2A7B" stroke-width="0.016284373" stroke-linecap="round" fill="none" />
                        <path transform="matrix(96 0 0 96 465.0009 137.12994)"  d="M0.045426816 -0.07582386L0 0L0.09085363 0L0.045426816 -0.07582386z" stroke="#DD2A7B" stroke-width="0.016284373" stroke-linecap="round" fill="none" />
                        <path transform="matrix(96 0 0 96 475.25507 146.45624)"  d="M0.04481294 -0.07582386L0 0L0.090239756 0L0.04481294 -0.07582386z" stroke="#DD2A7B" stroke-width="0.016284373" stroke-linecap="round" fill="none" />
                        <path transform="matrix(96 0 0 96 70.33267 340.77386)"  d="M0 0L0.10681441 -0.023102582L0.21362881 -0.12795275L0.31982934 -0.2606445L0.42664376 -0.3151429L0.5328443 -0.38445064L0.6396587 -0.5787493L0.7464731 -0.70314777L0.85267365 -0.8239921L0.95948803 -1.0070356L1.0656886 -1.0763433L1.172503 -1.2007419L1.2793174 -1.3446887L1.385518 -1.3683836L1.4923323 -1.5117381L1.5985328 -1.720846L1.7053473 -1.7605351L1.8121617 -1.9145523L1.9183621 -1.958388L2.0251765 -2.040728L2.1313772 -2.0839713L2.2381916 -2.1366925L2.345006 -2.1094434L2.4512064 -2.1509094L2.5580208 -2.1740122L2.6642215 -2.1272147L2.771036 -2.1775663L2.8778503 -2.139062L2.9840508 -2.1426163L3.0908651 -2.132546L3.1970656 -2.075678L3.3038802 -2.139062L3.4106946 -2.11359L3.516895 -2.1331384L3.6237094 -2.0940416L3.72991 -2.1301765L3.8367243 -2.075678L3.943539 -2.0632381L4.0497394 -2.0662L4.1565537 -2.0602763L4.2627544 -2.047244" stroke="#515BD4" stroke-width="0.016284373" stroke-linecap="round" fill="none" />
                        <path transform="matrix(96 0 0 96 66.03064 345.6645)"  d="M0.04481294 0L0 -0.07582386L0.090239756 -0.07582386L0.04481294 0z" stroke="#515BD4" stroke-width="0.016284373" stroke-linecap="round" fill="none" />
                        <path transform="matrix(96 0 0 96 76.225876 343.38977)"  d="M0.045426816 0L0 -0.07582386L0.09085363 -0.07582386L0.045426816 0z" stroke="#515BD4" stroke-width="0.016284373" stroke-linecap="round" fill="none" />
                        <path transform="matrix(96 0 0 96 86.48006 333.381)"  d="M0.045426816 0L0 -0.07582386L0.09085363 -0.07582386L0.045426816 0z" stroke="#515BD4" stroke-width="0.016284373" stroke-linecap="round" fill="none" />
                        <path transform="matrix(96 0 0 96 96.67532 320.58575)"  d="M0.045426816 0L0 -0.07582386L0.09085363 -0.07582386L0.045426816 0z" stroke="#515BD4" stroke-width="0.016284373" stroke-linecap="round" fill="none" />
                        <path transform="matrix(96 0 0 96 106.929504 315.3539)"  d="M0.045426816 0L0 -0.07582386L0.09085363 -0.07582386L0.045426816 0z" stroke="#515BD4" stroke-width="0.016284373" stroke-linecap="round" fill="none" />
                        <path transform="matrix(96 0 0 96 117.183685 308.70038)"  d="M0.04481294 0L0 -0.07582386L0.090239756 -0.07582386L0.04481294 0z" stroke="#515BD4" stroke-width="0.016284373" stroke-linecap="round" fill="none" />
                        <path transform="matrix(96 0 0 96 127.37894 290.10455)"  d="M0.045426816 0L0 -0.07582386L0.09085363 -0.07582386L0.045426816 0z" stroke="#515BD4" stroke-width="0.016284373" stroke-linecap="round" fill="none" />
                        <path transform="matrix(96 0 0 96 137.63312 278.16232)"  d="M0.045426816 0L0 -0.07582386L0.09085363 -0.07582386L0.045426816 0z" stroke="#515BD4" stroke-width="0.016284373" stroke-linecap="round" fill="none" />
                        <path transform="matrix(96 0 0 96 147.82835 266.5044)"  d="M0.045426816 0L0 -0.07582386L0.09085363 -0.07582386L0.045426816 0z" stroke="#515BD4" stroke-width="0.016284373" stroke-linecap="round" fill="none" />
                        <path transform="matrix(96 0 0 96 158.08257 248.93219)"  d="M0.045426816 0L0 -0.07582386L0.09085363 -0.07582386L0.045426816 0z" stroke="#515BD4" stroke-width="0.016284373" stroke-linecap="round" fill="none" />
                        <path transform="matrix(96 0 0 96 168.33675 242.33554)"  d="M0.04481294 0L0 -0.07582386L0.090239756 -0.07582386L0.04481294 0z" stroke="#515BD4" stroke-width="0.016284373" stroke-linecap="round" fill="none" />
                        <path transform="matrix(96 0 0 96 178.53198 230.39325)"  d="M0.045426816 0L0 -0.07582386L0.09085363 -0.07582386L0.045426816 0z" stroke="#515BD4" stroke-width="0.016284373" stroke-linecap="round" fill="none" />
                        <path transform="matrix(96 0 0 96 188.78616 216.51752)"  d="M0.045426816 0L0 -0.07582386L0.09085363 -0.07582386L0.045426816 0z" stroke="#515BD4" stroke-width="0.016284373" stroke-linecap="round" fill="none" />
                        <path transform="matrix(96 0 0 96 198.98141 214.2428)"  d="M0.045426816 0L0 -0.07582386L0.09085363 -0.07582386L0.045426816 0z" stroke="#515BD4" stroke-width="0.016284373" stroke-linecap="round" fill="none" />
                        <path transform="matrix(96 0 0 96 209.2356 200.48077)"  d="M0.045426816 0L0 -0.07582386L0.09085363 -0.07582386L0.045426816 0z" stroke="#515BD4" stroke-width="0.016284373" stroke-linecap="round" fill="none" />
                        <path transform="matrix(96 0 0 96 219.48979 180.40637)"  d="M0.04481294 0L0 -0.07582386L0.090239756 -0.07582386L0.04481294 0z" stroke="#515BD4" stroke-width="0.016284373" stroke-linecap="round" fill="none" />
                        <path transform="matrix(96 0 0 96 229.68504 176.59622)"  d="M0.045426816 0L0 -0.075231485L0.09085363 -0.075231485L0.045426816 0z" stroke="#515BD4" stroke-width="0.016284373" stroke-linecap="round" fill="none" />
                        <path transform="matrix(96 0 0 96 239.93922 161.81061)"  d="M0.045426816 0L0 -0.07582386L0.09085363 -0.07582386L0.045426816 0z" stroke="#515BD4" stroke-width="0.016284373" stroke-linecap="round" fill="none" />
                        <path transform="matrix(96 0 0 96 250.13449 157.60239)"  d="M0.045426816 0L0 -0.075231485L0.09085363 -0.075231485L0.045426816 0z" stroke="#515BD4" stroke-width="0.016284373" stroke-linecap="round" fill="none" />
                        <path transform="matrix(96 0 0 96 260.38867 149.75461)"  d="M0.045426816 0L0 -0.07582386L0.09085363 -0.07582386L0.045426816 0z" stroke="#515BD4" stroke-width="0.016284373" stroke-linecap="round" fill="none" />
                        <path transform="matrix(96 0 0 96 270.64285 145.54639)"  d="M0.04481294 0L0 -0.07582386L0.090239756 -0.07582386L0.04481294 0z" stroke="#515BD4" stroke-width="0.016284373" stroke-linecap="round" fill="none" />
                        <path transform="matrix(96 0 0 96 280.83807 140.48514)"  d="M0.045426816 0L0 -0.07582386L0.09085363 -0.07582386L0.045426816 0z" stroke="#515BD4" stroke-width="0.016284373" stroke-linecap="round" fill="none" />
                        <path transform="matrix(96 0 0 96 291.09225 143.10107)"  d="M0.045426816 0L0 -0.07582386L0.09085363 -0.07582386L0.045426816 0z" stroke="#515BD4" stroke-width="0.016284373" stroke-linecap="round" fill="none" />
                        <path transform="matrix(96 0 0 96 301.2875 139.1203)"  d="M0.045426816 0L0 -0.07582386L0.09085363 -0.07582386L0.045426816 0z" stroke="#515BD4" stroke-width="0.016284373" stroke-linecap="round" fill="none" />
                        <path transform="matrix(96 0 0 96 311.5417 136.90244)"  d="M0.045426816 0L0 -0.07582386L0.09085363 -0.07582386L0.045426816 0z" stroke="#515BD4" stroke-width="0.016284373" stroke-linecap="round" fill="none" />
                        <path transform="matrix(96 0 0 96 321.79587 141.39502)"  d="M0.04481294 0L0 -0.07582386L0.090239756 -0.07582386L0.04481294 0z" stroke="#515BD4" stroke-width="0.016284373" stroke-linecap="round" fill="none" />
                        <path transform="matrix(96 0 0 96 331.99115 136.56128)"  d="M0.045426816 0L0 -0.07582386L0.09085363 -0.07582386L0.045426816 0z" stroke="#515BD4" stroke-width="0.016284373" stroke-linecap="round" fill="none" />
                        <path transform="matrix(96 0 0 96 342.24533 140.25766)"  d="M0.045426816 0L0 -0.07582386L0.09085363 -0.07582386L0.045426816 0z" stroke="#515BD4" stroke-width="0.016284373" stroke-linecap="round" fill="none" />
                        <path transform="matrix(96 0 0 96 352.44058 139.91644)"  d="M0.045426816 0L0 -0.07582386L0.09085363 -0.07582386L0.045426816 0z" stroke="#515BD4" stroke-width="0.016284373" stroke-linecap="round" fill="none" />
                        <path transform="matrix(96 0 0 96 362.69476 140.88321)"  d="M0.045426816 0L0 -0.075231485L0.09085363 -0.075231485L0.045426816 0z" stroke="#515BD4" stroke-width="0.016284373" stroke-linecap="round" fill="none" />
                        <path transform="matrix(96 0 0 96 372.94894 146.39938)"  d="M0.04481294 0L0 -0.07582386L0.090239756 -0.07582386L0.04481294 0z" stroke="#515BD4" stroke-width="0.016284373" stroke-linecap="round" fill="none" />
                        <path transform="matrix(96 0 0 96 383.14417 140.31451)"  d="M0.045426816 0L0 -0.07582386L0.09085363 -0.07582386L0.045426816 0z" stroke="#515BD4" stroke-width="0.016284373" stroke-linecap="round" fill="none" />
                        <path transform="matrix(96 0 0 96 393.39835 142.703)"  d="M0.045426816 0L0 -0.07582386L0.09085363 -0.07582386L0.045426816 0z" stroke="#515BD4" stroke-width="0.016284373" stroke-linecap="round" fill="none" />
                        <path transform="matrix(96 0 0 96 403.59363 140.88321)"  d="M0.045426816 0L0 -0.07582386L0.09085363 -0.07582386L0.045426816 0z" stroke="#515BD4" stroke-width="0.016284373" stroke-linecap="round" fill="none" />
                        <path transform="matrix(96 0 0 96 413.8478 144.57965)"  d="M0.045426816 0L0 -0.07582386L0.09085363 -0.07582386L0.045426816 0z" stroke="#515BD4" stroke-width="0.016284373" stroke-linecap="round" fill="none" />
                        <path transform="matrix(96 0 0 96 424.102 141.11066)"  d="M0.04481294 0L0 -0.07582386L0.090239756 -0.07582386L0.04481294 0z" stroke="#515BD4" stroke-width="0.016284373" stroke-linecap="round" fill="none" />
                        <path transform="matrix(96 0 0 96 434.29724 146.34253)"  d="M0.045426816 0L0 -0.07582386L0.09085363 -0.07582386L0.045426816 0z" stroke="#515BD4" stroke-width="0.016284373" stroke-linecap="round" fill="none" />
                        <path transform="matrix(96 0 0 96 444.55142 147.5936)"  d="M0.045426816 0L0 -0.07582386L0.09085363 -0.07582386L0.045426816 0z" stroke="#515BD4" stroke-width="0.016284373" stroke-linecap="round" fill="none" />
                        <path transform="matrix(96 0 0 96 454.74664 147.25244)"  d="M0.045426816 0L0 -0.07582386L0.09085363 -0.07582386L0.045426816 0z" stroke="#515BD4" stroke-width="0.016284373" stroke-linecap="round" fill="none" />
                        <path transform="matrix(96 0 0 96 465.0009 147.8211)"  d="M0.045426816 0L0 -0.07582386L0.09085363 -0.07582386L0.045426816 0z" stroke="#515BD4" stroke-width="0.016284373" stroke-linecap="round" fill="none" />
                        <path transform="matrix(96 0 0 96 475.25507 149.12903)"  d="M0.04481294 0L0 -0.07582386L0.090239756 -0.07582386L0.04481294 0z" stroke="#515BD4" stroke-width="0.016284373" stroke-linecap="round" fill="none" />
                        <path transform="matrix(96 0 0 96 70.33267 341.17194)"  d="M0 0L0.10681441 -0.0521289L0.21362881 -0.131507L0.31982934 -0.2245097L0.42664376 -0.24761228L0.5328443 -0.33232173L0.6396587 -0.47508386L0.7464731 -0.52247375L0.85267365 -0.61784595L0.95948803 -0.76297754L1.0656886 -0.92410326L1.172503 -1.0431703L1.2793174 -1.1557214L1.385518 -1.2570174L1.4923323 -1.3997794L1.5985328 -1.5271398L1.7053473 -1.669902L1.8121617 -1.6687171L1.9183621 -1.8002242L2.0251765 -1.8482065L2.1313772 -1.871309L2.2381916 -1.9003354L2.345006 -1.953649L2.4512064 -1.9826753L2.5580208 -2.012294L2.6642215 -2.023549L2.771036 -2.0034084L2.8778503 -2.0288806L2.9840508 -2.002816L3.0908651 -1.9992619L3.1970656 -1.977344L3.3038802 -1.9696431L3.4106946 -1.9974847L3.516895 -2.017033L3.6237094 -1.9625347L3.72991 -1.9903762L3.8367243 -1.94891L3.943539 -2.002816L4.0497394 -2.0093322L4.1565537 -1.9637194L4.2627544 -1.9874144" stroke="#FEDA77" stroke-width="0.016284373" stroke-linecap="round" fill="none" />
                        <path transform="matrix(96 0 0 96 66.56102 346.00568)"  d="M0 -0.05035178L0.03928806 0L0.07857612 -0.05035178L0.03928806 -0.10070356L0 -0.05035178z" stroke="#FEDA77" stroke-width="0.016284373" stroke-linecap="round" fill="none" />
                        <path transform="matrix(96 0 0 96 76.8152 341.0013)"  d="M0 -0.05035178L0.03928806 0L0.07857612 -0.05035178L0.03928806 -0.10070356L0 -0.05035178z" stroke="#FEDA77" stroke-width="0.016284373" stroke-linecap="round" fill="none" />
                        <path transform="matrix(96 0 0 96 87.06938 333.43787)"  d="M0 -0.050944153L0.03928806 0L0.07857612 -0.050944153L0.03928806 -0.10129593L0 -0.050944153z" stroke="#FEDA77" stroke-width="0.016284373" stroke-linecap="round" fill="none" />
                        <path transform="matrix(96 0 0 96 97.26463 324.45276)"  d="M0 -0.05035178L0.03928806 0L0.07857612 -0.05035178L0.03928806 -0.10070356L0 -0.05035178z" stroke="#FEDA77" stroke-width="0.016284373" stroke-linecap="round" fill="none" />
                        <path transform="matrix(96 0 0 96 107.518814 322.23492)"  d="M0 -0.05035178L0.03928806 0L0.07857612 -0.05035178L0.03928806 -0.10070356L0 -0.05035178z" stroke="#FEDA77" stroke-width="0.016284373" stroke-linecap="round" fill="none" />
                        <path transform="matrix(96 0 0 96 117.71408 314.15967)"  d="M0 -0.050944153L0.03928806 0L0.07857612 -0.050944153L0.03928806 -0.10129593L0 -0.050944153z" stroke="#FEDA77" stroke-width="0.016284373" stroke-linecap="round" fill="none" />
                        <path transform="matrix(96 0 0 96 127.96826 300.39764)"  d="M0 -0.05035178L0.03928806 0L0.07857612 -0.05035178L0.03928806 -0.10070356L0 -0.05035178z" stroke="#FEDA77" stroke-width="0.016284373" stroke-linecap="round" fill="none" />
                        <path transform="matrix(96 0 0 96 138.22244 295.8482)"  d="M0 -0.05035178L0.03928806 0L0.07857612 -0.05035178L0.03928806 -0.10070356L0 -0.05035178z" stroke="#FEDA77" stroke-width="0.016284373" stroke-linecap="round" fill="none" />
                        <path transform="matrix(96 0 0 96 148.41768 286.69247)"  d="M0 -0.05035178L0.03928806 0L0.07857612 -0.05035178L0.03928806 -0.10070356L0 -0.05035178z" stroke="#FEDA77" stroke-width="0.016284373" stroke-linecap="round" fill="none" />
                        <path transform="matrix(96 0 0 96 158.67186 272.75983)"  d="M0 -0.05035178L0.03928806 0L0.07857612 -0.05035178L0.03928806 -0.10070356L0 -0.05035178z" stroke="#FEDA77" stroke-width="0.016284373" stroke-linecap="round" fill="none" />
                        <path transform="matrix(96 0 0 96 168.86713 257.29178)"  d="M0 -0.05035178L0.03928806 0L0.07857612 -0.05035178L0.03928806 -0.10070356L0 -0.05035178z" stroke="#FEDA77" stroke-width="0.016284373" stroke-linecap="round" fill="none" />
                        <path transform="matrix(96 0 0 96 179.1213 245.86133)"  d="M0 -0.05035178L0.03928806 0L0.07857612 -0.05035178L0.03928806 -0.10070356L0 -0.05035178z" stroke="#FEDA77" stroke-width="0.016284373" stroke-linecap="round" fill="none" />
                        <path transform="matrix(96 0 0 96 189.37549 235.05646)"  d="M0 -0.05035178L0.03928806 0L0.07857612 -0.05035178L0.03928806 -0.10070356L0 -0.05035178z" stroke="#FEDA77" stroke-width="0.016284373" stroke-linecap="round" fill="none" />
                        <path transform="matrix(96 0 0 96 199.57074 225.33203)"  d="M0 -0.05035178L0.03928806 0L0.07857612 -0.05035178L0.03928806 -0.10070356L0 -0.05035178z" stroke="#FEDA77" stroke-width="0.016284373" stroke-linecap="round" fill="none" />
                        <path transform="matrix(96 0 0 96 209.82492 211.62686)"  d="M0 -0.05035178L0.03928806 0L0.07857612 -0.05035178L0.03928806 -0.10070356L0 -0.05035178z" stroke="#FEDA77" stroke-width="0.016284373" stroke-linecap="round" fill="none" />
                        <path transform="matrix(96 0 0 96 220.02019 199.40027)"  d="M0 -0.05035178L0.03928806 0L0.07857612 -0.05035178L0.03928806 -0.10070356L0 -0.05035178z" stroke="#FEDA77" stroke-width="0.016284373" stroke-linecap="round" fill="none" />
                        <path transform="matrix(96 0 0 96 230.27437 185.6951)"  d="M0 -0.05035178L0.03928806 0L0.07857612 -0.05035178L0.03928806 -0.10070356L0 -0.05035178z" stroke="#FEDA77" stroke-width="0.016284373" stroke-linecap="round" fill="none" />
                        <path transform="matrix(96 0 0 96 240.52855 185.86572)"  d="M0 -0.050944153L0.03928806 0L0.07857612 -0.050944153L0.03928806 -0.10129593L0 -0.050944153z" stroke="#FEDA77" stroke-width="0.016284373" stroke-linecap="round" fill="none" />
                        <path transform="matrix(96 0 0 96 250.72382 173.18414)"  d="M0 -0.05035178L0.03928806 0L0.07857612 -0.05035178L0.03928806 -0.10070356L0 -0.05035178z" stroke="#FEDA77" stroke-width="0.016284373" stroke-linecap="round" fill="none" />
                        <path transform="matrix(96 0 0 96 260.978 168.57785)"  d="M0 -0.05035178L0.03928806 0L0.07857612 -0.05035178L0.03928806 -0.10070356L0 -0.05035178z" stroke="#FEDA77" stroke-width="0.016284373" stroke-linecap="round" fill="none" />
                        <path transform="matrix(96 0 0 96 271.17322 166.36005)"  d="M0 -0.05035178L0.03928806 0L0.07857612 -0.05035178L0.03928806 -0.10070356L0 -0.05035178z" stroke="#FEDA77" stroke-width="0.016284373" stroke-linecap="round" fill="none" />
                        <path transform="matrix(96 0 0 96 281.4274 163.57349)"  d="M0 -0.05035178L0.03928806 0L0.07857612 -0.05035178L0.03928806 -0.10070356L0 -0.05035178z" stroke="#FEDA77" stroke-width="0.016284373" stroke-linecap="round" fill="none" />
                        <path transform="matrix(96 0 0 96 291.68158 158.45538)"  d="M0 -0.05035178L0.03928806 0L0.07857612 -0.05035178L0.03928806 -0.10070356L0 -0.05035178z" stroke="#FEDA77" stroke-width="0.016284373" stroke-linecap="round" fill="none" />
                        <path transform="matrix(96 0 0 96 301.87683 155.66888)"  d="M0 -0.05035178L0.03928806 0L0.07857612 -0.05035178L0.03928806 -0.10070356L0 -0.05035178z" stroke="#FEDA77" stroke-width="0.016284373" stroke-linecap="round" fill="none" />
                        <path transform="matrix(96 0 0 96 312.131 152.82547)"  d="M0 -0.05035178L0.03928806 0L0.07857612 -0.05035178L0.03928806 -0.10070356L0 -0.05035178z" stroke="#FEDA77" stroke-width="0.016284373" stroke-linecap="round" fill="none" />
                        <path transform="matrix(96 0 0 96 322.3263 151.74496)"  d="M0 -0.05035178L0.03928806 0L0.07857612 -0.05035178L0.03928806 -0.10070356L0 -0.05035178z" stroke="#FEDA77" stroke-width="0.016284373" stroke-linecap="round" fill="none" />
                        <path transform="matrix(96 0 0 96 332.58047 153.67847)"  d="M0 -0.05035178L0.03928806 0L0.07857612 -0.05035178L0.03928806 -0.10070356L0 -0.05035178z" stroke="#FEDA77" stroke-width="0.016284373" stroke-linecap="round" fill="none" />
                        <path transform="matrix(96 0 0 96 342.83466 151.23315)"  d="M0 -0.05035178L0.03928806 0L0.07857612 -0.05035178L0.03928806 -0.10070356L0 -0.05035178z" stroke="#FEDA77" stroke-width="0.016284373" stroke-linecap="round" fill="none" />
                        <path transform="matrix(96 0 0 96 353.02988 153.73538)"  d="M0 -0.05035178L0.03928806 0L0.07857612 -0.05035178L0.03928806 -0.10129593L0 -0.05035178z" stroke="#FEDA77" stroke-width="0.016284373" stroke-linecap="round" fill="none" />
                        <path transform="matrix(96 0 0 96 363.2841 154.07654)"  d="M0 -0.05035178L0.03928806 0L0.07857612 -0.05035178L0.03928806 -0.10070356L0 -0.05035178z" stroke="#FEDA77" stroke-width="0.016284373" stroke-linecap="round" fill="none" />
                        <path transform="matrix(96 0 0 96 373.4793 156.18066)"  d="M0 -0.05035178L0.03928806 0L0.07857612 -0.05035178L0.03928806 -0.10070356L0 -0.05035178z" stroke="#FEDA77" stroke-width="0.016284373" stroke-linecap="round" fill="none" />
                        <path transform="matrix(96 0 0 96 383.7335 156.91995)"  d="M0 -0.05035178L0.03928806 0L0.07857612 -0.05035178L0.03928806 -0.10070356L0 -0.05035178z" stroke="#FEDA77" stroke-width="0.016284373" stroke-linecap="round" fill="none" />
                        <path transform="matrix(96 0 0 96 393.98767 154.30405)"  d="M0 -0.050944153L0.03928806 0L0.07857612 -0.050944153L0.03928806 -0.10129593L0 -0.050944153z" stroke="#FEDA77" stroke-width="0.016284373" stroke-linecap="round" fill="none" />
                        <path transform="matrix(96 0 0 96 404.18295 152.37051)"  d="M0 -0.05035178L0.03928806 0L0.07857612 -0.05035178L0.03928806 -0.10129593L0 -0.05035178z" stroke="#FEDA77" stroke-width="0.016284373" stroke-linecap="round" fill="none" />
                        <path transform="matrix(96 0 0 96 414.43713 157.60239)"  d="M0 -0.05035178L0.03928806 0L0.07857612 -0.05035178L0.03928806 -0.10070356L0 -0.05035178z" stroke="#FEDA77" stroke-width="0.016284373" stroke-linecap="round" fill="none" />
                        <path transform="matrix(96 0 0 96 424.6324 154.9296)"  d="M0 -0.05035178L0.03928806 0L0.07857612 -0.05035178L0.03928806 -0.10070356L0 -0.05035178z" stroke="#FEDA77" stroke-width="0.016284373" stroke-linecap="round" fill="none" />
                        <path transform="matrix(96 0 0 96 434.88657 158.91034)"  d="M0 -0.05035178L0.03928806 0L0.07857612 -0.05035178L0.03928806 -0.10129593L0 -0.05035178z" stroke="#FEDA77" stroke-width="0.016284373" stroke-linecap="round" fill="none" />
                        <path transform="matrix(96 0 0 96 445.14075 153.73538)"  d="M0 -0.05035178L0.03928806 0L0.07857612 -0.05035178L0.03928806 -0.10070356L0 -0.05035178z" stroke="#FEDA77" stroke-width="0.016284373" stroke-linecap="round" fill="none" />
                        <path transform="matrix(96 0 0 96 455.33597 153.1098)"  d="M0 -0.05035178L0.03928806 0L0.07857612 -0.05035178L0.03928806 -0.10070356L0 -0.05035178z" stroke="#FEDA77" stroke-width="0.016284373" stroke-linecap="round" fill="none" />
                        <path transform="matrix(96 0 0 96 465.59015 157.48862)"  d="M0 -0.05035178L0.03928806 0L0.07857612 -0.05035178L0.03928806 -0.10070356L0 -0.05035178z" stroke="#FEDA77" stroke-width="0.016284373" stroke-linecap="round" fill="none" />
                        <path transform="matrix(96 0 0 96 475.78543 155.2139)"  d="M0 -0.05035178L0.03928806 0L0.07857612 -0.05035178L0.03928806 -0.10129593L0 -0.05035178z" stroke="#FEDA77" stroke-width="0.016284373" stroke-linecap="round" fill="none" />
                        <path transform="matrix(96 0 0 96 394.6949 102.49738)"  d="M0 -0.65398073L0.77593917 -0.65398073L0.77593917 0L0 0" stroke="none" fill="#FFFFFF" fill-rule="evenodd" />
					</g>
				</g>
				<g>
				</g>
				<g clip-path="url(#23)" >
					<text transform="matrix(1 0 0 1 442.6483 54.272537)" x="0" y="2.1697502" style="fill:#000000;font-family:ABeeZee;" font-size="11">
r=3.7
					</text>
				</g>
				<g transform="matrix(1 0 0 1 0 0)">
					<g>
                        <path transform="matrix(96 0 0 96 398.46652 48.75721)"  d="M0 0L0.3928807 0" stroke="#8134AF" stroke-width="0.016284373" stroke-linecap="round" fill="none" />
                        <path transform="matrix(96 0 0 96 412.78702 53.19294)"  d="M0.047268443 -0.07582386C 0.06445697 -0.07582386 0.07857612 -0.06279163 0.07857612 -0.046205163C 0.07857612 -0.029618694 0.06445697 -0.015994094 0.047268443 -0.015994094C 0.03007992 -0.015994094 0.01657465 -0.029618694 0.01657465 -0.046205163C 0.01657465 -0.06279163 0.03007992 -0.07582386 0.047268443 -0.07582386zM0.047268443 -0.09181795C 0.021485656 -0.09181795 5.2041704E-18 -0.071084864 0 -0.046205163C 4.87891E-19 -0.020733085 0.021485656 2.6020852E-18 0.047268443 0C 0.073665105 0 0.09515076 -0.020733085 0.09515076 -0.046205163C 0.09515076 -0.071084864 0.073665105 -0.09181795 0.047268443 -0.09181795z" stroke="none" fill="#8134AF" fill-rule="nonzero" />
					</g>
				</g>
				<g>
				</g>
				<g clip-path="url(#24)" >
					<text transform="matrix(1 0 0 1 442.6483 68.83075)" x="0" y="2.1697502" style="fill:#000000;font-family:ABeeZee;" font-size="11">
r=3.8
					</text>
				</g>
				<g transform="matrix(1 0 0 1 0 0)">
					<g>
                        <path transform="matrix(96 0 0 96 398.46652 63.656593)"  d="M0 0L0.3928807 0" stroke="#DD2A7B" stroke-width="0.016284373" stroke-linecap="round" fill="none" />
                        <path transform="matrix(96 0 0 96 413.02277 66.10192)"  d="M0.04481294 -0.07582386L0 0L0.090239756 0L0.04481294 -0.07582386z" stroke="#DD2A7B" stroke-width="0.016284373" stroke-linecap="round" fill="none" />
					</g>
				</g>
				<g>
				</g>
				<g clip-path="url(#25)" >
					<text transform="matrix(1 0 0 1 442.6483 84.29881)" x="0" y="2.1697502" style="fill:#000000;font-family:ABeeZee;" font-size="11">
r=3.9
					</text>
				</g>
				<g transform="matrix(1 0 0 1 0 0)">
					<g>
                        <path transform="matrix(96 0 0 96 398.46652 78.61288)"  d="M0 0L0.3928807 0" stroke="#515BD4" stroke-width="0.016284373" stroke-linecap="round" fill="none" />
                        <path transform="matrix(96 0 0 96 413.02277 83.44663)"  d="M0.04481294 0L0 -0.07582386L0.090239756 -0.07582386L0.04481294 0z" stroke="#515BD4" stroke-width="0.016284373" stroke-linecap="round" fill="none" />
					</g>
				</g>
				<g>
				</g>
				<g clip-path="url(#26)" >
					<text transform="matrix(1 0 0 1 442.6483 98.85698)" x="0" y="2.1697502" style="fill:#000000;font-family:ABeeZee;" font-size="11">
r=4.0
					</text>
				</g>
				<g transform="matrix(1 0 0 1 0 0)">
					<g clip-path="url(#27)" >
                        <path transform="matrix(96 0 0 96 398.46652 93.51226)"  d="M0 0L0.3928807 0" stroke="#FEDA77" stroke-width="0.016284373" stroke-linecap="round" fill="none" />
                        <path transform="matrix(96 0 0 96 413.55313 98.346016)"  d="M0 -0.05035178L0.03928806 0L0.07857612 -0.05035178L0.03928806 -0.10129593L0 -0.05035178z" stroke="#FEDA77" stroke-width="0.016284373" stroke-linecap="round" fill="none" />
                        <path transform="matrix(96 0 0 96 394.6949 102.49738)"  d="M0 0L0 -0.65398073L0.77593917 -0.65398073L0.77593917 0L0 0z" stroke="#262626" stroke-width="0.0066343737" stroke-linecap="round" fill="none" />
					</g>
					<g>
					</g>
				</g>
			</g>
		</g>
	</g>
</g>
</svg>