<?xml version="1.0" standalone="no"?>
<!DOCTYPE svg PUBLIC "-//W3C//DTD SVG 1.0//EN" "http://www.w3.org/TR/2001/REC-SVG-20010904/DTD/svg10.dtd">
<svg xmlns="http://www.w3.org/2000/svg" xmlns:xlink="http://www.w3.org/1999/xlink" id="body_5" width="532" height="390">

<defs>
                    <clipPath  id="1">

                        <path clip-rule="evenodd" d="M0 0L531 0L531 389L0 389z" />                    </clipPath>
                    <clipPath  id="2">

                        <path clip-rule="evenodd" d="M0 0L531 0L531 389L0 389z" />                    </clipPath>
                    <clipPath  id="3">

                        <path clip-rule="evenodd" d="M0 0L531 0L531 389L0 389z" />                    </clipPath>
                    <clipPath  id="4">

                        <path clip-rule="evenodd" d="M0 0L531 0L531 389L0 389z" />                    </clipPath>
                    <clipPath  id="5">

                        <path clip-rule="evenodd" d="M0 0L531 0L531 389L0 389z" />                    </clipPath>
                    <clipPath  id="6">

                        <path clip-rule="evenodd" d="M0 0L531 0L531 389L0 389z" />                    </clipPath>
                    <clipPath  id="7">

                        <path clip-rule="evenodd" d="M0 0L531 0L531 389L0 389z" />                    </clipPath>
                    <clipPath  id="8">

                        <path clip-rule="evenodd" d="M0 0L531 0L531 389L0 389z" />                    </clipPath>
                    <clipPath  id="9">

                        <path clip-rule="evenodd" d="M0 0L531 0L531 389L0 389z" />                    </clipPath>
                    <clipPath  id="10">

                        <path clip-rule="evenodd" d="M0 0L531 0L531 389L0 389z" />                    </clipPath>
                    <clipPath  id="11">

                        <path clip-rule="evenodd" d="M0 0L531 0L531 389L0 389z" />                    </clipPath>
                    <clipPath  id="12">

                        <path clip-rule="evenodd" d="M0 0L531 0L531 389L0 389z" />                    </clipPath>
                    <clipPath  id="13">

                        <path clip-rule="evenodd" d="M0 0L531 0L531 389L0 389z" />                    </clipPath>
                    <clipPath  id="14">

                        <path clip-rule="evenodd" d="M0 0L531 0L531 389L0 389z" />                    </clipPath>
                    <clipPath  id="15">

                        <path clip-rule="evenodd" d="M0 0L531 0L531 389L0 389z" />                    </clipPath>
                    <clipPath  id="16">

                        <path clip-rule="evenodd" d="M0 0L531 0L531 389L0 389z" />                    </clipPath>
                    <clipPath  id="17">

                        <path clip-rule="evenodd" d="M0 0L531 0L531 389L0 389z" />                    </clipPath>
                    <clipPath  id="18">

                        <path clip-rule="evenodd" d="M0 0L531 0L531 389L0 389z" />                    </clipPath>
                    <clipPath  id="19">

                        <path clip-rule="evenodd" d="M0 0L531 0L531 389L0 389z" />                    </clipPath>
                    <clipPath  id="20">

                        <path clip-rule="evenodd" d="M0 0L531 0L531 389L0 389z" />                    </clipPath>
                    <clipPath  id="21">

                        <path clip-rule="evenodd" d="M0 0L531 0L531 389L0 389z" />                    </clipPath>
                    <clipPath  id="22">

                        <path clip-rule="evenodd" d="M0 0L531 0L531 389L0 389z" />                    </clipPath>
                    <clipPath  id="23">

                        <path clip-rule="evenodd" d="M0 0L531 0L531 389L0 389z" />                    </clipPath>
                    <clipPath  id="24">

                        <path clip-rule="evenodd" d="M0 0L531 0L531 389L0 389z" />                    </clipPath>
                    <clipPath  id="25">

                        <path clip-rule="evenodd" d="M0 0L531 0L531 389L0 389z" />                    </clipPath>
                    <clipPath  id="26">

                        <path clip-rule="evenodd" d="M0 0L531 0L531 389L0 389z" />                    </clipPath>
                    <clipPath  id="27">

                        <path clip-rule="evenodd" d="M0 0L531 0L531 389L0 389z" />                    </clipPath>
                    <clipPath  id="28">

                        <path clip-rule="evenodd" d="M0 0L531 0L531 389L0 389z" />                    </clipPath>
                        <clipPath  id="29">

                            <path clip-rule="evenodd" d="M0 0L531 0L531 389L0 389z" />                        </clipPath>
</defs>

<g transform="matrix(1.3333334 0 0 1.3333334 0 0)">
    <path d="M0 0L399 0L399 292.5L0 292.5z" stroke="none" fill="#FFFFFF" fill-rule="evenodd" />
	<g transform="matrix(0.75 0 0 0.75 -0 -0)">
		<g>
			<g>
				<g transform="matrix(1 0 0 1 0 0)">
					<g>
					</g>
					<g>
					</g>
				</g>
				<g>
				</g>
				<g clip-path="url(#1)" >
				</g>
				<g transform="matrix(1 0 0 1 0 0)">
					<g>
                        <path transform="matrix(96 0 0 96 1.5 383.65222)"  d="M0 -3.9807525L5.500328 -3.9807525L5.500328 0L0 0" stroke="none" fill="#FFFFFF" fill-rule="evenodd" />
                        <path transform="matrix(96 0 0 96 1.5 383.65222)"  d="M0 -3.9807525L5.500328 -3.9807525L5.500328 0L0 0" stroke="none" fill="#FFFFFF" fill-rule="evenodd" />
                        <path transform="matrix(96 0 0 96 70.33269 341.7975)"  d="M0 -3.2509477L4.2627544 -3.2509477L4.2627544 0L0 0" stroke="none" fill="#FFFFFF" fill-rule="evenodd" />
                        <path transform="matrix(96 0 0 96 70.332664 341.7975)"  d="M0 0L4.2627544 0" stroke="#262626" stroke-width="0.0066343737" stroke-linecap="round" fill="none" />
                        <path transform="matrix(96 0 0 96 70.332664 341.7975)"  d="M0 0L0 -0.040873803" stroke="#262626" stroke-width="0.0066343737" stroke-linecap="round" fill="none" />
                        <path transform="matrix(96 0 0 96 121.48572 341.7975)"  d="M0 0L0 -0.040873803" stroke="#262626" stroke-width="0.0066343737" stroke-linecap="round" fill="none" />
                        <path transform="matrix(96 0 0 96 172.63876 341.7975)"  d="M0 0L0 -0.040873803" stroke="#262626" stroke-width="0.0066343737" stroke-linecap="round" fill="none" />
                        <path transform="matrix(96 0 0 96 223.79182 341.7975)"  d="M0 0L0 -0.040873803" stroke="#262626" stroke-width="0.0066343737" stroke-linecap="round" fill="none" />
                        <path transform="matrix(96 0 0 96 274.9449 341.7975)"  d="M0 0L0 -0.040873803" stroke="#262626" stroke-width="0.0066343737" stroke-linecap="round" fill="none" />
                        <path transform="matrix(96 0 0 96 326.0979 341.7975)"  d="M0 0L0 -0.040873803" stroke="#262626" stroke-width="0.0066343737" stroke-linecap="round" fill="none" />
                        <path transform="matrix(96 0 0 96 377.25098 341.7975)"  d="M0 0L0 -0.040873803" stroke="#262626" stroke-width="0.0066343737" stroke-linecap="round" fill="none" />
                        <path transform="matrix(96 0 0 96 428.40402 341.7975)"  d="M0 0L0 -0.040873803" stroke="#262626" stroke-width="0.0066343737" stroke-linecap="round" fill="none" />
                        <path transform="matrix(96 0 0 96 479.55704 341.7975)"  d="M0 0L0 -0.040873803" stroke="#262626" stroke-width="0.0066343737" stroke-linecap="round" fill="none" />
					</g>
				</g>
				<g>
				</g>
				<g clip-path="url(#2)" >
					<text transform="matrix(1 0 0 1 66.611435 359.99414)" x="0" y="2.3669999" style="fill:#262626;font-family:ABeeZee;" font-size="12">
30
					</text>
				</g>
				<g transform="matrix(1 0 0 1 0 0)">
					<g>
					</g>
				</g>
				<g>
				</g>
				<g clip-path="url(#3)" >
					<text transform="matrix(1 0 0 1 117.52876 359.99414)" x="0" y="2.3669999" style="fill:#262626;font-family:ABeeZee;" font-size="12">
25
					</text>
				</g>
				<g transform="matrix(1 0 0 1 0 0)">
					<g>
					</g>
				</g>
				<g>
				</g>
				<g clip-path="url(#4)" >
					<text transform="matrix(1 0 0 1 169.38899 359.99414)" x="0" y="2.3669999" style="fill:#262626;font-family:ABeeZee;" font-size="12">
20
					</text>
				</g>
				<g transform="matrix(1 0 0 1 0 0)">
					<g>
					</g>
				</g>
				<g>
				</g>
				<g clip-path="url(#5)" >
					<text transform="matrix(1 0 0 1 216.83618 359.99414)" x="0" y="2.3669999" style="fill:#262626;font-family:ABeeZee;" font-size="12">
15
					</text>
				</g>
				<g transform="matrix(1 0 0 1 0 0)">
					<g>
					</g>
				</g>
				<g>
				</g>
				<g clip-path="url(#6)" >
					<text transform="matrix(1 0 0 1 270.65994 359.99414)" x="0" y="2.3669999" style="fill:#262626;font-family:ABeeZee;" font-size="12">
10
					</text>
				</g>
				<g transform="matrix(1 0 0 1 0 0)">
					<g>
					</g>
				</g>
				<g>
				</g>
				<g clip-path="url(#7)" >
					<text transform="matrix(1 0 0 1 325.43027 359.99414)" x="0" y="2.3669999" style="fill:#262626;font-family:ABeeZee;" font-size="12">
5
					</text>
				</g>
				<g transform="matrix(1 0 0 1 0 0)">
					<g>
					</g>
				</g>
				<g>
				</g>
				<g clip-path="url(#8)" >
					<text transform="matrix(1 0 0 1 377.2905 359.99414)" x="0" y="2.3669999" style="fill:#262626;font-family:ABeeZee;" font-size="12">
0
					</text>
				</g>
				<g transform="matrix(1 0 0 1 0 0)">
					<g>
					</g>
				</g>
				<g>
				</g>
				<g clip-path="url(#9)" >
					<text transform="matrix(1 0 0 1 426.23834 359.99414)" x="0" y="2.3669999" style="fill:#262626;font-family:ABeeZee;" font-size="12">
-
					</text>
				</g>
				<g transform="matrix(1 0 0 1 0 0)">
					<g>
					</g>
				</g>
				<g>
				</g>
				<g clip-path="url(#10)" >
					<text transform="matrix(1 0 0 1 430.1773 359.99414)" x="0" y="2.3669999" style="fill:#262626;font-family:ABeeZee;" font-size="12">
5
					</text>
				</g>
				<g transform="matrix(1 0 0 1 0 0)">
					<g>
					</g>
				</g>
				<g>
				</g>
				<g clip-path="url(#11)" >
					<text transform="matrix(1 0 0 1 466.8649 359.99414)" x="0" y="2.3669999" style="fill:#262626;font-family:ABeeZee;" font-size="12">
-
					</text>
				</g>
				<g transform="matrix(1 0 0 1 0 0)">
					<g>
					</g>
				</g>
				<g>
				</g>
				<g clip-path="url(#12)" >
					<text transform="matrix(1 0 0 1 470.80386 359.99414)" x="0" y="2.3669999" style="fill:#262626;font-family:ABeeZee;" font-size="12">
10
					</text>
				</g>
				<g transform="matrix(1 0 0 1 0 0)">
					<g>
					</g>
				</g>
				<g>
				</g>
				<g clip-path="url(#13)" >
					<text transform="matrix(1 0 0 1 265.14554 378.19183)" x="0" y="2.7615" style="fill:#262626;font-family:ABeeZee;" font-size="14">
SNR
					</text>
				</g>
				<g transform="matrix(1 0 0 1 0 0)">
					<g>
                        <path transform="matrix(96 0 0 96 70.332664 341.7975)"  d="M0 0L0 -3.2509477" stroke="#262626" stroke-width="0.0066343737" stroke-linecap="round" fill="none" />
                        <path transform="matrix(96 0 0 96 70.332664 341.7975)"  d="M0 0L0.042971324 0" stroke="#262626" stroke-width="0.0066343737" stroke-linecap="round" fill="none" />
                        <path transform="matrix(96 0 0 96 70.332664 302.78607)"  d="M0 0L0.042971324 0" stroke="#262626" stroke-width="0.0066343737" stroke-linecap="round" fill="none" />
                        <path transform="matrix(96 0 0 96 70.332664 263.77472)"  d="M0 0L0.042971324 0" stroke="#262626" stroke-width="0.0066343737" stroke-linecap="round" fill="none" />
                        <path transform="matrix(96 0 0 96 70.332664 224.76334)"  d="M0 0L0.042971324 0" stroke="#262626" stroke-width="0.0066343737" stroke-linecap="round" fill="none" />
                        <path transform="matrix(96 0 0 96 70.332664 185.75198)"  d="M0 0L0.042971324 0" stroke="#262626" stroke-width="0.0066343737" stroke-linecap="round" fill="none" />
                        <path transform="matrix(96 0 0 96 70.332664 146.74059)"  d="M0 0L0.042971324 0" stroke="#262626" stroke-width="0.0066343737" stroke-linecap="round" fill="none" />
                        <path transform="matrix(96 0 0 96 70.332664 107.72923)"  d="M0 0L0.042971324 0" stroke="#262626" stroke-width="0.0066343737" stroke-linecap="round" fill="none" />
                        <path transform="matrix(96 0 0 96 70.332664 68.71788)"  d="M0 0L0.042971324 0" stroke="#262626" stroke-width="0.0066343737" stroke-linecap="round" fill="none" />
                        <path transform="matrix(96 0 0 96 70.332664 29.706482)"  d="M0 0L0.042971324 0" stroke="#262626" stroke-width="0.0066343737" stroke-linecap="round" fill="none" />
					</g>
				</g>
				<g>
				</g>
				<g clip-path="url(#14)" >
					<text transform="matrix(1 0 0 1 60.46067 347.25574)" x="0" y="2.3669999" style="fill:#262626;font-family:ABeeZee;" font-size="12">
0
					</text>
				</g>
				<g transform="matrix(1 0 0 1 0 0)">
					<g>
					</g>
				</g>
				<g>
				</g>
				<g clip-path="url(#15)" >
					<text transform="matrix(1 0 0 1 50.82836 308.1306)" x="0" y="2.3669999" style="fill:#262626;font-family:ABeeZee;" font-size="12">
0.1
					</text>
				</g>
				<g transform="matrix(1 0 0 1 0 0)">
					<g>
					</g>
				</g>
				<g>
				</g>
				<g clip-path="url(#16)" >
					<text transform="matrix(1 0 0 1 50.82836 269.00552)" x="0" y="2.3669999" style="fill:#262626;font-family:ABeeZee;" font-size="12">
0.2
					</text>
				</g>
				<g transform="matrix(1 0 0 1 0 0)">
					<g>
					</g>
				</g>
				<g>
				</g>
				<g clip-path="url(#17)" >
					<text transform="matrix(1 0 0 1 50.82836 229.8804)" x="0" y="2.3669999" style="fill:#262626;font-family:ABeeZee;" font-size="12">
0.3
					</text>
				</g>
				<g transform="matrix(1 0 0 1 0 0)">
					<g>
					</g>
				</g>
				<g>
				</g>
				<g clip-path="url(#18)" >
					<text transform="matrix(1 0 0 1 50.82836 191.66519)" x="0" y="2.3669999" style="fill:#262626;font-family:ABeeZee;" font-size="12">
0.4
					</text>
				</g>
				<g transform="matrix(1 0 0 1 0 0)">
					<g>
					</g>
				</g>
				<g>
				</g>
				<g clip-path="url(#19)" >
					<text transform="matrix(1 0 0 1 50.82836 152.54008)" x="0" y="2.3669999" style="fill:#262626;font-family:ABeeZee;" font-size="12">
0.5
					</text>
				</g>
				<g transform="matrix(1 0 0 1 0 0)">
					<g>
					</g>
				</g>
				<g>
				</g>
				<g clip-path="url(#20)" >
					<text transform="matrix(1 0 0 1 50.82836 113.414986)" x="0" y="2.3669999" style="fill:#262626;font-family:ABeeZee;" font-size="12">
0.6
					</text>
				</g>
				<g transform="matrix(1 0 0 1 0 0)">
					<g>
					</g>
				</g>
				<g>
				</g>
				<g clip-path="url(#21)" >
					<text transform="matrix(1 0 0 1 50.82836 74.28988)" x="0" y="2.3669999" style="fill:#262626;font-family:ABeeZee;" font-size="12">
0.7
					</text>
				</g>
				<g transform="matrix(1 0 0 1 0 0)">
					<g>
					</g>
				</g>
				<g>
				</g>
				<g clip-path="url(#22)" >
					<text transform="matrix(1 0 0 1 50.82836 35.164772)" x="0" y="2.3669999" style="fill:#262626;font-family:ABeeZee;" font-size="12">
0.8
					</text>
				</g>
				<g transform="matrix(1 0 0 1 0 0)">
					<g>
					</g>
				</g>
				<g>
				</g>
				<g clip-path="url(#23)" >
					<text transform="matrix(0 -1 1 0 40.158382 186.98048)" x="0" y="0" style="fill:#262626;font-family:ABeeZee;" font-size="14">
S
					</text>
				</g>
				<g transform="matrix(1 0 0 1 0 0)">
					<g>
					</g>
				</g>
				<g>
				</g>
				<g clip-path="url(#24)" >
					<text transform="matrix(1 0 0 1 269.06436 24.246082)" x="0" y="2.7615" style="fill:#000000;font-family:ABeeZee;" font-size="14">
PE
					</text>
				</g>
				<g transform="matrix(1 0 0 1 0 0)">
					<g>
                        <path transform="matrix(96 0 0 96 70.33269 337.41864)"  d="M0 0L0.10681441 -0.03968905L0.21362881 -0.18541302L0.31982934 -0.30329543L0.42664376 -0.41110748L0.5328443 -0.57401025L0.6396587 -0.78489536L0.7464731 -0.85124123L0.85267365 -1.056795L0.95948803 -1.1041849L1.0656886 -1.3304718L1.172503 -1.4661254L1.2793174 -1.6029637L1.385518 -1.7996318L1.4923323 -1.8719014L1.5985328 -2.1289916L1.7053473 -2.2871556L1.8121617 -2.3469853L1.9183621 -2.4500582L2.0251765 -2.693524L2.1313772 -2.6787148L2.2381916 -2.8469489L2.345006 -2.8445792L2.4512064 -2.8510954L2.5580208 -2.9553533L2.6642215 -2.9713473L2.771036 -2.9618692L2.8778503 -3.010444L2.9840508 -3.0051126L3.0908651 -3.054872L3.1970656 -3.0347314L3.3038802 -3.0560567L3.4106946 -3.0803442L3.516895 -3.0542796L3.6237094 -3.057834L3.72991 -3.0353236L3.8367243 -3.0406551L3.943539 -3.0513177L4.0497394 -3.0394704L4.1565537 -3.050133L4.2627544 -3.047171" stroke="#8134AF" stroke-width="0.016284373" stroke-linecap="round" fill="none" />
                        <path transform="matrix(96 0 0 96 65.7949 341.7975)"  d="M0.047268443 -0.07582386C 0.06445697 -0.07582386 0.07857612 -0.062199257 0.07857612 -0.04561279C 0.07857612 -0.029618694 0.06445697 -0.015994094 0.047268443 -0.015994094C 0.03007992 -0.015994094 0.01657465 -0.029618694 0.01657465 -0.04561279C 0.01657465 -0.062199257 0.03007992 -0.07582386 0.047268443 -0.07582386zM0.047268443 -0.09181795C 0.021485656 -0.09181795 7.806256E-18 -0.071084864 0 -0.04561279C -6.3425827E-18 -0.020733085 0.021485656 2.6020852E-18 0.047268443 0C 0.073665105 1.4636729E-18 0.09515076 -0.020733085 0.09515076 -0.04561279C 0.09515076 -0.071084864 0.073665105 -0.09181795 0.047268443 -0.09181795z" stroke="none" fill="#8134AF" fill-rule="nonzero" />
                        <path transform="matrix(96 0 0 96 76.04908 337.98734)"  d="M0.047268443 -0.07582386C 0.06445697 -0.07582386 0.07857612 -0.062199257 0.07857612 -0.04561279C 0.07857612 -0.02902632 0.06445697 -0.015401721 0.047268443 -0.015401721C 0.03007992 -0.015401721 0.015960773 -0.02902632 0.015960773 -0.04561279C 0.015960773 -0.062199257 0.03007992 -0.07582386 0.047268443 -0.07582386zM0.047268443 -0.09122558C 0.02087178 -0.09122558 7.806256E-18 -0.071084864 0 -0.04561279C -3.4152368E-18 -0.020140711 0.02087178 2.6020852E-18 0.047268443 0C 0.073665105 -4.87891E-19 0.094536886 -0.020140711 0.094536886 -0.04561279C 0.094536886 -0.071084864 0.073665105 -0.09122558 0.047268443 -0.09122558z" stroke="none" fill="#8134AF" fill-rule="nonzero" />
                        <path transform="matrix(96 0 0 96 86.24435 323.9978)"  d="M0.047882322 -0.07582386C 0.065070845 -0.07582386 0.07857612 -0.062199257 0.07857612 -0.04561279C 0.07857612 -0.02902632 0.065070845 -0.015994094 0.047882322 -0.015994094C 0.030693796 -0.015994094 0.01657465 -0.02902632 0.01657465 -0.04561279C 0.01657465 -0.062199257 0.030693796 -0.07582386 0.047882322 -0.07582386zM0.047882322 -0.09181795C 0.021485656 -0.09181795 5.2041704E-18 -0.071084864 0 -0.04561279C -5.3668008E-18 -0.020733085 0.021485656 5.2041704E-18 0.047882322 0C 0.073665105 3.4152368E-18 0.09515076 -0.020733085 0.09515076 -0.04561279C 0.09515076 -0.071084864 0.073665105 -0.09181795 0.047882322 -0.09181795z" stroke="none" fill="#8134AF" fill-rule="nonzero" />
                        <path transform="matrix(96 0 0 96 96.49853 312.6811)"  d="M0.047268443 -0.07582386C 0.06445697 -0.07582386 0.07857612 -0.062199257 0.07857612 -0.04561279C 0.07857612 -0.02902632 0.06445697 -0.015994094 0.047268443 -0.015994094C 0.03007992 -0.015994094 0.01657465 -0.02902632 0.01657465 -0.04561279C 0.01657465 -0.062199257 0.03007992 -0.07582386 0.047268443 -0.07582386zM0.047268443 -0.09181795C 0.021485656 -0.09181795 7.806256E-18 -0.071084864 0 -0.04561279C 3.4152368E-18 -0.020733085 0.021485656 5.2041704E-18 0.047268443 0C 0.073665105 3.4152368E-18 0.09515076 -0.020733085 0.09515076 -0.04561279C 0.09515076 -0.071084864 0.073665105 -0.09181795 0.047268443 -0.09181795z" stroke="none" fill="#8134AF" fill-rule="nonzero" />
                        <path transform="matrix(96 0 0 96 106.75271 302.33118)"  d="M0.047268443 -0.07582386C 0.06445697 -0.07582386 0.07857612 -0.062199257 0.07857612 -0.04561279C 0.07857612 -0.02902632 0.06445697 -0.015994094 0.047268443 -0.015994094C 0.03007992 -0.015994094 0.015960773 -0.02902632 0.015960773 -0.04561279C 0.015960773 -0.062199257 0.03007992 -0.07582386 0.047268443 -0.07582386zM0.047268443 -0.09181795C 0.02087178 -0.09181795 7.806256E-18 -0.071084864 0 -0.04561279C -4.391019E-18 -0.020733085 0.02087178 5.2041704E-18 0.047268443 0C 0.073665105 3.4152368E-18 0.094536886 -0.020733085 0.094536886 -0.04561279C 0.094536886 -0.071084864 0.073665105 -0.09181795 0.047268443 -0.09181795z" stroke="none" fill="#8134AF" fill-rule="nonzero" />
                        <path transform="matrix(96 0 0 96 116.94795 286.74933)"  d="M0.047268443 -0.07582386C 0.06445697 -0.07582386 0.07857612 -0.06279163 0.07857612 -0.046205163C 0.07857612 -0.029618694 0.06445697 -0.015994094 0.047268443 -0.015994094C 0.03007992 -0.015994094 0.01657465 -0.029618694 0.01657465 -0.046205163C 0.01657465 -0.06279163 0.03007992 -0.07582386 0.047268443 -0.07582386zM0.047268443 -0.09181795C 0.021485656 -0.09181795 5.2041704E-18 -0.071084864 0 -0.046205163C 1.951564E-18 -0.020733085 0.021485656 2.6020852E-18 0.047268443 0C 0.073665105 1.4636729E-18 0.09515076 -0.020733085 0.09515076 -0.046205163C 0.09515076 -0.071084864 0.073665105 -0.09181795 0.047268443 -0.09181795z" stroke="none" fill="#8134AF" fill-rule="nonzero" />
                        <path transform="matrix(96 0 0 96 127.20213 266.4475)"  d="M0.047268443 -0.07582386C 0.06445697 -0.07582386 0.07857612 -0.062199257 0.07857612 -0.04561279C 0.07857612 -0.02902632 0.06445697 -0.015994094 0.047268443 -0.015994094C 0.03007992 -0.015994094 0.015960773 -0.02902632 0.015960773 -0.04561279C 0.015960773 -0.062199257 0.03007992 -0.07582386 0.047268443 -0.07582386zM0.047268443 -0.09181795C 0.02087178 -0.09181795 7.806256E-18 -0.071084864 0 -0.04561279C 3.4152368E-18 -0.020140711 0.02087178 0 0.047268443 0C 0.073665105 -4.87891E-19 0.094536886 -0.020140711 0.094536886 -0.04561279C 0.094536886 -0.071084864 0.073665105 -0.09181795 0.047268443 -0.09181795z" stroke="none" fill="#8134AF" fill-rule="nonzero" />
                        <path transform="matrix(96 0 0 96 137.3974 260.0783)"  d="M0.047882322 -0.07582386C 0.065070845 -0.07582386 0.07857612 -0.062199257 0.07857612 -0.04561279C 0.07857612 -0.02902632 0.065070845 -0.015401721 0.047882322 -0.015401721C 0.030693796 -0.015401721 0.01657465 -0.02902632 0.01657465 -0.04561279C 0.01657465 -0.062199257 0.030693796 -0.07582386 0.047882322 -0.07582386zM0.047882322 -0.09122558C 0.021485656 -0.09122558 1.0408341E-17 -0.071084864 0 -0.04561279C -1.4636729E-18 -0.020140711 0.021485656 2.6020852E-18 0.047882322 0C 0.073665105 -4.87891E-19 0.09515076 -0.020140711 0.09515076 -0.04561279C 0.09515076 -0.071084864 0.073665105 -0.09122558 0.047882322 -0.09122558z" stroke="none" fill="#8134AF" fill-rule="nonzero" />
                        <path transform="matrix(96 0 0 96 147.65158 240.34515)"  d="M0.047268443 -0.07582386C 0.06445697 -0.07582386 0.07857612 -0.062199257 0.07857612 -0.04561279C 0.07857612 -0.02902632 0.06445697 -0.015994094 0.047268443 -0.015994094C 0.03007992 -0.015994094 0.01657465 -0.02902632 0.01657465 -0.04561279C 0.01657465 -0.062199257 0.03007992 -0.07582386 0.047268443 -0.07582386zM0.047268443 -0.09181795C 0.021485656 -0.09181795 7.806256E-18 -0.071084864 0 -0.04561279C 3.4152368E-18 -0.020733085 0.021485656 5.2041704E-18 0.047268443 0C 0.073665105 3.4152368E-18 0.09515076 -0.020733085 0.09515076 -0.04561279C 0.09515076 -0.071084864 0.073665105 -0.09181795 0.047268443 -0.09181795z" stroke="none" fill="#8134AF" fill-rule="nonzero" />
                        <path transform="matrix(96 0 0 96 157.90576 235.79572)"  d="M0.047268443 -0.07582386C 0.06445697 -0.07582386 0.07857612 -0.062199257 0.07857612 -0.04561279C 0.07857612 -0.02902632 0.06445697 -0.015401721 0.047268443 -0.015401721C 0.03007992 -0.015401721 0.015960773 -0.02902632 0.015960773 -0.04561279C 0.015960773 -0.062199257 0.03007992 -0.07582386 0.047268443 -0.07582386zM0.047268443 -0.09122558C 0.02087178 -0.09122558 7.806256E-18 -0.071084864 0 -0.04561279C 3.4152368E-18 -0.020140711 0.02087178 2.6020852E-18 0.047268443 0C 0.073665105 -4.87891E-19 0.094536886 -0.020140711 0.094536886 -0.04561279C 0.094536886 -0.071084864 0.073665105 -0.09122558 0.047268443 -0.09122558z" stroke="none" fill="#8134AF" fill-rule="nonzero" />
                        <path transform="matrix(96 0 0 96 168.10101 214.12903)"  d="M0.047268443 -0.07582386C 0.06445697 -0.07582386 0.07857612 -0.06279163 0.07857612 -0.046205163C 0.07857612 -0.029618694 0.06445697 -0.015994094 0.047268443 -0.015994094C 0.03007992 -0.015994094 0.01657465 -0.029618694 0.01657465 -0.046205163C 0.01657465 -0.06279163 0.03007992 -0.07582386 0.047268443 -0.07582386zM0.047268443 -0.09181795C 0.021485656 -0.09181795 7.806256E-18 -0.071084864 0 -0.046205163C 3.4152368E-18 -0.020733085 0.021485656 2.6020852E-18 0.047268443 0C 0.073665105 0 0.09515076 -0.020733085 0.09515076 -0.046205163C 0.09515076 -0.071084864 0.073665105 -0.09181795 0.047268443 -0.09181795z" stroke="none" fill="#8134AF" fill-rule="nonzero" />
                        <path transform="matrix(96 0 0 96 178.3552 201.1063)"  d="M0.047268443 -0.07582386C 0.06445697 -0.07582386 0.07857612 -0.06279163 0.07857612 -0.046205163C 0.07857612 -0.029618694 0.06445697 -0.015994094 0.047268443 -0.015994094C 0.03007992 -0.015994094 0.015960773 -0.029618694 0.015960773 -0.046205163C 0.015960773 -0.06279163 0.03007992 -0.07582386 0.047268443 -0.07582386zM0.047268443 -0.09181795C 0.02087178 -0.09181795 7.806256E-18 -0.071084864 0 -0.046205163C -4.391019E-18 -0.020733085 0.02087178 2.6020852E-18 0.047268443 0C 0.073665105 0 0.094536886 -0.020733085 0.094536886 -0.046205163C 0.094536886 -0.071084864 0.073665105 -0.09181795 0.047268443 -0.09181795z" stroke="none" fill="#8134AF" fill-rule="nonzero" />
                        <path transform="matrix(96 0 0 96 188.55045 187.91295)"  d="M0.047882322 -0.07582386C 0.065070845 -0.07582386 0.07857612 -0.062199257 0.07857612 -0.04561279C 0.07857612 -0.02902632 0.065070845 -0.015994094 0.047882322 -0.015994094C 0.030693796 -0.015994094 0.01657465 -0.02902632 0.01657465 -0.04561279C 0.01657465 -0.062199257 0.030693796 -0.07582386 0.047882322 -0.07582386zM0.047882322 -0.09181795C 0.021485656 -0.09181795 7.806256E-18 -0.071084864 0 -0.04561279C -6.3425827E-18 -0.020733085 0.021485656 2.6020852E-18 0.047882322 0C 0.073665105 1.4636729E-18 0.09515076 -0.020733085 0.09515076 -0.04561279C 0.09515076 -0.071084864 0.073665105 -0.09181795 0.047882322 -0.09181795z" stroke="none" fill="#8134AF" fill-rule="nonzero" />
                        <path transform="matrix(96 0 0 96 198.80463 169.0328)"  d="M0.047268443 -0.07582386C 0.06445697 -0.07582386 0.07857612 -0.062199257 0.07857612 -0.04561279C 0.07857612 -0.02902632 0.06445697 -0.015994094 0.047268443 -0.015994094C 0.03007992 -0.015994094 0.01657465 -0.02902632 0.01657465 -0.04561279C 0.01657465 -0.062199257 0.03007992 -0.07582386 0.047268443 -0.07582386zM0.047268443 -0.09181795C 0.021485656 -0.09181795 5.2041704E-18 -0.071084864 0 -0.04561279C 3.903128E-18 -0.020733085 0.021485656 2.6020852E-18 0.047268443 0C 0.073665105 1.4636729E-18 0.09515076 -0.020733085 0.09515076 -0.04561279C 0.09515076 -0.071084864 0.073665105 -0.09181795 0.047268443 -0.09181795z" stroke="none" fill="#8134AF" fill-rule="nonzero" />
                        <path transform="matrix(96 0 0 96 209.0588 162.09494)"  d="M0.047268443 -0.07582386C 0.06445697 -0.07582386 0.07857612 -0.062199257 0.07857612 -0.04561279C 0.07857612 -0.02902632 0.06445697 -0.015401721 0.047268443 -0.015401721C 0.03007992 -0.015401721 0.015960773 -0.02902632 0.015960773 -0.04561279C 0.015960773 -0.062199257 0.03007992 -0.07582386 0.047268443 -0.07582386zM0.047268443 -0.09122558C 0.02087178 -0.09122558 1.0408341E-17 -0.071084864 0 -0.04561279C 2.4394549E-18 -0.020140711 0.02087178 2.6020852E-18 0.047268443 0C 0.073665105 -4.87891E-19 0.094536886 -0.020140711 0.094536886 -0.04561279C 0.094536886 -0.071084864 0.073665105 -0.09122558 0.047268443 -0.09122558z" stroke="none" fill="#8134AF" fill-rule="nonzero" />
                        <path transform="matrix(96 0 0 96 219.25406 137.41425)"  d="M0.047268443 -0.07582386C 0.06445697 -0.07582386 0.07857612 -0.062199257 0.07857612 -0.04561279C 0.07857612 -0.02902632 0.06445697 -0.015994094 0.047268443 -0.015994094C 0.03007992 -0.015994094 0.01657465 -0.02902632 0.01657465 -0.04561279C 0.01657465 -0.062199257 0.03007992 -0.07582386 0.047268443 -0.07582386zM0.047268443 -0.09181795C 0.021485656 -0.09181795 5.2041704E-18 -0.071084864 0 -0.04561279C 0 -0.020733085 0.021485656 0 0.047268443 0C 0.073665105 1.4636729E-18 0.09515076 -0.020733085 0.09515076 -0.04561279C 0.09515076 -0.071084864 0.073665105 -0.09181795 0.047268443 -0.09181795z" stroke="none" fill="#8134AF" fill-rule="nonzero" />
                        <path transform="matrix(96 0 0 96 229.50827 122.230545)"  d="M0.047268443 -0.07582386C 0.06445697 -0.07582386 0.07857612 -0.062199257 0.07857612 -0.04561279C 0.07857612 -0.02902632 0.06445697 -0.015994094 0.047268443 -0.015994094C 0.03007992 -0.015994094 0.015960773 -0.02902632 0.015960773 -0.04561279C 0.015960773 -0.062199257 0.03007992 -0.07582386 0.047268443 -0.07582386zM0.047268443 -0.09181795C 0.02087178 -0.09181795 1.0408341E-17 -0.071084864 0 -0.04561279C -3.4152368E-18 -0.020733085 0.02087178 2.6020852E-18 0.047268443 0C 0.073665105 1.4636729E-18 0.094536886 -0.020733085 0.094536886 -0.04561279C 0.094536886 -0.071084864 0.073665105 -0.09181795 0.047268443 -0.09181795z" stroke="none" fill="#8134AF" fill-rule="nonzero" />
                        <path transform="matrix(96 0 0 96 239.70349 116.48689)"  d="M0.047882322 -0.07582386C 0.065070845 -0.07582386 0.07857612 -0.062199257 0.07857612 -0.04561279C 0.07857612 -0.02902632 0.065070845 -0.015401721 0.047882322 -0.015401721C 0.030693796 -0.015401721 0.01657465 -0.02902632 0.01657465 -0.04561279C 0.01657465 -0.062199257 0.030693796 -0.07582386 0.047882322 -0.07582386zM0.047882322 -0.09122558C 0.021485656 -0.09122558 2.6020852E-18 -0.071084864 0 -0.04561279C -4.391019E-18 -0.020140711 0.021485656 2.6020852E-18 0.047882322 0C 0.073665105 1.4636729E-18 0.09515076 -0.020140711 0.09515076 -0.04561279C 0.09515076 -0.071084864 0.073665105 -0.09122558 0.047882322 -0.09122558z" stroke="none" fill="#8134AF" fill-rule="nonzero" />
                        <path transform="matrix(96 0 0 96 249.95767 106.59187)"  d="M0.047268443 -0.07582386C 0.06445697 -0.07582386 0.07857612 -0.062199257 0.07857612 -0.04561279C 0.07857612 -0.02902632 0.06445697 -0.015401721 0.047268443 -0.015401721C 0.03007992 -0.015401721 0.01657465 -0.02902632 0.01657465 -0.04561279C 0.01657465 -0.062199257 0.03007992 -0.07582386 0.047268443 -0.07582386zM0.047268443 -0.09122558C 0.021485656 -0.09122558 5.2041704E-18 -0.071084864 0 -0.04561279C 0 -0.020140711 0.021485656 5.2041704E-18 0.047268443 0C 0.073665105 1.4636729E-18 0.09515076 -0.020140711 0.09515076 -0.04561279C 0.09515076 -0.071084864 0.073665105 -0.09122558 0.047268443 -0.09122558z" stroke="none" fill="#8134AF" fill-rule="nonzero" />
                        <path transform="matrix(96 0 0 96 260.21185 83.21915)"  d="M0.047268443 -0.07582386C 0.06445697 -0.07582386 0.07857612 -0.062199257 0.07857612 -0.04561279C 0.07857612 -0.02902632 0.06445697 -0.015401721 0.047268443 -0.015401721C 0.03007992 -0.015401721 0.015960773 -0.02902632 0.015960773 -0.04561279C 0.015960773 -0.062199257 0.03007992 -0.07582386 0.047268443 -0.07582386zM0.047268443 -0.09122558C 0.02087178 -0.09122558 1.0408341E-17 -0.071084864 0 -0.04561279C -3.4152368E-18 -0.020140711 0.02087178 0 0.047268443 0C 0.073665105 -4.87891E-19 0.094536886 -0.020140711 0.094536886 -0.04561279C 0.094536886 -0.071084864 0.073665105 -0.09122558 0.047268443 -0.09122558z" stroke="none" fill="#8134AF" fill-rule="nonzero" />
                        <path transform="matrix(96 0 0 96 270.4071 84.69772)"  d="M0.047268443 -0.07582386C 0.06445697 -0.07582386 0.07857612 -0.06279163 0.07857612 -0.046205163C 0.07857612 -0.029618694 0.06445697 -0.015994094 0.047268443 -0.015994094C 0.03007992 -0.015994094 0.01657465 -0.029618694 0.01657465 -0.046205163C 0.01657465 -0.06279163 0.03007992 -0.07582386 0.047268443 -0.07582386zM0.047268443 -0.09181795C 0.021485656 -0.09181795 0 -0.07167724 0 -0.046205163C 3.903128E-18 -0.020733085 0.021485656 2.6020852E-18 0.047268443 0C 0.073665105 0 0.09515076 -0.020733085 0.09515076 -0.046205163C 0.09515076 -0.07167724 0.073665105 -0.09181795 0.047268443 -0.09181795z" stroke="none" fill="#8134AF" fill-rule="nonzero" />
                        <path transform="matrix(96 0 0 96 280.6613 68.49037)"  d="M0.047268443 -0.07582386C 0.06445697 -0.07582386 0.07857612 -0.062199257 0.07857612 -0.04561279C 0.07857612 -0.02902632 0.06445697 -0.015994094 0.047268443 -0.015994094C 0.03007992 -0.015994094 0.015960773 -0.02902632 0.015960773 -0.04561279C 0.015960773 -0.062199257 0.03007992 -0.07582386 0.047268443 -0.07582386zM0.047268443 -0.09181795C 0.02087178 -0.09181795 1.0408341E-17 -0.071084864 0 -0.04561279C -3.4152368E-18 -0.020733085 0.02087178 5.2041704E-18 0.047268443 0C 0.073665105 3.4152368E-18 0.094536886 -0.020733085 0.094536886 -0.04561279C 0.094536886 -0.071084864 0.073665105 -0.09181795 0.047268443 -0.09181795z" stroke="none" fill="#8134AF" fill-rule="nonzero" />
                        <path transform="matrix(96 0 0 96 290.85657 68.717834)"  d="M0.047882322 -0.07582386C 0.065070845 -0.07582386 0.07857612 -0.062199257 0.07857612 -0.04561279C 0.07857612 -0.02902632 0.065070845 -0.015401721 0.047882322 -0.015401721C 0.030693796 -0.015401721 0.01657465 -0.02902632 0.01657465 -0.04561279C 0.01657465 -0.062199257 0.030693796 -0.07582386 0.047882322 -0.07582386zM0.047882322 -0.09122558C 0.021485656 -0.09122558 5.2041704E-18 -0.071084864 0 -0.04561279C 4.87891E-19 -0.020140711 0.021485656 5.2041704E-18 0.047882322 0C 0.073665105 1.4636729E-18 0.09515076 -0.020140711 0.09515076 -0.04561279C 0.09515076 -0.071084864 0.073665105 -0.09122558 0.047882322 -0.09122558z" stroke="none" fill="#8134AF" fill-rule="nonzero" />
                        <path transform="matrix(96 0 0 96 301.11075 68.0923)"  d="M0.047268443 -0.07582386C 0.06445697 -0.07582386 0.07857612 -0.062199257 0.07857612 -0.04561279C 0.07857612 -0.02902632 0.06445697 -0.015401721 0.047268443 -0.015401721C 0.03007992 -0.015401721 0.01657465 -0.02902632 0.01657465 -0.04561279C 0.01657465 -0.062199257 0.03007992 -0.07582386 0.047268443 -0.07582386zM0.047268443 -0.09122558C 0.021485656 -0.09122558 0 -0.071084864 0 -0.04561279C 3.903128E-18 -0.020140711 0.021485656 0 0.047268443 0C 0.073665105 -4.87891E-19 0.09515076 -0.020140711 0.09515076 -0.04561279C 0.09515076 -0.071084864 0.073665105 -0.09122558 0.047268443 -0.09122558z" stroke="none" fill="#8134AF" fill-rule="nonzero" />
                        <path transform="matrix(96 0 0 96 311.36493 58.140427)"  d="M0.047268443 -0.07582386C 0.06445697 -0.07582386 0.07857612 -0.06279163 0.07857612 -0.046205163C 0.07857612 -0.029618694 0.06445697 -0.015994094 0.047268443 -0.015994094C 0.03007992 -0.015994094 0.015960773 -0.029618694 0.015960773 -0.046205163C 0.015960773 -0.06279163 0.03007992 -0.07582386 0.047268443 -0.07582386zM0.047268443 -0.09181795C 0.02087178 -0.09181795 5.2041704E-18 -0.071084864 0 -0.046205163C 9.7578196E-18 -0.020733085 0.02087178 2.6020852E-18 0.047268443 0C 0.073665105 1.4636729E-18 0.094536886 -0.020733085 0.094536886 -0.046205163C 0.094536886 -0.071084864 0.073665105 -0.09181795 0.047268443 -0.09181795z" stroke="none" fill="#8134AF" fill-rule="nonzero" />
                        <path transform="matrix(96 0 0 96 321.56015 56.604996)"  d="M0.047268443 -0.07582386C 0.06445697 -0.07582386 0.07857612 -0.06279163 0.07857612 -0.046205163C 0.07857612 -0.029618694 0.06445697 -0.015994094 0.047268443 -0.015994094C 0.03007992 -0.015994094 0.01657465 -0.029618694 0.01657465 -0.046205163C 0.01657465 -0.06279163 0.03007992 -0.07582386 0.047268443 -0.07582386zM0.047268443 -0.09181795C 0.021485656 -0.09181795 0 -0.071084864 0 -0.046205163C 3.903128E-18 -0.020733085 0.021485656 2.6020852E-18 0.047268443 0C 0.073665105 0 0.09515076 -0.020733085 0.09515076 -0.046205163C 0.09515076 -0.071084864 0.073665105 -0.09181795 0.047268443 -0.09181795z" stroke="none" fill="#8134AF" fill-rule="nonzero" />
                        <path transform="matrix(96 0 0 96 331.81433 57.514893)"  d="M0.047268443 -0.07582386C 0.06445697 -0.07582386 0.07857612 -0.062199257 0.07857612 -0.046205163C 0.07857612 -0.029618694 0.06445697 -0.015994094 0.047268443 -0.015994094C 0.03007992 -0.015994094 0.015960773 -0.029618694 0.015960773 -0.046205163C 0.015960773 -0.062199257 0.03007992 -0.07582386 0.047268443 -0.07582386zM0.047268443 -0.09181795C 0.02087178 -0.09181795 1.0408341E-17 -0.071084864 0 -0.046205163C 6.3425827E-18 -0.020733085 0.02087178 2.6020852E-18 0.047268443 0C 0.073665105 1.4636729E-18 0.094536886 -0.020733085 0.094536886 -0.046205163C 0.094536886 -0.071084864 0.073665105 -0.09181795 0.047268443 -0.09181795z" stroke="none" fill="#8134AF" fill-rule="nonzero" />
                        <path transform="matrix(96 0 0 96 342.00958 52.794846)"  d="M0.047882322 -0.07582386C 0.065070845 -0.07582386 0.07857612 -0.062199257 0.07857612 -0.04561279C 0.07857612 -0.02902632 0.065070845 -0.015994094 0.047882322 -0.015994094C 0.030693796 -0.015994094 0.01657465 -0.02902632 0.01657465 -0.04561279C 0.01657465 -0.062199257 0.030693796 -0.07582386 0.047882322 -0.07582386zM0.047882322 -0.09181795C 0.021485656 -0.09181795 7.806256E-18 -0.071084864 0 -0.04561279C 5.3668008E-18 -0.020733085 0.021485656 5.2041704E-18 0.047882322 0C 0.073665105 3.4152368E-18 0.09515076 -0.020733085 0.09515076 -0.04561279C 0.09515076 -0.071084864 0.073665105 -0.09181795 0.047882322 -0.09181795z" stroke="none" fill="#8134AF" fill-rule="nonzero" />
                        <path transform="matrix(96 0 0 96 352.26376 53.30667)"  d="M0.047268443 -0.07582386C 0.06445697 -0.07582386 0.07857612 -0.062199257 0.07857612 -0.04561279C 0.07857612 -0.02902632 0.06445697 -0.015401721 0.047268443 -0.015401721C 0.03007992 -0.015401721 0.01657465 -0.02902632 0.01657465 -0.04561279C 0.01657465 -0.062199257 0.03007992 -0.07582386 0.047268443 -0.07582386zM0.047268443 -0.09122558C 0.021485656 -0.09122558 0 -0.071084864 0 -0.04561279C 3.903128E-18 -0.020140711 0.021485656 0 0.047268443 0C 0.073665105 -4.87891E-19 0.09515076 -0.020140711 0.09515076 -0.04561279C 0.09515076 -0.071084864 0.073665105 -0.09122558 0.047268443 -0.09122558z" stroke="none" fill="#8134AF" fill-rule="nonzero" />
                        <path transform="matrix(96 0 0 96 362.51794 48.52977)"  d="M0.047268443 -0.07582386C 0.06445697 -0.07582386 0.07857612 -0.062199257 0.07857612 -0.04561279C 0.07857612 -0.02902632 0.06445697 -0.015401721 0.047268443 -0.015401721C 0.03007992 -0.015401721 0.015960773 -0.02902632 0.015960773 -0.04561279C 0.015960773 -0.062199257 0.03007992 -0.07582386 0.047268443 -0.07582386zM0.047268443 -0.09122558C 0.02087178 -0.09122558 1.0408341E-17 -0.071084864 0 -0.04561279C 6.3425827E-18 -0.020140711 0.02087178 0 0.047268443 0C 0.073665105 -4.87891E-19 0.094536886 -0.020140711 0.094536886 -0.04561279C 0.094536886 -0.071084864 0.073665105 -0.09122558 0.047268443 -0.09122558z" stroke="none" fill="#8134AF" fill-rule="nonzero" />
                        <path transform="matrix(96 0 0 96 372.71323 50.520126)"  d="M0.047268443 -0.07582386C 0.06445697 -0.07582386 0.07857612 -0.06279163 0.07857612 -0.046205163C 0.07857612 -0.029618694 0.06445697 -0.015994094 0.047268443 -0.015994094C 0.03007992 -0.015994094 0.01657465 -0.029618694 0.01657465 -0.046205163C 0.01657465 -0.06279163 0.03007992 -0.07582386 0.047268443 -0.07582386zM0.047268443 -0.09181795C 0.021485656 -0.09181795 5.2041704E-18 -0.071084864 0 -0.046205163C 3.903128E-18 -0.020733085 0.021485656 2.6020852E-18 0.047268443 0C 0.073665105 1.4636729E-18 0.09515076 -0.020733085 0.09515076 -0.046205163C 0.09515076 -0.071084864 0.073665105 -0.09181795 0.047268443 -0.09181795z" stroke="none" fill="#8134AF" fill-rule="nonzero" />
                        <path transform="matrix(96 0 0 96 382.9674 48.47287)"  d="M0.047268443 -0.07582386C 0.06445697 -0.07582386 0.07857612 -0.06279163 0.07857612 -0.046205163C 0.07857612 -0.029618694 0.06445697 -0.015994094 0.047268443 -0.015994094C 0.03007992 -0.015994094 0.015960773 -0.029618694 0.015960773 -0.046205163C 0.015960773 -0.06279163 0.03007992 -0.07582386 0.047268443 -0.07582386zM0.047268443 -0.09181795C 0.02087178 -0.09181795 1.0408341E-17 -0.07167724 0 -0.046205163C 2.4394549E-18 -0.020733085 0.02087178 2.6020852E-18 0.047268443 0C 0.073665105 0 0.094536886 -0.020733085 0.094536886 -0.046205163C 0.094536886 -0.07167724 0.073665105 -0.09181795 0.047268443 -0.09181795z" stroke="none" fill="#8134AF" fill-rule="nonzero" />
                        <path transform="matrix(96 0 0 96 393.16266 46.084442)"  d="M0.047882322 -0.07582386C 0.065070845 -0.07582386 0.07857612 -0.062199257 0.07857612 -0.04561279C 0.07857612 -0.02902632 0.065070845 -0.015401721 0.047882322 -0.015401721C 0.030693796 -0.015401721 0.01657465 -0.02902632 0.01657465 -0.04561279C 0.01657465 -0.062199257 0.030693796 -0.07582386 0.047882322 -0.07582386zM0.047882322 -0.09122558C 0.021485656 -0.09122558 2.6020852E-18 -0.071084864 0 -0.04561279C -4.391019E-18 -0.020140711 0.021485656 5.2041704E-18 0.047882322 0C 0.073665105 1.4636729E-18 0.09515076 -0.020140711 0.09515076 -0.04561279C 0.09515076 -0.071084864 0.073665105 -0.09122558 0.047882322 -0.09122558z" stroke="none" fill="#8134AF" fill-rule="nonzero" />
                        <path transform="matrix(96 0 0 96 403.41684 48.64348)"  d="M0.047268443 -0.07582386C 0.06445697 -0.07582386 0.07857612 -0.06279163 0.07857612 -0.046205163C 0.07857612 -0.029618694 0.06445697 -0.015994094 0.047268443 -0.015994094C 0.03007992 -0.015994094 0.01657465 -0.029618694 0.01657465 -0.046205163C 0.01657465 -0.06279163 0.03007992 -0.07582386 0.047268443 -0.07582386zM0.047268443 -0.09181795C 0.021485656 -0.09181795 5.2041704E-18 -0.071084864 0 -0.046205163C 0 -0.020733085 0.021485656 2.6020852E-18 0.047268443 0C 0.073665105 1.4636729E-18 0.09515076 -0.020733085 0.09515076 -0.046205163C 0.09515076 -0.071084864 0.073665105 -0.09181795 0.047268443 -0.09181795z" stroke="none" fill="#8134AF" fill-rule="nonzero" />
                        <path transform="matrix(96 0 0 96 413.67102 48.245407)"  d="M0.047268443 -0.07582386C 0.06445697 -0.07582386 0.07857612 -0.062199257 0.07857612 -0.04561279C 0.07857612 -0.02902632 0.06445697 -0.015401721 0.047268443 -0.015401721C 0.03007992 -0.015401721 0.015960773 -0.02902632 0.015960773 -0.04561279C 0.015960773 -0.062199257 0.03007992 -0.07582386 0.047268443 -0.07582386zM0.047268443 -0.09122558C 0.02087178 -0.09122558 5.2041704E-18 -0.071084864 0 -0.04561279C 1.951564E-18 -0.020140711 0.02087178 2.6020852E-18 0.047268443 0C 0.073665105 -4.87891E-19 0.094536886 -0.020140711 0.094536886 -0.04561279C 0.094536886 -0.071084864 0.073665105 -0.09122558 0.047268443 -0.09122558z" stroke="none" fill="#8134AF" fill-rule="nonzero" />
                        <path transform="matrix(96 0 0 96 423.86624 50.406372)"  d="M0.047268443 -0.07582386C 0.06445697 -0.07582386 0.07857612 -0.062199257 0.07857612 -0.04561279C 0.07857612 -0.02902632 0.06445697 -0.015994094 0.047268443 -0.015994094C 0.03007992 -0.015994094 0.01657465 -0.02902632 0.01657465 -0.04561279C 0.01657465 -0.062199257 0.03007992 -0.07582386 0.047268443 -0.07582386zM0.047268443 -0.09181795C 0.021485656 -0.09181795 5.2041704E-18 -0.071084864 0 -0.04561279C 4.87891E-19 -0.020733085 0.021485656 5.2041704E-18 0.047268443 0C 0.073665105 3.4152368E-18 0.09515076 -0.020733085 0.09515076 -0.04561279C 0.09515076 -0.071084864 0.073665105 -0.09181795 0.047268443 -0.09181795z" stroke="none" fill="#8134AF" fill-rule="nonzero" />
                        <path transform="matrix(96 0 0 96 434.12042 49.894592)"  d="M0.047268443 -0.07582386C 0.06445697 -0.07582386 0.07857612 -0.062199257 0.07857612 -0.04561279C 0.07857612 -0.02902632 0.06445697 -0.015401721 0.047268443 -0.015401721C 0.03007992 -0.015401721 0.015960773 -0.02902632 0.015960773 -0.04561279C 0.015960773 -0.062199257 0.03007992 -0.07582386 0.047268443 -0.07582386zM0.047268443 -0.09122558C 0.02087178 -0.09122558 2.6020852E-18 -0.071084864 0 -0.04561279C -1.951564E-18 -0.020140711 0.02087178 2.6020852E-18 0.047268443 0C 0.073665105 1.4636729E-18 0.094536886 -0.020140711 0.094536886 -0.04561279C 0.094536886 -0.071084864 0.073665105 -0.09122558 0.047268443 -0.09122558z" stroke="none" fill="#8134AF" fill-rule="nonzero" />
                        <path transform="matrix(96 0 0 96 444.3157 48.87094)"  d="M0.047882322 -0.07582386C 0.065070845 -0.07582386 0.07857612 -0.062199257 0.07857612 -0.04561279C 0.07857612 -0.02902632 0.065070845 -0.015401721 0.047882322 -0.015401721C 0.030693796 -0.015401721 0.01657465 -0.02902632 0.01657465 -0.04561279C 0.01657465 -0.062199257 0.030693796 -0.07582386 0.047882322 -0.07582386zM0.047882322 -0.09122558C 0.021485656 -0.09122558 2.6020852E-18 -0.071084864 0 -0.04561279C -4.391019E-18 -0.020140711 0.021485656 0 0.047882322 0C 0.073665105 -4.87891E-19 0.09515076 -0.020140711 0.09515076 -0.04561279C 0.09515076 -0.071084864 0.073665105 -0.09122558 0.047882322 -0.09122558z" stroke="none" fill="#8134AF" fill-rule="nonzero" />
                        <path transform="matrix(96 0 0 96 454.5699 50.0083)"  d="M0.047268443 -0.07582386C 0.06445697 -0.07582386 0.07857612 -0.062199257 0.07857612 -0.04561279C 0.07857612 -0.02902632 0.06445697 -0.015401721 0.047268443 -0.015401721C 0.03007992 -0.015401721 0.01657465 -0.02902632 0.01657465 -0.04561279C 0.01657465 -0.062199257 0.03007992 -0.07582386 0.047268443 -0.07582386zM0.047268443 -0.09122558C 0.021485656 -0.09122558 5.2041704E-18 -0.071084864 0 -0.04561279C 0 -0.020140711 0.021485656 2.6020852E-18 0.047268443 0C 0.073665105 -4.87891E-19 0.09515076 -0.020140711 0.09515076 -0.04561279C 0.09515076 -0.071084864 0.073665105 -0.09122558 0.047268443 -0.09122558z" stroke="none" fill="#8134AF" fill-rule="nonzero" />
                        <path transform="matrix(96 0 0 96 464.82407 48.984695)"  d="M0.047268443 -0.07582386C 0.06445697 -0.07582386 0.07857612 -0.062199257 0.07857612 -0.04561279C 0.07857612 -0.02902632 0.06445697 -0.015401721 0.047268443 -0.015401721C 0.03007992 -0.015401721 0.015960773 -0.02902632 0.015960773 -0.04561279C 0.015960773 -0.062199257 0.03007992 -0.07582386 0.047268443 -0.07582386zM0.047268443 -0.09122558C 0.02087178 -0.09122558 5.2041704E-18 -0.071084864 0 -0.04561279C 0 -0.020140711 0.02087178 0 0.047268443 0C 0.073665105 -4.87891E-19 0.094536886 -0.020140711 0.094536886 -0.04561279C 0.094536886 -0.071084864 0.073665105 -0.09122558 0.047268443 -0.09122558z" stroke="none" fill="#8134AF" fill-rule="nonzero" />
                        <path transform="matrix(96 0 0 96 475.01932 49.269012)"  d="M0.047268443 -0.07582386C 0.06445697 -0.07582386 0.07857612 -0.062199257 0.07857612 -0.04561279C 0.07857612 -0.02902632 0.06445697 -0.015401721 0.047268443 -0.015401721C 0.03007992 -0.015401721 0.01657465 -0.02902632 0.01657465 -0.04561279C 0.01657465 -0.062199257 0.03007992 -0.07582386 0.047268443 -0.07582386zM0.047268443 -0.09122558C 0.021485656 -0.09122558 5.2041704E-18 -0.071084864 0 -0.04561279C 1.951564E-18 -0.020140711 0.021485656 0 0.047268443 0C 0.073665105 -4.87891E-19 0.09515076 -0.020140711 0.09515076 -0.04561279C 0.09515076 -0.071084864 0.073665105 -0.09122558 0.047268443 -0.09122558z" stroke="none" fill="#8134AF" fill-rule="nonzero" />
                        <path transform="matrix(96 0 0 96 70.33269 340.5464)"  d="M0 0L0.10681441 -0.009477982L0.21362881 -0.07345436L0.31982934 -0.17652741L0.42664376 -0.28433946L0.5328443 -0.35009295L0.6396587 -0.55860853L0.7464731 -0.6214002L0.85267365 -0.73276645L0.95948803 -0.93713546L1.0656886 -1.0455399L1.172503 -1.1758621L1.2793174 -1.275381L1.385518 -1.4305829L1.4923323 -1.5917085L1.5985328 -1.7119604L1.7053473 -1.9204761L1.8121617 -2.0330272L1.9183621 -2.120106L2.0251765 -2.3523166L2.1313772 -2.4316947L2.2381916 -2.538322L2.345006 -2.5152194L2.4512064 -2.6230314L2.5580208 -2.6733832L2.6642215 -2.690562L2.771036 -2.6804917L2.8778503 -2.7047791L2.9840508 -2.7349901L3.0908651 -2.733213L3.1970656 -2.7385445L3.3038802 -2.750392L3.4106946 -2.7432835L3.516895 -2.7367673L3.6237094 -2.7438757L3.72991 -2.7278817L3.8367243 -2.753946L3.943539 -2.7515767L4.0497394 -2.7604623L4.1565537 -2.7640164L4.2627544 -2.750392" stroke="#DD2A7B" stroke-width="0.016284373" stroke-linecap="round" fill="none" />
                        <path transform="matrix(96 0 0 96 66.030624 342.9917)"  d="M0.04481294 -0.07582386L0 0L0.090239756 0L0.04481294 -0.07582386z" stroke="#DD2A7B" stroke-width="0.016284373" stroke-linecap="round" fill="none" />
                        <path transform="matrix(96 0 0 96 76.22589 342.0818)"  d="M0.045426816 -0.07582386L0 0L0.09085363 0L0.045426816 -0.07582386z" stroke="#DD2A7B" stroke-width="0.016284373" stroke-linecap="round" fill="none" />
                        <path transform="matrix(96 0 0 96 86.48007 335.94006)"  d="M0.045426816 -0.07582386L0 0L0.09085363 0L0.045426816 -0.07582386z" stroke="#DD2A7B" stroke-width="0.016284373" stroke-linecap="round" fill="none" />
                        <path transform="matrix(96 0 0 96 96.675316 326.04504)"  d="M0.045426816 -0.07582386L0 0L0.09085363 0L0.045426816 -0.07582386z" stroke="#DD2A7B" stroke-width="0.016284373" stroke-linecap="round" fill="none" />
                        <path transform="matrix(96 0 0 96 106.9295 315.69513)"  d="M0.045426816 -0.07582386L0 0L0.09085363 0L0.045426816 -0.07582386z" stroke="#DD2A7B" stroke-width="0.016284373" stroke-linecap="round" fill="none" />
                        <path transform="matrix(96 0 0 96 117.18368 309.38278)"  d="M0.04481294 -0.07582386L0 0L0.090239756 0L0.04481294 -0.07582386z" stroke="#DD2A7B" stroke-width="0.016284373" stroke-linecap="round" fill="none" />
                        <path transform="matrix(96 0 0 96 127.378944 289.3653)"  d="M0.045426816 -0.07582386L0 0L0.09085363 0L0.045426816 -0.07582386z" stroke="#DD2A7B" stroke-width="0.016284373" stroke-linecap="round" fill="none" />
                        <path transform="matrix(96 0 0 96 137.63312 283.2804)"  d="M0.045426816 -0.07582386L0 0L0.09085363 0L0.045426816 -0.07582386z" stroke="#DD2A7B" stroke-width="0.016284373" stroke-linecap="round" fill="none" />
                        <path transform="matrix(96 0 0 96 147.82837 272.64612)"  d="M0.045426816 -0.07582386L0 0L0.09085363 0L0.045426816 -0.07582386z" stroke="#DD2A7B" stroke-width="0.016284373" stroke-linecap="round" fill="none" />
                        <path transform="matrix(96 0 0 96 158.08255 252.96982)"  d="M0.045426816 -0.07582386L0 0L0.09085363 0L0.045426816 -0.07582386z" stroke="#DD2A7B" stroke-width="0.016284373" stroke-linecap="round" fill="none" />
                        <path transform="matrix(96 0 0 96 168.33673 242.61987)"  d="M0.04481294 -0.07582386L0 0L0.090239756 0L0.04481294 -0.07582386z" stroke="#DD2A7B" stroke-width="0.016284373" stroke-linecap="round" fill="none" />
                        <path transform="matrix(96 0 0 96 178.532 230.05206)"  d="M0.045426816 -0.07582386L0 0L0.09085363 0L0.045426816 -0.07582386z" stroke="#DD2A7B" stroke-width="0.016284373" stroke-linecap="round" fill="none" />
                        <path transform="matrix(96 0 0 96 188.78618 220.55511)"  d="M0.045426816 -0.07582386L0 0L0.09085363 0L0.045426816 -0.07582386z" stroke="#DD2A7B" stroke-width="0.016284373" stroke-linecap="round" fill="none" />
                        <path transform="matrix(96 0 0 96 198.98141 205.59888)"  d="M0.045426816 -0.07582386L0 0L0.09085363 0L0.045426816 -0.07582386z" stroke="#DD2A7B" stroke-width="0.016284373" stroke-linecap="round" fill="none" />
                        <path transform="matrix(96 0 0 96 209.2356 190.18767)"  d="M0.045426816 -0.07582386L0 0L0.09085363 0L0.045426816 -0.07582386z" stroke="#DD2A7B" stroke-width="0.016284373" stroke-linecap="round" fill="none" />
                        <path transform="matrix(96 0 0 96 219.48978 178.64346)"  d="M0.04481294 -0.07582386L0 0L0.090239756 0L0.04481294 -0.07582386z" stroke="#DD2A7B" stroke-width="0.016284373" stroke-linecap="round" fill="none" />
                        <path transform="matrix(96 0 0 96 229.68506 158.626)"  d="M0.045426816 -0.07582386L0 0L0.09085363 0L0.045426816 -0.07582386z" stroke="#DD2A7B" stroke-width="0.016284373" stroke-linecap="round" fill="none" />
                        <path transform="matrix(96 0 0 96 239.93924 147.82109)"  d="M0.045426816 -0.07582386L0 0L0.09085363 0L0.045426816 -0.07582386z" stroke="#DD2A7B" stroke-width="0.016284373" stroke-linecap="round" fill="none" />
                        <path transform="matrix(96 0 0 96 250.13446 139.4615)"  d="M0.045426816 -0.07582386L0 0L0.09085363 0L0.045426816 -0.07582386z" stroke="#DD2A7B" stroke-width="0.016284373" stroke-linecap="round" fill="none" />
                        <path transform="matrix(96 0 0 96 260.38864 117.16928)"  d="M0.045426816 -0.07582386L0 0L0.09085363 0L0.045426816 -0.07582386z" stroke="#DD2A7B" stroke-width="0.016284373" stroke-linecap="round" fill="none" />
                        <path transform="matrix(96 0 0 96 270.64285 109.49213)"  d="M0.04481294 -0.07582386L0 0L0.090239756 0L0.04481294 -0.07582386z" stroke="#DD2A7B" stroke-width="0.016284373" stroke-linecap="round" fill="none" />
                        <path transform="matrix(96 0 0 96 280.83807 99.31279)"  d="M0.045426816 -0.07582386L0 0L0.09085363 0L0.045426816 -0.07582386z" stroke="#DD2A7B" stroke-width="0.016284373" stroke-linecap="round" fill="none" />
                        <path transform="matrix(96 0 0 96 291.09225 101.53061)"  d="M0.045426816 -0.07582386L0 0L0.09085363 0L0.045426816 -0.07582386z" stroke="#DD2A7B" stroke-width="0.016284373" stroke-linecap="round" fill="none" />
                        <path transform="matrix(96 0 0 96 301.28754 91.180664)"  d="M0.045426816 -0.07582386L0 0L0.09085363 0L0.045426816 -0.07582386z" stroke="#DD2A7B" stroke-width="0.016284373" stroke-linecap="round" fill="none" />
                        <path transform="matrix(96 0 0 96 311.54172 86.29001)"  d="M0.045426816 -0.075231485L0 0L0.09085363 0L0.045426816 -0.075231485z" stroke="#DD2A7B" stroke-width="0.016284373" stroke-linecap="round" fill="none" />
                        <path transform="matrix(96 0 0 96 321.7959 84.64087)"  d="M0.04481294 -0.07582386L0 0L0.090239756 0L0.04481294 -0.07582386z" stroke="#DD2A7B" stroke-width="0.016284373" stroke-linecap="round" fill="none" />
                        <path transform="matrix(96 0 0 96 331.99115 85.664474)"  d="M0.045426816 -0.07582386L0 0L0.09085363 0L0.045426816 -0.07582386z" stroke="#DD2A7B" stroke-width="0.016284373" stroke-linecap="round" fill="none" />
                        <path transform="matrix(96 0 0 96 342.24533 83.3329)"  d="M0.045426816 -0.07582386L0 0L0.09085363 0L0.045426816 -0.07582386z" stroke="#DD2A7B" stroke-width="0.016284373" stroke-linecap="round" fill="none" />
                        <path transform="matrix(96 0 0 96 352.44055 80.43265)"  d="M0.045426816 -0.07582386L0 0L0.09085363 0L0.045426816 -0.07582386z" stroke="#DD2A7B" stroke-width="0.016284373" stroke-linecap="round" fill="none" />
                        <path transform="matrix(96 0 0 96 362.69473 80.54636)"  d="M0.045426816 -0.07582386L0 0L0.09085363 0L0.045426816 -0.07582386z" stroke="#DD2A7B" stroke-width="0.016284373" stroke-linecap="round" fill="none" />
                        <path transform="matrix(96 0 0 96 372.9489 80.09143)"  d="M0.04481294 -0.07582386L0 0L0.090239756 0L0.04481294 -0.07582386z" stroke="#DD2A7B" stroke-width="0.016284373" stroke-linecap="round" fill="none" />
                        <path transform="matrix(96 0 0 96 383.1442 78.89722)"  d="M0.045426816 -0.075231485L0 0L0.09085363 0L0.045426816 -0.075231485z" stroke="#DD2A7B" stroke-width="0.016284373" stroke-linecap="round" fill="none" />
                        <path transform="matrix(96 0 0 96 393.39838 79.636505)"  d="M0.045426816 -0.07582386L0 0L0.09085363 0L0.045426816 -0.07582386z" stroke="#DD2A7B" stroke-width="0.016284373" stroke-linecap="round" fill="none" />
                        <path transform="matrix(96 0 0 96 403.59363 80.205185)"  d="M0.045426816 -0.07582386L0 0L0.09085363 0L0.045426816 -0.07582386z" stroke="#DD2A7B" stroke-width="0.016284373" stroke-linecap="round" fill="none" />
                        <path transform="matrix(96 0 0 96 413.8478 79.52275)"  d="M0.045426816 -0.07582386L0 0L0.09085363 0L0.045426816 -0.07582386z" stroke="#DD2A7B" stroke-width="0.016284373" stroke-linecap="round" fill="none" />
                        <path transform="matrix(96 0 0 96 424.102 81.05818)"  d="M0.04481294 -0.07582386L0 0L0.090239756 0L0.04481294 -0.07582386z" stroke="#DD2A7B" stroke-width="0.016284373" stroke-linecap="round" fill="none" />
                        <path transform="matrix(96 0 0 96 434.29727 78.612854)"  d="M0.045426816 -0.07582386L0 0L0.09085363 0L0.045426816 -0.07582386z" stroke="#DD2A7B" stroke-width="0.016284373" stroke-linecap="round" fill="none" />
                        <path transform="matrix(96 0 0 96 444.55145 78.84032)"  d="M0.045426816 -0.07582386L0 0L0.09085363 0L0.045426816 -0.07582386z" stroke="#DD2A7B" stroke-width="0.016284373" stroke-linecap="round" fill="none" />
                        <path transform="matrix(96 0 0 96 454.74667 77.98732)"  d="M0.045426816 -0.07582386L0 0L0.09085363 0L0.045426816 -0.07582386z" stroke="#DD2A7B" stroke-width="0.016284373" stroke-linecap="round" fill="none" />
                        <path transform="matrix(96 0 0 96 465.00085 77.6461)"  d="M0.045426816 -0.07582386L0 0L0.09085363 0L0.045426816 -0.07582386z" stroke="#DD2A7B" stroke-width="0.016284373" stroke-linecap="round" fill="none" />
                        <path transform="matrix(96 0 0 96 475.25504 78.95407)"  d="M0.04481294 -0.07582386L0 0L0.090239756 0L0.04481294 -0.07582386z" stroke="#DD2A7B" stroke-width="0.016284373" stroke-linecap="round" fill="none" />
                        <path transform="matrix(96 0 0 96 70.33269 340.88757)"  d="M0 0L0.10681441 -0.0029618694L0.21362881 -0.08174759L0.31982934 -0.16882655L0.42664376 -0.22510207L0.5328443 -0.28256235L0.6396587 -0.31573528L0.7464731 -0.4128846L0.85267365 -0.45968214L0.95948803 -0.5817111L1.0656886 -0.66819775L1.172503 -0.71973425L1.2793174 -0.84472513L1.385518 -0.90573967L1.4923323 -0.93002695L1.5985328 -1.134396L1.7053473 -1.2410233L1.8121617 -1.4045185L1.9183621 -1.4969288L2.0251765 -1.5727526L2.1313772 -1.7498724L2.2381916 -1.9311389L2.345006 -1.9874144L2.4512064 -2.0306575L2.5580208 -2.1106281L2.6642215 -2.1781588L2.771036 -2.210147L2.8778503 -2.2243638L2.9840508 -2.2504284L3.0908651 -2.281824L3.1970656 -2.2794547L3.3038802 -2.297226L3.4106946 -2.2978182L3.516895 -2.2936716L3.6237094 -2.3061116L3.72991 -2.3215132L3.8367243 -2.289525L3.943539 -2.2978182L4.0497394 -2.2907097L4.1565537 -2.2918944L4.2627544 -2.2948563" stroke="#515BD4" stroke-width="0.016284373" stroke-linecap="round" fill="none" />
                        <path transform="matrix(96 0 0 96 66.030624 345.72134)"  d="M0.04481294 0L0 -0.07582386L0.090239756 -0.07582386L0.04481294 0z" stroke="#515BD4" stroke-width="0.016284373" stroke-linecap="round" fill="none" />
                        <path transform="matrix(96 0 0 96 76.22589 345.4939)"  d="M0.045426816 0L0 -0.07582386L0.09085363 -0.07582386L0.045426816 0z" stroke="#515BD4" stroke-width="0.016284373" stroke-linecap="round" fill="none" />
                        <path transform="matrix(96 0 0 96 86.48007 337.8736)"  d="M0.045426816 0L0 -0.07582386L0.09085363 -0.07582386L0.045426816 0z" stroke="#515BD4" stroke-width="0.016284373" stroke-linecap="round" fill="none" />
                        <path transform="matrix(96 0 0 96 96.675316 329.51398)"  d="M0.045426816 0L0 -0.07582386L0.09085363 -0.07582386L0.045426816 0z" stroke="#515BD4" stroke-width="0.016284373" stroke-linecap="round" fill="none" />
                        <path transform="matrix(96 0 0 96 106.9295 324.1684)"  d="M0.045426816 0L0 -0.07582386L0.09085363 -0.07582386L0.045426816 0z" stroke="#515BD4" stroke-width="0.016284373" stroke-linecap="round" fill="none" />
                        <path transform="matrix(96 0 0 96 117.18368 318.59537)"  d="M0.04481294 0L0 -0.07582386L0.090239756 -0.07582386L0.04481294 0z" stroke="#515BD4" stroke-width="0.016284373" stroke-linecap="round" fill="none" />
                        <path transform="matrix(96 0 0 96 127.378944 315.41077)"  d="M0.045426816 0L0 -0.07582386L0.09085363 -0.07582386L0.045426816 0z" stroke="#515BD4" stroke-width="0.016284373" stroke-linecap="round" fill="none" />
                        <path transform="matrix(96 0 0 96 137.63312 306.0844)"  d="M0.045426816 0L0 -0.07582386L0.09085363 -0.07582386L0.045426816 0z" stroke="#515BD4" stroke-width="0.016284373" stroke-linecap="round" fill="none" />
                        <path transform="matrix(96 0 0 96 147.82837 301.64874)"  d="M0.045426816 0L0 -0.07582386L0.09085363 -0.07582386L0.045426816 0z" stroke="#515BD4" stroke-width="0.016284373" stroke-linecap="round" fill="none" />
                        <path transform="matrix(96 0 0 96 158.08255 289.87708)"  d="M0.045426816 0L0 -0.07582386L0.09085363 -0.07582386L0.045426816 0z" stroke="#515BD4" stroke-width="0.016284373" stroke-linecap="round" fill="none" />
                        <path transform="matrix(96 0 0 96 168.33673 281.57437)"  d="M0.04481294 0L0 -0.07582386L0.090239756 -0.07582386L0.04481294 0z" stroke="#515BD4" stroke-width="0.016284373" stroke-linecap="round" fill="none" />
                        <path transform="matrix(96 0 0 96 178.532 276.62686)"  d="M0.045426816 0L0 -0.07582386L0.09085363 -0.07582386L0.045426816 0z" stroke="#515BD4" stroke-width="0.016284373" stroke-linecap="round" fill="none" />
                        <path transform="matrix(96 0 0 96 188.78618 264.62775)"  d="M0.045426816 0L0 -0.075231485L0.09085363 -0.075231485L0.045426816 0z" stroke="#515BD4" stroke-width="0.016284373" stroke-linecap="round" fill="none" />
                        <path transform="matrix(96 0 0 96 198.98141 258.8272)"  d="M0.045426816 0L0 -0.07582386L0.09085363 -0.07582386L0.045426816 0z" stroke="#515BD4" stroke-width="0.016284373" stroke-linecap="round" fill="none" />
                        <path transform="matrix(96 0 0 96 209.2356 256.43875)"  d="M0.045426816 0L0 -0.07582386L0.09085363 -0.07582386L0.045426816 0z" stroke="#515BD4" stroke-width="0.016284373" stroke-linecap="round" fill="none" />
                        <path transform="matrix(96 0 0 96 219.48978 236.87622)"  d="M0.04481294 0L0 -0.07582386L0.090239756 -0.07582386L0.04481294 0z" stroke="#515BD4" stroke-width="0.016284373" stroke-linecap="round" fill="none" />
                        <path transform="matrix(96 0 0 96 229.68506 226.58313)"  d="M0.045426816 0L0 -0.07582386L0.09085363 -0.07582386L0.045426816 0z" stroke="#515BD4" stroke-width="0.016284373" stroke-linecap="round" fill="none" />
                        <path transform="matrix(96 0 0 96 239.93924 210.88756)"  d="M0.045426816 0L0 -0.07582386L0.09085363 -0.07582386L0.045426816 0z" stroke="#515BD4" stroke-width="0.016284373" stroke-linecap="round" fill="none" />
                        <path transform="matrix(96 0 0 96 250.13446 202.01619)"  d="M0.045426816 0L0 -0.07582386L0.09085363 -0.07582386L0.045426816 0z" stroke="#515BD4" stroke-width="0.016284373" stroke-linecap="round" fill="none" />
                        <path transform="matrix(96 0 0 96 260.38864 194.7371)"  d="M0.045426816 0L0 -0.07582386L0.09085363 -0.07582386L0.045426816 0z" stroke="#515BD4" stroke-width="0.016284373" stroke-linecap="round" fill="none" />
                        <path transform="matrix(96 0 0 96 270.64285 177.73361)"  d="M0.04481294 0L0 -0.07582386L0.090239756 -0.07582386L0.04481294 0z" stroke="#515BD4" stroke-width="0.016284373" stroke-linecap="round" fill="none" />
                        <path transform="matrix(96 0 0 96 280.83807 160.332)"  d="M0.045426816 0L0 -0.07582386L0.09085363 -0.07582386L0.045426816 0z" stroke="#515BD4" stroke-width="0.016284373" stroke-linecap="round" fill="none" />
                        <path transform="matrix(96 0 0 96 291.09225 154.92957)"  d="M0.045426816 0L0 -0.07582386L0.09085363 -0.07582386L0.045426816 0z" stroke="#515BD4" stroke-width="0.016284373" stroke-linecap="round" fill="none" />
                        <path transform="matrix(96 0 0 96 301.28754 150.7782)"  d="M0.045426816 0L0 -0.07582386L0.09085363 -0.07582386L0.045426816 0z" stroke="#515BD4" stroke-width="0.016284373" stroke-linecap="round" fill="none" />
                        <path transform="matrix(96 0 0 96 311.54172 143.10104)"  d="M0.045426816 0L0 -0.07582386L0.09085363 -0.07582386L0.045426816 0z" stroke="#515BD4" stroke-width="0.016284373" stroke-linecap="round" fill="none" />
                        <path transform="matrix(96 0 0 96 321.7959 136.6181)"  d="M0.04481294 0L0 -0.07582386L0.090239756 -0.07582386L0.04481294 0z" stroke="#515BD4" stroke-width="0.016284373" stroke-linecap="round" fill="none" />
                        <path transform="matrix(96 0 0 96 331.99115 133.54724)"  d="M0.045426816 0L0 -0.07582386L0.09085363 -0.07582386L0.045426816 0z" stroke="#515BD4" stroke-width="0.016284373" stroke-linecap="round" fill="none" />
                        <path transform="matrix(96 0 0 96 342.24533 132.18242)"  d="M0.045426816 0L0 -0.07582386L0.09085363 -0.07582386L0.045426816 0z" stroke="#515BD4" stroke-width="0.016284373" stroke-linecap="round" fill="none" />
                        <path transform="matrix(96 0 0 96 352.44055 129.68024)"  d="M0.045426816 0L0 -0.07582386L0.09085363 -0.07582386L0.045426816 0z" stroke="#515BD4" stroke-width="0.016284373" stroke-linecap="round" fill="none" />
                        <path transform="matrix(96 0 0 96 362.69473 126.72308)"  d="M0.045426816 0L0 -0.07582386L0.09085363 -0.07582386L0.045426816 0z" stroke="#515BD4" stroke-width="0.016284373" stroke-linecap="round" fill="none" />
                        <path transform="matrix(96 0 0 96 372.9489 126.89369)"  d="M0.04481294 0L0 -0.07582386L0.090239756 -0.07582386L0.04481294 0z" stroke="#515BD4" stroke-width="0.016284373" stroke-linecap="round" fill="none" />
                        <path transform="matrix(96 0 0 96 383.1442 125.18765)"  d="M0.045426816 0L0 -0.07582386L0.09085363 -0.07582386L0.045426816 0z" stroke="#515BD4" stroke-width="0.016284373" stroke-linecap="round" fill="none" />
                        <path transform="matrix(96 0 0 96 393.39838 125.1308)"  d="M0.045426816 0L0 -0.07582386L0.09085363 -0.07582386L0.045426816 0z" stroke="#515BD4" stroke-width="0.016284373" stroke-linecap="round" fill="none" />
                        <path transform="matrix(96 0 0 96 403.59363 125.52887)"  d="M0.045426816 0L0 -0.07582386L0.09085363 -0.07582386L0.045426816 0z" stroke="#515BD4" stroke-width="0.016284373" stroke-linecap="round" fill="none" />
                        <path transform="matrix(96 0 0 96 413.8478 124.334656)"  d="M0.045426816 0L0 -0.07582386L0.09085363 -0.07582386L0.045426816 0z" stroke="#515BD4" stroke-width="0.016284373" stroke-linecap="round" fill="none" />
                        <path transform="matrix(96 0 0 96 424.102 122.85608)"  d="M0.04481294 0L0 -0.07582386L0.090239756 -0.07582386L0.04481294 0z" stroke="#515BD4" stroke-width="0.016284373" stroke-linecap="round" fill="none" />
                        <path transform="matrix(96 0 0 96 434.29727 125.92694)"  d="M0.045426816 0L0 -0.07582386L0.09085363 -0.07582386L0.045426816 0z" stroke="#515BD4" stroke-width="0.016284373" stroke-linecap="round" fill="none" />
                        <path transform="matrix(96 0 0 96 444.55145 125.18765)"  d="M0.045426816 0L0 -0.07582386L0.09085363 -0.07582386L0.045426816 0z" stroke="#515BD4" stroke-width="0.016284373" stroke-linecap="round" fill="none" />
                        <path transform="matrix(96 0 0 96 454.74667 125.81323)"  d="M0.045426816 0L0 -0.07582386L0.09085363 -0.07582386L0.045426816 0z" stroke="#515BD4" stroke-width="0.016284373" stroke-linecap="round" fill="none" />
                        <path transform="matrix(96 0 0 96 465.00085 125.75633)"  d="M0.045426816 0L0 -0.07582386L0.09085363 -0.07582386L0.045426816 0z" stroke="#515BD4" stroke-width="0.016284373" stroke-linecap="round" fill="none" />
                        <path transform="matrix(96 0 0 96 475.25504 125.415115)"  d="M0.04481294 0L0 -0.07582386L0.090239756 -0.07582386L0.04481294 0z" stroke="#515BD4" stroke-width="0.016284373" stroke-linecap="round" fill="none" />
                        <path transform="matrix(96 0 0 96 70.33269 338.27167)"  d="M0 0L0.10681441 -0.0077008605L0.21362881 -0.049759407L0.31982934 -0.09833406L0.42664376 -0.1475011L0.5328443 -0.11077391L0.6396587 -0.18245116L0.7464731 -0.18778251L0.85267365 -0.28670895L0.95948803 -0.36312518L1.0656886 -0.48219234L1.172503 -0.44013378L1.2793174 -0.59237385L1.385518 -0.6101451L1.4923323 -0.6320629L1.5985328 -0.77186316L1.7053473 -0.8340624L1.8121617 -0.8636811L1.9183621 -0.9993347L2.0251765 -1.0028889L2.1313772 -1.0905603L2.2381916 -1.159868L2.345006 -1.2262139L2.4512064 -1.2457622L2.5580208 -1.2890055L2.6642215 -1.3085539L2.771036 -1.343504L2.8778503 -1.3328412L2.9840508 -1.3624599L3.0908651 -1.3867472L3.1970656 -1.3583133L3.3038802 -1.3630522L3.4106946 -1.3589057L3.516895 -1.3725302L3.6237094 -1.3677913L3.72991 -1.3630522L3.8367243 -1.3553514L3.943539 -1.3583133L4.0497394 -1.3660141L4.1565537 -1.3772693L4.2627544 -1.3523896" stroke="#FEDA77" stroke-width="0.016284373" stroke-linecap="round" fill="none" />
                        <path transform="matrix(96 0 0 96 66.56101 343.1054)"  d="M0 -0.05035178L0.03928806 0L0.07857612 -0.05035178L0.03928806 -0.10070356L0 -0.05035178z" stroke="#FEDA77" stroke-width="0.016284373" stroke-linecap="round" fill="none" />
                        <path transform="matrix(96 0 0 96 76.815216 342.36615)"  d="M0 -0.05035178L0.03928806 0L0.07857612 -0.05035178L0.03928806 -0.10070356L0 -0.05035178z" stroke="#FEDA77" stroke-width="0.016284373" stroke-linecap="round" fill="none" />
                        <path transform="matrix(96 0 0 96 87.0694 338.3285)"  d="M0 -0.05035178L0.03928806 0L0.07857612 -0.05035178L0.03928806 -0.10070356L0 -0.05035178z" stroke="#FEDA77" stroke-width="0.016284373" stroke-linecap="round" fill="none" />
                        <path transform="matrix(96 0 0 96 97.26464 333.72223)"  d="M0 -0.050944153L0.03928806 0L0.07857612 -0.050944153L0.03928806 -0.10129593L0 -0.050944153z" stroke="#FEDA77" stroke-width="0.016284373" stroke-linecap="round" fill="none" />
                        <path transform="matrix(96 0 0 96 107.51882 328.9453)"  d="M0 -0.05035178L0.03928806 0L0.07857612 -0.05035178L0.03928806 -0.10070356L0 -0.05035178z" stroke="#FEDA77" stroke-width="0.016284373" stroke-linecap="round" fill="none" />
                        <path transform="matrix(96 0 0 96 117.714066 332.47113)"  d="M0 -0.05035178L0.03928806 0L0.07857612 -0.05035178L0.03928806 -0.10129593L0 -0.05035178z" stroke="#FEDA77" stroke-width="0.016284373" stroke-linecap="round" fill="none" />
                        <path transform="matrix(96 0 0 96 127.96825 325.59015)"  d="M0 -0.05035178L0.03928806 0L0.07857612 -0.05035178L0.03928806 -0.10070356L0 -0.05035178z" stroke="#FEDA77" stroke-width="0.016284373" stroke-linecap="round" fill="none" />
                        <path transform="matrix(96 0 0 96 138.22244 325.0783)"  d="M0 -0.05035178L0.03928806 0L0.07857612 -0.05035178L0.03928806 -0.10070356L0 -0.05035178z" stroke="#FEDA77" stroke-width="0.016284373" stroke-linecap="round" fill="none" />
                        <path transform="matrix(96 0 0 96 148.4177 315.58136)"  d="M0 -0.05035178L0.03928806 0L0.07857612 -0.05035178L0.03928806 -0.10070356L0 -0.05035178z" stroke="#FEDA77" stroke-width="0.016284373" stroke-linecap="round" fill="none" />
                        <path transform="matrix(96 0 0 96 158.67188 308.24542)"  d="M0 -0.05035178L0.03928806 0L0.07857612 -0.05035178L0.03928806 -0.10070356L0 -0.05035178z" stroke="#FEDA77" stroke-width="0.016284373" stroke-linecap="round" fill="none" />
                        <path transform="matrix(96 0 0 96 168.86713 296.81497)"  d="M0 -0.05035178L0.03928806 0L0.07857612 -0.05035178L0.03928806 -0.10129593L0 -0.05035178z" stroke="#FEDA77" stroke-width="0.016284373" stroke-linecap="round" fill="none" />
                        <path transform="matrix(96 0 0 96 179.1213 300.8526)"  d="M0 -0.05035178L0.03928806 0L0.07857612 -0.05035178L0.03928806 -0.10129593L0 -0.05035178z" stroke="#FEDA77" stroke-width="0.016284373" stroke-linecap="round" fill="none" />
                        <path transform="matrix(96 0 0 96 189.37549 286.23752)"  d="M0 -0.05035178L0.03928806 0L0.07857612 -0.05035178L0.03928806 -0.10070356L0 -0.05035178z" stroke="#FEDA77" stroke-width="0.016284373" stroke-linecap="round" fill="none" />
                        <path transform="matrix(96 0 0 96 199.57074 284.5315)"  d="M0 -0.05035178L0.03928806 0L0.07857612 -0.05035178L0.03928806 -0.10070356L0 -0.05035178z" stroke="#FEDA77" stroke-width="0.016284373" stroke-linecap="round" fill="none" />
                        <path transform="matrix(96 0 0 96 209.82492 282.42737)"  d="M0 -0.05035178L0.03928806 0L0.07857612 -0.05035178L0.03928806 -0.10070356L0 -0.05035178z" stroke="#FEDA77" stroke-width="0.016284373" stroke-linecap="round" fill="none" />
                        <path transform="matrix(96 0 0 96 220.02017 269.00656)"  d="M0 -0.05035178L0.03928806 0L0.07857612 -0.05035178L0.03928806 -0.10070356L0 -0.05035178z" stroke="#FEDA77" stroke-width="0.016284373" stroke-linecap="round" fill="none" />
                        <path transform="matrix(96 0 0 96 230.27438 263.0923)"  d="M0 -0.050944153L0.03928806 0L0.07857612 -0.050944153L0.03928806 -0.10129593L0 -0.050944153z" stroke="#FEDA77" stroke-width="0.016284373" stroke-linecap="round" fill="none" />
                        <path transform="matrix(96 0 0 96 240.52856 260.19205)"  d="M0 -0.05035178L0.03928806 0L0.07857612 -0.05035178L0.03928806 -0.10070356L0 -0.05035178z" stroke="#FEDA77" stroke-width="0.016284373" stroke-linecap="round" fill="none" />
                        <path transform="matrix(96 0 0 96 250.72379 247.16931)"  d="M0 -0.05035178L0.03928806 0L0.07857612 -0.05035178L0.03928806 -0.10070356L0 -0.05035178z" stroke="#FEDA77" stroke-width="0.016284373" stroke-linecap="round" fill="none" />
                        <path transform="matrix(96 0 0 96 260.97797 246.8281)"  d="M0 -0.05035178L0.03928806 0L0.07857612 -0.05035178L0.03928806 -0.10070356L0 -0.05035178z" stroke="#FEDA77" stroke-width="0.016284373" stroke-linecap="round" fill="none" />
                        <path transform="matrix(96 0 0 96 271.17322 238.41165)"  d="M0 -0.05035178L0.03928806 0L0.07857612 -0.05035178L0.03928806 -0.10070356L0 -0.05035178z" stroke="#FEDA77" stroke-width="0.016284373" stroke-linecap="round" fill="none" />
                        <path transform="matrix(96 0 0 96 281.4274 231.7581)"  d="M0 -0.05035178L0.03928806 0L0.07857612 -0.05035178L0.03928806 -0.10070356L0 -0.05035178z" stroke="#FEDA77" stroke-width="0.016284373" stroke-linecap="round" fill="none" />
                        <path transform="matrix(96 0 0 96 291.68158 225.38887)"  d="M0 -0.05035178L0.03928806 0L0.07857612 -0.05035178L0.03928806 -0.10070356L0 -0.05035178z" stroke="#FEDA77" stroke-width="0.016284373" stroke-linecap="round" fill="none" />
                        <path transform="matrix(96 0 0 96 301.87686 223.51227)"  d="M0 -0.05035178L0.03928806 0L0.07857612 -0.05035178L0.03928806 -0.10070356L0 -0.05035178z" stroke="#FEDA77" stroke-width="0.016284373" stroke-linecap="round" fill="none" />
                        <path transform="matrix(96 0 0 96 312.13104 219.3609)"  d="M0 -0.05035178L0.03928806 0L0.07857612 -0.05035178L0.03928806 -0.10070356L0 -0.05035178z" stroke="#FEDA77" stroke-width="0.016284373" stroke-linecap="round" fill="none" />
                        <path transform="matrix(96 0 0 96 322.3263 217.48425)"  d="M0 -0.05035178L0.03928806 0L0.07857612 -0.05035178L0.03928806 -0.10070356L0 -0.05035178z" stroke="#FEDA77" stroke-width="0.016284373" stroke-linecap="round" fill="none" />
                        <path transform="matrix(96 0 0 96 332.58047 214.12903)"  d="M0 -0.05035178L0.03928806 0L0.07857612 -0.05035178L0.03928806 -0.10070356L0 -0.05035178z" stroke="#FEDA77" stroke-width="0.016284373" stroke-linecap="round" fill="none" />
                        <path transform="matrix(96 0 0 96 342.83466 215.20953)"  d="M0 -0.050944153L0.03928806 0L0.07857612 -0.050944153L0.03928806 -0.10129593L0 -0.050944153z" stroke="#FEDA77" stroke-width="0.016284373" stroke-linecap="round" fill="none" />
                        <path transform="matrix(96 0 0 96 353.02988 212.30928)"  d="M0 -0.05035178L0.03928806 0L0.07857612 -0.05035178L0.03928806 -0.10070356L0 -0.05035178z" stroke="#FEDA77" stroke-width="0.016284373" stroke-linecap="round" fill="none" />
                        <path transform="matrix(96 0 0 96 363.28406 209.9777)"  d="M0 -0.05035178L0.03928806 0L0.07857612 -0.05035178L0.03928806 -0.10070356L0 -0.05035178z" stroke="#FEDA77" stroke-width="0.016284373" stroke-linecap="round" fill="none" />
                        <path transform="matrix(96 0 0 96 373.47934 212.7642)"  d="M0 -0.050944153L0.03928806 0L0.07857612 -0.050944153L0.03928806 -0.10129593L0 -0.050944153z" stroke="#FEDA77" stroke-width="0.016284373" stroke-linecap="round" fill="none" />
                        <path transform="matrix(96 0 0 96 383.73352 212.25243)"  d="M0 -0.05035178L0.03928806 0L0.07857612 -0.05035178L0.03928806 -0.10070356L0 -0.05035178z" stroke="#FEDA77" stroke-width="0.016284373" stroke-linecap="round" fill="none" />
                        <path transform="matrix(96 0 0 96 393.9877 212.6505)"  d="M0 -0.05035178L0.03928806 0L0.07857612 -0.05035178L0.03928806 -0.10070356L0 -0.05035178z" stroke="#FEDA77" stroke-width="0.016284373" stroke-linecap="round" fill="none" />
                        <path transform="matrix(96 0 0 96 404.18295 211.34253)"  d="M0 -0.05035178L0.03928806 0L0.07857612 -0.05035178L0.03928806 -0.10070356L0 -0.05035178z" stroke="#FEDA77" stroke-width="0.016284373" stroke-linecap="round" fill="none" />
                        <path transform="matrix(96 0 0 96 414.43713 211.79745)"  d="M0 -0.05035178L0.03928806 0L0.07857612 -0.05035178L0.03928806 -0.10070356L0 -0.05035178z" stroke="#FEDA77" stroke-width="0.016284373" stroke-linecap="round" fill="none" />
                        <path transform="matrix(96 0 0 96 424.63235 212.25243)"  d="M0 -0.05035178L0.03928806 0L0.07857612 -0.05035178L0.03928806 -0.10070356L0 -0.05035178z" stroke="#FEDA77" stroke-width="0.016284373" stroke-linecap="round" fill="none" />
                        <path transform="matrix(96 0 0 96 434.88654 213.04857)"  d="M0 -0.050944153L0.03928806 0L0.07857612 -0.050944153L0.03928806 -0.10129593L0 -0.050944153z" stroke="#FEDA77" stroke-width="0.016284373" stroke-linecap="round" fill="none" />
                        <path transform="matrix(96 0 0 96 445.14078 212.70735)"  d="M0 -0.05035178L0.03928806 0L0.07857612 -0.05035178L0.03928806 -0.10070356L0 -0.05035178z" stroke="#FEDA77" stroke-width="0.016284373" stroke-linecap="round" fill="none" />
                        <path transform="matrix(96 0 0 96 455.336 211.96806)"  d="M0 -0.05035178L0.03928806 0L0.07857612 -0.05035178L0.03928806 -0.10070356L0 -0.05035178z" stroke="#FEDA77" stroke-width="0.016284373" stroke-linecap="round" fill="none" />
                        <path transform="matrix(96 0 0 96 465.59018 210.88756)"  d="M0 -0.05035178L0.03928806 0L0.07857612 -0.05035178L0.03928806 -0.10129593L0 -0.05035178z" stroke="#FEDA77" stroke-width="0.016284373" stroke-linecap="round" fill="none" />
                        <path transform="matrix(96 0 0 96 475.78543 213.27603)"  d="M0 -0.05035178L0.03928806 0L0.07857612 -0.05035178L0.03928806 -0.10070356L0 -0.05035178z" stroke="#FEDA77" stroke-width="0.016284373" stroke-linecap="round" fill="none" />
                        <path transform="matrix(96 0 0 96 394.6949 102.49736)"  d="M0 -0.65398073L0.77593917 -0.65398073L0.77593917 0L0 0" stroke="none" fill="#FFFFFF" fill-rule="evenodd" />
					</g>
				</g>
				<g>
				</g>
				<g clip-path="url(#25)" >
					<text transform="matrix(1 0 0 1 442.6483 54.27256)" x="0" y="2.1697502" style="fill:#000000;font-family:ABeeZee;" font-size="11">
r=3.7
					</text>
				</g>
				<g transform="matrix(1 0 0 1 0 0)">
					<g>
                        <path transform="matrix(96 0 0 96 398.4665 48.757233)"  d="M0 0L0.3928807 0" stroke="#8134AF" stroke-width="0.016284373" stroke-linecap="round" fill="none" />
                        <path transform="matrix(96 0 0 96 412.78705 53.192917)"  d="M0.047268443 -0.07582386C 0.06445697 -0.07582386 0.07857612 -0.06279163 0.07857612 -0.046205163C 0.07857612 -0.029618694 0.06445697 -0.015994094 0.047268443 -0.015994094C 0.03007992 -0.015994094 0.01657465 -0.029618694 0.01657465 -0.046205163C 0.01657465 -0.06279163 0.03007992 -0.07582386 0.047268443 -0.07582386zM0.047268443 -0.09181795C 0.021485656 -0.09181795 5.2041704E-18 -0.071084864 0 -0.046205163C 4.87891E-19 -0.020733085 0.021485656 2.6020852E-18 0.047268443 0C 0.073665105 0 0.09515076 -0.020733085 0.09515076 -0.046205163C 0.09515076 -0.071084864 0.073665105 -0.09181795 0.047268443 -0.09181795z" stroke="none" fill="#8134AF" fill-rule="nonzero" />
					</g>
				</g>
				<g>
				</g>
				<g clip-path="url(#26)" >
					<text transform="matrix(1 0 0 1 442.6483 68.83072)" x="0" y="2.1697502" style="fill:#000000;font-family:ABeeZee;" font-size="11">
r=3.8
					</text>
				</g>
				<g transform="matrix(1 0 0 1 0 0)">
					<g>
                        <path transform="matrix(96 0 0 96 398.4665 63.656616)"  d="M0 0L0.3928807 0" stroke="#DD2A7B" stroke-width="0.016284373" stroke-linecap="round" fill="none" />
                        <path transform="matrix(96 0 0 96 413.02274 66.101944)"  d="M0.04481294 -0.07582386L0 0L0.090239756 0L0.04481294 -0.07582386z" stroke="#DD2A7B" stroke-width="0.016284373" stroke-linecap="round" fill="none" />
					</g>
				</g>
				<g>
				</g>
				<g clip-path="url(#27)" >
					<text transform="matrix(1 0 0 1 442.6483 84.29878)" x="0" y="2.1697502" style="fill:#000000;font-family:ABeeZee;" font-size="11">
r=3.9
					</text>
				</g>
				<g transform="matrix(1 0 0 1 0 0)">
					<g>
                        <path transform="matrix(96 0 0 96 398.4665 78.612854)"  d="M0 0L0.3928807 0" stroke="#515BD4" stroke-width="0.016284373" stroke-linecap="round" fill="none" />
                        <path transform="matrix(96 0 0 96 413.02274 83.446655)"  d="M0.04481294 0L0 -0.07582386L0.090239756 -0.07582386L0.04481294 0z" stroke="#515BD4" stroke-width="0.016284373" stroke-linecap="round" fill="none" />
					</g>
				</g>
				<g>
				</g>
				<g clip-path="url(#28)" >
					<text transform="matrix(1 0 0 1 442.6483 98.856995)" x="0" y="2.1697502" style="fill:#000000;font-family:ABeeZee;" font-size="11">
r=4.0
					</text>
				</g>
				<g transform="matrix(1 0 0 1 0 0)">
					<g clip-path="url(#29)" >
                        <path transform="matrix(96 0 0 96 398.4665 93.51224)"  d="M0 0L0.3928807 0" stroke="#FEDA77" stroke-width="0.016284373" stroke-linecap="round" fill="none" />
                        <path transform="matrix(96 0 0 96 413.55316 98.34604)"  d="M0 -0.05035178L0.03928806 0L0.07857612 -0.05035178L0.03928806 -0.10129593L0 -0.05035178z" stroke="#FEDA77" stroke-width="0.016284373" stroke-linecap="round" fill="none" />
                        <path transform="matrix(96 0 0 96 394.6949 102.49736)"  d="M0 0L0 -0.65398073L0.77593917 -0.65398073L0.77593917 0L0 0z" stroke="#262626" stroke-width="0.0066343737" stroke-linecap="round" fill="none" />
					</g>
					<g>
					</g>
				</g>
			</g>
		</g>
	</g>
</g>
</svg>