<?xml version="1.0" standalone="no"?>
<!DOCTYPE svg PUBLIC "-//W3C//DTD SVG 1.0//EN" "http://www.w3.org/TR/2001/REC-SVG-20010904/DTD/svg10.dtd">
<svg xmlns="http://www.w3.org/2000/svg" xmlns:xlink="http://www.w3.org/1999/xlink" id="body_6" width="560" height="420">

<g transform="matrix(1.3333334 0 0 1.3333334 0 0)">
    <path d="M0 0L420 0L420 315L0 315z" stroke="none" fill="#FFFFFF" fill-rule="evenodd" />
	<g transform="matrix(0.75 0 0 0.75 -0 -0)">
		<g>
			<g>
				<g transform="matrix(1 0 0 1 0 0)">
					<g>
					</g>
					<g>
                        <path transform="matrix(1 0 0 1 0 0)"  d="M0 0L560 0L560 420L0 420" stroke="none" fill="#FFFFFF" fill-rule="evenodd" />
                        <path transform="matrix(1 0 0 1 0 0)"  d="M0 0L560 0L560 420L0 420" stroke="none" fill="#FFFFFF" fill-rule="evenodd" />
                        <path transform="matrix(1 0 0 1 0 0)"  d="M73 31L507 31L507 374L73 374" stroke="none" fill="#FFFFFF" fill-rule="evenodd" />
                        <path transform="matrix(1 0 0 1 0 0)"  d="M73 374L507 374" stroke="#262626" stroke-width="0.6666667" fill="none" />
                        <path transform="matrix(1 0 0 1 0 0)"  d="M73 374L73 369.66" stroke="#262626" stroke-width="0.6666667" fill="none" />
                        <path transform="matrix(1 0 0 1 0 0)"  d="M127.25 374L127.25 369.66" stroke="#262626" stroke-width="0.6666667" fill="none" />
                        <path transform="matrix(1 0 0 1 0 0)"  d="M181.5 374L181.5 369.66" stroke="#262626" stroke-width="0.6666667" fill="none" />
                        <path transform="matrix(1 0 0 1 0 0)"  d="M235.75 374L235.75 369.66" stroke="#262626" stroke-width="0.6666667" fill="none" />
                        <path transform="matrix(1 0 0 1 0 0)"  d="M290 374L290 369.66" stroke="#262626" stroke-width="0.6666667" fill="none" />
                        <path transform="matrix(1 0 0 1 0 0)"  d="M344.25 374L344.25 369.66" stroke="#262626" stroke-width="0.6666667" fill="none" />
                        <path transform="matrix(1 0 0 1 0 0)"  d="M398.5 374L398.5 369.66" stroke="#262626" stroke-width="0.6666667" fill="none" />
                        <path transform="matrix(1 0 0 1 0 0)"  d="M452.75 374L452.75 369.66" stroke="#262626" stroke-width="0.6666667" fill="none" />
                        <path transform="matrix(1 0 0 1 0 0)"  d="M507 374L507 369.66" stroke="#262626" stroke-width="0.6666667" fill="none" />
						<text transform="matrix(1 0 0 1 73 388.53336)" x="-7.5" y="1.9296875" style="fill:#262626;font-family:ABeeZee;" font-size="10">
30
						</text>
						<text transform="matrix(1 0 0 1 127.25 388.53336)" x="-7.5" y="1.9296875" style="fill:#262626;font-family:ABeeZee;" font-size="10">
20
						</text>
						<text transform="matrix(1 0 0 1 181.5 388.53336)" x="-7.5" y="1.9296875" style="fill:#262626;font-family:ABeeZee;" font-size="10">
10
						</text>
						<text transform="matrix(1 0 0 1 235.75 388.53336)" x="-4" y="1.9296875" style="fill:#262626;font-family:ABeeZee;" font-size="10">
0
						</text>
						<text transform="matrix(1 0 0 1 290 388.53336)" x="-10" y="1.9296875" style="fill:#262626;font-family:ABeeZee;" font-size="10">
-10
						</text>
						<text transform="matrix(1 0 0 1 344.25 388.53336)" x="-7.5" y="1.9296875" style="fill:#262626;font-family:ABeeZee;" font-size="10">
30
						</text>
						<text transform="matrix(1 0 0 1 398.5 388.53336)" x="-7.5" y="1.9296875" style="fill:#262626;font-family:ABeeZee;" font-size="10">
20
						</text>
						<text transform="matrix(1 0 0 1 452.75 388.53336)" x="-7.5" y="1.9296875" style="fill:#262626;font-family:ABeeZee;" font-size="10">
10
						</text>
						<text transform="matrix(1 0 0 1 507 388.53336)" x="-4" y="1.9296875" style="fill:#262626;font-family:ABeeZee;" font-size="10">
0
						</text>
						<text transform="matrix(1 0 0 1 290.0002 407.78665)" x="-15.5" y="1.7226562" style="fill:#262626;font-family:ABeeZee;" font-size="11">
SNR
						</text>
                        <path transform="matrix(1 0 0 1 0 0)"  d="M73 374L73 30.999994" stroke="#262626" stroke-width="0.6666667" fill="none" />
                        <path transform="matrix(1 0 0 1 0 0)"  d="M73 374L77.340004 374" stroke="#262626" stroke-width="0.6666667" fill="none" />
                        <path transform="matrix(1 0 0 1 0 0)"  d="M73 331.125L77.340004 331.125" stroke="#262626" stroke-width="0.6666667" fill="none" />
                        <path transform="matrix(1 0 0 1 0 0)"  d="M73 288.25L77.340004 288.25" stroke="#262626" stroke-width="0.6666667" fill="none" />
                        <path transform="matrix(1 0 0 1 0 0)"  d="M73 245.375L77.340004 245.375" stroke="#262626" stroke-width="0.6666667" fill="none" />
                        <path transform="matrix(1 0 0 1 0 0)"  d="M73 202.5L77.340004 202.5" stroke="#262626" stroke-width="0.6666667" fill="none" />
                        <path transform="matrix(1 0 0 1 0 0)"  d="M73 159.625L77.340004 159.625" stroke="#262626" stroke-width="0.6666667" fill="none" />
                        <path transform="matrix(1 0 0 1 0 0)"  d="M73 116.74999L77.340004 116.74999" stroke="#262626" stroke-width="0.6666667" fill="none" />
                        <path transform="matrix(1 0 0 1 0 0)"  d="M73 73.87501L77.340004 73.87501" stroke="#262626" stroke-width="0.6666667" fill="none" />
                        <path transform="matrix(1 0 0 1 0 0)"  d="M73 30.999994L77.340004 30.999994" stroke="#262626" stroke-width="0.6666667" fill="none" />
						<text transform="matrix(1 0 0 1 67.666664 383.2)" x="-8" y="-6.5703125" style="fill:#262626;font-family:ABeeZee;" font-size="10">
0
						</text>
						<text transform="matrix(1 0 0 1 67.666664 340.325)" x="-26" y="-6.5703125" style="fill:#262626;font-family:ABeeZee;" font-size="10">
0.05
						</text>
						<text transform="matrix(1 0 0 1 67.666664 297.45)" x="-19" y="-6.5703125" style="fill:#262626;font-family:ABeeZee;" font-size="10">
0.1
						</text>
						<text transform="matrix(1 0 0 1 67.666664 254.575)" x="-26" y="-6.5703125" style="fill:#262626;font-family:ABeeZee;" font-size="10">
0.15
						</text>
						<text transform="matrix(1 0 0 1 67.666664 211.7)" x="-19" y="-6.5703125" style="fill:#262626;font-family:ABeeZee;" font-size="10">
0.2
						</text>
						<text transform="matrix(1 0 0 1 67.666664 168.825)" x="-26" y="-6.5703125" style="fill:#262626;font-family:ABeeZee;" font-size="10">
0.25
						</text>
						<text transform="matrix(1 0 0 1 67.666664 125.94999)" x="-19" y="-6.5703125" style="fill:#262626;font-family:ABeeZee;" font-size="10">
0.3
						</text>
						<text transform="matrix(1 0 0 1 67.666664 83.075005)" x="-26" y="-6.5703125" style="fill:#262626;font-family:ABeeZee;" font-size="10">
0.35
						</text>
						<text transform="matrix(1 0 0 1 67.666664 40.199993)" x="-19" y="-6.5703125" style="fill:#262626;font-family:ABeeZee;" font-size="10">
0.4
						</text>
						<text transform="matrix(-4.371139E-08 -1 1 -4.371139E-08 47.786667 202.49983)" x="-5" y="-17.277344" style="fill:#262626;font-family:ABeeZee;" font-size="11">
S
						</text>
						<text transform="matrix(1 0 0 1 290.00027 38.369995)" x="-15.5" y="-17.277344" style="fill:#000000;font-family:ABeeZee;" font-size="11">
SDE
						</text>
                        <path transform="matrix(1 0 0 1 0 0)"  d="M73 370.29623L83.85 342.2393L94.7 324.86725L105.55 302.7703L116.4 274.07254L127.25 257.761L138.1 241.43713L148.95 224.6814L159.8 203.36151L170.65 183.56082L181.5 175.12134L192.35 161.87845L203.2 150.34961L214.05 141.09319L224.9 134.57991L235.75 129.37271L246.6 123.35153L257.45 119.34114L268.3 118.81796L279.15 112.91613L290 111.231L300.85 109.52811L311.7 109.14905L322.55 107.20417L333.4 110.107124L344.25 106.09366L355.1 105.651726L365.95 108.49184L376.8 106.23273L387.65 105.58888L398.5 105.95461L409.35 106.43465L420.2 105.916504L431.05 106.45938L441.9 105.22316L452.75 106.51085L463.6 106.522224L474.45 107.343216L485.3 106.889915L496.15 107.41945L507 105.92985" stroke="#8134AF" stroke-width="1.6666666" fill="none" />
                        <path transform="matrix(1 0 0 1 73 370.29623)"  d="M1.9390241E-16 -3.1666667C 1.7489017 -3.1666667 3.1666667 -1.7489017 3.1666667 0L3.1666667 0L3.1666667 7.7560965E-16C 3.1666667 1.7489017 1.7489017 3.1666667 -5.8170724E-16 3.1666667C -1.7489017 3.1666667 -3.1666667 1.7489017 -3.1666667 -3.8780482E-16C -3.1666667 -1.7489017 -1.7489017 -3.1666667 1.9390241E-16 -3.1666667zM2.959563E-16 -4.8333335C -2.6693764 -4.8333335 -4.8333335 -2.6693764 -4.8333335 -5.919126E-16C -4.8333335 2.6693764 -2.6693764 4.8333335 -8.8786894E-16 4.8333335C 2.6693764 4.8333335 4.8333335 2.6693764 4.8333335 1.1838252E-15L4.8333335 1.1838252E-15L4.8333335 0C 4.8333335 -2.6693764 2.6693764 -4.8333335 2.959563E-16 -4.8333335z" stroke="none" fill="#8134AF" fill-rule="nonzero" />
                        <path transform="matrix(1 0 0 1 83.85 342.2393)"  d="M1.9390241E-16 -3.1666667C 1.7489017 -3.1666667 3.1666667 -1.7489017 3.1666667 0L3.1666667 0L3.1666667 7.7560965E-16C 3.1666667 1.7489017 1.7489017 3.1666667 -5.8170724E-16 3.1666667C -1.7489017 3.1666667 -3.1666667 1.7489017 -3.1666667 -3.8780482E-16C -3.1666667 -1.7489017 -1.7489017 -3.1666667 1.9390241E-16 -3.1666667zM2.959563E-16 -4.8333335C -2.6693764 -4.8333335 -4.8333335 -2.6693764 -4.8333335 -5.919126E-16C -4.8333335 2.6693764 -2.6693764 4.8333335 -8.8786894E-16 4.8333335C 2.6693764 4.8333335 4.8333335 2.6693764 4.8333335 1.1838252E-15L4.8333335 1.1838252E-15L4.8333335 0C 4.8333335 -2.6693764 2.6693764 -4.8333335 2.959563E-16 -4.8333335z" stroke="none" fill="#8134AF" fill-rule="nonzero" />
                        <path transform="matrix(1 0 0 1 94.7 324.86725)"  d="M1.9390241E-16 -3.1666667C 1.7489017 -3.1666667 3.1666667 -1.7489017 3.1666667 0L3.1666667 0L3.1666667 7.7560965E-16C 3.1666667 1.7489017 1.7489017 3.1666667 -5.8170724E-16 3.1666667C -1.7489017 3.1666667 -3.1666667 1.7489017 -3.1666667 -3.8780482E-16C -3.1666667 -1.7489017 -1.7489017 -3.1666667 1.9390241E-16 -3.1666667zM2.959563E-16 -4.8333335C -2.6693764 -4.8333335 -4.8333335 -2.6693764 -4.8333335 -5.919126E-16C -4.8333335 2.6693764 -2.6693764 4.8333335 -8.8786894E-16 4.8333335C 2.6693764 4.8333335 4.8333335 2.6693764 4.8333335 1.1838252E-15L4.8333335 1.1838252E-15L4.8333335 0C 4.8333335 -2.6693764 2.6693764 -4.8333335 2.959563E-16 -4.8333335z" stroke="none" fill="#8134AF" fill-rule="nonzero" />
                        <path transform="matrix(1 0 0 1 105.55 302.7703)"  d="M1.9390241E-16 -3.1666667C 1.7489017 -3.1666667 3.1666667 -1.7489017 3.1666667 0L3.1666667 0L3.1666667 7.7560965E-16C 3.1666667 1.7489017 1.7489017 3.1666667 -5.8170724E-16 3.1666667C -1.7489017 3.1666667 -3.1666667 1.7489017 -3.1666667 -3.8780482E-16C -3.1666667 -1.7489017 -1.7489017 -3.1666667 1.9390241E-16 -3.1666667zM2.959563E-16 -4.8333335C -2.6693764 -4.8333335 -4.8333335 -2.6693764 -4.8333335 -5.919126E-16C -4.8333335 2.6693764 -2.6693764 4.8333335 -8.8786894E-16 4.8333335C 2.6693764 4.8333335 4.8333335 2.6693764 4.8333335 1.1838252E-15L4.8333335 1.1838252E-15L4.8333335 0C 4.8333335 -2.6693764 2.6693764 -4.8333335 2.959563E-16 -4.8333335z" stroke="none" fill="#8134AF" fill-rule="nonzero" />
                        <path transform="matrix(1 0 0 1 116.4 274.07254)"  d="M1.9390241E-16 -3.1666667C 1.7489017 -3.1666667 3.1666667 -1.7489017 3.1666667 0L3.1666667 0L3.1666667 7.7560965E-16C 3.1666667 1.7489017 1.7489017 3.1666667 -5.8170724E-16 3.1666667C -1.7489017 3.1666667 -3.1666667 1.7489017 -3.1666667 -3.8780482E-16C -3.1666667 -1.7489017 -1.7489017 -3.1666667 1.9390241E-16 -3.1666667zM2.959563E-16 -4.8333335C -2.6693764 -4.8333335 -4.8333335 -2.6693764 -4.8333335 -5.919126E-16C -4.8333335 2.6693764 -2.6693764 4.8333335 -8.8786894E-16 4.8333335C 2.6693764 4.8333335 4.8333335 2.6693764 4.8333335 1.1838252E-15L4.8333335 1.1838252E-15L4.8333335 0C 4.8333335 -2.6693764 2.6693764 -4.8333335 2.959563E-16 -4.8333335z" stroke="none" fill="#8134AF" fill-rule="nonzero" />
                        <path transform="matrix(1 0 0 1 127.25 257.761)"  d="M1.9390241E-16 -3.1666667C 1.7489017 -3.1666667 3.1666667 -1.7489017 3.1666667 0L3.1666667 0L3.1666667 7.7560965E-16C 3.1666667 1.7489017 1.7489017 3.1666667 -5.8170724E-16 3.1666667C -1.7489017 3.1666667 -3.1666667 1.7489017 -3.1666667 -3.8780482E-16C -3.1666667 -1.7489017 -1.7489017 -3.1666667 1.9390241E-16 -3.1666667zM2.959563E-16 -4.8333335C -2.6693764 -4.8333335 -4.8333335 -2.6693764 -4.8333335 -5.919126E-16C -4.8333335 2.6693764 -2.6693764 4.8333335 -8.8786894E-16 4.8333335C 2.6693764 4.8333335 4.8333335 2.6693764 4.8333335 1.1838252E-15L4.8333335 1.1838252E-15L4.8333335 0C 4.8333335 -2.6693764 2.6693764 -4.8333335 2.959563E-16 -4.8333335z" stroke="none" fill="#8134AF" fill-rule="nonzero" />
                        <path transform="matrix(1 0 0 1 138.1 241.43713)"  d="M1.9390241E-16 -3.1666667C 1.7489017 -3.1666667 3.1666667 -1.7489017 3.1666667 0L3.1666667 0L3.1666667 7.7560965E-16C 3.1666667 1.7489017 1.7489017 3.1666667 -5.8170724E-16 3.1666667C -1.7489017 3.1666667 -3.1666667 1.7489017 -3.1666667 -3.8780482E-16C -3.1666667 -1.7489017 -1.7489017 -3.1666667 1.9390241E-16 -3.1666667zM2.959563E-16 -4.8333335C -2.6693764 -4.8333335 -4.8333335 -2.6693764 -4.8333335 -5.919126E-16C -4.8333335 2.6693764 -2.6693764 4.8333335 -8.8786894E-16 4.8333335C 2.6693764 4.8333335 4.8333335 2.6693764 4.8333335 1.1838252E-15L4.8333335 1.1838252E-15L4.8333335 0C 4.8333335 -2.6693764 2.6693764 -4.8333335 2.959563E-16 -4.8333335z" stroke="none" fill="#8134AF" fill-rule="nonzero" />
                        <path transform="matrix(1 0 0 1 148.95 224.6814)"  d="M1.9390241E-16 -3.1666667C 1.7489017 -3.1666667 3.1666667 -1.7489017 3.1666667 0L3.1666667 0L3.1666667 7.7560965E-16C 3.1666667 1.7489017 1.7489017 3.1666667 -5.8170724E-16 3.1666667C -1.7489017 3.1666667 -3.1666667 1.7489017 -3.1666667 -3.8780482E-16C -3.1666667 -1.7489017 -1.7489017 -3.1666667 1.9390241E-16 -3.1666667zM2.959563E-16 -4.8333335C -2.6693764 -4.8333335 -4.8333335 -2.6693764 -4.8333335 -5.919126E-16C -4.8333335 2.6693764 -2.6693764 4.8333335 -8.8786894E-16 4.8333335C 2.6693764 4.8333335 4.8333335 2.6693764 4.8333335 1.1838252E-15L4.8333335 1.1838252E-15L4.8333335 0C 4.8333335 -2.6693764 2.6693764 -4.8333335 2.959563E-16 -4.8333335z" stroke="none" fill="#8134AF" fill-rule="nonzero" />
                        <path transform="matrix(1 0 0 1 159.8 203.36151)"  d="M1.9390241E-16 -3.1666667C 1.7489017 -3.1666667 3.1666667 -1.7489017 3.1666667 0L3.1666667 0L3.1666667 7.7560965E-16C 3.1666667 1.7489017 1.7489017 3.1666667 -5.8170724E-16 3.1666667C -1.7489017 3.1666667 -3.1666667 1.7489017 -3.1666667 -3.8780482E-16C -3.1666667 -1.7489017 -1.7489017 -3.1666667 1.9390241E-16 -3.1666667zM2.959563E-16 -4.8333335C -2.6693764 -4.8333335 -4.8333335 -2.6693764 -4.8333335 -5.919126E-16C -4.8333335 2.6693764 -2.6693764 4.8333335 -8.8786894E-16 4.8333335C 2.6693764 4.8333335 4.8333335 2.6693764 4.8333335 1.1838252E-15L4.8333335 1.1838252E-15L4.8333335 0C 4.8333335 -2.6693764 2.6693764 -4.8333335 2.959563E-16 -4.8333335z" stroke="none" fill="#8134AF" fill-rule="nonzero" />
                        <path transform="matrix(1 0 0 1 170.65 183.56082)"  d="M1.9390241E-16 -3.1666667C 1.7489017 -3.1666667 3.1666667 -1.7489017 3.1666667 0L3.1666667 0L3.1666667 7.7560965E-16C 3.1666667 1.7489017 1.7489017 3.1666667 -5.8170724E-16 3.1666667C -1.7489017 3.1666667 -3.1666667 1.7489017 -3.1666667 -3.8780482E-16C -3.1666667 -1.7489017 -1.7489017 -3.1666667 1.9390241E-16 -3.1666667zM2.959563E-16 -4.8333335C -2.6693764 -4.8333335 -4.8333335 -2.6693764 -4.8333335 -5.919126E-16C -4.8333335 2.6693764 -2.6693764 4.8333335 -8.8786894E-16 4.8333335C 2.6693764 4.8333335 4.8333335 2.6693764 4.8333335 1.1838252E-15L4.8333335 1.1838252E-15L4.8333335 0C 4.8333335 -2.6693764 2.6693764 -4.8333335 2.959563E-16 -4.8333335z" stroke="none" fill="#8134AF" fill-rule="nonzero" />
                        <path transform="matrix(1 0 0 1 181.5 175.12134)"  d="M1.9390241E-16 -3.1666667C 1.7489017 -3.1666667 3.1666667 -1.7489017 3.1666667 0L3.1666667 0L3.1666667 7.7560965E-16C 3.1666667 1.7489017 1.7489017 3.1666667 -5.8170724E-16 3.1666667C -1.7489017 3.1666667 -3.1666667 1.7489017 -3.1666667 -3.8780482E-16C -3.1666667 -1.7489017 -1.7489017 -3.1666667 1.9390241E-16 -3.1666667zM2.959563E-16 -4.8333335C -2.6693764 -4.8333335 -4.8333335 -2.6693764 -4.8333335 -5.919126E-16C -4.8333335 2.6693764 -2.6693764 4.8333335 -8.8786894E-16 4.8333335C 2.6693764 4.8333335 4.8333335 2.6693764 4.8333335 1.1838252E-15L4.8333335 1.1838252E-15L4.8333335 0C 4.8333335 -2.6693764 2.6693764 -4.8333335 2.959563E-16 -4.8333335z" stroke="none" fill="#8134AF" fill-rule="nonzero" />
                        <path transform="matrix(1 0 0 1 192.35 161.87845)"  d="M1.9390241E-16 -3.1666667C 1.7489017 -3.1666667 3.1666667 -1.7489017 3.1666667 0L3.1666667 0L3.1666667 7.7560965E-16C 3.1666667 1.7489017 1.7489017 3.1666667 -5.8170724E-16 3.1666667C -1.7489017 3.1666667 -3.1666667 1.7489017 -3.1666667 -3.8780482E-16C -3.1666667 -1.7489017 -1.7489017 -3.1666667 1.9390241E-16 -3.1666667zM2.959563E-16 -4.8333335C -2.6693764 -4.8333335 -4.8333335 -2.6693764 -4.8333335 -5.919126E-16C -4.8333335 2.6693764 -2.6693764 4.8333335 -8.8786894E-16 4.8333335C 2.6693764 4.8333335 4.8333335 2.6693764 4.8333335 1.1838252E-15L4.8333335 1.1838252E-15L4.8333335 0C 4.8333335 -2.6693764 2.6693764 -4.8333335 2.959563E-16 -4.8333335z" stroke="none" fill="#8134AF" fill-rule="nonzero" />
                        <path transform="matrix(1 0 0 1 203.2 150.34961)"  d="M1.9390241E-16 -3.1666667C 1.7489017 -3.1666667 3.1666667 -1.7489017 3.1666667 0L3.1666667 0L3.1666667 7.7560965E-16C 3.1666667 1.7489017 1.7489017 3.1666667 -5.8170724E-16 3.1666667C -1.7489017 3.1666667 -3.1666667 1.7489017 -3.1666667 -3.8780482E-16C -3.1666667 -1.7489017 -1.7489017 -3.1666667 1.9390241E-16 -3.1666667zM2.959563E-16 -4.8333335C -2.6693764 -4.8333335 -4.8333335 -2.6693764 -4.8333335 -5.919126E-16C -4.8333335 2.6693764 -2.6693764 4.8333335 -8.8786894E-16 4.8333335C 2.6693764 4.8333335 4.8333335 2.6693764 4.8333335 1.1838252E-15L4.8333335 1.1838252E-15L4.8333335 0C 4.8333335 -2.6693764 2.6693764 -4.8333335 2.959563E-16 -4.8333335z" stroke="none" fill="#8134AF" fill-rule="nonzero" />
                        <path transform="matrix(1 0 0 1 214.05 141.09319)"  d="M1.9390241E-16 -3.1666667C 1.7489017 -3.1666667 3.1666667 -1.7489017 3.1666667 0L3.1666667 0L3.1666667 7.7560965E-16C 3.1666667 1.7489017 1.7489017 3.1666667 -5.8170724E-16 3.1666667C -1.7489017 3.1666667 -3.1666667 1.7489017 -3.1666667 -3.8780482E-16C -3.1666667 -1.7489017 -1.7489017 -3.1666667 1.9390241E-16 -3.1666667zM2.959563E-16 -4.8333335C -2.6693764 -4.8333335 -4.8333335 -2.6693764 -4.8333335 -5.919126E-16C -4.8333335 2.6693764 -2.6693764 4.8333335 -8.8786894E-16 4.8333335C 2.6693764 4.8333335 4.8333335 2.6693764 4.8333335 1.1838252E-15L4.8333335 1.1838252E-15L4.8333335 0C 4.8333335 -2.6693764 2.6693764 -4.8333335 2.959563E-16 -4.8333335z" stroke="none" fill="#8134AF" fill-rule="nonzero" />
                        <path transform="matrix(1 0 0 1 224.9 134.57991)"  d="M1.9390241E-16 -3.1666667C 1.7489017 -3.1666667 3.1666667 -1.7489017 3.1666667 0L3.1666667 0L3.1666667 7.7560965E-16C 3.1666667 1.7489017 1.7489017 3.1666667 -5.8170724E-16 3.1666667C -1.7489017 3.1666667 -3.1666667 1.7489017 -3.1666667 -3.8780482E-16C -3.1666667 -1.7489017 -1.7489017 -3.1666667 1.9390241E-16 -3.1666667zM2.959563E-16 -4.8333335C -2.6693764 -4.8333335 -4.8333335 -2.6693764 -4.8333335 -5.919126E-16C -4.8333335 2.6693764 -2.6693764 4.8333335 -8.8786894E-16 4.8333335C 2.6693764 4.8333335 4.8333335 2.6693764 4.8333335 1.1838252E-15L4.8333335 1.1838252E-15L4.8333335 0C 4.8333335 -2.6693764 2.6693764 -4.8333335 2.959563E-16 -4.8333335z" stroke="none" fill="#8134AF" fill-rule="nonzero" />
                        <path transform="matrix(1 0 0 1 235.75 129.37271)"  d="M1.9390241E-16 -3.1666667C 1.7489017 -3.1666667 3.1666667 -1.7489017 3.1666667 0L3.1666667 0L3.1666667 7.7560965E-16C 3.1666667 1.7489017 1.7489017 3.1666667 -5.8170724E-16 3.1666667C -1.7489017 3.1666667 -3.1666667 1.7489017 -3.1666667 -3.8780482E-16C -3.1666667 -1.7489017 -1.7489017 -3.1666667 1.9390241E-16 -3.1666667zM2.959563E-16 -4.8333335C -2.6693764 -4.8333335 -4.8333335 -2.6693764 -4.8333335 -5.919126E-16C -4.8333335 2.6693764 -2.6693764 4.8333335 -8.8786894E-16 4.8333335C 2.6693764 4.8333335 4.8333335 2.6693764 4.8333335 1.1838252E-15L4.8333335 1.1838252E-15L4.8333335 0C 4.8333335 -2.6693764 2.6693764 -4.8333335 2.959563E-16 -4.8333335z" stroke="none" fill="#8134AF" fill-rule="nonzero" />
                        <path transform="matrix(1 0 0 1 246.6 123.35153)"  d="M1.9390241E-16 -3.1666667C 1.7489017 -3.1666667 3.1666667 -1.7489017 3.1666667 0L3.1666667 0L3.1666667 7.7560965E-16C 3.1666667 1.7489017 1.7489017 3.1666667 -5.8170724E-16 3.1666667C -1.7489017 3.1666667 -3.1666667 1.7489017 -3.1666667 -3.8780482E-16C -3.1666667 -1.7489017 -1.7489017 -3.1666667 1.9390241E-16 -3.1666667zM2.959563E-16 -4.8333335C -2.6693764 -4.8333335 -4.8333335 -2.6693764 -4.8333335 -5.919126E-16C -4.8333335 2.6693764 -2.6693764 4.8333335 -8.8786894E-16 4.8333335C 2.6693764 4.8333335 4.8333335 2.6693764 4.8333335 1.1838252E-15L4.8333335 1.1838252E-15L4.8333335 0C 4.8333335 -2.6693764 2.6693764 -4.8333335 2.959563E-16 -4.8333335z" stroke="none" fill="#8134AF" fill-rule="nonzero" />
                        <path transform="matrix(1 0 0 1 257.45 119.34114)"  d="M1.9390241E-16 -3.1666667C 1.7489017 -3.1666667 3.1666667 -1.7489017 3.1666667 0L3.1666667 0L3.1666667 7.7560965E-16C 3.1666667 1.7489017 1.7489017 3.1666667 -5.8170724E-16 3.1666667C -1.7489017 3.1666667 -3.1666667 1.7489017 -3.1666667 -3.8780482E-16C -3.1666667 -1.7489017 -1.7489017 -3.1666667 1.9390241E-16 -3.1666667zM2.959563E-16 -4.8333335C -2.6693764 -4.8333335 -4.8333335 -2.6693764 -4.8333335 -5.919126E-16C -4.8333335 2.6693764 -2.6693764 4.8333335 -8.8786894E-16 4.8333335C 2.6693764 4.8333335 4.8333335 2.6693764 4.8333335 1.1838252E-15L4.8333335 1.1838252E-15L4.8333335 0C 4.8333335 -2.6693764 2.6693764 -4.8333335 2.959563E-16 -4.8333335z" stroke="none" fill="#8134AF" fill-rule="nonzero" />
                        <path transform="matrix(1 0 0 1 268.3 118.81796)"  d="M1.9390241E-16 -3.1666667C 1.7489017 -3.1666667 3.1666667 -1.7489017 3.1666667 0L3.1666667 0L3.1666667 7.7560965E-16C 3.1666667 1.7489017 1.7489017 3.1666667 -5.8170724E-16 3.1666667C -1.7489017 3.1666667 -3.1666667 1.7489017 -3.1666667 -3.8780482E-16C -3.1666667 -1.7489017 -1.7489017 -3.1666667 1.9390241E-16 -3.1666667zM2.959563E-16 -4.8333335C -2.6693764 -4.8333335 -4.8333335 -2.6693764 -4.8333335 -5.919126E-16C -4.8333335 2.6693764 -2.6693764 4.8333335 -8.8786894E-16 4.8333335C 2.6693764 4.8333335 4.8333335 2.6693764 4.8333335 1.1838252E-15L4.8333335 1.1838252E-15L4.8333335 0C 4.8333335 -2.6693764 2.6693764 -4.8333335 2.959563E-16 -4.8333335z" stroke="none" fill="#8134AF" fill-rule="nonzero" />
                        <path transform="matrix(1 0 0 1 279.15 112.91613)"  d="M1.9390241E-16 -3.1666667C 1.7489017 -3.1666667 3.1666667 -1.7489017 3.1666667 0L3.1666667 0L3.1666667 7.7560965E-16C 3.1666667 1.7489017 1.7489017 3.1666667 -5.8170724E-16 3.1666667C -1.7489017 3.1666667 -3.1666667 1.7489017 -3.1666667 -3.8780482E-16C -3.1666667 -1.7489017 -1.7489017 -3.1666667 1.9390241E-16 -3.1666667zM2.959563E-16 -4.8333335C -2.6693764 -4.8333335 -4.8333335 -2.6693764 -4.8333335 -5.919126E-16C -4.8333335 2.6693764 -2.6693764 4.8333335 -8.8786894E-16 4.8333335C 2.6693764 4.8333335 4.8333335 2.6693764 4.8333335 1.1838252E-15L4.8333335 1.1838252E-15L4.8333335 0C 4.8333335 -2.6693764 2.6693764 -4.8333335 2.959563E-16 -4.8333335z" stroke="none" fill="#8134AF" fill-rule="nonzero" />
                        <path transform="matrix(1 0 0 1 290 111.231)"  d="M1.9390241E-16 -3.1666667C 1.7489017 -3.1666667 3.1666667 -1.7489017 3.1666667 0L3.1666667 0L3.1666667 7.7560965E-16C 3.1666667 1.7489017 1.7489017 3.1666667 -5.8170724E-16 3.1666667C -1.7489017 3.1666667 -3.1666667 1.7489017 -3.1666667 -3.8780482E-16C -3.1666667 -1.7489017 -1.7489017 -3.1666667 1.9390241E-16 -3.1666667zM2.959563E-16 -4.8333335C -2.6693764 -4.8333335 -4.8333335 -2.6693764 -4.8333335 -5.919126E-16C -4.8333335 2.6693764 -2.6693764 4.8333335 -8.8786894E-16 4.8333335C 2.6693764 4.8333335 4.8333335 2.6693764 4.8333335 1.1838252E-15L4.8333335 1.1838252E-15L4.8333335 0C 4.8333335 -2.6693764 2.6693764 -4.8333335 2.959563E-16 -4.8333335z" stroke="none" fill="#8134AF" fill-rule="nonzero" />
                        <path transform="matrix(1 0 0 1 300.85 109.52811)"  d="M1.9390241E-16 -3.1666667C 1.7489017 -3.1666667 3.1666667 -1.7489017 3.1666667 0L3.1666667 0L3.1666667 7.7560965E-16C 3.1666667 1.7489017 1.7489017 3.1666667 -5.8170724E-16 3.1666667C -1.7489017 3.1666667 -3.1666667 1.7489017 -3.1666667 -3.8780482E-16C -3.1666667 -1.7489017 -1.7489017 -3.1666667 1.9390241E-16 -3.1666667zM2.959563E-16 -4.8333335C -2.6693764 -4.8333335 -4.8333335 -2.6693764 -4.8333335 -5.919126E-16C -4.8333335 2.6693764 -2.6693764 4.8333335 -8.8786894E-16 4.8333335C 2.6693764 4.8333335 4.8333335 2.6693764 4.8333335 1.1838252E-15L4.8333335 1.1838252E-15L4.8333335 0C 4.8333335 -2.6693764 2.6693764 -4.8333335 2.959563E-16 -4.8333335z" stroke="none" fill="#8134AF" fill-rule="nonzero" />
                        <path transform="matrix(1 0 0 1 311.7 109.14905)"  d="M1.9390241E-16 -3.1666667C 1.7489017 -3.1666667 3.1666667 -1.7489017 3.1666667 0L3.1666667 0L3.1666667 7.7560965E-16C 3.1666667 1.7489017 1.7489017 3.1666667 -5.8170724E-16 3.1666667C -1.7489017 3.1666667 -3.1666667 1.7489017 -3.1666667 -3.8780482E-16C -3.1666667 -1.7489017 -1.7489017 -3.1666667 1.9390241E-16 -3.1666667zM2.959563E-16 -4.8333335C -2.6693764 -4.8333335 -4.8333335 -2.6693764 -4.8333335 -5.919126E-16C -4.8333335 2.6693764 -2.6693764 4.8333335 -8.8786894E-16 4.8333335C 2.6693764 4.8333335 4.8333335 2.6693764 4.8333335 1.1838252E-15L4.8333335 1.1838252E-15L4.8333335 0C 4.8333335 -2.6693764 2.6693764 -4.8333335 2.959563E-16 -4.8333335z" stroke="none" fill="#8134AF" fill-rule="nonzero" />
                        <path transform="matrix(1 0 0 1 322.55 107.20417)"  d="M1.9390241E-16 -3.1666667C 1.7489017 -3.1666667 3.1666667 -1.7489017 3.1666667 0L3.1666667 0L3.1666667 7.7560965E-16C 3.1666667 1.7489017 1.7489017 3.1666667 -5.8170724E-16 3.1666667C -1.7489017 3.1666667 -3.1666667 1.7489017 -3.1666667 -3.8780482E-16C -3.1666667 -1.7489017 -1.7489017 -3.1666667 1.9390241E-16 -3.1666667zM2.959563E-16 -4.8333335C -2.6693764 -4.8333335 -4.8333335 -2.6693764 -4.8333335 -5.919126E-16C -4.8333335 2.6693764 -2.6693764 4.8333335 -8.8786894E-16 4.8333335C 2.6693764 4.8333335 4.8333335 2.6693764 4.8333335 1.1838252E-15L4.8333335 1.1838252E-15L4.8333335 0C 4.8333335 -2.6693764 2.6693764 -4.8333335 2.959563E-16 -4.8333335z" stroke="none" fill="#8134AF" fill-rule="nonzero" />
                        <path transform="matrix(1 0 0 1 333.4 110.107124)"  d="M1.9390241E-16 -3.1666667C 1.7489017 -3.1666667 3.1666667 -1.7489017 3.1666667 0L3.1666667 0L3.1666667 7.7560965E-16C 3.1666667 1.7489017 1.7489017 3.1666667 -5.8170724E-16 3.1666667C -1.7489017 3.1666667 -3.1666667 1.7489017 -3.1666667 -3.8780482E-16C -3.1666667 -1.7489017 -1.7489017 -3.1666667 1.9390241E-16 -3.1666667zM2.959563E-16 -4.8333335C -2.6693764 -4.8333335 -4.8333335 -2.6693764 -4.8333335 -5.919126E-16C -4.8333335 2.6693764 -2.6693764 4.8333335 -8.8786894E-16 4.8333335C 2.6693764 4.8333335 4.8333335 2.6693764 4.8333335 1.1838252E-15L4.8333335 1.1838252E-15L4.8333335 0C 4.8333335 -2.6693764 2.6693764 -4.8333335 2.959563E-16 -4.8333335z" stroke="none" fill="#8134AF" fill-rule="nonzero" />
                        <path transform="matrix(1 0 0 1 344.25 106.09366)"  d="M1.9390241E-16 -3.1666667C 1.7489017 -3.1666667 3.1666667 -1.7489017 3.1666667 0L3.1666667 0L3.1666667 7.7560965E-16C 3.1666667 1.7489017 1.7489017 3.1666667 -5.8170724E-16 3.1666667C -1.7489017 3.1666667 -3.1666667 1.7489017 -3.1666667 -3.8780482E-16C -3.1666667 -1.7489017 -1.7489017 -3.1666667 1.9390241E-16 -3.1666667zM2.959563E-16 -4.8333335C -2.6693764 -4.8333335 -4.8333335 -2.6693764 -4.8333335 -5.919126E-16C -4.8333335 2.6693764 -2.6693764 4.8333335 -8.8786894E-16 4.8333335C 2.6693764 4.8333335 4.8333335 2.6693764 4.8333335 1.1838252E-15L4.8333335 1.1838252E-15L4.8333335 0C 4.8333335 -2.6693764 2.6693764 -4.8333335 2.959563E-16 -4.8333335z" stroke="none" fill="#8134AF" fill-rule="nonzero" />
                        <path transform="matrix(1 0 0 1 355.1 105.651726)"  d="M1.9390241E-16 -3.1666667C 1.7489017 -3.1666667 3.1666667 -1.7489017 3.1666667 0L3.1666667 0L3.1666667 7.7560965E-16C 3.1666667 1.7489017 1.7489017 3.1666667 -5.8170724E-16 3.1666667C -1.7489017 3.1666667 -3.1666667 1.7489017 -3.1666667 -3.8780482E-16C -3.1666667 -1.7489017 -1.7489017 -3.1666667 1.9390241E-16 -3.1666667zM2.959563E-16 -4.8333335C -2.6693764 -4.8333335 -4.8333335 -2.6693764 -4.8333335 -5.919126E-16C -4.8333335 2.6693764 -2.6693764 4.8333335 -8.8786894E-16 4.8333335C 2.6693764 4.8333335 4.8333335 2.6693764 4.8333335 1.1838252E-15L4.8333335 1.1838252E-15L4.8333335 0C 4.8333335 -2.6693764 2.6693764 -4.8333335 2.959563E-16 -4.8333335z" stroke="none" fill="#8134AF" fill-rule="nonzero" />
                        <path transform="matrix(1 0 0 1 365.95 108.49184)"  d="M1.9390241E-16 -3.1666667C 1.7489017 -3.1666667 3.1666667 -1.7489017 3.1666667 0L3.1666667 0L3.1666667 7.7560965E-16C 3.1666667 1.7489017 1.7489017 3.1666667 -5.8170724E-16 3.1666667C -1.7489017 3.1666667 -3.1666667 1.7489017 -3.1666667 -3.8780482E-16C -3.1666667 -1.7489017 -1.7489017 -3.1666667 1.9390241E-16 -3.1666667zM2.959563E-16 -4.8333335C -2.6693764 -4.8333335 -4.8333335 -2.6693764 -4.8333335 -5.919126E-16C -4.8333335 2.6693764 -2.6693764 4.8333335 -8.8786894E-16 4.8333335C 2.6693764 4.8333335 4.8333335 2.6693764 4.8333335 1.1838252E-15L4.8333335 1.1838252E-15L4.8333335 0C 4.8333335 -2.6693764 2.6693764 -4.8333335 2.959563E-16 -4.8333335z" stroke="none" fill="#8134AF" fill-rule="nonzero" />
                        <path transform="matrix(1 0 0 1 376.8 106.23273)"  d="M1.9390241E-16 -3.1666667C 1.7489017 -3.1666667 3.1666667 -1.7489017 3.1666667 0L3.1666667 0L3.1666667 7.7560965E-16C 3.1666667 1.7489017 1.7489017 3.1666667 -5.8170724E-16 3.1666667C -1.7489017 3.1666667 -3.1666667 1.7489017 -3.1666667 -3.8780482E-16C -3.1666667 -1.7489017 -1.7489017 -3.1666667 1.9390241E-16 -3.1666667zM2.959563E-16 -4.8333335C -2.6693764 -4.8333335 -4.8333335 -2.6693764 -4.8333335 -5.919126E-16C -4.8333335 2.6693764 -2.6693764 4.8333335 -8.8786894E-16 4.8333335C 2.6693764 4.8333335 4.8333335 2.6693764 4.8333335 1.1838252E-15L4.8333335 1.1838252E-15L4.8333335 0C 4.8333335 -2.6693764 2.6693764 -4.8333335 2.959563E-16 -4.8333335z" stroke="none" fill="#8134AF" fill-rule="nonzero" />
                        <path transform="matrix(1 0 0 1 387.65 105.58888)"  d="M1.9390241E-16 -3.1666667C 1.7489017 -3.1666667 3.1666667 -1.7489017 3.1666667 0L3.1666667 0L3.1666667 7.7560965E-16C 3.1666667 1.7489017 1.7489017 3.1666667 -5.8170724E-16 3.1666667C -1.7489017 3.1666667 -3.1666667 1.7489017 -3.1666667 -3.8780482E-16C -3.1666667 -1.7489017 -1.7489017 -3.1666667 1.9390241E-16 -3.1666667zM2.959563E-16 -4.8333335C -2.6693764 -4.8333335 -4.8333335 -2.6693764 -4.8333335 -5.919126E-16C -4.8333335 2.6693764 -2.6693764 4.8333335 -8.8786894E-16 4.8333335C 2.6693764 4.8333335 4.8333335 2.6693764 4.8333335 1.1838252E-15L4.8333335 1.1838252E-15L4.8333335 0C 4.8333335 -2.6693764 2.6693764 -4.8333335 2.959563E-16 -4.8333335z" stroke="none" fill="#8134AF" fill-rule="nonzero" />
                        <path transform="matrix(1 0 0 1 398.5 105.95461)"  d="M1.9390241E-16 -3.1666667C 1.7489017 -3.1666667 3.1666667 -1.7489017 3.1666667 0L3.1666667 0L3.1666667 7.7560965E-16C 3.1666667 1.7489017 1.7489017 3.1666667 -5.8170724E-16 3.1666667C -1.7489017 3.1666667 -3.1666667 1.7489017 -3.1666667 -3.8780482E-16C -3.1666667 -1.7489017 -1.7489017 -3.1666667 1.9390241E-16 -3.1666667zM2.959563E-16 -4.8333335C -2.6693764 -4.8333335 -4.8333335 -2.6693764 -4.8333335 -5.919126E-16C -4.8333335 2.6693764 -2.6693764 4.8333335 -8.8786894E-16 4.8333335C 2.6693764 4.8333335 4.8333335 2.6693764 4.8333335 1.1838252E-15L4.8333335 1.1838252E-15L4.8333335 0C 4.8333335 -2.6693764 2.6693764 -4.8333335 2.959563E-16 -4.8333335z" stroke="none" fill="#8134AF" fill-rule="nonzero" />
                        <path transform="matrix(1 0 0 1 409.35 106.43465)"  d="M1.9390241E-16 -3.1666667C 1.7489017 -3.1666667 3.1666667 -1.7489017 3.1666667 0L3.1666667 0L3.1666667 7.7560965E-16C 3.1666667 1.7489017 1.7489017 3.1666667 -5.8170724E-16 3.1666667C -1.7489017 3.1666667 -3.1666667 1.7489017 -3.1666667 -3.8780482E-16C -3.1666667 -1.7489017 -1.7489017 -3.1666667 1.9390241E-16 -3.1666667zM2.959563E-16 -4.8333335C -2.6693764 -4.8333335 -4.8333335 -2.6693764 -4.8333335 -5.919126E-16C -4.8333335 2.6693764 -2.6693764 4.8333335 -8.8786894E-16 4.8333335C 2.6693764 4.8333335 4.8333335 2.6693764 4.8333335 1.1838252E-15L4.8333335 1.1838252E-15L4.8333335 0C 4.8333335 -2.6693764 2.6693764 -4.8333335 2.959563E-16 -4.8333335z" stroke="none" fill="#8134AF" fill-rule="nonzero" />
                        <path transform="matrix(1 0 0 1 420.2 105.916504)"  d="M1.9390241E-16 -3.1666667C 1.7489017 -3.1666667 3.1666667 -1.7489017 3.1666667 0L3.1666667 0L3.1666667 7.7560965E-16C 3.1666667 1.7489017 1.7489017 3.1666667 -5.8170724E-16 3.1666667C -1.7489017 3.1666667 -3.1666667 1.7489017 -3.1666667 -3.8780482E-16C -3.1666667 -1.7489017 -1.7489017 -3.1666667 1.9390241E-16 -3.1666667zM2.959563E-16 -4.8333335C -2.6693764 -4.8333335 -4.8333335 -2.6693764 -4.8333335 -5.919126E-16C -4.8333335 2.6693764 -2.6693764 4.8333335 -8.8786894E-16 4.8333335C 2.6693764 4.8333335 4.8333335 2.6693764 4.8333335 1.1838252E-15L4.8333335 1.1838252E-15L4.8333335 0C 4.8333335 -2.6693764 2.6693764 -4.8333335 2.959563E-16 -4.8333335z" stroke="none" fill="#8134AF" fill-rule="nonzero" />
                        <path transform="matrix(1 0 0 1 431.05 106.45938)"  d="M1.9390241E-16 -3.1666667C 1.7489017 -3.1666667 3.1666667 -1.7489017 3.1666667 0L3.1666667 0L3.1666667 7.7560965E-16C 3.1666667 1.7489017 1.7489017 3.1666667 -5.8170724E-16 3.1666667C -1.7489017 3.1666667 -3.1666667 1.7489017 -3.1666667 -3.8780482E-16C -3.1666667 -1.7489017 -1.7489017 -3.1666667 1.9390241E-16 -3.1666667zM2.959563E-16 -4.8333335C -2.6693764 -4.8333335 -4.8333335 -2.6693764 -4.8333335 -5.919126E-16C -4.8333335 2.6693764 -2.6693764 4.8333335 -8.8786894E-16 4.8333335C 2.6693764 4.8333335 4.8333335 2.6693764 4.8333335 1.1838252E-15L4.8333335 1.1838252E-15L4.8333335 0C 4.8333335 -2.6693764 2.6693764 -4.8333335 2.959563E-16 -4.8333335z" stroke="none" fill="#8134AF" fill-rule="nonzero" />
                        <path transform="matrix(1 0 0 1 441.9 105.22316)"  d="M1.9390241E-16 -3.1666667C 1.7489017 -3.1666667 3.1666667 -1.7489017 3.1666667 0L3.1666667 0L3.1666667 7.7560965E-16C 3.1666667 1.7489017 1.7489017 3.1666667 -5.8170724E-16 3.1666667C -1.7489017 3.1666667 -3.1666667 1.7489017 -3.1666667 -3.8780482E-16C -3.1666667 -1.7489017 -1.7489017 -3.1666667 1.9390241E-16 -3.1666667zM2.959563E-16 -4.8333335C -2.6693764 -4.8333335 -4.8333335 -2.6693764 -4.8333335 -5.919126E-16C -4.8333335 2.6693764 -2.6693764 4.8333335 -8.8786894E-16 4.8333335C 2.6693764 4.8333335 4.8333335 2.6693764 4.8333335 1.1838252E-15L4.8333335 1.1838252E-15L4.8333335 0C 4.8333335 -2.6693764 2.6693764 -4.8333335 2.959563E-16 -4.8333335z" stroke="none" fill="#8134AF" fill-rule="nonzero" />
                        <path transform="matrix(1 0 0 1 452.75 106.51085)"  d="M1.9390241E-16 -3.1666667C 1.7489017 -3.1666667 3.1666667 -1.7489017 3.1666667 0L3.1666667 0L3.1666667 7.7560965E-16C 3.1666667 1.7489017 1.7489017 3.1666667 -5.8170724E-16 3.1666667C -1.7489017 3.1666667 -3.1666667 1.7489017 -3.1666667 -3.8780482E-16C -3.1666667 -1.7489017 -1.7489017 -3.1666667 1.9390241E-16 -3.1666667zM2.959563E-16 -4.8333335C -2.6693764 -4.8333335 -4.8333335 -2.6693764 -4.8333335 -5.919126E-16C -4.8333335 2.6693764 -2.6693764 4.8333335 -8.8786894E-16 4.8333335C 2.6693764 4.8333335 4.8333335 2.6693764 4.8333335 1.1838252E-15L4.8333335 1.1838252E-15L4.8333335 0C 4.8333335 -2.6693764 2.6693764 -4.8333335 2.959563E-16 -4.8333335z" stroke="none" fill="#8134AF" fill-rule="nonzero" />
                        <path transform="matrix(1 0 0 1 463.6 106.522224)"  d="M1.9390241E-16 -3.1666667C 1.7489017 -3.1666667 3.1666667 -1.7489017 3.1666667 0L3.1666667 0L3.1666667 7.7560965E-16C 3.1666667 1.7489017 1.7489017 3.1666667 -5.8170724E-16 3.1666667C -1.7489017 3.1666667 -3.1666667 1.7489017 -3.1666667 -3.8780482E-16C -3.1666667 -1.7489017 -1.7489017 -3.1666667 1.9390241E-16 -3.1666667zM2.959563E-16 -4.8333335C -2.6693764 -4.8333335 -4.8333335 -2.6693764 -4.8333335 -5.919126E-16C -4.8333335 2.6693764 -2.6693764 4.8333335 -8.8786894E-16 4.8333335C 2.6693764 4.8333335 4.8333335 2.6693764 4.8333335 1.1838252E-15L4.8333335 1.1838252E-15L4.8333335 0C 4.8333335 -2.6693764 2.6693764 -4.8333335 2.959563E-16 -4.8333335z" stroke="none" fill="#8134AF" fill-rule="nonzero" />
                        <path transform="matrix(1 0 0 1 474.45 107.343216)"  d="M1.9390241E-16 -3.1666667C 1.7489017 -3.1666667 3.1666667 -1.7489017 3.1666667 0L3.1666667 0L3.1666667 7.7560965E-16C 3.1666667 1.7489017 1.7489017 3.1666667 -5.8170724E-16 3.1666667C -1.7489017 3.1666667 -3.1666667 1.7489017 -3.1666667 -3.8780482E-16C -3.1666667 -1.7489017 -1.7489017 -3.1666667 1.9390241E-16 -3.1666667zM2.959563E-16 -4.8333335C -2.6693764 -4.8333335 -4.8333335 -2.6693764 -4.8333335 -5.919126E-16C -4.8333335 2.6693764 -2.6693764 4.8333335 -8.8786894E-16 4.8333335C 2.6693764 4.8333335 4.8333335 2.6693764 4.8333335 1.1838252E-15L4.8333335 1.1838252E-15L4.8333335 0C 4.8333335 -2.6693764 2.6693764 -4.8333335 2.959563E-16 -4.8333335z" stroke="none" fill="#8134AF" fill-rule="nonzero" />
                        <path transform="matrix(1 0 0 1 485.3 106.889915)"  d="M1.9390241E-16 -3.1666667C 1.7489017 -3.1666667 3.1666667 -1.7489017 3.1666667 0L3.1666667 0L3.1666667 7.7560965E-16C 3.1666667 1.7489017 1.7489017 3.1666667 -5.8170724E-16 3.1666667C -1.7489017 3.1666667 -3.1666667 1.7489017 -3.1666667 -3.8780482E-16C -3.1666667 -1.7489017 -1.7489017 -3.1666667 1.9390241E-16 -3.1666667zM2.959563E-16 -4.8333335C -2.6693764 -4.8333335 -4.8333335 -2.6693764 -4.8333335 -5.919126E-16C -4.8333335 2.6693764 -2.6693764 4.8333335 -8.8786894E-16 4.8333335C 2.6693764 4.8333335 4.8333335 2.6693764 4.8333335 1.1838252E-15L4.8333335 1.1838252E-15L4.8333335 0C 4.8333335 -2.6693764 2.6693764 -4.8333335 2.959563E-16 -4.8333335z" stroke="none" fill="#8134AF" fill-rule="nonzero" />
                        <path transform="matrix(1 0 0 1 496.15 107.41945)"  d="M1.9390241E-16 -3.1666667C 1.7489017 -3.1666667 3.1666667 -1.7489017 3.1666667 0L3.1666667 0L3.1666667 7.7560965E-16C 3.1666667 1.7489017 1.7489017 3.1666667 -5.8170724E-16 3.1666667C -1.7489017 3.1666667 -3.1666667 1.7489017 -3.1666667 -3.8780482E-16C -3.1666667 -1.7489017 -1.7489017 -3.1666667 1.9390241E-16 -3.1666667zM2.959563E-16 -4.8333335C -2.6693764 -4.8333335 -4.8333335 -2.6693764 -4.8333335 -5.919126E-16C -4.8333335 2.6693764 -2.6693764 4.8333335 -8.8786894E-16 4.8333335C 2.6693764 4.8333335 4.8333335 2.6693764 4.8333335 1.1838252E-15L4.8333335 1.1838252E-15L4.8333335 0C 4.8333335 -2.6693764 2.6693764 -4.8333335 2.959563E-16 -4.8333335z" stroke="none" fill="#8134AF" fill-rule="nonzero" />
                        <path transform="matrix(1 0 0 1 507 105.92985)"  d="M1.9390241E-16 -3.1666667C 1.7489017 -3.1666667 3.1666667 -1.7489017 3.1666667 0L3.1666667 0L3.1666667 7.7560965E-16C 3.1666667 1.7489017 1.7489017 3.1666667 -5.8170724E-16 3.1666667C -1.7489017 3.1666667 -3.1666667 1.7489017 -3.1666667 -3.8780482E-16C -3.1666667 -1.7489017 -1.7489017 -3.1666667 1.9390241E-16 -3.1666667zM2.959563E-16 -4.8333335C -2.6693764 -4.8333335 -4.8333335 -2.6693764 -4.8333335 -5.919126E-16C -4.8333335 2.6693764 -2.6693764 4.8333335 -8.8786894E-16 4.8333335C 2.6693764 4.8333335 4.8333335 2.6693764 4.8333335 1.1838252E-15L4.8333335 1.1838252E-15L4.8333335 0C 4.8333335 -2.6693764 2.6693764 -4.8333335 2.959563E-16 -4.8333335z" stroke="none" fill="#8134AF" fill-rule="nonzero" />
                        <path transform="matrix(1 0 0 1 0 0)"  d="M73 362.12943L83.85 362.8873L94.7 335.3321L105.55 313.03812L116.4 301.68713L127.25 266.94357L138.1 245.22319L148.95 241.24594L159.8 221.61519L170.65 196.48848L181.5 185.03458L192.35 165.06917L203.2 159.30022L214.05 156.57185L224.9 138.88911L235.75 129.77383L246.6 125.725975L257.45 122.51005L268.3 115.5762L279.15 113.20869L290 111.13159L300.85 108.18126L311.7 105.54815L322.55 103.12901L333.4 103.45766L344.25 102.483154L355.1 102.24239L365.95 101.93856L376.8 104.67295L387.65 106.065956L398.5 103.31818L409.35 102.96469L420.2 102.15451L431.05 103.432846L441.9 101.15319L452.75 103.9392L463.6 103.23029L474.45 103.47108L485.3 102.00161L496.15 101.432205L507 103.07739" stroke="#DD2A7B" stroke-width="1.6666666" fill="none" />
                        <path transform="matrix(1 0 0 1 73 362.12943)"  d="M0 -5.332L-4.617512 2.666L4.617512 2.666z" stroke="#DD2A7B" stroke-width="1.6666666" fill="none" />
                        <path transform="matrix(1 0 0 1 83.85 362.8873)"  d="M0 -5.332L-4.617512 2.666L4.617512 2.666z" stroke="#DD2A7B" stroke-width="1.6666666" fill="none" />
                        <path transform="matrix(1 0 0 1 94.7 335.3321)"  d="M0 -5.332L-4.617512 2.666L4.617512 2.666z" stroke="#DD2A7B" stroke-width="1.6666666" fill="none" />
                        <path transform="matrix(1 0 0 1 105.55 313.03812)"  d="M0 -5.332L-4.617512 2.666L4.617512 2.666z" stroke="#DD2A7B" stroke-width="1.6666666" fill="none" />
                        <path transform="matrix(1 0 0 1 116.4 301.68713)"  d="M0 -5.332L-4.617512 2.666L4.617512 2.666z" stroke="#DD2A7B" stroke-width="1.6666666" fill="none" />
                        <path transform="matrix(1 0 0 1 127.25 266.94357)"  d="M0 -5.332L-4.617512 2.666L4.617512 2.666z" stroke="#DD2A7B" stroke-width="1.6666666" fill="none" />
                        <path transform="matrix(1 0 0 1 138.1 245.22319)"  d="M0 -5.332L-4.617512 2.666L4.617512 2.666z" stroke="#DD2A7B" stroke-width="1.6666666" fill="none" />
                        <path transform="matrix(1 0 0 1 148.95 241.24594)"  d="M0 -5.332L-4.617512 2.666L4.617512 2.666z" stroke="#DD2A7B" stroke-width="1.6666666" fill="none" />
                        <path transform="matrix(1 0 0 1 159.8 221.61519)"  d="M0 -5.332L-4.617512 2.666L4.617512 2.666z" stroke="#DD2A7B" stroke-width="1.6666666" fill="none" />
                        <path transform="matrix(1 0 0 1 170.65 196.48848)"  d="M0 -5.332L-4.617512 2.666L4.617512 2.666z" stroke="#DD2A7B" stroke-width="1.6666666" fill="none" />
                        <path transform="matrix(1 0 0 1 181.5 185.03458)"  d="M0 -5.332L-4.617512 2.666L4.617512 2.666z" stroke="#DD2A7B" stroke-width="1.6666666" fill="none" />
                        <path transform="matrix(1 0 0 1 192.35 165.06917)"  d="M0 -5.332L-4.617512 2.666L4.617512 2.666z" stroke="#DD2A7B" stroke-width="1.6666666" fill="none" />
                        <path transform="matrix(1 0 0 1 203.2 159.30022)"  d="M0 -5.332L-4.617512 2.666L4.617512 2.666z" stroke="#DD2A7B" stroke-width="1.6666666" fill="none" />
                        <path transform="matrix(1 0 0 1 214.05 156.57185)"  d="M0 -5.332L-4.617512 2.666L4.617512 2.666z" stroke="#DD2A7B" stroke-width="1.6666666" fill="none" />
                        <path transform="matrix(1 0 0 1 224.9 138.88911)"  d="M0 -5.332L-4.617512 2.666L4.617512 2.666z" stroke="#DD2A7B" stroke-width="1.6666666" fill="none" />
                        <path transform="matrix(1 0 0 1 235.75 129.77383)"  d="M0 -5.332L-4.617512 2.666L4.617512 2.666z" stroke="#DD2A7B" stroke-width="1.6666666" fill="none" />
                        <path transform="matrix(1 0 0 1 246.6 125.725975)"  d="M0 -5.332L-4.617512 2.666L4.617512 2.666z" stroke="#DD2A7B" stroke-width="1.6666666" fill="none" />
                        <path transform="matrix(1 0 0 1 257.45 122.51005)"  d="M0 -5.332L-4.617512 2.666L4.617512 2.666z" stroke="#DD2A7B" stroke-width="1.6666666" fill="none" />
                        <path transform="matrix(1 0 0 1 268.3 115.5762)"  d="M0 -5.332L-4.617512 2.666L4.617512 2.666z" stroke="#DD2A7B" stroke-width="1.6666666" fill="none" />
                        <path transform="matrix(1 0 0 1 279.15 113.20869)"  d="M0 -5.332L-4.617512 2.666L4.617512 2.666z" stroke="#DD2A7B" stroke-width="1.6666666" fill="none" />
                        <path transform="matrix(1 0 0 1 290 111.13159)"  d="M0 -5.332L-4.617512 2.666L4.617512 2.666z" stroke="#DD2A7B" stroke-width="1.6666666" fill="none" />
                        <path transform="matrix(1 0 0 1 300.85 108.18126)"  d="M0 -5.332L-4.617512 2.666L4.617512 2.666z" stroke="#DD2A7B" stroke-width="1.6666666" fill="none" />
                        <path transform="matrix(1 0 0 1 311.7 105.54815)"  d="M0 -5.332L-4.617512 2.666L4.617512 2.666z" stroke="#DD2A7B" stroke-width="1.6666666" fill="none" />
                        <path transform="matrix(1 0 0 1 322.55 103.12901)"  d="M0 -5.332L-4.617512 2.666L4.617512 2.666z" stroke="#DD2A7B" stroke-width="1.6666666" fill="none" />
                        <path transform="matrix(1 0 0 1 333.4 103.45766)"  d="M0 -5.332L-4.617512 2.666L4.617512 2.666z" stroke="#DD2A7B" stroke-width="1.6666666" fill="none" />
                        <path transform="matrix(1 0 0 1 344.25 102.483154)"  d="M0 -5.332L-4.617512 2.666L4.617512 2.666z" stroke="#DD2A7B" stroke-width="1.6666666" fill="none" />
                        <path transform="matrix(1 0 0 1 355.1 102.24239)"  d="M0 -5.332L-4.617512 2.666L4.617512 2.666z" stroke="#DD2A7B" stroke-width="1.6666666" fill="none" />
                        <path transform="matrix(1 0 0 1 365.95 101.93856)"  d="M0 -5.332L-4.617512 2.666L4.617512 2.666z" stroke="#DD2A7B" stroke-width="1.6666666" fill="none" />
                        <path transform="matrix(1 0 0 1 376.8 104.67295)"  d="M0 -5.332L-4.617512 2.666L4.617512 2.666z" stroke="#DD2A7B" stroke-width="1.6666666" fill="none" />
                        <path transform="matrix(1 0 0 1 387.65 106.065956)"  d="M0 -5.332L-4.617512 2.666L4.617512 2.666z" stroke="#DD2A7B" stroke-width="1.6666666" fill="none" />
                        <path transform="matrix(1 0 0 1 398.5 103.31818)"  d="M0 -5.332L-4.617512 2.666L4.617512 2.666z" stroke="#DD2A7B" stroke-width="1.6666666" fill="none" />
                        <path transform="matrix(1 0 0 1 409.35 102.96469)"  d="M0 -5.332L-4.617512 2.666L4.617512 2.666z" stroke="#DD2A7B" stroke-width="1.6666666" fill="none" />
                        <path transform="matrix(1 0 0 1 420.2 102.15451)"  d="M0 -5.332L-4.617512 2.666L4.617512 2.666z" stroke="#DD2A7B" stroke-width="1.6666666" fill="none" />
                        <path transform="matrix(1 0 0 1 431.05 103.432846)"  d="M0 -5.332L-4.617512 2.666L4.617512 2.666z" stroke="#DD2A7B" stroke-width="1.6666666" fill="none" />
                        <path transform="matrix(1 0 0 1 441.9 101.15319)"  d="M0 -5.332L-4.617512 2.666L4.617512 2.666z" stroke="#DD2A7B" stroke-width="1.6666666" fill="none" />
                        <path transform="matrix(1 0 0 1 452.75 103.9392)"  d="M0 -5.332L-4.617512 2.666L4.617512 2.666z" stroke="#DD2A7B" stroke-width="1.6666666" fill="none" />
                        <path transform="matrix(1 0 0 1 463.6 103.23029)"  d="M0 -5.332L-4.617512 2.666L4.617512 2.666z" stroke="#DD2A7B" stroke-width="1.6666666" fill="none" />
                        <path transform="matrix(1 0 0 1 474.45 103.47108)"  d="M0 -5.332L-4.617512 2.666L4.617512 2.666z" stroke="#DD2A7B" stroke-width="1.6666666" fill="none" />
                        <path transform="matrix(1 0 0 1 485.3 102.00161)"  d="M0 -5.332L-4.617512 2.666L4.617512 2.666z" stroke="#DD2A7B" stroke-width="1.6666666" fill="none" />
                        <path transform="matrix(1 0 0 1 496.15 101.432205)"  d="M0 -5.332L-4.617512 2.666L4.617512 2.666z" stroke="#DD2A7B" stroke-width="1.6666666" fill="none" />
                        <path transform="matrix(1 0 0 1 507 103.07739)"  d="M0 -5.332L-4.617512 2.666L4.617512 2.666z" stroke="#DD2A7B" stroke-width="1.6666666" fill="none" />
                        <path transform="matrix(1 0 0 1 0 0)"  d="M73 368.30966L83.85 345.5051L94.7 329.82187L105.55 301.7883L116.4 287.65573L127.25 248.37294L138.1 238.81767L148.95 216.41602L159.8 201.88585L170.65 189.90555L181.5 162.6565L192.35 150.97485L203.2 137.06471L214.05 127.8654L224.9 117.397896L235.75 107.17442L246.6 99.945724L257.45 92.55768L268.3 81.71827L279.15 80.66967L290 75.1549L300.85 71.50325L311.7 66.03466L322.55 69.1686L333.4 65.3798L344.25 65.93185L355.1 61.865993L365.95 63.506195L376.8 63.820786L387.65 64.14718L398.5 63.28261L409.35 62.443726L420.2 64.29162L431.05 60.79169L441.9 63.34788L452.75 64.18677L463.6 61.31599L474.45 65.1305L485.3 63.45276L496.15 62.038185L507 62.849293" stroke="#515BD4" stroke-width="1.6666666" fill="none" />
                        <path transform="matrix(1 0 0 1 73 368.30966)"  d="M0 5.332L-4.617512 -2.666L4.617512 -2.666z" stroke="#515BD4" stroke-width="1.6666666" fill="none" />
                        <path transform="matrix(1 0 0 1 83.85 345.5051)"  d="M0 5.332L-4.617512 -2.666L4.617512 -2.666z" stroke="#515BD4" stroke-width="1.6666666" fill="none" />
                        <path transform="matrix(1 0 0 1 94.7 329.82187)"  d="M0 5.332L-4.617512 -2.666L4.617512 -2.666z" stroke="#515BD4" stroke-width="1.6666666" fill="none" />
                        <path transform="matrix(1 0 0 1 105.55 301.7883)"  d="M0 5.332L-4.617512 -2.666L4.617512 -2.666z" stroke="#515BD4" stroke-width="1.6666666" fill="none" />
                        <path transform="matrix(1 0 0 1 116.4 287.65573)"  d="M0 5.332L-4.617512 -2.666L4.617512 -2.666z" stroke="#515BD4" stroke-width="1.6666666" fill="none" />
                        <path transform="matrix(1 0 0 1 127.25 248.37294)"  d="M0 5.332L-4.617512 -2.666L4.617512 -2.666z" stroke="#515BD4" stroke-width="1.6666666" fill="none" />
                        <path transform="matrix(1 0 0 1 138.1 238.81767)"  d="M0 5.332L-4.617512 -2.666L4.617512 -2.666z" stroke="#515BD4" stroke-width="1.6666666" fill="none" />
                        <path transform="matrix(1 0 0 1 148.95 216.41602)"  d="M0 5.332L-4.617512 -2.666L4.617512 -2.666z" stroke="#515BD4" stroke-width="1.6666666" fill="none" />
                        <path transform="matrix(1 0 0 1 159.8 201.88585)"  d="M0 5.332L-4.617512 -2.666L4.617512 -2.666z" stroke="#515BD4" stroke-width="1.6666666" fill="none" />
                        <path transform="matrix(1 0 0 1 170.65 189.90555)"  d="M0 5.332L-4.617512 -2.666L4.617512 -2.666z" stroke="#515BD4" stroke-width="1.6666666" fill="none" />
                        <path transform="matrix(1 0 0 1 181.5 162.6565)"  d="M0 5.332L-4.617512 -2.666L4.617512 -2.666z" stroke="#515BD4" stroke-width="1.6666666" fill="none" />
                        <path transform="matrix(1 0 0 1 192.35 150.97485)"  d="M0 5.332L-4.617512 -2.666L4.617512 -2.666z" stroke="#515BD4" stroke-width="1.6666666" fill="none" />
                        <path transform="matrix(1 0 0 1 203.2 137.06471)"  d="M0 5.332L-4.617512 -2.666L4.617512 -2.666z" stroke="#515BD4" stroke-width="1.6666666" fill="none" />
                        <path transform="matrix(1 0 0 1 214.05 127.8654)"  d="M0 5.332L-4.617512 -2.666L4.617512 -2.666z" stroke="#515BD4" stroke-width="1.6666666" fill="none" />
                        <path transform="matrix(1 0 0 1 224.9 117.397896)"  d="M0 5.332L-4.617512 -2.666L4.617512 -2.666z" stroke="#515BD4" stroke-width="1.6666666" fill="none" />
                        <path transform="matrix(1 0 0 1 235.75 107.17442)"  d="M0 5.332L-4.617512 -2.666L4.617512 -2.666z" stroke="#515BD4" stroke-width="1.6666666" fill="none" />
                        <path transform="matrix(1 0 0 1 246.6 99.945724)"  d="M0 5.332L-4.617512 -2.666L4.617512 -2.666z" stroke="#515BD4" stroke-width="1.6666666" fill="none" />
                        <path transform="matrix(1 0 0 1 257.45 92.55768)"  d="M0 5.332L-4.617512 -2.666L4.617512 -2.666z" stroke="#515BD4" stroke-width="1.6666666" fill="none" />
                        <path transform="matrix(1 0 0 1 268.3 81.71827)"  d="M0 5.332L-4.617512 -2.666L4.617512 -2.666z" stroke="#515BD4" stroke-width="1.6666666" fill="none" />
                        <path transform="matrix(1 0 0 1 279.15 80.66967)"  d="M0 5.332L-4.617512 -2.666L4.617512 -2.666z" stroke="#515BD4" stroke-width="1.6666666" fill="none" />
                        <path transform="matrix(1 0 0 1 290 75.1549)"  d="M0 5.332L-4.617512 -2.666L4.617512 -2.666z" stroke="#515BD4" stroke-width="1.6666666" fill="none" />
                        <path transform="matrix(1 0 0 1 300.85 71.50325)"  d="M0 5.332L-4.617512 -2.666L4.617512 -2.666z" stroke="#515BD4" stroke-width="1.6666666" fill="none" />
                        <path transform="matrix(1 0 0 1 311.7 66.03466)"  d="M0 5.332L-4.617512 -2.666L4.617512 -2.666z" stroke="#515BD4" stroke-width="1.6666666" fill="none" />
                        <path transform="matrix(1 0 0 1 322.55 69.1686)"  d="M0 5.332L-4.617512 -2.666L4.617512 -2.666z" stroke="#515BD4" stroke-width="1.6666666" fill="none" />
                        <path transform="matrix(1 0 0 1 333.4 65.3798)"  d="M0 5.332L-4.617512 -2.666L4.617512 -2.666z" stroke="#515BD4" stroke-width="1.6666666" fill="none" />
                        <path transform="matrix(1 0 0 1 344.25 65.93185)"  d="M0 5.332L-4.617512 -2.666L4.617512 -2.666z" stroke="#515BD4" stroke-width="1.6666666" fill="none" />
                        <path transform="matrix(1 0 0 1 355.1 61.865993)"  d="M0 5.332L-4.617512 -2.666L4.617512 -2.666z" stroke="#515BD4" stroke-width="1.6666666" fill="none" />
                        <path transform="matrix(1 0 0 1 365.95 63.506195)"  d="M0 5.332L-4.617512 -2.666L4.617512 -2.666z" stroke="#515BD4" stroke-width="1.6666666" fill="none" />
                        <path transform="matrix(1 0 0 1 376.8 63.820786)"  d="M0 5.332L-4.617512 -2.666L4.617512 -2.666z" stroke="#515BD4" stroke-width="1.6666666" fill="none" />
                        <path transform="matrix(1 0 0 1 387.65 64.14718)"  d="M0 5.332L-4.617512 -2.666L4.617512 -2.666z" stroke="#515BD4" stroke-width="1.6666666" fill="none" />
                        <path transform="matrix(1 0 0 1 398.5 63.28261)"  d="M0 5.332L-4.617512 -2.666L4.617512 -2.666z" stroke="#515BD4" stroke-width="1.6666666" fill="none" />
                        <path transform="matrix(1 0 0 1 409.35 62.443726)"  d="M0 5.332L-4.617512 -2.666L4.617512 -2.666z" stroke="#515BD4" stroke-width="1.6666666" fill="none" />
                        <path transform="matrix(1 0 0 1 420.2 64.29162)"  d="M0 5.332L-4.617512 -2.666L4.617512 -2.666z" stroke="#515BD4" stroke-width="1.6666666" fill="none" />
                        <path transform="matrix(1 0 0 1 431.05 60.79169)"  d="M0 5.332L-4.617512 -2.666L4.617512 -2.666z" stroke="#515BD4" stroke-width="1.6666666" fill="none" />
                        <path transform="matrix(1 0 0 1 441.9 63.34788)"  d="M0 5.332L-4.617512 -2.666L4.617512 -2.666z" stroke="#515BD4" stroke-width="1.6666666" fill="none" />
                        <path transform="matrix(1 0 0 1 452.75 64.18677)"  d="M0 5.332L-4.617512 -2.666L4.617512 -2.666z" stroke="#515BD4" stroke-width="1.6666666" fill="none" />
                        <path transform="matrix(1 0 0 1 463.6 61.31599)"  d="M0 5.332L-4.617512 -2.666L4.617512 -2.666z" stroke="#515BD4" stroke-width="1.6666666" fill="none" />
                        <path transform="matrix(1 0 0 1 474.45 65.1305)"  d="M0 5.332L-4.617512 -2.666L4.617512 -2.666z" stroke="#515BD4" stroke-width="1.6666666" fill="none" />
                        <path transform="matrix(1 0 0 1 485.3 63.45276)"  d="M0 5.332L-4.617512 -2.666L4.617512 -2.666z" stroke="#515BD4" stroke-width="1.6666666" fill="none" />
                        <path transform="matrix(1 0 0 1 496.15 62.038185)"  d="M0 5.332L-4.617512 -2.666L4.617512 -2.666z" stroke="#515BD4" stroke-width="1.6666666" fill="none" />
                        <path transform="matrix(1 0 0 1 507 62.849293)"  d="M0 5.332L-4.617512 -2.666L4.617512 -2.666z" stroke="#515BD4" stroke-width="1.6666666" fill="none" />
                        <path transform="matrix(1 0 0 1 0 0)"  d="M73 373.31348L83.85 358.0987L94.7 340.747L105.55 329.84476L116.4 318.38754L127.25 286.02948L138.1 274.1036L148.95 260.602L159.8 226.99034L170.65 222.19191L181.5 201.15146L192.35 182.60931L203.2 169.36325L214.05 164.18858L224.9 147.22678L235.75 143.35628L246.6 130.85963L257.45 122.9404L268.3 116.20481L279.15 117.526726L290 112.292885L300.85 106.37646L311.7 106.84494L322.55 105.55224L333.4 103.85418L344.25 101.939995L355.1 100.825165L365.95 102.85212L376.8 102.5749L387.65 100.29358L398.5 100.33181L409.35 103.27093L420.2 101.18087L431.05 101.813805L441.9 102.07958L452.75 101.91513L463.6 101.966805L474.45 101.953384L485.3 102.72593L496.15 103.27093L507 103.16957" stroke="#FEDA77" stroke-width="1.6666666" fill="none" />
                        <path transform="matrix(1 0 0 1 73 373.31348)"  d="M-4 0L0 5.32L4 0L0 -5.32z" stroke="#FEDA77" stroke-width="1.6666666" fill="none" />
                        <path transform="matrix(1 0 0 1 83.85 358.0987)"  d="M-4 0L0 5.32L4 0L0 -5.32z" stroke="#FEDA77" stroke-width="1.6666666" fill="none" />
                        <path transform="matrix(1 0 0 1 94.7 340.747)"  d="M-4 0L0 5.32L4 0L0 -5.32z" stroke="#FEDA77" stroke-width="1.6666666" fill="none" />
                        <path transform="matrix(1 0 0 1 105.55 329.84476)"  d="M-4 0L0 5.32L4 0L0 -5.32z" stroke="#FEDA77" stroke-width="1.6666666" fill="none" />
                        <path transform="matrix(1 0 0 1 116.4 318.38754)"  d="M-4 0L0 5.32L4 0L0 -5.32z" stroke="#FEDA77" stroke-width="1.6666666" fill="none" />
                        <path transform="matrix(1 0 0 1 127.25 286.02948)"  d="M-4 0L0 5.32L4 0L0 -5.32z" stroke="#FEDA77" stroke-width="1.6666666" fill="none" />
                        <path transform="matrix(1 0 0 1 138.1 274.1036)"  d="M-4 0L0 5.32L4 0L0 -5.32z" stroke="#FEDA77" stroke-width="1.6666666" fill="none" />
                        <path transform="matrix(1 0 0 1 148.95 260.602)"  d="M-4 0L0 5.32L4 0L0 -5.32z" stroke="#FEDA77" stroke-width="1.6666666" fill="none" />
                        <path transform="matrix(1 0 0 1 159.8 226.99034)"  d="M-4 0L0 5.32L4 0L0 -5.32z" stroke="#FEDA77" stroke-width="1.6666666" fill="none" />
                        <path transform="matrix(1 0 0 1 170.65 222.19191)"  d="M-4 0L0 5.32L4 0L0 -5.32z" stroke="#FEDA77" stroke-width="1.6666666" fill="none" />
                        <path transform="matrix(1 0 0 1 181.5 201.15146)"  d="M-4 0L0 5.32L4 0L0 -5.32z" stroke="#FEDA77" stroke-width="1.6666666" fill="none" />
                        <path transform="matrix(1 0 0 1 192.35 182.60931)"  d="M-4 0L0 5.32L4 0L0 -5.32z" stroke="#FEDA77" stroke-width="1.6666666" fill="none" />
                        <path transform="matrix(1 0 0 1 203.2 169.36325)"  d="M-4 0L0 5.32L4 0L0 -5.32z" stroke="#FEDA77" stroke-width="1.6666666" fill="none" />
                        <path transform="matrix(1 0 0 1 214.05 164.18858)"  d="M-4 0L0 5.32L4 0L0 -5.32z" stroke="#FEDA77" stroke-width="1.6666666" fill="none" />
                        <path transform="matrix(1 0 0 1 224.9 147.22678)"  d="M-4 0L0 5.32L4 0L0 -5.32z" stroke="#FEDA77" stroke-width="1.6666666" fill="none" />
                        <path transform="matrix(1 0 0 1 235.75 143.35628)"  d="M-4 0L0 5.32L4 0L0 -5.32z" stroke="#FEDA77" stroke-width="1.6666666" fill="none" />
                        <path transform="matrix(1 0 0 1 246.6 130.85963)"  d="M-4 0L0 5.32L4 0L0 -5.32z" stroke="#FEDA77" stroke-width="1.6666666" fill="none" />
                        <path transform="matrix(1 0 0 1 257.45 122.9404)"  d="M-4 0L0 5.32L4 0L0 -5.32z" stroke="#FEDA77" stroke-width="1.6666666" fill="none" />
                        <path transform="matrix(1 0 0 1 268.3 116.20481)"  d="M-4 0L0 5.32L4 0L0 -5.32z" stroke="#FEDA77" stroke-width="1.6666666" fill="none" />
                        <path transform="matrix(1 0 0 1 279.15 117.526726)"  d="M-4 0L0 5.32L4 0L0 -5.32z" stroke="#FEDA77" stroke-width="1.6666666" fill="none" />
                        <path transform="matrix(1 0 0 1 290 112.292885)"  d="M-4 0L0 5.32L4 0L0 -5.32z" stroke="#FEDA77" stroke-width="1.6666666" fill="none" />
                        <path transform="matrix(1 0 0 1 300.85 106.37646)"  d="M-4 0L0 5.32L4 0L0 -5.32z" stroke="#FEDA77" stroke-width="1.6666666" fill="none" />
                        <path transform="matrix(1 0 0 1 311.7 106.84494)"  d="M-4 0L0 5.32L4 0L0 -5.32z" stroke="#FEDA77" stroke-width="1.6666666" fill="none" />
                        <path transform="matrix(1 0 0 1 322.55 105.55224)"  d="M-4 0L0 5.32L4 0L0 -5.32z" stroke="#FEDA77" stroke-width="1.6666666" fill="none" />
                        <path transform="matrix(1 0 0 1 333.4 103.85418)"  d="M-4 0L0 5.32L4 0L0 -5.32z" stroke="#FEDA77" stroke-width="1.6666666" fill="none" />
                        <path transform="matrix(1 0 0 1 344.25 101.939995)"  d="M-4 0L0 5.32L4 0L0 -5.32z" stroke="#FEDA77" stroke-width="1.6666666" fill="none" />
                        <path transform="matrix(1 0 0 1 355.1 100.825165)"  d="M-4 0L0 5.32L4 0L0 -5.32z" stroke="#FEDA77" stroke-width="1.6666666" fill="none" />
                        <path transform="matrix(1 0 0 1 365.95 102.85212)"  d="M-4 0L0 5.32L4 0L0 -5.32z" stroke="#FEDA77" stroke-width="1.6666666" fill="none" />
                        <path transform="matrix(1 0 0 1 376.8 102.5749)"  d="M-4 0L0 5.32L4 0L0 -5.32z" stroke="#FEDA77" stroke-width="1.6666666" fill="none" />
                        <path transform="matrix(1 0 0 1 387.65 100.29358)"  d="M-4 0L0 5.32L4 0L0 -5.32z" stroke="#FEDA77" stroke-width="1.6666666" fill="none" />
                        <path transform="matrix(1 0 0 1 398.5 100.33181)"  d="M-4 0L0 5.32L4 0L0 -5.32z" stroke="#FEDA77" stroke-width="1.6666666" fill="none" />
                        <path transform="matrix(1 0 0 1 409.35 103.27093)"  d="M-4 0L0 5.32L4 0L0 -5.32z" stroke="#FEDA77" stroke-width="1.6666666" fill="none" />
                        <path transform="matrix(1 0 0 1 420.2 101.18087)"  d="M-4 0L0 5.32L4 0L0 -5.32z" stroke="#FEDA77" stroke-width="1.6666666" fill="none" />
                        <path transform="matrix(1 0 0 1 431.05 101.813805)"  d="M-4 0L0 5.32L4 0L0 -5.32z" stroke="#FEDA77" stroke-width="1.6666666" fill="none" />
                        <path transform="matrix(1 0 0 1 441.9 102.07958)"  d="M-4 0L0 5.32L4 0L0 -5.32z" stroke="#FEDA77" stroke-width="1.6666666" fill="none" />
                        <path transform="matrix(1 0 0 1 452.75 101.91513)"  d="M-4 0L0 5.32L4 0L0 -5.32z" stroke="#FEDA77" stroke-width="1.6666666" fill="none" />
                        <path transform="matrix(1 0 0 1 463.6 101.966805)"  d="M-4 0L0 5.32L4 0L0 -5.32z" stroke="#FEDA77" stroke-width="1.6666666" fill="none" />
                        <path transform="matrix(1 0 0 1 474.45 101.953384)"  d="M-4 0L0 5.32L4 0L0 -5.32z" stroke="#FEDA77" stroke-width="1.6666666" fill="none" />
                        <path transform="matrix(1 0 0 1 485.3 102.72593)"  d="M-4 0L0 5.32L4 0L0 -5.32z" stroke="#FEDA77" stroke-width="1.6666666" fill="none" />
                        <path transform="matrix(1 0 0 1 496.15 103.27093)"  d="M-4 0L0 5.32L4 0L0 -5.32z" stroke="#FEDA77" stroke-width="1.6666666" fill="none" />
                        <path transform="matrix(1 0 0 1 507 103.16957)"  d="M-4 0L0 5.32L4 0L0 -5.32z" stroke="#FEDA77" stroke-width="1.6666666" fill="none" />
                        <path transform="matrix(1 0 0 1 0 0)"  d="M417 42L496 42L496 111L417 111" stroke="none" fill="#FFFFFF" fill-rule="evenodd" />
						<text transform="matrix(1 0 0 1 464 60.208057)" x="0" y="-5.8632812" style="fill:#000000;font-family:ABeeZee;" font-size="9">
r=3.7
						</text>
                        <path transform="matrix(1 0 0 1 0 0)"  d="M421 51.92806L461 51.92806" stroke="#8134AF" stroke-width="1.6666666" fill="none" />
                        <path transform="matrix(1 0 0 1 441 51.92806)"  d="M1.9390241E-16 -3.1666667C 1.7489017 -3.1666667 3.1666667 -1.7489017 3.1666667 0L3.1666667 0L3.1666667 7.7560965E-16C 3.1666667 1.7489017 1.7489017 3.1666667 -5.8170724E-16 3.1666667C -1.7489017 3.1666667 -3.1666667 1.7489017 -3.1666667 -3.8780482E-16C -3.1666667 -1.7489017 -1.7489017 -3.1666667 1.9390241E-16 -3.1666667zM2.959563E-16 -4.8333335C -2.6693764 -4.8333335 -4.8333335 -2.6693764 -4.8333335 -5.919126E-16C -4.8333335 2.6693764 -2.6693764 4.8333335 -8.8786894E-16 4.8333335C 2.6693764 4.8333335 4.8333335 2.6693764 4.8333335 1.1838252E-15L4.8333335 1.1838252E-15L4.8333335 0C 4.8333335 -2.6693764 2.6693764 -4.8333335 2.959563E-16 -4.8333335z" stroke="none" fill="#8134AF" fill-rule="nonzero" />
						<text transform="matrix(1 0 0 1 464 76.58935)" x="0" y="-5.8632812" style="fill:#000000;font-family:ABeeZee;" font-size="9">
r=3.8
						</text>
                        <path transform="matrix(1 0 0 1 0 0)"  d="M421 68.30935L461 68.30935" stroke="#DD2A7B" stroke-width="1.6666666" fill="none" />
                        <path transform="matrix(1 0 0 1 441 68.30935)"  d="M0 -5.332L-4.617512 2.666L4.617512 2.666z" stroke="#DD2A7B" stroke-width="1.6666666" fill="none" />
						<text transform="matrix(1 0 0 1 464 92.97065)" x="0" y="-5.8632812" style="fill:#000000;font-family:ABeeZee;" font-size="9">
r=3.9
						</text>
                        <path transform="matrix(1 0 0 1 0 0)"  d="M421 84.69065L461 84.69065" stroke="#515BD4" stroke-width="1.6666666" fill="none" />
                        <path transform="matrix(1 0 0 1 441 84.69065)"  d="M0 5.332L-4.617512 -2.666L4.617512 -2.666z" stroke="#515BD4" stroke-width="1.6666666" fill="none" />
						<text transform="matrix(1 0 0 1 464 109.351944)" x="0" y="-5.8632812" style="fill:#000000;font-family:ABeeZee;" font-size="9">
r=4.0
						</text>
                        <path transform="matrix(1 0 0 1 0 0)"  d="M421 101.071945L461 101.071945" stroke="#FEDA77" stroke-width="1.6666666" fill="none" />
                        <path transform="matrix(1 0 0 1 441 101.071945)"  d="M-4 0L0 5.32L4 0L0 -5.32z" stroke="#FEDA77" stroke-width="1.6666666" fill="none" />
                        <path transform="matrix(1 0 0 1 0 0)"  d="M417 111L417 42L496 42L496 111z" stroke="#262626" stroke-width="0.6666667" fill="none" />
					</g>
				</g>
			</g>
		</g>
	</g>
</g>
</svg>