<?xml version="1.0" standalone="no"?>
<!DOCTYPE svg PUBLIC "-//W3C//DTD SVG 1.0//EN" "http://www.w3.org/TR/2001/REC-SVG-20010904/DTD/svg10.dtd">
<svg xmlns="http://www.w3.org/2000/svg" xmlns:xlink="http://www.w3.org/1999/xlink" id="body_17" width="488" height="375">

<defs>
                    <clipPath  id="1">

                        <path clip-rule="evenodd" d="M0 0L487 0L487 374L0 374z" />                    </clipPath>
                    <clipPath  id="2">

                        <path clip-rule="evenodd" d="M0 0L487 0L487 374L0 374z" />                    </clipPath>
                    <clipPath  id="3">

                        <path clip-rule="evenodd" d="M0 0L487 0L487 374L0 374z" />                    </clipPath>
                    <clipPath  id="4">

                        <path clip-rule="evenodd" d="M0 0L487 0L487 374L0 374z" />                    </clipPath>
                    <clipPath  id="5">

                        <path clip-rule="evenodd" d="M0 0L487 0L487 374L0 374z" />                    </clipPath>
                    <clipPath  id="6">

                        <path clip-rule="evenodd" d="M0 0L487 0L487 374L0 374z" />                    </clipPath>
                    <clipPath  id="7">

                        <path clip-rule="evenodd" d="M0 0L487 0L487 374L0 374z" />                    </clipPath>
                    <clipPath  id="8">

                        <path clip-rule="evenodd" d="M0 0L487 0L487 374L0 374z" />                    </clipPath>
                    <clipPath  id="9">

                        <path clip-rule="evenodd" d="M0 0L487 0L487 374L0 374z" />                    </clipPath>
                    <clipPath  id="10">

                        <path clip-rule="evenodd" d="M0 0L487 0L487 374L0 374z" />                    </clipPath>
                    <clipPath  id="11">

                        <path clip-rule="evenodd" d="M0 0L487 0L487 374L0 374z" />                    </clipPath>
                    <clipPath  id="12">

                        <path clip-rule="evenodd" d="M0 0L487 0L487 374L0 374z" />                    </clipPath>
                    <clipPath  id="13">

                        <path clip-rule="evenodd" d="M0 0L487 0L487 374L0 374z" />                    </clipPath>
                    <clipPath  id="14">

                        <path clip-rule="evenodd" d="M0 0L487 0L487 374L0 374z" />                    </clipPath>
                    <clipPath  id="15">

                        <path clip-rule="evenodd" d="M0 0L487 0L487 374L0 374z" />                    </clipPath>
                    <clipPath  id="16">

                        <path clip-rule="evenodd" d="M0 0L487 0L487 374L0 374z" />                    </clipPath>
                    <clipPath  id="17">

                        <path clip-rule="evenodd" d="M0 0L487 0L487 374L0 374z" />                    </clipPath>
                    <clipPath  id="18">

                        <path clip-rule="evenodd" d="M0 0L487 0L487 374L0 374z" />                    </clipPath>
                    <clipPath  id="19">

                        <path clip-rule="evenodd" d="M0 0L487 0L487 374L0 374z" />                    </clipPath>
                    <clipPath  id="20">

                        <path clip-rule="evenodd" d="M0 0L487 0L487 374L0 374z" />                    </clipPath>
                    <clipPath  id="21">

                        <path clip-rule="evenodd" d="M0 0L487 0L487 374L0 374z" />                    </clipPath>
                    <clipPath  id="22">

                        <path clip-rule="evenodd" d="M0 0L487 0L487 374L0 374z" />                    </clipPath>
                    <clipPath  id="23">

                        <path clip-rule="evenodd" d="M0 0L487 0L487 374L0 374z" />                    </clipPath>
                    <clipPath  id="24">

                        <path clip-rule="evenodd" d="M0 0L487 0L487 374L0 374z" />                    </clipPath>
                    <clipPath  id="25">

                        <path clip-rule="evenodd" d="M0 0L487 0L487 374L0 374z" />                    </clipPath>
                    <clipPath  id="26">

                        <path clip-rule="evenodd" d="M0 0L487 0L487 374L0 374z" />                    </clipPath>
                        <clipPath  id="27">

                            <path clip-rule="evenodd" d="M0 0L487 0L487 374L0 374z" />                        </clipPath>
</defs>

<g transform="matrix(1.3333334 0 0 1.3333334 0 0)">
    <path d="M0 0L366 0L366 281.25L0 281.25z" stroke="none" fill="#FFFFFF" fill-rule="evenodd" />
	<g transform="matrix(0.75 0 0 0.75 -0 -0)">
		<g>
			<g>
				<g transform="matrix(1 0 0 1 0 0)">
					<g>
					</g>
					<g>
					</g>
				</g>
				<g>
				</g>
				<g clip-path="url(#1)" >
				</g>
				<g transform="matrix(1 0 0 1 0 0)">
					<g>
					</g>
				</g>
				<g>
				</g>
				<g clip-path="url(#2)" >
					<text transform="matrix(0 -1 1 0 19.757952 237.53261)" x="0" y="0" style="fill:#262626;font-family:ABeeZee;" font-size="16">
Computation time (s)
					</text>
				</g>
				<g transform="matrix(1 0 0 1 0 0)">
					<g>
					</g>
				</g>
				<g>
				</g>
				<g clip-path="url(#3)" >
					<text transform="matrix(1 0 0 1 48.115955 343.82947)" x="0" y="3.1560001" style="fill:#262626;font-family:ABeeZee;" font-size="16">
64
					</text>
				</g>
				<g transform="matrix(1 0 0 1 0 0)">
					<g>
					</g>
				</g>
				<g>
				</g>
				<g clip-path="url(#4)" >
					<text transform="matrix(1 0 0 1 106.90774 343.82947)" x="0" y="3.1560001" style="fill:#262626;font-family:ABeeZee;" font-size="16">
128
					</text>
				</g>
				<g transform="matrix(1 0 0 1 0 0)">
					<g>
					</g>
				</g>
				<g>
				</g>
				<g clip-path="url(#5)" >
					<text transform="matrix(1 0 0 1 175.0039 343.82947)" x="0" y="3.1560001" style="fill:#262626;font-family:ABeeZee;" font-size="16">
256
					</text>
				</g>
				<g transform="matrix(1 0 0 1 0 0)">
					<g>
					</g>
				</g>
				<g>
				</g>
				<g clip-path="url(#6)" >
					<text transform="matrix(1 0 0 1 243.92989 343.82947)" x="0" y="3.1560001" style="fill:#262626;font-family:ABeeZee;" font-size="16">
512
					</text>
				</g>
				<g transform="matrix(1 0 0 1 0 0)">
					<g>
					</g>
				</g>
				<g>
				</g>
				<g clip-path="url(#7)" >
					<text transform="matrix(1 0 0 1 309.62103 343.82947)" x="0" y="3.1560001" style="fill:#262626;font-family:ABeeZee;" font-size="16">
1024
					</text>
				</g>
				<g transform="matrix(1 0 0 1 0 0)">
					<g>
					</g>
				</g>
				<g>
				</g>
				<g clip-path="url(#8)" >
					<text transform="matrix(1 0 0 1 377.43225 343.82947)" x="0" y="3.1560001" style="fill:#262626;font-family:ABeeZee;" font-size="16">
2048
					</text>
				</g>
				<g transform="matrix(1 0 0 1 0 0)">
					<g>
					</g>
				</g>
				<g>
				</g>
				<g clip-path="url(#9)" >
					<text transform="matrix(1 0 0 1 445.71106 343.82947)" x="0" y="3.1560001" style="fill:#262626;font-family:ABeeZee;" font-size="16">
4096
					</text>
				</g>
				<g transform="matrix(1 0 0 1 0 0)">
					<g>
                        <path transform="matrix(96 0 0 96 51.18748 325.13928)"  d="M0 -3.2509477L4.2627544 -3.2509477L4.2627544 0L0 0" stroke="none" fill="#FFFFFF" fill-rule="evenodd" />
                        <path transform="matrix(96 0 0 96 51.18748 325.13928)"  d="M0 0L4.2627544 0" stroke="#262626" stroke-width="0.0066343737" stroke-linecap="round" fill="none" />
                        <path transform="matrix(96 0 0 96 51.18748 13.048274)"  d="M0 0L4.2627544 0" stroke="#262626" stroke-width="0.0066343737" stroke-linecap="round" fill="none" />
                        <path transform="matrix(96 0 0 96 51.18748 325.13928)"  d="M0 0L0 -0.040873803" stroke="#262626" stroke-width="0.0066343737" stroke-linecap="round" fill="none" />
                        <path transform="matrix(96 0 0 96 119.43085 325.13928)"  d="M0 0L0 -0.040873803" stroke="#262626" stroke-width="0.0066343737" stroke-linecap="round" fill="none" />
                        <path transform="matrix(96 0 0 96 187.61525 325.13928)"  d="M0 0L0 -0.040873803" stroke="#262626" stroke-width="0.0066343737" stroke-linecap="round" fill="none" />
                        <path transform="matrix(96 0 0 96 255.7997 325.13928)"  d="M0 0L0 -0.040873803" stroke="#262626" stroke-width="0.0066343737" stroke-linecap="round" fill="none" />
                        <path transform="matrix(96 0 0 96 324.04306 325.13928)"  d="M0 0L0 -0.040873803" stroke="#262626" stroke-width="0.0066343737" stroke-linecap="round" fill="none" />
                        <path transform="matrix(96 0 0 96 392.22745 325.13928)"  d="M0 0L0 -0.040873803" stroke="#262626" stroke-width="0.0066343737" stroke-linecap="round" fill="none" />
                        <path transform="matrix(96 0 0 96 460.41187 325.13928)"  d="M0 0L0 -0.040873803" stroke="#262626" stroke-width="0.0066343737" stroke-linecap="round" fill="none" />
                        <path transform="matrix(96 0 0 96 51.18748 17.028986)"  d="M0 -0.041466087L0 8.240703E-08" stroke="#262626" stroke-width="0.0066343737" stroke-linecap="round" fill="none" />
                        <path transform="matrix(96 0 0 96 119.43085 17.028986)"  d="M0 -0.041466087L0 8.240703E-08" stroke="#262626" stroke-width="0.0066343737" stroke-linecap="round" fill="none" />
                        <path transform="matrix(96 0 0 96 187.61525 17.028986)"  d="M0 -0.041466087L0 8.240703E-08" stroke="#262626" stroke-width="0.0066343737" stroke-linecap="round" fill="none" />
                        <path transform="matrix(96 0 0 96 255.7997 17.028986)"  d="M0 -0.041466087L0 8.240703E-08" stroke="#262626" stroke-width="0.0066343737" stroke-linecap="round" fill="none" />
                        <path transform="matrix(96 0 0 96 324.04306 17.028986)"  d="M0 -0.041466087L0 8.240703E-08" stroke="#262626" stroke-width="0.0066343737" stroke-linecap="round" fill="none" />
                        <path transform="matrix(96 0 0 96 392.22745 17.028986)"  d="M0 -0.041466087L0 8.240703E-08" stroke="#262626" stroke-width="0.0066343737" stroke-linecap="round" fill="none" />
                        <path transform="matrix(96 0 0 96 460.41187 17.028986)"  d="M0 -0.041466087L0 8.240703E-08" stroke="#262626" stroke-width="0.0066343737" stroke-linecap="round" fill="none" />
					</g>
				</g>
				<g>
				</g>
				<g clip-path="url(#10)" >
					<text transform="matrix(1 0 0 1 226.06396 361.30157)" x="0" y="3.1560001" style="fill:#262626;font-family:ABeeZee;" font-size="16">
Length N
					</text>
				</g>
				<g transform="matrix(1 0 0 1 0 0)">
					<g>
                        <path transform="matrix(96 0 0 96 51.18748 325.13928)"  d="M0 0L0 -3.2509477" stroke="#262626" stroke-width="0.0066343737" stroke-linecap="round" fill="none" />
                        <path transform="matrix(96 0 0 96 460.41187 325.13928)"  d="M0 0L0 -3.2509477" stroke="#262626" stroke-width="0.0066343737" stroke-linecap="round" fill="none" />
                        <path transform="matrix(96 0 0 96 51.18748 325.13928)"  d="M0 0L0.042971324 0" stroke="#262626" stroke-width="0.0066343737" stroke-linecap="round" fill="none" />
                        <path transform="matrix(96 0 0 96 51.18748 280.55484)"  d="M0 0L0.042971324 0" stroke="#262626" stroke-width="0.0066343737" stroke-linecap="round" fill="none" />
                        <path transform="matrix(96 0 0 96 51.18748 235.97044)"  d="M0 0L0.042971324 0" stroke="#262626" stroke-width="0.0066343737" stroke-linecap="round" fill="none" />
                        <path transform="matrix(96 0 0 96 51.18748 191.386)"  d="M0 0L0.042971324 0" stroke="#262626" stroke-width="0.0066343737" stroke-linecap="round" fill="none" />
                        <path transform="matrix(96 0 0 96 51.18748 146.8016)"  d="M0 0L0.042971324 0" stroke="#262626" stroke-width="0.0066343737" stroke-linecap="round" fill="none" />
                        <path transform="matrix(96 0 0 96 51.18748 102.217155)"  d="M0 0L0.042971324 0" stroke="#262626" stroke-width="0.0066343737" stroke-linecap="round" fill="none" />
                        <path transform="matrix(96 0 0 96 51.18748 57.632717)"  d="M0 0L0.042971324 0" stroke="#262626" stroke-width="0.0066343737" stroke-linecap="round" fill="none" />
                        <path transform="matrix(96 0 0 96 51.18748 13.048274)"  d="M0 0L0.042971324 0" stroke="#262626" stroke-width="0.0066343737" stroke-linecap="round" fill="none" />
                        <path transform="matrix(96 0 0 96 456.34555 325.13928)"  d="M0.04235764 0L2.0274966E-07 0" stroke="#262626" stroke-width="0.0066343737" stroke-linecap="round" fill="none" />
                        <path transform="matrix(96 0 0 96 456.34555 280.55484)"  d="M0.04235764 0L2.0274966E-07 0" stroke="#262626" stroke-width="0.0066343737" stroke-linecap="round" fill="none" />
                        <path transform="matrix(96 0 0 96 456.34555 235.97044)"  d="M0.04235764 0L2.0274966E-07 0" stroke="#262626" stroke-width="0.0066343737" stroke-linecap="round" fill="none" />
                        <path transform="matrix(96 0 0 96 456.34555 191.386)"  d="M0.04235764 0L2.0274966E-07 0" stroke="#262626" stroke-width="0.0066343737" stroke-linecap="round" fill="none" />
                        <path transform="matrix(96 0 0 96 456.34555 146.8016)"  d="M0.04235764 0L2.0274966E-07 0" stroke="#262626" stroke-width="0.0066343737" stroke-linecap="round" fill="none" />
                        <path transform="matrix(96 0 0 96 456.34555 102.217155)"  d="M0.04235764 0L2.0274966E-07 0" stroke="#262626" stroke-width="0.0066343737" stroke-linecap="round" fill="none" />
                        <path transform="matrix(96 0 0 96 456.34555 57.632717)"  d="M0.04235764 0L2.0274966E-07 0" stroke="#262626" stroke-width="0.0066343737" stroke-linecap="round" fill="none" />
                        <path transform="matrix(96 0 0 96 456.34555 13.048274)"  d="M0.04235764 0L2.0274966E-07 0" stroke="#262626" stroke-width="0.0066343737" stroke-linecap="round" fill="none" />
					</g>
				</g>
				<g>
				</g>
				<g clip-path="url(#11)" >
					<text transform="matrix(1 0 0 1 40.60465 331.8489)" x="0" y="3.1560001" style="fill:#262626;font-family:ABeeZee;" font-size="16">
0
					</text>
				</g>
				<g transform="matrix(1 0 0 1 0 0)">
					<g>
					</g>
				</g>
				<g>
				</g>
				<g clip-path="url(#12)" >
					<text transform="matrix(1 0 0 1 40.60465 287.26447)" x="0" y="3.1560001" style="fill:#262626;font-family:ABeeZee;" font-size="16">
5
					</text>
				</g>
				<g transform="matrix(1 0 0 1 0 0)">
					<g>
					</g>
				</g>
				<g>
				</g>
				<g clip-path="url(#13)" >
					<text transform="matrix(1 0 0 1 33.78674 242.68002)" x="0" y="3.1560001" style="fill:#262626;font-family:ABeeZee;" font-size="16">
10
					</text>
				</g>
				<g transform="matrix(1 0 0 1 0 0)">
					<g>
					</g>
				</g>
				<g>
				</g>
				<g clip-path="url(#14)" >
					<text transform="matrix(1 0 0 1 33.78674 198.09563)" x="0" y="3.1560001" style="fill:#262626;font-family:ABeeZee;" font-size="16">
15
					</text>
				</g>
				<g transform="matrix(1 0 0 1 0 0)">
					<g>
					</g>
				</g>
				<g>
				</g>
				<g clip-path="url(#15)" >
					<text transform="matrix(1 0 0 1 33.78674 153.51118)" x="0" y="3.1560001" style="fill:#262626;font-family:ABeeZee;" font-size="16">
20
					</text>
				</g>
				<g transform="matrix(1 0 0 1 0 0)">
					<g>
					</g>
				</g>
				<g>
				</g>
				<g clip-path="url(#16)" >
					<text transform="matrix(1 0 0 1 33.78674 108.92674)" x="0" y="3.1560001" style="fill:#262626;font-family:ABeeZee;" font-size="16">
25
					</text>
				</g>
				<g transform="matrix(1 0 0 1 0 0)">
					<g>
					</g>
				</g>
				<g>
				</g>
				<g clip-path="url(#17)" >
					<text transform="matrix(1 0 0 1 33.78674 64.3423)" x="0" y="3.1560001" style="fill:#262626;font-family:ABeeZee;" font-size="16">
30
					</text>
				</g>
				<g transform="matrix(1 0 0 1 0 0)">
					<g>
					</g>
				</g>
				<g>
				</g>
				<g clip-path="url(#18)" >
					<text transform="matrix(1 0 0 1 33.78674 19.757952)" x="0" y="3.1560001" style="fill:#262626;font-family:ABeeZee;" font-size="16">
35
					</text>
				</g>
				<g transform="matrix(1 0 0 1 0 0)">
					<g>
                        <path transform="matrix(96 0 0 96 51.18748 325.13928)"  d="M0 0L0.7108683 -0.0005923739L1.4211227 -0.0029618694L2.1313772 -0.010070356L2.8422453 -0.038504303L3.5524998 -0.1563867L4.2627544 -0.6119222" stroke="#8134AF" stroke-width="0.016284373" stroke-linecap="round" fill="none" />
                        <path transform="matrix(96 0 0 96 46.649715 329.5181)"  d="M0.047268443 -0.07582386C 0.06445697 -0.07582386 0.07857612 -0.062199257 0.07857612 -0.04561279C 0.07857612 -0.02902632 0.06445697 -0.015401721 0.047268443 -0.015401721C 0.03007992 -0.015401721 0.01657465 -0.02902632 0.01657465 -0.04561279C 0.01657465 -0.062199257 0.03007992 -0.07582386 0.047268443 -0.07582386zM0.047268443 -0.09122558C 0.021485656 -0.09122558 7.806256E-18 -0.071084864 0 -0.04561279C -6.3425827E-18 -0.020140711 0.021485656 0 0.047268443 0C 0.073665105 -4.87891E-19 0.09515076 -0.020140711 0.09515076 -0.04561279C 0.09515076 -0.071084864 0.073665105 -0.09122558 0.047268443 -0.09122558z" stroke="none" fill="#8134AF" fill-rule="nonzero" />
                        <path transform="matrix(96 0 0 96 114.834145 329.46124)"  d="M0.047882322 -0.07582386C 0.065070845 -0.07582386 0.07857612 -0.062199257 0.07857612 -0.04561279C 0.07857612 -0.02902632 0.065070845 -0.015401721 0.047882322 -0.015401721C 0.030693796 -0.015401721 0.01657465 -0.02902632 0.01657465 -0.04561279C 0.01657465 -0.062199257 0.030693796 -0.07582386 0.047882322 -0.07582386zM0.047882322 -0.09122558C 0.021485656 -0.09122558 5.2041704E-18 -0.071084864 0 -0.04561279C -3.4152368E-18 -0.020140711 0.021485656 0 0.047882322 0C 0.07427898 -4.87891E-19 0.09515076 -0.020140711 0.09515076 -0.04561279C 0.09515076 -0.071084864 0.07427898 -0.09122558 0.047882322 -0.09122558z" stroke="none" fill="#8134AF" fill-rule="nonzero" />
                        <path transform="matrix(96 0 0 96 183.07748 329.23373)"  d="M0.047268443 -0.07582386C 0.06445697 -0.07582386 0.07857612 -0.062199257 0.07857612 -0.04561279C 0.07857612 -0.02902632 0.06445697 -0.015401721 0.047268443 -0.015401721C 0.03007992 -0.015401721 0.015960773 -0.02902632 0.015960773 -0.04561279C 0.015960773 -0.062199257 0.03007992 -0.07582386 0.047268443 -0.07582386zM0.047268443 -0.09122558C 0.02087178 -0.09122558 1.0408341E-17 -0.071084864 0 -0.04561279C -3.4152368E-18 -0.020140711 0.02087178 0 0.047268443 0C 0.073665105 -4.87891E-19 0.094536886 -0.020140711 0.094536886 -0.04561279C 0.094536886 -0.071084864 0.073665105 -0.09122558 0.047268443 -0.09122558z" stroke="none" fill="#8134AF" fill-rule="nonzero" />
                        <path transform="matrix(96 0 0 96 251.26193 328.55136)"  d="M0.047268443 -0.07582386C 0.06445697 -0.07582386 0.07857612 -0.062199257 0.07857612 -0.04561279C 0.07857612 -0.02902632 0.06445697 -0.015401721 0.047268443 -0.015401721C 0.03007992 -0.015401721 0.01657465 -0.02902632 0.01657465 -0.04561279C 0.01657465 -0.062199257 0.03007992 -0.07582386 0.047268443 -0.07582386zM0.047268443 -0.09122558C 0.021485656 -0.09122558 0 -0.071084864 0 -0.04561279C 3.903128E-18 -0.020140711 0.021485656 0 0.047268443 0C 0.073665105 -4.87891E-19 0.09515076 -0.020140711 0.09515076 -0.04561279C 0.09515076 -0.071084864 0.073665105 -0.09122558 0.047268443 -0.09122558z" stroke="none" fill="#8134AF" fill-rule="nonzero" />
                        <path transform="matrix(96 0 0 96 319.44632 325.87857)"  d="M0.047882322 -0.07582386C 0.065070845 -0.07582386 0.07857612 -0.06279163 0.07857612 -0.046205163C 0.07857612 -0.029618694 0.065070845 -0.015994094 0.047882322 -0.015994094C 0.030693796 -0.015994094 0.01657465 -0.029618694 0.01657465 -0.046205163C 0.01657465 -0.06279163 0.030693796 -0.07582386 0.047882322 -0.07582386zM0.047882322 -0.09181795C 0.021485656 -0.09181795 5.2041704E-18 -0.071084864 0 -0.046205163C 4.87891E-19 -0.020733085 0.021485656 2.6020852E-18 0.047882322 0C 0.07427898 0 0.09515076 -0.020733085 0.09515076 -0.046205163C 0.09515076 -0.071084864 0.07427898 -0.09181795 0.047882322 -0.09181795z" stroke="none" fill="#8134AF" fill-rule="nonzero" />
                        <path transform="matrix(96 0 0 96 387.6897 314.50497)"  d="M0.047268443 -0.07582386C 0.06445697 -0.07582386 0.07857612 -0.062199257 0.07857612 -0.04561279C 0.07857612 -0.02902632 0.06445697 -0.015994094 0.047268443 -0.015994094C 0.03007992 -0.015994094 0.015960773 -0.02902632 0.015960773 -0.04561279C 0.015960773 -0.062199257 0.03007992 -0.07582386 0.047268443 -0.07582386zM0.047268443 -0.09181795C 0.02087178 -0.09181795 2.6020852E-18 -0.071084864 0 -0.04561279C -1.951564E-18 -0.020140711 0.02087178 0 0.047268443 0C 0.073665105 -4.87891E-19 0.094536886 -0.020140711 0.094536886 -0.04561279C 0.094536886 -0.071084864 0.073665105 -0.09181795 0.047268443 -0.09181795z" stroke="none" fill="#8134AF" fill-rule="nonzero" />
                        <path transform="matrix(96 0 0 96 455.87408 270.77356)"  d="M0.047268443 -0.07582386C 0.06445697 -0.07582386 0.07857612 -0.062199257 0.07857612 -0.04561279C 0.07857612 -0.02902632 0.06445697 -0.015994094 0.047268443 -0.015994094C 0.03007992 -0.015994094 0.01657465 -0.02902632 0.01657465 -0.04561279C 0.01657465 -0.062199257 0.03007992 -0.07582386 0.047268443 -0.07582386zM0.047268443 -0.09181795C 0.021485656 -0.09181795 5.2041704E-18 -0.071084864 0 -0.04561279C 1.951564E-18 -0.020733085 0.021485656 5.2041704E-18 0.047268443 0C 0.073665105 3.4152368E-18 0.09515076 -0.020733085 0.09515076 -0.04561279C 0.09515076 -0.071084864 0.073665105 -0.09181795 0.047268443 -0.09181795z" stroke="none" fill="#8134AF" fill-rule="nonzero" />
                        <path transform="matrix(96 0 0 96 51.18748 325.13928)"  d="M0 0L0.7108683 -0.0005923739L1.4211227 -0.0023694956L2.1313772 -0.010070356L2.8422453 -0.03968905L3.5524998 -0.15283246L4.2627544 -0.6219926" stroke="#DD2A7B" stroke-width="0.016284373" stroke-linecap="round" fill="none" />
                        <path transform="matrix(96 0 0 96 46.649715 329.5181)"  d="M0.047268443 -0.07582386C 0.06445697 -0.07582386 0.07857612 -0.062199257 0.07857612 -0.04561279C 0.07857612 -0.02902632 0.06445697 -0.015401721 0.047268443 -0.015401721C 0.03007992 -0.015401721 0.01657465 -0.02902632 0.01657465 -0.04561279C 0.01657465 -0.062199257 0.03007992 -0.07582386 0.047268443 -0.07582386zM0.047268443 -0.09122558C 0.021485656 -0.09122558 7.806256E-18 -0.071084864 0 -0.04561279C -6.3425827E-18 -0.020140711 0.021485656 0 0.047268443 0C 0.073665105 -4.87891E-19 0.09515076 -0.020140711 0.09515076 -0.04561279C 0.09515076 -0.071084864 0.073665105 -0.09122558 0.047268443 -0.09122558z" stroke="none" fill="#DD2A7B" fill-rule="nonzero" />
                        <path transform="matrix(96 0 0 96 114.834145 329.46124)"  d="M0.047882322 -0.07582386C 0.065070845 -0.07582386 0.07857612 -0.062199257 0.07857612 -0.04561279C 0.07857612 -0.02902632 0.065070845 -0.015401721 0.047882322 -0.015401721C 0.030693796 -0.015401721 0.01657465 -0.02902632 0.01657465 -0.04561279C 0.01657465 -0.062199257 0.030693796 -0.07582386 0.047882322 -0.07582386zM0.047882322 -0.09122558C 0.021485656 -0.09122558 5.2041704E-18 -0.071084864 0 -0.04561279C -3.4152368E-18 -0.020140711 0.021485656 0 0.047882322 0C 0.07427898 -4.87891E-19 0.09515076 -0.020140711 0.09515076 -0.04561279C 0.09515076 -0.071084864 0.07427898 -0.09122558 0.047882322 -0.09122558z" stroke="none" fill="#DD2A7B" fill-rule="nonzero" />
                        <path transform="matrix(96 0 0 96 183.07748 329.29065)"  d="M0.047268443 -0.07582386C 0.06445697 -0.07582386 0.07857612 -0.062199257 0.07857612 -0.04561279C 0.07857612 -0.02902632 0.06445697 -0.015994094 0.047268443 -0.015994094C 0.03007992 -0.015994094 0.015960773 -0.02902632 0.015960773 -0.04561279C 0.015960773 -0.062199257 0.03007992 -0.07582386 0.047268443 -0.07582386zM0.047268443 -0.09181795C 0.02087178 -0.09181795 1.0408341E-17 -0.071084864 0 -0.04561279C -3.4152368E-18 -0.020733085 0.02087178 5.2041704E-18 0.047268443 0C 0.073665105 3.4152368E-18 0.094536886 -0.020733085 0.094536886 -0.04561279C 0.094536886 -0.071084864 0.073665105 -0.09181795 0.047268443 -0.09181795z" stroke="none" fill="#DD2A7B" fill-rule="nonzero" />
                        <path transform="matrix(96 0 0 96 251.26193 328.55136)"  d="M0.047268443 -0.07582386C 0.06445697 -0.07582386 0.07857612 -0.062199257 0.07857612 -0.04561279C 0.07857612 -0.02902632 0.06445697 -0.015994094 0.047268443 -0.015994094C 0.03007992 -0.015994094 0.01657465 -0.02902632 0.01657465 -0.04561279C 0.01657465 -0.062199257 0.03007992 -0.07582386 0.047268443 -0.07582386zM0.047268443 -0.09181795C 0.021485656 -0.09181795 0 -0.071084864 0 -0.04561279C 3.903128E-18 -0.020733085 0.021485656 5.2041704E-18 0.047268443 0C 0.073665105 3.4152368E-18 0.09515076 -0.020733085 0.09515076 -0.04561279C 0.09515076 -0.071084864 0.073665105 -0.09181795 0.047268443 -0.09181795z" stroke="none" fill="#DD2A7B" fill-rule="nonzero" />
                        <path transform="matrix(96 0 0 96 319.44632 325.70795)"  d="M0.047882322 -0.07582386C 0.065070845 -0.07582386 0.07857612 -0.062199257 0.07857612 -0.04561279C 0.07857612 -0.02902632 0.065070845 -0.015994094 0.047882322 -0.015994094C 0.030693796 -0.015994094 0.01657465 -0.02902632 0.01657465 -0.04561279C 0.01657465 -0.062199257 0.030693796 -0.07582386 0.047882322 -0.07582386zM0.047882322 -0.09181795C 0.021485656 -0.09181795 5.2041704E-18 -0.071084864 0 -0.04561279C 4.87891E-19 -0.020733085 0.021485656 5.2041704E-18 0.047882322 0C 0.07427898 3.4152368E-18 0.09515076 -0.020733085 0.09515076 -0.04561279C 0.09515076 -0.071084864 0.07427898 -0.09181795 0.047882322 -0.09181795z" stroke="none" fill="#DD2A7B" fill-rule="nonzero" />
                        <path transform="matrix(96 0 0 96 387.6897 314.8462)"  d="M0.047268443 -0.07582386C 0.06445697 -0.07582386 0.07857612 -0.062199257 0.07857612 -0.04561279C 0.07857612 -0.02902632 0.06445697 -0.015401721 0.047268443 -0.015401721C 0.03007992 -0.015401721 0.015960773 -0.02902632 0.015960773 -0.04561279C 0.015960773 -0.062199257 0.03007992 -0.07582386 0.047268443 -0.07582386zM0.047268443 -0.09122558C 0.02087178 -0.09122558 2.6020852E-18 -0.071084864 0 -0.04561279C -1.951564E-18 -0.020140711 0.02087178 0 0.047268443 0C 0.073665105 -4.87891E-19 0.094536886 -0.020140711 0.094536886 -0.04561279C 0.094536886 -0.071084864 0.073665105 -0.09122558 0.047268443 -0.09122558z" stroke="none" fill="#DD2A7B" fill-rule="nonzero" />
                        <path transform="matrix(96 0 0 96 455.87408 269.86368)"  d="M0.047268443 -0.07582386C 0.06445697 -0.07582386 0.07857612 -0.06279163 0.07857612 -0.046205163C 0.07857612 -0.029618694 0.06445697 -0.015994094 0.047268443 -0.015994094C 0.03007992 -0.015994094 0.01657465 -0.029618694 0.01657465 -0.046205163C 0.01657465 -0.06279163 0.03007992 -0.07582386 0.047268443 -0.07582386zM0.047268443 -0.09181795C 0.021485656 -0.09181795 5.2041704E-18 -0.071084864 0 -0.046205163C 1.951564E-18 -0.020733085 0.021485656 2.6020852E-18 0.047268443 0C 0.073665105 -2.4394549E-18 0.09515076 -0.020733085 0.09515076 -0.046205163C 0.09515076 -0.071084864 0.073665105 -0.09181795 0.047268443 -0.09181795z" stroke="none" fill="#DD2A7B" fill-rule="nonzero" />
                        <path transform="matrix(96 0 0 96 51.18748 325.13928)"  d="M0 0L0.7108683 0L1.4211227 -0.0005923739L2.1313772 -0.004146617L2.8422453 -0.018955965L3.5524998 -0.086486585L4.2627544 -0.36134806" stroke="#515BD4" stroke-width="0.016284373" stroke-linecap="round" fill="none" />
                        <path transform="matrix(96 0 0 96 46.649715 329.5181)"  d="M0.047268443 -0.07582386C 0.06445697 -0.07582386 0.07857612 -0.062199257 0.07857612 -0.04561279C 0.07857612 -0.02902632 0.06445697 -0.015401721 0.047268443 -0.015401721C 0.03007992 -0.015401721 0.01657465 -0.02902632 0.01657465 -0.04561279C 0.01657465 -0.062199257 0.03007992 -0.07582386 0.047268443 -0.07582386zM0.047268443 -0.09122558C 0.021485656 -0.09122558 7.806256E-18 -0.071084864 0 -0.04561279C -6.3425827E-18 -0.020140711 0.021485656 0 0.047268443 0C 0.073665105 -4.87891E-19 0.09515076 -0.020140711 0.09515076 -0.04561279C 0.09515076 -0.071084864 0.073665105 -0.09122558 0.047268443 -0.09122558z" stroke="none" fill="#515BD4" fill-rule="nonzero" />
                        <path transform="matrix(96 0 0 96 114.834145 329.5181)"  d="M0.047882322 -0.07582386C 0.065070845 -0.07582386 0.07857612 -0.062199257 0.07857612 -0.04561279C 0.07857612 -0.02902632 0.065070845 -0.015994094 0.047882322 -0.015994094C 0.030693796 -0.015994094 0.01657465 -0.02902632 0.01657465 -0.04561279C 0.01657465 -0.062199257 0.030693796 -0.07582386 0.047882322 -0.07582386zM0.047882322 -0.09181795C 0.021485656 -0.09181795 5.2041704E-18 -0.071084864 0 -0.04561279C -3.4152368E-18 -0.020733085 0.021485656 5.2041704E-18 0.047882322 0C 0.07427898 3.4152368E-18 0.09515076 -0.020733085 0.09515076 -0.04561279C 0.09515076 -0.071084864 0.07427898 -0.09181795 0.047882322 -0.09181795z" stroke="none" fill="#515BD4" fill-rule="nonzero" />
                        <path transform="matrix(96 0 0 96 183.07748 329.46124)"  d="M0.047268443 -0.07582386C 0.06445697 -0.07582386 0.07857612 -0.062199257 0.07857612 -0.04561279C 0.07857612 -0.02902632 0.06445697 -0.015994094 0.047268443 -0.015994094C 0.03007992 -0.015994094 0.015960773 -0.02902632 0.015960773 -0.04561279C 0.015960773 -0.062199257 0.03007992 -0.07582386 0.047268443 -0.07582386zM0.047268443 -0.09181795C 0.02087178 -0.09181795 1.0408341E-17 -0.071084864 0 -0.04561279C -3.4152368E-18 -0.020733085 0.02087178 5.2041704E-18 0.047268443 0C 0.073665105 3.4152368E-18 0.094536886 -0.020733085 0.094536886 -0.04561279C 0.094536886 -0.071084864 0.073665105 -0.09181795 0.047268443 -0.09181795z" stroke="none" fill="#515BD4" fill-rule="nonzero" />
                        <path transform="matrix(96 0 0 96 251.26193 329.17688)"  d="M0.047268443 -0.07582386C 0.06445697 -0.07582386 0.07857612 -0.06279163 0.07857612 -0.046205163C 0.07857612 -0.029618694 0.06445697 -0.015994094 0.047268443 -0.015994094C 0.03007992 -0.015994094 0.01657465 -0.029618694 0.01657465 -0.046205163C 0.01657465 -0.06279163 0.03007992 -0.07582386 0.047268443 -0.07582386zM0.047268443 -0.09181795C 0.021485656 -0.09181795 0 -0.071084864 0 -0.046205163C 3.903128E-18 -0.020733085 0.021485656 2.6020852E-18 0.047268443 0C 0.073665105 1.4636729E-18 0.09515076 -0.020733085 0.09515076 -0.046205163C 0.09515076 -0.071084864 0.073665105 -0.09181795 0.047268443 -0.09181795z" stroke="none" fill="#515BD4" fill-rule="nonzero" />
                        <path transform="matrix(96 0 0 96 319.44632 327.6983)"  d="M0.047882322 -0.07582386C 0.065070845 -0.07582386 0.07857612 -0.062199257 0.07857612 -0.04561279C 0.07857612 -0.02902632 0.065070845 -0.015994094 0.047882322 -0.015994094C 0.030693796 -0.015994094 0.01657465 -0.02902632 0.01657465 -0.04561279C 0.01657465 -0.062199257 0.030693796 -0.07582386 0.047882322 -0.07582386zM0.047882322 -0.09181795C 0.021485656 -0.09181795 5.2041704E-18 -0.071084864 0 -0.04561279C 4.87891E-19 -0.020733085 0.021485656 5.2041704E-18 0.047882322 0C 0.07427898 3.4152368E-18 0.09515076 -0.020733085 0.09515076 -0.04561279C 0.09515076 -0.071084864 0.07427898 -0.09181795 0.047882322 -0.09181795z" stroke="none" fill="#515BD4" fill-rule="nonzero" />
                        <path transform="matrix(96 0 0 96 387.6897 321.21536)"  d="M0.047268443 -0.07582386C 0.06445697 -0.07582386 0.07857612 -0.062199257 0.07857612 -0.04561279C 0.07857612 -0.02902632 0.06445697 -0.015994094 0.047268443 -0.015994094C 0.03007992 -0.015994094 0.015960773 -0.02902632 0.015960773 -0.04561279C 0.015960773 -0.062199257 0.03007992 -0.07582386 0.047268443 -0.07582386zM0.047268443 -0.09181795C 0.02087178 -0.09181795 2.6020852E-18 -0.071084864 0 -0.04561279C -1.951564E-18 -0.020733085 0.02087178 2.6020852E-18 0.047268443 0C 0.073665105 1.4636729E-18 0.094536886 -0.020733085 0.094536886 -0.04561279C 0.094536886 -0.071084864 0.073665105 -0.09181795 0.047268443 -0.09181795z" stroke="none" fill="#515BD4" fill-rule="nonzero" />
                        <path transform="matrix(96 0 0 96 455.87408 294.88553)"  d="M0.047268443 -0.07582386C 0.06445697 -0.07582386 0.07857612 -0.06279163 0.07857612 -0.046205163C 0.07857612 -0.029618694 0.06445697 -0.015994094 0.047268443 -0.015994094C 0.03007992 -0.015994094 0.01657465 -0.029618694 0.01657465 -0.046205163C 0.01657465 -0.06279163 0.03007992 -0.07582386 0.047268443 -0.07582386zM0.047268443 -0.09181795C 0.021485656 -0.09181795 5.2041704E-18 -0.071084864 0 -0.046205163C 1.951564E-18 -0.020733085 0.021485656 2.6020852E-18 0.047268443 0C 0.073665105 1.4636729E-18 0.09515076 -0.020733085 0.09515076 -0.046205163C 0.09515076 -0.071084864 0.073665105 -0.09181795 0.047268443 -0.09181795z" stroke="none" fill="#515BD4" fill-rule="nonzero" />
                        <path transform="matrix(96 0 0 96 51.18748 324.79807)"  d="M0 0L0.7108683 -0.004146617L1.4211227 -0.011847477L2.1313772 -0.028433945L2.8422453 -0.061014507L3.5524998 -0.12558326L4.2627544 -0.2541284" stroke="#FEDA77" stroke-width="0.016284373" stroke-linecap="round" fill="none" />
                        <path transform="matrix(96 0 0 96 46.649715 329.17688)"  d="M0.047268443 -0.07582386C 0.06445697 -0.07582386 0.07857612 -0.062199257 0.07857612 -0.04561279C 0.07857612 -0.02902632 0.06445697 -0.015994094 0.047268443 -0.015994094C 0.03007992 -0.015994094 0.01657465 -0.02902632 0.01657465 -0.04561279C 0.01657465 -0.062199257 0.03007992 -0.07582386 0.047268443 -0.07582386zM0.047268443 -0.09181795C 0.021485656 -0.09181795 7.806256E-18 -0.071084864 0 -0.04561279C -6.3425827E-18 -0.020733085 0.021485656 5.2041704E-18 0.047268443 0C 0.073665105 3.4152368E-18 0.09515076 -0.020733085 0.09515076 -0.04561279C 0.09515076 -0.071084864 0.073665105 -0.09181795 0.047268443 -0.09181795z" stroke="none" fill="#FEDA77" fill-rule="nonzero" />
                        <path transform="matrix(96 0 0 96 114.834145 328.7788)"  d="M0.047882322 -0.07582386C 0.065070845 -0.07582386 0.07857612 -0.062199257 0.07857612 -0.04561279C 0.07857612 -0.02902632 0.065070845 -0.015401721 0.047882322 -0.015401721C 0.030693796 -0.015401721 0.01657465 -0.02902632 0.01657465 -0.04561279C 0.01657465 -0.062199257 0.030693796 -0.07582386 0.047882322 -0.07582386zM0.047882322 -0.09122558C 0.021485656 -0.09122558 5.2041704E-18 -0.071084864 0 -0.04561279C -3.4152368E-18 -0.020140711 0.021485656 2.6020852E-18 0.047882322 0C 0.07427898 -4.87891E-19 0.09515076 -0.020140711 0.09515076 -0.04561279C 0.09515076 -0.071084864 0.07427898 -0.09122558 0.047882322 -0.09122558z" stroke="none" fill="#FEDA77" fill-rule="nonzero" />
                        <path transform="matrix(96 0 0 96 183.07748 328.03952)"  d="M0.047268443 -0.07582386C 0.06445697 -0.07582386 0.07857612 -0.062199257 0.07857612 -0.04561279C 0.07857612 -0.02902632 0.06445697 -0.015401721 0.047268443 -0.015401721C 0.03007992 -0.015401721 0.015960773 -0.02902632 0.015960773 -0.04561279C 0.015960773 -0.062199257 0.03007992 -0.07582386 0.047268443 -0.07582386zM0.047268443 -0.09122558C 0.02087178 -0.09122558 1.0408341E-17 -0.071084864 0 -0.04561279C -3.4152368E-18 -0.020140711 0.02087178 0 0.047268443 0C 0.073665105 -4.87891E-19 0.094536886 -0.020140711 0.094536886 -0.04561279C 0.094536886 -0.071084864 0.073665105 -0.09122558 0.047268443 -0.09122558z" stroke="none" fill="#FEDA77" fill-rule="nonzero" />
                        <path transform="matrix(96 0 0 96 251.26193 326.5041)"  d="M0.047268443 -0.07582386C 0.06445697 -0.07582386 0.07857612 -0.06279163 0.07857612 -0.046205163C 0.07857612 -0.029618694 0.06445697 -0.015994094 0.047268443 -0.015994094C 0.03007992 -0.015994094 0.01657465 -0.029618694 0.01657465 -0.046205163C 0.01657465 -0.06279163 0.03007992 -0.07582386 0.047268443 -0.07582386zM0.047268443 -0.09181795C 0.021485656 -0.09181795 0 -0.071084864 0 -0.046205163C 3.903128E-18 -0.020733085 0.021485656 2.6020852E-18 0.047268443 0C 0.073665105 0 0.09515076 -0.020733085 0.09515076 -0.046205163C 0.09515076 -0.071084864 0.073665105 -0.09181795 0.047268443 -0.09181795z" stroke="none" fill="#FEDA77" fill-rule="nonzero" />
                        <path transform="matrix(96 0 0 96 319.44632 323.37637)"  d="M0.047882322 -0.07582386C 0.065070845 -0.07582386 0.07857612 -0.06279163 0.07857612 -0.046205163C 0.07857612 -0.029618694 0.065070845 -0.015994094 0.047882322 -0.015994094C 0.030693796 -0.015994094 0.01657465 -0.029618694 0.01657465 -0.046205163C 0.01657465 -0.06279163 0.030693796 -0.07582386 0.047882322 -0.07582386zM0.047882322 -0.09181795C 0.021485656 -0.09181795 5.2041704E-18 -0.07167724 0 -0.046205163C 4.87891E-19 -0.020733085 0.021485656 2.6020852E-18 0.047882322 0C 0.07427898 1.4636729E-18 0.09515076 -0.020733085 0.09515076 -0.046205163C 0.09515076 -0.07167724 0.07427898 -0.09181795 0.047882322 -0.09181795z" stroke="none" fill="#FEDA77" fill-rule="nonzero" />
                        <path transform="matrix(96 0 0 96 387.6897 317.17776)"  d="M0.047268443 -0.07582386C 0.06445697 -0.07582386 0.07857612 -0.06279163 0.07857612 -0.046205163C 0.07857612 -0.029618694 0.06445697 -0.015994094 0.047268443 -0.015994094C 0.03007992 -0.015994094 0.015960773 -0.029618694 0.015960773 -0.046205163C 0.015960773 -0.06279163 0.03007992 -0.07582386 0.047268443 -0.07582386zM0.047268443 -0.09181795C 0.02087178 -0.09181795 2.6020852E-18 -0.07167724 0 -0.046205163C -1.951564E-18 -0.020733085 0.02087178 2.6020852E-18 0.047268443 0C 0.073665105 0 0.094536886 -0.020733085 0.094536886 -0.046205163C 0.094536886 -0.07167724 0.073665105 -0.09181795 0.047268443 -0.09181795z" stroke="none" fill="#FEDA77" fill-rule="nonzero" />
                        <path transform="matrix(96 0 0 96 455.87408 304.78055)"  d="M0.047268443 -0.07582386C 0.06445697 -0.07582386 0.07857612 -0.062199257 0.07857612 -0.04561279C 0.07857612 -0.02902632 0.06445697 -0.015994094 0.047268443 -0.015994094C 0.03007992 -0.015994094 0.01657465 -0.02902632 0.01657465 -0.04561279C 0.01657465 -0.062199257 0.03007992 -0.07582386 0.047268443 -0.07582386zM0.047268443 -0.09181795C 0.021485656 -0.09181795 5.2041704E-18 -0.071084864 0 -0.04561279C 1.951564E-18 -0.020733085 0.021485656 5.2041704E-18 0.047268443 0C 0.073665105 3.4152368E-18 0.09515076 -0.020733085 0.09515076 -0.04561279C 0.09515076 -0.071084864 0.073665105 -0.09181795 0.047268443 -0.09181795z" stroke="none" fill="#FEDA77" fill-rule="nonzero" />
                        <path transform="matrix(96 0 0 96 51.18748 325.13928)"  d="M0 0L0.7108683 0L1.4211227 0L2.1313772 0L2.8422453 -0.0005923739L3.5524998 -0.0005923739L4.2627544 -0.0011847478" stroke="#8134AF" stroke-width="0.016284373" stroke-linecap="round" fill="none" />
                        <path transform="matrix(96 0 0 96 46.88544 327.5846)"  d="M0.04481294 -0.07582386L0 0L0.090239756 0L0.04481294 -0.07582386z" stroke="#8134AF" stroke-width="0.016284373" stroke-linecap="round" fill="none" />
                        <path transform="matrix(96 0 0 96 115.06987 327.5846)"  d="M0.045426816 -0.07582386L0 0L0.09085363 0L0.045426816 -0.07582386z" stroke="#8134AF" stroke-width="0.016284373" stroke-linecap="round" fill="none" />
                        <path transform="matrix(96 0 0 96 183.25429 327.5846)"  d="M0.045426816 -0.07582386L0 0L0.09085363 0L0.045426816 -0.07582386z" stroke="#8134AF" stroke-width="0.016284373" stroke-linecap="round" fill="none" />
                        <path transform="matrix(96 0 0 96 251.49763 327.5846)"  d="M0.04481294 -0.07582386L0 0L0.090239756 0L0.04481294 -0.07582386z" stroke="#8134AF" stroke-width="0.016284373" stroke-linecap="round" fill="none" />
                        <path transform="matrix(96 0 0 96 319.68207 327.5277)"  d="M0.045426816 -0.07582386L0 0L0.09085363 0L0.045426816 -0.07582386z" stroke="#8134AF" stroke-width="0.016284373" stroke-linecap="round" fill="none" />
                        <path transform="matrix(96 0 0 96 387.8665 327.5277)"  d="M0.045426816 -0.07582386L0 0L0.09085363 0L0.045426816 -0.07582386z" stroke="#8134AF" stroke-width="0.016284373" stroke-linecap="round" fill="none" />
                        <path transform="matrix(96 0 0 96 456.10983 327.414)"  d="M0.04481294 -0.07582386L0 0L0.090239756 0L0.04481294 -0.07582386z" stroke="#8134AF" stroke-width="0.016284373" stroke-linecap="round" fill="none" />
                        <path transform="matrix(96 0 0 96 51.18748 325.0255)"  d="M0 0L0.7108683 -0.0035542431L1.4211227 -0.02132546L2.1313772 -0.059237387L2.8422453 -0.20140712L3.5524998 -0.7801564L4.2627544 -3.059611" stroke="#DD2A7B" stroke-width="0.016284373" stroke-linecap="round" fill="none" />
                        <path transform="matrix(96 0 0 96 46.88544 327.47086)"  d="M0.04481294 -0.07582386L0 0L0.090239756 0L0.04481294 -0.07582386z" stroke="#DD2A7B" stroke-width="0.016284373" stroke-linecap="round" fill="none" />
                        <path transform="matrix(96 0 0 96 115.06987 327.12964)"  d="M0.045426816 -0.07582386L0 0L0.09085363 0L0.045426816 -0.07582386z" stroke="#DD2A7B" stroke-width="0.016284373" stroke-linecap="round" fill="none" />
                        <path transform="matrix(96 0 0 96 183.25429 325.42358)"  d="M0.045426816 -0.07582386L0 0L0.09085363 0L0.045426816 -0.07582386z" stroke="#DD2A7B" stroke-width="0.016284373" stroke-linecap="round" fill="none" />
                        <path transform="matrix(96 0 0 96 251.49763 321.78406)"  d="M0.04481294 -0.07582386L0 0L0.090239756 0L0.04481294 -0.07582386z" stroke="#DD2A7B" stroke-width="0.016284373" stroke-linecap="round" fill="none" />
                        <path transform="matrix(96 0 0 96 319.68207 308.13577)"  d="M0.045426816 -0.07582386L0 0L0.09085363 0L0.045426816 -0.07582386z" stroke="#DD2A7B" stroke-width="0.016284373" stroke-linecap="round" fill="none" />
                        <path transform="matrix(96 0 0 96 387.8665 252.57587)"  d="M0.045426816 -0.07582386L0 0L0.09085363 0L0.045426816 -0.07582386z" stroke="#DD2A7B" stroke-width="0.016284373" stroke-linecap="round" fill="none" />
                        <path transform="matrix(96 0 0 96 456.10983 33.748165)"  d="M0.04481294 -0.07582386L0 0L0.090239756 0L0.04481294 -0.07582386z" stroke="#DD2A7B" stroke-width="0.016284373" stroke-linecap="round" fill="none" />
                        <path transform="matrix(96 0 0 96 51.18748 325.0255)"  d="M0 0L0.7108683 -0.0011847478L1.4211227 -0.0065161125L2.1313772 -0.023694955L2.8422453 -0.131507L3.5524998 -0.697224L4.2627544 -2.9666083" stroke="#515BD4" stroke-width="0.016284373" stroke-linecap="round" fill="none" />
                        <path transform="matrix(96 0 0 96 46.88544 327.47086)"  d="M0.04481294 -0.07582386L0 0L0.090239756 0L0.04481294 -0.07582386z" stroke="#515BD4" stroke-width="0.016284373" stroke-linecap="round" fill="none" />
                        <path transform="matrix(96 0 0 96 115.06987 327.30023)"  d="M0.045426816 -0.07582386L0 0L0.09085363 0L0.045426816 -0.07582386z" stroke="#515BD4" stroke-width="0.016284373" stroke-linecap="round" fill="none" />
                        <path transform="matrix(96 0 0 96 183.25429 326.8453)"  d="M0.045426816 -0.07582386L0 0L0.09085363 0L0.045426816 -0.07582386z" stroke="#515BD4" stroke-width="0.016284373" stroke-linecap="round" fill="none" />
                        <path transform="matrix(96 0 0 96 251.49763 325.19614)"  d="M0.04481294 -0.07582386L0 0L0.090239756 0L0.04481294 -0.07582386z" stroke="#515BD4" stroke-width="0.016284373" stroke-linecap="round" fill="none" />
                        <path transform="matrix(96 0 0 96 319.68207 314.8462)"  d="M0.045426816 -0.07582386L0 0L0.09085363 0L0.045426816 -0.07582386z" stroke="#515BD4" stroke-width="0.016284373" stroke-linecap="round" fill="none" />
                        <path transform="matrix(96 0 0 96 387.8665 260.48047)"  d="M0.045426816 -0.07582386L0 0L0.09085363 0L0.045426816 -0.07582386z" stroke="#515BD4" stroke-width="0.016284373" stroke-linecap="round" fill="none" />
                        <path transform="matrix(96 0 0 96 456.10983 42.67648)"  d="M0.04481294 -0.07582386L0 0L0.090239756 0L0.04481294 -0.07582386z" stroke="#515BD4" stroke-width="0.016284373" stroke-linecap="round" fill="none" />
                        <path transform="matrix(96 0 0 96 51.18748 325.13928)"  d="M0 0L0.7108683 0L1.4211227 0L2.1313772 -0.0005923739L2.8422453 -0.0011847478L3.5524998 -0.0029618694L4.2627544 -0.0077008605" stroke="#FEDA77" stroke-width="0.016284373" stroke-linecap="round" fill="none" />
                        <path transform="matrix(96 0 0 96 46.88544 327.5846)"  d="M0.04481294 -0.07582386L0 0L0.090239756 0L0.04481294 -0.07582386z" stroke="#FEDA77" stroke-width="0.016284373" stroke-linecap="round" fill="none" />
                        <path transform="matrix(96 0 0 96 115.06987 327.5846)"  d="M0.045426816 -0.07582386L0 0L0.09085363 0L0.045426816 -0.07582386z" stroke="#FEDA77" stroke-width="0.016284373" stroke-linecap="round" fill="none" />
                        <path transform="matrix(96 0 0 96 183.25429 327.5277)"  d="M0.045426816 -0.07582386L0 0L0.09085363 0L0.045426816 -0.07582386z" stroke="#FEDA77" stroke-width="0.016284373" stroke-linecap="round" fill="none" />
                        <path transform="matrix(96 0 0 96 251.49763 327.5277)"  d="M0.04481294 -0.07582386L0 0L0.090239756 0L0.04481294 -0.07582386z" stroke="#FEDA77" stroke-width="0.016284373" stroke-linecap="round" fill="none" />
                        <path transform="matrix(96 0 0 96 319.68207 327.414)"  d="M0.045426816 -0.07582386L0 0L0.09085363 0L0.045426816 -0.07582386z" stroke="#FEDA77" stroke-width="0.016284373" stroke-linecap="round" fill="none" />
                        <path transform="matrix(96 0 0 96 387.8665 327.24338)"  d="M0.045426816 -0.07582386L0 0L0.09085363 0L0.045426816 -0.07582386z" stroke="#FEDA77" stroke-width="0.016284373" stroke-linecap="round" fill="none" />
                        <path transform="matrix(96 0 0 96 456.10983 326.78845)"  d="M0.04481294 -0.07582386L0 0L0.090239756 0L0.04481294 -0.07582386z" stroke="#FEDA77" stroke-width="0.016284373" stroke-linecap="round" fill="none" />
                        <path transform="matrix(96 0 0 96 62.502438 142.25217)"  d="M0 -1.2795275L1.1096953 -1.2795275L1.1096953 0L0 0" stroke="none" fill="#FFFFFF" fill-rule="evenodd" />
					</g>
				</g>
				<g>
				</g>
				<g clip-path="url(#19)" >
					<text transform="matrix(1 0 0 1 121.095184 35.498978)" x="0" y="3.1560001" style="fill:#000000;font-family:ABeeZee;" font-size="16">
AE
					</text>
				</g>
				<g transform="matrix(1 0 0 1 0 0)">
					<g>
                        <path transform="matrix(96 0 0 96 66.27409 28.516382)"  d="M0 0L0.3928806 0" stroke="#8134AF" stroke-width="0.016284373" stroke-linecap="round" fill="none" />
                        <path transform="matrix(96 0 0 96 80.59459 32.89517)"  d="M0.047268443 -0.07582386C 0.06445697 -0.07582386 0.07857612 -0.062199257 0.07857612 -0.04561279C 0.07857612 -0.02902632 0.06445697 -0.015401721 0.047268443 -0.015401721C 0.03007992 -0.015401721 0.01657465 -0.02902632 0.01657465 -0.04561279C 0.01657465 -0.062199257 0.03007992 -0.07582386 0.047268443 -0.07582386zM0.047268443 -0.09122558C 0.021485656 -0.09122558 7.806256E-18 -0.071084864 0 -0.04561279C 3.4152368E-18 -0.020140711 0.021485656 0 0.047268443 0C 0.073665105 -4.87891E-19 0.09515076 -0.020140711 0.09515076 -0.04561279C 0.09515076 -0.071084864 0.073665105 -0.09122558 0.047268443 -0.09122558z" stroke="none" fill="#8134AF" fill-rule="nonzero" />
					</g>
				</g>
				<g>
				</g>
				<g clip-path="url(#20)" >
					<text transform="matrix(1 0 0 1 121.50541 50.057144)" x="0" y="3.1560001" style="fill:#000000;font-family:ABeeZee;" font-size="16">
SE
					</text>
				</g>
				<g transform="matrix(1 0 0 1 0 0)">
					<g>
                        <path transform="matrix(96 0 0 96 66.27409 43.472622)"  d="M0 0L0.3928806 0" stroke="#DD2A7B" stroke-width="0.016284373" stroke-linecap="round" fill="none" />
                        <path transform="matrix(96 0 0 96 80.59459 47.851406)"  d="M0.047268443 -0.07582386C 0.06445697 -0.07582386 0.07857612 -0.062199257 0.07857612 -0.04561279C 0.07857612 -0.02902632 0.06445697 -0.015401721 0.047268443 -0.015401721C 0.03007992 -0.015401721 0.01657465 -0.02902632 0.01657465 -0.04561279C 0.01657465 -0.062199257 0.03007992 -0.07582386 0.047268443 -0.07582386zM0.047268443 -0.09122558C 0.021485656 -0.09122558 7.806256E-18 -0.071084864 0 -0.04561279C 3.4152368E-18 -0.020140711 0.021485656 0 0.047268443 0C 0.073665105 -4.87891E-19 0.09515076 -0.020140711 0.09515076 -0.04561279C 0.09515076 -0.071084864 0.073665105 -0.09122558 0.047268443 -0.09122558z" stroke="none" fill="#DD2A7B" fill-rule="nonzero" />
					</g>
				</g>
				<g>
				</g>
				<g clip-path="url(#21)" >
					<text transform="matrix(1 0 0 1 121.06303 65.52525)" x="0" y="3.1560001" style="fill:#000000;font-family:ABeeZee;" font-size="16">
FE
					</text>
				</g>
				<g transform="matrix(1 0 0 1 0 0)">
					<g>
                        <path transform="matrix(96 0 0 96 66.27409 58.42886)"  d="M0 0L0.3928806 0" stroke="#515BD4" stroke-width="0.016284373" stroke-linecap="round" fill="none" />
                        <path transform="matrix(96 0 0 96 80.59459 62.807644)"  d="M0.047268443 -0.07582386C 0.06445697 -0.07582386 0.07857612 -0.062199257 0.07857612 -0.04561279C 0.07857612 -0.02902632 0.06445697 -0.015401721 0.047268443 -0.015401721C 0.03007992 -0.015401721 0.01657465 -0.02902632 0.01657465 -0.04561279C 0.01657465 -0.062199257 0.03007992 -0.07582386 0.047268443 -0.07582386zM0.047268443 -0.09122558C 0.021485656 -0.09122558 7.806256E-18 -0.071084864 0 -0.04561279C 3.4152368E-18 -0.020140711 0.021485656 0 0.047268443 0C 0.073665105 -4.87891E-19 0.09515076 -0.020140711 0.09515076 -0.04561279C 0.09515076 -0.071084864 0.073665105 -0.09122558 0.047268443 -0.09122558z" stroke="none" fill="#515BD4" fill-rule="nonzero" />
					</g>
				</g>
				<g>
				</g>
				<g clip-path="url(#22)" >
					<text transform="matrix(1 0 0 1 121.50541 80.08342)" x="0" y="3.1560001" style="fill:#000000;font-family:ABeeZee;" font-size="16">
PE
					</text>
				</g>
				<g transform="matrix(1 0 0 1 0 0)">
					<g>
                        <path transform="matrix(96 0 0 96 66.27409 73.38509)"  d="M0 0L0.3928806 0" stroke="#FEDA77" stroke-width="0.016284373" stroke-linecap="round" fill="none" />
                        <path transform="matrix(96 0 0 96 80.59459 77.76397)"  d="M0.047268443 -0.07582386C 0.06445697 -0.07582386 0.07857612 -0.062199257 0.07857612 -0.04561279C 0.07857612 -0.02902632 0.06445697 -0.015401721 0.047268443 -0.015401721C 0.03007992 -0.015401721 0.01657465 -0.02902632 0.01657465 -0.04561279C 0.01657465 -0.062199257 0.03007992 -0.07582386 0.047268443 -0.07582386zM0.047268443 -0.09122558C 0.021485656 -0.09122558 7.806256E-18 -0.071084864 0 -0.04561279C 3.4152368E-18 -0.020140711 0.021485656 0 0.047268443 0C 0.073665105 -4.87891E-19 0.09515076 -0.020140711 0.09515076 -0.04561279C 0.09515076 -0.071084864 0.073665105 -0.09122558 0.047268443 -0.09122558z" stroke="none" fill="#FEDA77" fill-rule="nonzero" />
					</g>
				</g>
				<g>
				</g>
				<g clip-path="url(#23)" >
					<text transform="matrix(1 0 0 1 120.46427 95.55144)" x="0" y="3.1560001" style="fill:#000000;font-family:ABeeZee;" font-size="16">
DivEn
					</text>
				</g>
				<g transform="matrix(1 0 0 1 0 0)">
					<g>
                        <path transform="matrix(96 0 0 96 66.27409 88.34133)"  d="M0 0L0.3928806 0" stroke="#8134AF" stroke-width="0.016284373" stroke-linecap="round" fill="none" />
                        <path transform="matrix(96 0 0 96 80.830315 90.786705)"  d="M0.04481294 -0.07582386L0 0L0.090239756 0L0.04481294 -0.07582386z" stroke="#8134AF" stroke-width="0.016284373" stroke-linecap="round" fill="none" />
					</g>
				</g>
				<g>
				</g>
				<g clip-path="url(#24)" >
					<text transform="matrix(1 0 0 1 121.318275 110.109695)" x="0" y="3.1560001" style="fill:#000000;font-family:ABeeZee;" font-size="16">
DistEn
					</text>
				</g>
				<g transform="matrix(1 0 0 1 0 0)">
					<g>
                        <path transform="matrix(96 0 0 96 66.27409 103.29766)"  d="M0 0L0.3928806 0" stroke="#DD2A7B" stroke-width="0.016284373" stroke-linecap="round" fill="none" />
                        <path transform="matrix(96 0 0 96 80.830315 105.74294)"  d="M0.04481294 -0.07582386L0 0L0.090239756 0L0.04481294 -0.07582386z" stroke="#DD2A7B" stroke-width="0.016284373" stroke-linecap="round" fill="none" />
					</g>
				</g>
				<g>
				</g>
				<g clip-path="url(#25)" >
					<text transform="matrix(1 0 0 1 121.73429 125.57772)" x="0" y="3.1560001" style="fill:#000000;font-family:ABeeZee;" font-size="16">
DispEn
					</text>
				</g>
				<g transform="matrix(1 0 0 1 0 0)">
					<g>
                        <path transform="matrix(96 0 0 96 66.27409 118.2539)"  d="M0 0L0.3928806 0" stroke="#515BD4" stroke-width="0.016284373" stroke-linecap="round" fill="none" />
                        <path transform="matrix(96 0 0 96 80.830315 120.69918)"  d="M0.04481294 -0.07582386L0 0L0.090239756 0L0.04481294 -0.07582386z" stroke="#515BD4" stroke-width="0.016284373" stroke-linecap="round" fill="none" />
					</g>
				</g>
				<g>
				</g>
				<g clip-path="url(#26)" >
					<text transform="matrix(1 0 0 1 121.419716 140.13588)" x="0" y="3.1560001" style="fill:#000000;font-family:ABeeZee;" font-size="16">
SDE
					</text>
				</g>
				<g transform="matrix(1 0 0 1 0 0)">
					<g clip-path="url(#27)" >
                        <path transform="matrix(96 0 0 96 66.27409 133.21014)"  d="M0 0L0.3928806 0" stroke="#FEDA77" stroke-width="0.016284373" stroke-linecap="round" fill="none" />
                        <path transform="matrix(96 0 0 96 80.830315 135.65543)"  d="M0.04481294 -0.07582386L0 0L0.090239756 0L0.04481294 -0.07582386z" stroke="#FEDA77" stroke-width="0.016284373" stroke-linecap="round" fill="none" />
                        <path transform="matrix(96 0 0 96 62.502438 142.25217)"  d="M0 0L0 -1.2795275L1.1938688 -1.2795275L1.1938688 0L0 0z" stroke="#262626" stroke-width="0.0066343737" stroke-linecap="round" fill="none" />
					</g>
					<g>
					</g>
				</g>
			</g>
		</g>
	</g>
</g>
</svg>