<?xml version="1.0" standalone="no"?>
<!DOCTYPE svg PUBLIC "-//W3C//DTD SVG 1.0//EN" "http://www.w3.org/TR/2001/REC-SVG-20010904/DTD/svg10.dtd">
<svg xmlns="http://www.w3.org/2000/svg" xmlns:xlink="http://www.w3.org/1999/xlink" id="body_1" width="302" height="227">

<g transform="matrix(1.3333334 0 0 1.3333334 0 0)">
    <path d="M0 0L226.5 0L226.5 170.25L0 170.25z" stroke="none" fill="#FFFFFF" fill-rule="evenodd" />
	<g transform="matrix(0.75 0 0 0.75 -0 -0)">
		<g>
			<g>
				<g transform="matrix(1 0 0 1 0 0)">
					<g>
					</g>
					<g>
                        <path transform="matrix(1 0 0 1 0 0)"  d="M0 0L302 0L302 227L0 227" stroke="none" fill="#FFFFFF" fill-rule="evenodd" />
                        <path transform="matrix(1 0 0 1 0 0)"  d="M0 0L302 0L302 227L0 227" stroke="none" fill="#FFFFFF" fill-rule="evenodd" />
                        <path transform="matrix(1 0 0 1 0 0)"  d="M39 17L273 17L273 202L39 202" stroke="none" fill="#FFFFFF" fill-rule="evenodd" />
                        <path transform="matrix(1 0 0 1 0 0)"  d="M39 202L273 202" stroke="#262626" stroke-width="0.6666667" fill="none" />
                        <path transform="matrix(1 0 0 1 0 0)"  d="M39 17.000004L273 17.000004" stroke="#262626" stroke-width="0.6666667" fill="none" />
						<text transform="matrix(1 0 0 1 156.00012 211.72333)" x="-55.5" y="1.1977539" style="fill:#262626;font-family:ABeeZee;" font-size="8.25">
Sliding window numbers
						</text>
                        <path transform="matrix(1 0 0 1 0 0)"  d="M39 202L39 17.000004" stroke="#262626" stroke-width="0.6666667" fill="none" />
                        <path transform="matrix(1 0 0 1 0 0)"  d="M273 202L273 17.000004" stroke="#262626" stroke-width="0.6666667" fill="none" />
                        <path transform="matrix(1 0 0 1 0 0)"  d="M39 202L41.34 202" stroke="#262626" stroke-width="0.6666667" fill="none" />
                        <path transform="matrix(1 0 0 1 0 0)"  d="M39 175.57143L41.34 175.57143" stroke="#262626" stroke-width="0.6666667" fill="none" />
                        <path transform="matrix(1 0 0 1 0 0)"  d="M39 149.14285L41.34 149.14285" stroke="#262626" stroke-width="0.6666667" fill="none" />
                        <path transform="matrix(1 0 0 1 0 0)"  d="M39 122.71428L41.34 122.71428" stroke="#262626" stroke-width="0.6666667" fill="none" />
                        <path transform="matrix(1 0 0 1 0 0)"  d="M39 96.28571L41.34 96.28571" stroke="#262626" stroke-width="0.6666667" fill="none" />
                        <path transform="matrix(1 0 0 1 0 0)"  d="M39 69.85714L41.34 69.85714" stroke="#262626" stroke-width="0.6666667" fill="none" />
                        <path transform="matrix(1 0 0 1 0 0)"  d="M39 43.428566L41.34 43.428566" stroke="#262626" stroke-width="0.6666667" fill="none" />
                        <path transform="matrix(1 0 0 1 0 0)"  d="M39 17.000004L41.34 17.000004" stroke="#262626" stroke-width="0.6666667" fill="none" />
                        <path transform="matrix(1 0 0 1 0 0)"  d="M273 202L270.66 202" stroke="#262626" stroke-width="0.6666667" fill="none" />
                        <path transform="matrix(1 0 0 1 0 0)"  d="M273 175.57143L270.66 175.57143" stroke="#262626" stroke-width="0.6666667" fill="none" />
                        <path transform="matrix(1 0 0 1 0 0)"  d="M273 149.14285L270.66 149.14285" stroke="#262626" stroke-width="0.6666667" fill="none" />
                        <path transform="matrix(1 0 0 1 0 0)"  d="M273 122.71428L270.66 122.71428" stroke="#262626" stroke-width="0.6666667" fill="none" />
                        <path transform="matrix(1 0 0 1 0 0)"  d="M273 96.28571L270.66 96.28571" stroke="#262626" stroke-width="0.6666667" fill="none" />
                        <path transform="matrix(1 0 0 1 0 0)"  d="M273 69.85714L270.66 69.85714" stroke="#262626" stroke-width="0.6666667" fill="none" />
                        <path transform="matrix(1 0 0 1 0 0)"  d="M273 43.428566L270.66 43.428566" stroke="#262626" stroke-width="0.6666667" fill="none" />
                        <path transform="matrix(1 0 0 1 0 0)"  d="M273 17.000004L270.66 17.000004" stroke="#262626" stroke-width="0.6666667" fill="none" />
						<text transform="matrix(1 0 0 1 36.866665 209.36)" x="-6" y="-6.005209" style="fill:#262626;font-family:ABeeZee;" font-size="8">
0
						</text>
						<text transform="matrix(1 0 0 1 36.866665 182.93143)" x="-19" y="-6.005209" style="fill:#262626;font-family:ABeeZee;" font-size="8">
0.05
						</text>
						<text transform="matrix(1 0 0 1 36.866665 156.50285)" x="-14" y="-6.005209" style="fill:#262626;font-family:ABeeZee;" font-size="8">
0.1
						</text>
						<text transform="matrix(1 0 0 1 36.866665 130.07428)" x="-19" y="-6.005209" style="fill:#262626;font-family:ABeeZee;" font-size="8">
0.15
						</text>
						<text transform="matrix(1 0 0 1 36.866665 103.64571)" x="-14" y="-6.005209" style="fill:#262626;font-family:ABeeZee;" font-size="8">
0.2
						</text>
						<text transform="matrix(1 0 0 1 36.866665 77.21714)" x="-19" y="-6.005209" style="fill:#262626;font-family:ABeeZee;" font-size="8">
0.25
						</text>
						<text transform="matrix(1 0 0 1 36.866665 50.788567)" x="-14" y="-6.005209" style="fill:#262626;font-family:ABeeZee;" font-size="8">
0.3
						</text>
						<text transform="matrix(1 0 0 1 36.866665 24.360004)" x="-19" y="-6.005209" style="fill:#262626;font-family:ABeeZee;" font-size="8">
0.35
						</text>
						<text transform="matrix(-4.371139E-08 -1 1 -4.371139E-08 23.893335 109.499916)" x="-21" y="-12.505209" style="fill:#262626;font-family:ABeeZee;" font-size="8">
AD value
						</text>
						<text transform="matrix(1 0 0 1 156.00015 22.527508)" x="-69.5" y="-12.802246" style="fill:#000000;font-family:ABeeZee;" font-size="8.25">
DistEn based impulse detection
						</text>
                        <path transform="matrix(1 0 0 1 0 0)"  d="M41.34 195.2224L43.68 182.57101L46.02 181.5078L48.36 179.41585L50.7 182.21956L53.04 179.35513L55.38 178.26344L57.72 179.67416L60.06 186.1013L62.4 188.86324L64.74 199.1799L67.08 200.23476L69.42 199.97075L71.76 76.91082L74.1 69.27139L76.44 53.1452L78.78 41.792637L81.12 89.51474L83.46 72.1603L85.8 81.84955L88.14 125.191795L90.48 114.782776L92.82 106.58698L95.16 106.77693L97.5 98.446106L99.84 127.75304L102.18 133.34668L104.52 117.99775L106.86 133.98363L109.2 148.49196L111.54 191.66971L113.88 202L116.22 195.2224L118.56 182.57101L120.9 181.5078L123.24 179.41585L125.58 182.21956L127.92 179.35513L130.26 178.26344L132.6 179.67416L134.94 186.1013L137.28 188.86324L139.62 199.1799L141.96 200.23476L144.3 194.5196L146.64 199.76825L148.98 188.2482L151.32 185.93347L153.66 181.3796L156 200.00406L158.34 193.93785L160.68 198.36308L163.02 194.87973L165.36 198.9965L167.7 199.26607L170.04 199.873L172.38 200.01152L174.72 198.86264L177.06 164.79466L179.4 158.16028L181.74 152.53276L184.08 146.55905L186.42 200.09283L188.76 202L191.1 195.2224L193.44 182.57101L195.78 181.5078L198.12 179.41585L200.46 182.21956L202.8 179.35513L205.14 178.26344L207.48 179.67416L209.82 186.1013L212.16 188.86324L214.5 199.1799L216.84 200.23476L219.18 197.55649L221.52 182.2915L223.86 191.31146L226.2 181.4808L228.54 177.32797L230.88 173.18698L233.22 155.50026L235.56 133.06786L237.9 103.61013L240.24 88.17157L242.58 104.99149L244.92 109.82763L247.26 129.93214L249.6 139.90752L251.94 153.47322L254.28 177.48582L256.62 186.97859L258.96 172.91255L261.3 191.17506L263.64 202L265.98 195.2224L268.32 182.57101L270.66 181.5078" stroke="#BADDD6" stroke-width="2" fill="none" />
                        <path transform="matrix(1 0 0 1 41.34 195.2224)"  d="M-3.3333335 0L0 4.4333334L3.3333335 0L0 -4.4333334z" stroke="#BADDD6" stroke-width="2" fill="none" />
                        <path transform="matrix(1 0 0 1 43.68 182.57101)"  d="M-3.3333335 0L0 4.4333334L3.3333335 0L0 -4.4333334z" stroke="#BADDD6" stroke-width="2" fill="none" />
                        <path transform="matrix(1 0 0 1 46.02 181.5078)"  d="M-3.3333335 0L0 4.4333334L3.3333335 0L0 -4.4333334z" stroke="#BADDD6" stroke-width="2" fill="none" />
                        <path transform="matrix(1 0 0 1 48.36 179.41585)"  d="M-3.3333335 0L0 4.4333334L3.3333335 0L0 -4.4333334z" stroke="#BADDD6" stroke-width="2" fill="none" />
                        <path transform="matrix(1 0 0 1 50.7 182.21956)"  d="M-3.3333335 0L0 4.4333334L3.3333335 0L0 -4.4333334z" stroke="#BADDD6" stroke-width="2" fill="none" />
                        <path transform="matrix(1 0 0 1 53.04 179.35513)"  d="M-3.3333335 0L0 4.4333334L3.3333335 0L0 -4.4333334z" stroke="#BADDD6" stroke-width="2" fill="none" />
                        <path transform="matrix(1 0 0 1 55.38 178.26344)"  d="M-3.3333335 0L0 4.4333334L3.3333335 0L0 -4.4333334z" stroke="#BADDD6" stroke-width="2" fill="none" />
                        <path transform="matrix(1 0 0 1 57.72 179.67416)"  d="M-3.3333335 0L0 4.4333334L3.3333335 0L0 -4.4333334z" stroke="#BADDD6" stroke-width="2" fill="none" />
                        <path transform="matrix(1 0 0 1 60.06 186.1013)"  d="M-3.3333335 0L0 4.4333334L3.3333335 0L0 -4.4333334z" stroke="#BADDD6" stroke-width="2" fill="none" />
                        <path transform="matrix(1 0 0 1 62.4 188.86324)"  d="M-3.3333335 0L0 4.4333334L3.3333335 0L0 -4.4333334z" stroke="#BADDD6" stroke-width="2" fill="none" />
                        <path transform="matrix(1 0 0 1 64.74 199.1799)"  d="M-3.3333335 0L0 4.4333334L3.3333335 0L0 -4.4333334z" stroke="#BADDD6" stroke-width="2" fill="none" />
                        <path transform="matrix(1 0 0 1 67.08 200.23476)"  d="M-3.3333335 0L0 4.4333334L3.3333335 0L0 -4.4333334z" stroke="#BADDD6" stroke-width="2" fill="none" />
                        <path transform="matrix(1 0 0 1 69.42 199.97075)"  d="M-3.3333335 0L0 4.4333334L3.3333335 0L0 -4.4333334z" stroke="#BADDD6" stroke-width="2" fill="none" />
                        <path transform="matrix(1 0 0 1 71.76 76.91082)"  d="M-3.3333335 0L0 4.4333334L3.3333335 0L0 -4.4333334z" stroke="#BADDD6" stroke-width="2" fill="none" />
                        <path transform="matrix(1 0 0 1 74.1 69.27139)"  d="M-3.3333335 0L0 4.4333334L3.3333335 0L0 -4.4333334z" stroke="#BADDD6" stroke-width="2" fill="none" />
                        <path transform="matrix(1 0 0 1 76.44 53.1452)"  d="M-3.3333335 0L0 4.4333334L3.3333335 0L0 -4.4333334z" stroke="#BADDD6" stroke-width="2" fill="none" />
                        <path transform="matrix(1 0 0 1 78.78 41.792637)"  d="M-3.3333335 0L0 4.4333334L3.3333335 0L0 -4.4333334z" stroke="#BADDD6" stroke-width="2" fill="none" />
                        <path transform="matrix(1 0 0 1 81.12 89.51474)"  d="M-3.3333335 0L0 4.4333334L3.3333335 0L0 -4.4333334z" stroke="#BADDD6" stroke-width="2" fill="none" />
                        <path transform="matrix(1 0 0 1 83.46 72.1603)"  d="M-3.3333335 0L0 4.4333334L3.3333335 0L0 -4.4333334z" stroke="#BADDD6" stroke-width="2" fill="none" />
                        <path transform="matrix(1 0 0 1 85.8 81.84955)"  d="M-3.3333335 0L0 4.4333334L3.3333335 0L0 -4.4333334z" stroke="#BADDD6" stroke-width="2" fill="none" />
                        <path transform="matrix(1 0 0 1 88.14 125.191795)"  d="M-3.3333335 0L0 4.4333334L3.3333335 0L0 -4.4333334z" stroke="#BADDD6" stroke-width="2" fill="none" />
                        <path transform="matrix(1 0 0 1 90.48 114.782776)"  d="M-3.3333335 0L0 4.4333334L3.3333335 0L0 -4.4333334z" stroke="#BADDD6" stroke-width="2" fill="none" />
                        <path transform="matrix(1 0 0 1 92.82 106.58698)"  d="M-3.3333335 0L0 4.4333334L3.3333335 0L0 -4.4333334z" stroke="#BADDD6" stroke-width="2" fill="none" />
                        <path transform="matrix(1 0 0 1 95.16 106.77693)"  d="M-3.3333335 0L0 4.4333334L3.3333335 0L0 -4.4333334z" stroke="#BADDD6" stroke-width="2" fill="none" />
                        <path transform="matrix(1 0 0 1 97.5 98.446106)"  d="M-3.3333335 0L0 4.4333334L3.3333335 0L0 -4.4333334z" stroke="#BADDD6" stroke-width="2" fill="none" />
                        <path transform="matrix(1 0 0 1 99.84 127.75304)"  d="M-3.3333335 0L0 4.4333334L3.3333335 0L0 -4.4333334z" stroke="#BADDD6" stroke-width="2" fill="none" />
                        <path transform="matrix(1 0 0 1 102.18 133.34668)"  d="M-3.3333335 0L0 4.4333334L3.3333335 0L0 -4.4333334z" stroke="#BADDD6" stroke-width="2" fill="none" />
                        <path transform="matrix(1 0 0 1 104.52 117.99775)"  d="M-3.3333335 0L0 4.4333334L3.3333335 0L0 -4.4333334z" stroke="#BADDD6" stroke-width="2" fill="none" />
                        <path transform="matrix(1 0 0 1 106.86 133.98363)"  d="M-3.3333335 0L0 4.4333334L3.3333335 0L0 -4.4333334z" stroke="#BADDD6" stroke-width="2" fill="none" />
                        <path transform="matrix(1 0 0 1 109.2 148.49196)"  d="M-3.3333335 0L0 4.4333334L3.3333335 0L0 -4.4333334z" stroke="#BADDD6" stroke-width="2" fill="none" />
                        <path transform="matrix(1 0 0 1 111.54 191.66971)"  d="M-3.3333335 0L0 4.4333334L3.3333335 0L0 -4.4333334z" stroke="#BADDD6" stroke-width="2" fill="none" />
                        <path transform="matrix(1 0 0 1 113.88 202)"  d="M-3.3333335 0L0 4.4333334L3.3333335 0L0 -4.4333334z" stroke="#BADDD6" stroke-width="2" fill="none" />
                        <path transform="matrix(1 0 0 1 116.22 195.2224)"  d="M-3.3333335 0L0 4.4333334L3.3333335 0L0 -4.4333334z" stroke="#BADDD6" stroke-width="2" fill="none" />
                        <path transform="matrix(1 0 0 1 118.56 182.57101)"  d="M-3.3333335 0L0 4.4333334L3.3333335 0L0 -4.4333334z" stroke="#BADDD6" stroke-width="2" fill="none" />
                        <path transform="matrix(1 0 0 1 120.9 181.5078)"  d="M-3.3333335 0L0 4.4333334L3.3333335 0L0 -4.4333334z" stroke="#BADDD6" stroke-width="2" fill="none" />
                        <path transform="matrix(1 0 0 1 123.24 179.41585)"  d="M-3.3333335 0L0 4.4333334L3.3333335 0L0 -4.4333334z" stroke="#BADDD6" stroke-width="2" fill="none" />
                        <path transform="matrix(1 0 0 1 125.58 182.21956)"  d="M-3.3333335 0L0 4.4333334L3.3333335 0L0 -4.4333334z" stroke="#BADDD6" stroke-width="2" fill="none" />
                        <path transform="matrix(1 0 0 1 127.92 179.35513)"  d="M-3.3333335 0L0 4.4333334L3.3333335 0L0 -4.4333334z" stroke="#BADDD6" stroke-width="2" fill="none" />
                        <path transform="matrix(1 0 0 1 130.26 178.26344)"  d="M-3.3333335 0L0 4.4333334L3.3333335 0L0 -4.4333334z" stroke="#BADDD6" stroke-width="2" fill="none" />
                        <path transform="matrix(1 0 0 1 132.6 179.67416)"  d="M-3.3333335 0L0 4.4333334L3.3333335 0L0 -4.4333334z" stroke="#BADDD6" stroke-width="2" fill="none" />
                        <path transform="matrix(1 0 0 1 134.94 186.1013)"  d="M-3.3333335 0L0 4.4333334L3.3333335 0L0 -4.4333334z" stroke="#BADDD6" stroke-width="2" fill="none" />
                        <path transform="matrix(1 0 0 1 137.28 188.86324)"  d="M-3.3333335 0L0 4.4333334L3.3333335 0L0 -4.4333334z" stroke="#BADDD6" stroke-width="2" fill="none" />
                        <path transform="matrix(1 0 0 1 139.62 199.1799)"  d="M-3.3333335 0L0 4.4333334L3.3333335 0L0 -4.4333334z" stroke="#BADDD6" stroke-width="2" fill="none" />
                        <path transform="matrix(1 0 0 1 141.96 200.23476)"  d="M-3.3333335 0L0 4.4333334L3.3333335 0L0 -4.4333334z" stroke="#BADDD6" stroke-width="2" fill="none" />
                        <path transform="matrix(1 0 0 1 144.3 194.5196)"  d="M-3.3333335 0L0 4.4333334L3.3333335 0L0 -4.4333334z" stroke="#BADDD6" stroke-width="2" fill="none" />
                        <path transform="matrix(1 0 0 1 146.64 199.76825)"  d="M-3.3333335 0L0 4.4333334L3.3333335 0L0 -4.4333334z" stroke="#BADDD6" stroke-width="2" fill="none" />
                        <path transform="matrix(1 0 0 1 148.98 188.2482)"  d="M-3.3333335 0L0 4.4333334L3.3333335 0L0 -4.4333334z" stroke="#BADDD6" stroke-width="2" fill="none" />
                        <path transform="matrix(1 0 0 1 151.32 185.93347)"  d="M-3.3333335 0L0 4.4333334L3.3333335 0L0 -4.4333334z" stroke="#BADDD6" stroke-width="2" fill="none" />
                        <path transform="matrix(1 0 0 1 153.66 181.3796)"  d="M-3.3333335 0L0 4.4333334L3.3333335 0L0 -4.4333334z" stroke="#BADDD6" stroke-width="2" fill="none" />
                        <path transform="matrix(1 0 0 1 156 200.00406)"  d="M-3.3333335 0L0 4.4333334L3.3333335 0L0 -4.4333334z" stroke="#BADDD6" stroke-width="2" fill="none" />
                        <path transform="matrix(1 0 0 1 158.34 193.93785)"  d="M-3.3333335 0L0 4.4333334L3.3333335 0L0 -4.4333334z" stroke="#BADDD6" stroke-width="2" fill="none" />
                        <path transform="matrix(1 0 0 1 160.68 198.36308)"  d="M-3.3333335 0L0 4.4333334L3.3333335 0L0 -4.4333334z" stroke="#BADDD6" stroke-width="2" fill="none" />
                        <path transform="matrix(1 0 0 1 163.02 194.87973)"  d="M-3.3333335 0L0 4.4333334L3.3333335 0L0 -4.4333334z" stroke="#BADDD6" stroke-width="2" fill="none" />
                        <path transform="matrix(1 0 0 1 165.36 198.9965)"  d="M-3.3333335 0L0 4.4333334L3.3333335 0L0 -4.4333334z" stroke="#BADDD6" stroke-width="2" fill="none" />
                        <path transform="matrix(1 0 0 1 167.7 199.26607)"  d="M-3.3333335 0L0 4.4333334L3.3333335 0L0 -4.4333334z" stroke="#BADDD6" stroke-width="2" fill="none" />
                        <path transform="matrix(1 0 0 1 170.04 199.873)"  d="M-3.3333335 0L0 4.4333334L3.3333335 0L0 -4.4333334z" stroke="#BADDD6" stroke-width="2" fill="none" />
                        <path transform="matrix(1 0 0 1 172.38 200.01152)"  d="M-3.3333335 0L0 4.4333334L3.3333335 0L0 -4.4333334z" stroke="#BADDD6" stroke-width="2" fill="none" />
                        <path transform="matrix(1 0 0 1 174.72 198.86264)"  d="M-3.3333335 0L0 4.4333334L3.3333335 0L0 -4.4333334z" stroke="#BADDD6" stroke-width="2" fill="none" />
                        <path transform="matrix(1 0 0 1 177.06 164.79466)"  d="M-3.3333335 0L0 4.4333334L3.3333335 0L0 -4.4333334z" stroke="#BADDD6" stroke-width="2" fill="none" />
                        <path transform="matrix(1 0 0 1 179.4 158.16028)"  d="M-3.3333335 0L0 4.4333334L3.3333335 0L0 -4.4333334z" stroke="#BADDD6" stroke-width="2" fill="none" />
                        <path transform="matrix(1 0 0 1 181.74 152.53276)"  d="M-3.3333335 0L0 4.4333334L3.3333335 0L0 -4.4333334z" stroke="#BADDD6" stroke-width="2" fill="none" />
                        <path transform="matrix(1 0 0 1 184.08 146.55905)"  d="M-3.3333335 0L0 4.4333334L3.3333335 0L0 -4.4333334z" stroke="#BADDD6" stroke-width="2" fill="none" />
                        <path transform="matrix(1 0 0 1 186.42 200.09283)"  d="M-3.3333335 0L0 4.4333334L3.3333335 0L0 -4.4333334z" stroke="#BADDD6" stroke-width="2" fill="none" />
                        <path transform="matrix(1 0 0 1 188.76 202)"  d="M-3.3333335 0L0 4.4333334L3.3333335 0L0 -4.4333334z" stroke="#BADDD6" stroke-width="2" fill="none" />
                        <path transform="matrix(1 0 0 1 191.1 195.2224)"  d="M-3.3333335 0L0 4.4333334L3.3333335 0L0 -4.4333334z" stroke="#BADDD6" stroke-width="2" fill="none" />
                        <path transform="matrix(1 0 0 1 193.44 182.57101)"  d="M-3.3333335 0L0 4.4333334L3.3333335 0L0 -4.4333334z" stroke="#BADDD6" stroke-width="2" fill="none" />
                        <path transform="matrix(1 0 0 1 195.78 181.5078)"  d="M-3.3333335 0L0 4.4333334L3.3333335 0L0 -4.4333334z" stroke="#BADDD6" stroke-width="2" fill="none" />
                        <path transform="matrix(1 0 0 1 198.12 179.41585)"  d="M-3.3333335 0L0 4.4333334L3.3333335 0L0 -4.4333334z" stroke="#BADDD6" stroke-width="2" fill="none" />
                        <path transform="matrix(1 0 0 1 200.46 182.21956)"  d="M-3.3333335 0L0 4.4333334L3.3333335 0L0 -4.4333334z" stroke="#BADDD6" stroke-width="2" fill="none" />
                        <path transform="matrix(1 0 0 1 202.8 179.35513)"  d="M-3.3333335 0L0 4.4333334L3.3333335 0L0 -4.4333334z" stroke="#BADDD6" stroke-width="2" fill="none" />
                        <path transform="matrix(1 0 0 1 205.14 178.26344)"  d="M-3.3333335 0L0 4.4333334L3.3333335 0L0 -4.4333334z" stroke="#BADDD6" stroke-width="2" fill="none" />
                        <path transform="matrix(1 0 0 1 207.48 179.67416)"  d="M-3.3333335 0L0 4.4333334L3.3333335 0L0 -4.4333334z" stroke="#BADDD6" stroke-width="2" fill="none" />
                        <path transform="matrix(1 0 0 1 209.82 186.1013)"  d="M-3.3333335 0L0 4.4333334L3.3333335 0L0 -4.4333334z" stroke="#BADDD6" stroke-width="2" fill="none" />
                        <path transform="matrix(1 0 0 1 212.16 188.86324)"  d="M-3.3333335 0L0 4.4333334L3.3333335 0L0 -4.4333334z" stroke="#BADDD6" stroke-width="2" fill="none" />
                        <path transform="matrix(1 0 0 1 214.5 199.1799)"  d="M-3.3333335 0L0 4.4333334L3.3333335 0L0 -4.4333334z" stroke="#BADDD6" stroke-width="2" fill="none" />
                        <path transform="matrix(1 0 0 1 216.84 200.23476)"  d="M-3.3333335 0L0 4.4333334L3.3333335 0L0 -4.4333334z" stroke="#BADDD6" stroke-width="2" fill="none" />
                        <path transform="matrix(1 0 0 1 219.18 197.55649)"  d="M-3.3333335 0L0 4.4333334L3.3333335 0L0 -4.4333334z" stroke="#BADDD6" stroke-width="2" fill="none" />
                        <path transform="matrix(1 0 0 1 221.52 182.2915)"  d="M-3.3333335 0L0 4.4333334L3.3333335 0L0 -4.4333334z" stroke="#BADDD6" stroke-width="2" fill="none" />
                        <path transform="matrix(1 0 0 1 223.86 191.31146)"  d="M-3.3333335 0L0 4.4333334L3.3333335 0L0 -4.4333334z" stroke="#BADDD6" stroke-width="2" fill="none" />
                        <path transform="matrix(1 0 0 1 226.2 181.4808)"  d="M-3.3333335 0L0 4.4333334L3.3333335 0L0 -4.4333334z" stroke="#BADDD6" stroke-width="2" fill="none" />
                        <path transform="matrix(1 0 0 1 228.54 177.32797)"  d="M-3.3333335 0L0 4.4333334L3.3333335 0L0 -4.4333334z" stroke="#BADDD6" stroke-width="2" fill="none" />
                        <path transform="matrix(1 0 0 1 230.88 173.18698)"  d="M-3.3333335 0L0 4.4333334L3.3333335 0L0 -4.4333334z" stroke="#BADDD6" stroke-width="2" fill="none" />
                        <path transform="matrix(1 0 0 1 233.22 155.50026)"  d="M-3.3333335 0L0 4.4333334L3.3333335 0L0 -4.4333334z" stroke="#BADDD6" stroke-width="2" fill="none" />
                        <path transform="matrix(1 0 0 1 235.56 133.06786)"  d="M-3.3333335 0L0 4.4333334L3.3333335 0L0 -4.4333334z" stroke="#BADDD6" stroke-width="2" fill="none" />
                        <path transform="matrix(1 0 0 1 237.9 103.61013)"  d="M-3.3333335 0L0 4.4333334L3.3333335 0L0 -4.4333334z" stroke="#BADDD6" stroke-width="2" fill="none" />
                        <path transform="matrix(1 0 0 1 240.24 88.17157)"  d="M-3.3333335 0L0 4.4333334L3.3333335 0L0 -4.4333334z" stroke="#BADDD6" stroke-width="2" fill="none" />
                        <path transform="matrix(1 0 0 1 242.58 104.99149)"  d="M-3.3333335 0L0 4.4333334L3.3333335 0L0 -4.4333334z" stroke="#BADDD6" stroke-width="2" fill="none" />
                        <path transform="matrix(1 0 0 1 244.92 109.82763)"  d="M-3.3333335 0L0 4.4333334L3.3333335 0L0 -4.4333334z" stroke="#BADDD6" stroke-width="2" fill="none" />
                        <path transform="matrix(1 0 0 1 247.26 129.93214)"  d="M-3.3333335 0L0 4.4333334L3.3333335 0L0 -4.4333334z" stroke="#BADDD6" stroke-width="2" fill="none" />
                        <path transform="matrix(1 0 0 1 249.6 139.90752)"  d="M-3.3333335 0L0 4.4333334L3.3333335 0L0 -4.4333334z" stroke="#BADDD6" stroke-width="2" fill="none" />
                        <path transform="matrix(1 0 0 1 251.94 153.47322)"  d="M-3.3333335 0L0 4.4333334L3.3333335 0L0 -4.4333334z" stroke="#BADDD6" stroke-width="2" fill="none" />
                        <path transform="matrix(1 0 0 1 254.28 177.48582)"  d="M-3.3333335 0L0 4.4333334L3.3333335 0L0 -4.4333334z" stroke="#BADDD6" stroke-width="2" fill="none" />
                        <path transform="matrix(1 0 0 1 256.62 186.97859)"  d="M-3.3333335 0L0 4.4333334L3.3333335 0L0 -4.4333334z" stroke="#BADDD6" stroke-width="2" fill="none" />
                        <path transform="matrix(1 0 0 1 258.96 172.91255)"  d="M-3.3333335 0L0 4.4333334L3.3333335 0L0 -4.4333334z" stroke="#BADDD6" stroke-width="2" fill="none" />
                        <path transform="matrix(1 0 0 1 261.3 191.17506)"  d="M-3.3333335 0L0 4.4333334L3.3333335 0L0 -4.4333334z" stroke="#BADDD6" stroke-width="2" fill="none" />
                        <path transform="matrix(1 0 0 1 263.64 202)"  d="M-3.3333335 0L0 4.4333334L3.3333335 0L0 -4.4333334z" stroke="#BADDD6" stroke-width="2" fill="none" />
                        <path transform="matrix(1 0 0 1 265.98 195.2224)"  d="M-3.3333335 0L0 4.4333334L3.3333335 0L0 -4.4333334z" stroke="#BADDD6" stroke-width="2" fill="none" />
                        <path transform="matrix(1 0 0 1 268.32 182.57101)"  d="M-3.3333335 0L0 4.4333334L3.3333335 0L0 -4.4333334z" stroke="#BADDD6" stroke-width="2" fill="none" />
                        <path transform="matrix(1 0 0 1 270.66 181.5078)"  d="M-3.3333335 0L0 4.4333334L3.3333335 0L0 -4.4333334z" stroke="#BADDD6" stroke-width="2" fill="none" />
					</g>
				</g>
			</g>
		</g>
	</g>
</g>
</svg>