<?xml version="1.0" standalone="no"?>
<!DOCTYPE svg PUBLIC "-//W3C//DTD SVG 1.0//EN" "http://www.w3.org/TR/2001/REC-SVG-20010904/DTD/svg10.dtd">
<svg xmlns="http://www.w3.org/2000/svg" xmlns:xlink="http://www.w3.org/1999/xlink" id="body_3" width="302" height="227">

<g transform="matrix(1.3333334 0 0 1.3333334 0 0)">
    <path d="M0 0L226.5 0L226.5 170.25L0 170.25z" stroke="none" fill="#FFFFFF" fill-rule="evenodd" />
	<g transform="matrix(0.75 0 0 0.75 -0 -0)">
		<g>
			<g>
				<g transform="matrix(1 0 0 1 0 0)">
					<g>
					</g>
					<g>
                        <path transform="matrix(1 0 0 1 0 0)"  d="M0 0L302 0L302 227L0 227" stroke="none" fill="#FFFFFF" fill-rule="evenodd" />
                        <path transform="matrix(1 0 0 1 0 0)"  d="M0 0L302 0L302 227L0 227" stroke="none" fill="#FFFFFF" fill-rule="evenodd" />
                        <path transform="matrix(1 0 0 1 0 0)"  d="M39 17L273 17L273 202L39 202" stroke="none" fill="#FFFFFF" fill-rule="evenodd" />
                        <path transform="matrix(1 0 0 1 0 0)"  d="M39 202L273 202" stroke="#262626" stroke-width="0.6666667" fill="none" />
                        <path transform="matrix(1 0 0 1 0 0)"  d="M39 17.000004L273 17.000004" stroke="#262626" stroke-width="0.6666667" fill="none" />
						<text transform="matrix(1 0 0 1 156.00012 211.72333)" x="-55.5" y="1.1977539" style="fill:#262626;font-family:ABeeZee;" font-size="8.25">
Sliding window numbers
						</text>
                        <path transform="matrix(1 0 0 1 0 0)"  d="M39 202L39 17.000004" stroke="#262626" stroke-width="0.6666667" fill="none" />
                        <path transform="matrix(1 0 0 1 0 0)"  d="M273 202L273 17.000004" stroke="#262626" stroke-width="0.6666667" fill="none" />
                        <path transform="matrix(1 0 0 1 0 0)"  d="M39 202L41.34 202" stroke="#262626" stroke-width="0.6666667" fill="none" />
                        <path transform="matrix(1 0 0 1 0 0)"  d="M39 144.1875L41.34 144.1875" stroke="#262626" stroke-width="0.6666667" fill="none" />
                        <path transform="matrix(1 0 0 1 0 0)"  d="M39 86.375L41.34 86.375" stroke="#262626" stroke-width="0.6666667" fill="none" />
                        <path transform="matrix(1 0 0 1 0 0)"  d="M39 28.562492L41.34 28.562492" stroke="#262626" stroke-width="0.6666667" fill="none" />
                        <path transform="matrix(1 0 0 1 0 0)"  d="M273 202L270.66 202" stroke="#262626" stroke-width="0.6666667" fill="none" />
                        <path transform="matrix(1 0 0 1 0 0)"  d="M273 144.1875L270.66 144.1875" stroke="#262626" stroke-width="0.6666667" fill="none" />
                        <path transform="matrix(1 0 0 1 0 0)"  d="M273 86.375L270.66 86.375" stroke="#262626" stroke-width="0.6666667" fill="none" />
                        <path transform="matrix(1 0 0 1 0 0)"  d="M273 28.562492L270.66 28.562492" stroke="#262626" stroke-width="0.6666667" fill="none" />
						<text transform="matrix(1 0 0 1 36.866665 209.36)" x="-6" y="-6.005209" style="fill:#262626;font-family:ABeeZee;" font-size="8">
0
						</text>
						<text transform="matrix(1 0 0 1 36.866665 151.5475)" x="-19" y="-6.005209" style="fill:#262626;font-family:ABeeZee;" font-size="8">
0.05
						</text>
						<text transform="matrix(1 0 0 1 36.866665 93.735)" x="-14" y="-6.005209" style="fill:#262626;font-family:ABeeZee;" font-size="8">
0.1
						</text>
						<text transform="matrix(1 0 0 1 36.866665 35.922493)" x="-19" y="-6.005209" style="fill:#262626;font-family:ABeeZee;" font-size="8">
0.15
						</text>
						<text transform="matrix(-4.371139E-08 -1 1 -4.371139E-08 23.893335 109.499916)" x="-21" y="-12.505209" style="fill:#262626;font-family:ABeeZee;" font-size="8">
AD value
						</text>
						<text transform="matrix(1 0 0 1 156.00015 22.5275)" x="-61" y="-12.802246" style="fill:#000000;font-family:ABeeZee;" font-size="8.25">
FE based impulse detection
						</text>
                        <path transform="matrix(1 0 0 1 0 0)"  d="M41.34 197.52553L43.68 201.16313L46.02 196.79051L48.36 196.82666L50.7 201.01585L53.04 198.44606L55.38 198.94916L57.72 201.77249L60.06 196.84329L62.4 193.65538L64.74 194.58682L67.08 190.01639L69.42 163.08551L71.76 163.51166L74.1 136.28786L76.44 103.36073L78.78 114.32928L81.12 74.536995L83.46 88.26356L85.8 102.82509L88.14 105.57413L90.48 118.55126L92.82 100.051346L95.16 116.41416L97.5 102.37927L99.84 71.46099L102.18 88.73236L104.52 37.87988L106.86 87.92391L109.2 137.76685L111.54 167.89458L113.88 202L116.22 197.52553L118.56 201.16313L120.9 196.79051L123.24 196.82666L125.58 201.01585L127.92 198.44606L130.26 198.94916L132.6 201.77249L134.94 196.84329L137.28 193.65538L139.62 194.58682L141.96 190.01639L144.3 179.52992L146.64 190.28688L148.98 191.66588L151.32 190.68974L153.66 197.54771L156 183.7449L158.34 183.35556L160.68 190.51567L163.02 185.25348L165.36 180.62419L167.7 171.99863L170.04 165.93031L172.38 173.71078L174.72 186.27591L177.06 197.13882L179.4 187.92189L181.74 183.77553L184.08 184.55888L186.42 181.48392L188.76 202L191.1 197.52553L193.44 201.16313L195.78 196.79051L198.12 196.82666L200.46 201.01585L202.8 198.44606L205.14 198.94916L207.48 201.77249L209.82 196.84329L212.16 193.65538L214.5 194.58682L216.84 190.01639L219.18 163.61928L221.52 125.727L223.86 87.73707L226.2 52.85463L228.54 52.152718L230.88 90.80809L233.22 88.310555L235.56 72.36728L237.9 101.99487L240.24 74.881424L242.58 94.99386L244.92 98.41935L247.26 64.24864L249.6 67.418175L251.94 26.475883L254.28 34.094288L256.62 87.75965L258.96 131.70715L261.3 172.14774L263.64 202L265.98 197.52553L268.32 201.16313L270.66 196.79051" stroke="#0C84C6" stroke-width="2" fill="none" />
                        <path transform="matrix(1 0 0 1 41.34 197.52553)"  d="M-3.3333335 0L0 4.4333334L3.3333335 0L0 -4.4333334z" stroke="#0C84C6" stroke-width="2" fill="none" />
                        <path transform="matrix(1 0 0 1 43.68 201.16313)"  d="M-3.3333335 0L0 4.4333334L3.3333335 0L0 -4.4333334z" stroke="#0C84C6" stroke-width="2" fill="none" />
                        <path transform="matrix(1 0 0 1 46.02 196.79051)"  d="M-3.3333335 0L0 4.4333334L3.3333335 0L0 -4.4333334z" stroke="#0C84C6" stroke-width="2" fill="none" />
                        <path transform="matrix(1 0 0 1 48.36 196.82666)"  d="M-3.3333335 0L0 4.4333334L3.3333335 0L0 -4.4333334z" stroke="#0C84C6" stroke-width="2" fill="none" />
                        <path transform="matrix(1 0 0 1 50.7 201.01585)"  d="M-3.3333335 0L0 4.4333334L3.3333335 0L0 -4.4333334z" stroke="#0C84C6" stroke-width="2" fill="none" />
                        <path transform="matrix(1 0 0 1 53.04 198.44606)"  d="M-3.3333335 0L0 4.4333334L3.3333335 0L0 -4.4333334z" stroke="#0C84C6" stroke-width="2" fill="none" />
                        <path transform="matrix(1 0 0 1 55.38 198.94916)"  d="M-3.3333335 0L0 4.4333334L3.3333335 0L0 -4.4333334z" stroke="#0C84C6" stroke-width="2" fill="none" />
                        <path transform="matrix(1 0 0 1 57.72 201.77249)"  d="M-3.3333335 0L0 4.4333334L3.3333335 0L0 -4.4333334z" stroke="#0C84C6" stroke-width="2" fill="none" />
                        <path transform="matrix(1 0 0 1 60.06 196.84329)"  d="M-3.3333335 0L0 4.4333334L3.3333335 0L0 -4.4333334z" stroke="#0C84C6" stroke-width="2" fill="none" />
                        <path transform="matrix(1 0 0 1 62.4 193.65538)"  d="M-3.3333335 0L0 4.4333334L3.3333335 0L0 -4.4333334z" stroke="#0C84C6" stroke-width="2" fill="none" />
                        <path transform="matrix(1 0 0 1 64.74 194.58682)"  d="M-3.3333335 0L0 4.4333334L3.3333335 0L0 -4.4333334z" stroke="#0C84C6" stroke-width="2" fill="none" />
                        <path transform="matrix(1 0 0 1 67.08 190.01639)"  d="M-3.3333335 0L0 4.4333334L3.3333335 0L0 -4.4333334z" stroke="#0C84C6" stroke-width="2" fill="none" />
                        <path transform="matrix(1 0 0 1 69.42 163.08551)"  d="M-3.3333335 0L0 4.4333334L3.3333335 0L0 -4.4333334z" stroke="#0C84C6" stroke-width="2" fill="none" />
                        <path transform="matrix(1 0 0 1 71.76 163.51166)"  d="M-3.3333335 0L0 4.4333334L3.3333335 0L0 -4.4333334z" stroke="#0C84C6" stroke-width="2" fill="none" />
                        <path transform="matrix(1 0 0 1 74.1 136.28786)"  d="M-3.3333335 0L0 4.4333334L3.3333335 0L0 -4.4333334z" stroke="#0C84C6" stroke-width="2" fill="none" />
                        <path transform="matrix(1 0 0 1 76.44 103.36073)"  d="M-3.3333335 0L0 4.4333334L3.3333335 0L0 -4.4333334z" stroke="#0C84C6" stroke-width="2" fill="none" />
                        <path transform="matrix(1 0 0 1 78.78 114.32928)"  d="M-3.3333335 0L0 4.4333334L3.3333335 0L0 -4.4333334z" stroke="#0C84C6" stroke-width="2" fill="none" />
                        <path transform="matrix(1 0 0 1 81.12 74.536995)"  d="M-3.3333335 0L0 4.4333334L3.3333335 0L0 -4.4333334z" stroke="#0C84C6" stroke-width="2" fill="none" />
                        <path transform="matrix(1 0 0 1 83.46 88.26356)"  d="M-3.3333335 0L0 4.4333334L3.3333335 0L0 -4.4333334z" stroke="#0C84C6" stroke-width="2" fill="none" />
                        <path transform="matrix(1 0 0 1 85.8 102.82509)"  d="M-3.3333335 0L0 4.4333334L3.3333335 0L0 -4.4333334z" stroke="#0C84C6" stroke-width="2" fill="none" />
                        <path transform="matrix(1 0 0 1 88.14 105.57413)"  d="M-3.3333335 0L0 4.4333334L3.3333335 0L0 -4.4333334z" stroke="#0C84C6" stroke-width="2" fill="none" />
                        <path transform="matrix(1 0 0 1 90.48 118.55126)"  d="M-3.3333335 0L0 4.4333334L3.3333335 0L0 -4.4333334z" stroke="#0C84C6" stroke-width="2" fill="none" />
                        <path transform="matrix(1 0 0 1 92.82 100.051346)"  d="M-3.3333335 0L0 4.4333334L3.3333335 0L0 -4.4333334z" stroke="#0C84C6" stroke-width="2" fill="none" />
                        <path transform="matrix(1 0 0 1 95.16 116.41416)"  d="M-3.3333335 0L0 4.4333334L3.3333335 0L0 -4.4333334z" stroke="#0C84C6" stroke-width="2" fill="none" />
                        <path transform="matrix(1 0 0 1 97.5 102.37927)"  d="M-3.3333335 0L0 4.4333334L3.3333335 0L0 -4.4333334z" stroke="#0C84C6" stroke-width="2" fill="none" />
                        <path transform="matrix(1 0 0 1 99.84 71.46099)"  d="M-3.3333335 0L0 4.4333334L3.3333335 0L0 -4.4333334z" stroke="#0C84C6" stroke-width="2" fill="none" />
                        <path transform="matrix(1 0 0 1 102.18 88.73236)"  d="M-3.3333335 0L0 4.4333334L3.3333335 0L0 -4.4333334z" stroke="#0C84C6" stroke-width="2" fill="none" />
                        <path transform="matrix(1 0 0 1 104.52 37.87988)"  d="M-3.3333335 0L0 4.4333334L3.3333335 0L0 -4.4333334z" stroke="#0C84C6" stroke-width="2" fill="none" />
                        <path transform="matrix(1 0 0 1 106.86 87.92391)"  d="M-3.3333335 0L0 4.4333334L3.3333335 0L0 -4.4333334z" stroke="#0C84C6" stroke-width="2" fill="none" />
                        <path transform="matrix(1 0 0 1 109.2 137.76685)"  d="M-3.3333335 0L0 4.4333334L3.3333335 0L0 -4.4333334z" stroke="#0C84C6" stroke-width="2" fill="none" />
                        <path transform="matrix(1 0 0 1 111.54 167.89458)"  d="M-3.3333335 0L0 4.4333334L3.3333335 0L0 -4.4333334z" stroke="#0C84C6" stroke-width="2" fill="none" />
                        <path transform="matrix(1 0 0 1 113.88 202)"  d="M-3.3333335 0L0 4.4333334L3.3333335 0L0 -4.4333334z" stroke="#0C84C6" stroke-width="2" fill="none" />
                        <path transform="matrix(1 0 0 1 116.22 197.52553)"  d="M-3.3333335 0L0 4.4333334L3.3333335 0L0 -4.4333334z" stroke="#0C84C6" stroke-width="2" fill="none" />
                        <path transform="matrix(1 0 0 1 118.56 201.16313)"  d="M-3.3333335 0L0 4.4333334L3.3333335 0L0 -4.4333334z" stroke="#0C84C6" stroke-width="2" fill="none" />
                        <path transform="matrix(1 0 0 1 120.9 196.79051)"  d="M-3.3333335 0L0 4.4333334L3.3333335 0L0 -4.4333334z" stroke="#0C84C6" stroke-width="2" fill="none" />
                        <path transform="matrix(1 0 0 1 123.24 196.82666)"  d="M-3.3333335 0L0 4.4333334L3.3333335 0L0 -4.4333334z" stroke="#0C84C6" stroke-width="2" fill="none" />
                        <path transform="matrix(1 0 0 1 125.58 201.01585)"  d="M-3.3333335 0L0 4.4333334L3.3333335 0L0 -4.4333334z" stroke="#0C84C6" stroke-width="2" fill="none" />
                        <path transform="matrix(1 0 0 1 127.92 198.44606)"  d="M-3.3333335 0L0 4.4333334L3.3333335 0L0 -4.4333334z" stroke="#0C84C6" stroke-width="2" fill="none" />
                        <path transform="matrix(1 0 0 1 130.26 198.94916)"  d="M-3.3333335 0L0 4.4333334L3.3333335 0L0 -4.4333334z" stroke="#0C84C6" stroke-width="2" fill="none" />
                        <path transform="matrix(1 0 0 1 132.6 201.77249)"  d="M-3.3333335 0L0 4.4333334L3.3333335 0L0 -4.4333334z" stroke="#0C84C6" stroke-width="2" fill="none" />
                        <path transform="matrix(1 0 0 1 134.94 196.84329)"  d="M-3.3333335 0L0 4.4333334L3.3333335 0L0 -4.4333334z" stroke="#0C84C6" stroke-width="2" fill="none" />
                        <path transform="matrix(1 0 0 1 137.28 193.65538)"  d="M-3.3333335 0L0 4.4333334L3.3333335 0L0 -4.4333334z" stroke="#0C84C6" stroke-width="2" fill="none" />
                        <path transform="matrix(1 0 0 1 139.62 194.58682)"  d="M-3.3333335 0L0 4.4333334L3.3333335 0L0 -4.4333334z" stroke="#0C84C6" stroke-width="2" fill="none" />
                        <path transform="matrix(1 0 0 1 141.96 190.01639)"  d="M-3.3333335 0L0 4.4333334L3.3333335 0L0 -4.4333334z" stroke="#0C84C6" stroke-width="2" fill="none" />
                        <path transform="matrix(1 0 0 1 144.3 179.52992)"  d="M-3.3333335 0L0 4.4333334L3.3333335 0L0 -4.4333334z" stroke="#0C84C6" stroke-width="2" fill="none" />
                        <path transform="matrix(1 0 0 1 146.64 190.28688)"  d="M-3.3333335 0L0 4.4333334L3.3333335 0L0 -4.4333334z" stroke="#0C84C6" stroke-width="2" fill="none" />
                        <path transform="matrix(1 0 0 1 148.98 191.66588)"  d="M-3.3333335 0L0 4.4333334L3.3333335 0L0 -4.4333334z" stroke="#0C84C6" stroke-width="2" fill="none" />
                        <path transform="matrix(1 0 0 1 151.32 190.68974)"  d="M-3.3333335 0L0 4.4333334L3.3333335 0L0 -4.4333334z" stroke="#0C84C6" stroke-width="2" fill="none" />
                        <path transform="matrix(1 0 0 1 153.66 197.54771)"  d="M-3.3333335 0L0 4.4333334L3.3333335 0L0 -4.4333334z" stroke="#0C84C6" stroke-width="2" fill="none" />
                        <path transform="matrix(1 0 0 1 156 183.7449)"  d="M-3.3333335 0L0 4.4333334L3.3333335 0L0 -4.4333334z" stroke="#0C84C6" stroke-width="2" fill="none" />
                        <path transform="matrix(1 0 0 1 158.34 183.35556)"  d="M-3.3333335 0L0 4.4333334L3.3333335 0L0 -4.4333334z" stroke="#0C84C6" stroke-width="2" fill="none" />
                        <path transform="matrix(1 0 0 1 160.68 190.51567)"  d="M-3.3333335 0L0 4.4333334L3.3333335 0L0 -4.4333334z" stroke="#0C84C6" stroke-width="2" fill="none" />
                        <path transform="matrix(1 0 0 1 163.02 185.25348)"  d="M-3.3333335 0L0 4.4333334L3.3333335 0L0 -4.4333334z" stroke="#0C84C6" stroke-width="2" fill="none" />
                        <path transform="matrix(1 0 0 1 165.36 180.62419)"  d="M-3.3333335 0L0 4.4333334L3.3333335 0L0 -4.4333334z" stroke="#0C84C6" stroke-width="2" fill="none" />
                        <path transform="matrix(1 0 0 1 167.7 171.99863)"  d="M-3.3333335 0L0 4.4333334L3.3333335 0L0 -4.4333334z" stroke="#0C84C6" stroke-width="2" fill="none" />
                        <path transform="matrix(1 0 0 1 170.04 165.93031)"  d="M-3.3333335 0L0 4.4333334L3.3333335 0L0 -4.4333334z" stroke="#0C84C6" stroke-width="2" fill="none" />
                        <path transform="matrix(1 0 0 1 172.38 173.71078)"  d="M-3.3333335 0L0 4.4333334L3.3333335 0L0 -4.4333334z" stroke="#0C84C6" stroke-width="2" fill="none" />
                        <path transform="matrix(1 0 0 1 174.72 186.27591)"  d="M-3.3333335 0L0 4.4333334L3.3333335 0L0 -4.4333334z" stroke="#0C84C6" stroke-width="2" fill="none" />
                        <path transform="matrix(1 0 0 1 177.06 197.13882)"  d="M-3.3333335 0L0 4.4333334L3.3333335 0L0 -4.4333334z" stroke="#0C84C6" stroke-width="2" fill="none" />
                        <path transform="matrix(1 0 0 1 179.4 187.92189)"  d="M-3.3333335 0L0 4.4333334L3.3333335 0L0 -4.4333334z" stroke="#0C84C6" stroke-width="2" fill="none" />
                        <path transform="matrix(1 0 0 1 181.74 183.77553)"  d="M-3.3333335 0L0 4.4333334L3.3333335 0L0 -4.4333334z" stroke="#0C84C6" stroke-width="2" fill="none" />
                        <path transform="matrix(1 0 0 1 184.08 184.55888)"  d="M-3.3333335 0L0 4.4333334L3.3333335 0L0 -4.4333334z" stroke="#0C84C6" stroke-width="2" fill="none" />
                        <path transform="matrix(1 0 0 1 186.42 181.48392)"  d="M-3.3333335 0L0 4.4333334L3.3333335 0L0 -4.4333334z" stroke="#0C84C6" stroke-width="2" fill="none" />
                        <path transform="matrix(1 0 0 1 188.76 202)"  d="M-3.3333335 0L0 4.4333334L3.3333335 0L0 -4.4333334z" stroke="#0C84C6" stroke-width="2" fill="none" />
                        <path transform="matrix(1 0 0 1 191.1 197.52553)"  d="M-3.3333335 0L0 4.4333334L3.3333335 0L0 -4.4333334z" stroke="#0C84C6" stroke-width="2" fill="none" />
                        <path transform="matrix(1 0 0 1 193.44 201.16313)"  d="M-3.3333335 0L0 4.4333334L3.3333335 0L0 -4.4333334z" stroke="#0C84C6" stroke-width="2" fill="none" />
                        <path transform="matrix(1 0 0 1 195.78 196.79051)"  d="M-3.3333335 0L0 4.4333334L3.3333335 0L0 -4.4333334z" stroke="#0C84C6" stroke-width="2" fill="none" />
                        <path transform="matrix(1 0 0 1 198.12 196.82666)"  d="M-3.3333335 0L0 4.4333334L3.3333335 0L0 -4.4333334z" stroke="#0C84C6" stroke-width="2" fill="none" />
                        <path transform="matrix(1 0 0 1 200.46 201.01585)"  d="M-3.3333335 0L0 4.4333334L3.3333335 0L0 -4.4333334z" stroke="#0C84C6" stroke-width="2" fill="none" />
                        <path transform="matrix(1 0 0 1 202.8 198.44606)"  d="M-3.3333335 0L0 4.4333334L3.3333335 0L0 -4.4333334z" stroke="#0C84C6" stroke-width="2" fill="none" />
                        <path transform="matrix(1 0 0 1 205.14 198.94916)"  d="M-3.3333335 0L0 4.4333334L3.3333335 0L0 -4.4333334z" stroke="#0C84C6" stroke-width="2" fill="none" />
                        <path transform="matrix(1 0 0 1 207.48 201.77249)"  d="M-3.3333335 0L0 4.4333334L3.3333335 0L0 -4.4333334z" stroke="#0C84C6" stroke-width="2" fill="none" />
                        <path transform="matrix(1 0 0 1 209.82 196.84329)"  d="M-3.3333335 0L0 4.4333334L3.3333335 0L0 -4.4333334z" stroke="#0C84C6" stroke-width="2" fill="none" />
                        <path transform="matrix(1 0 0 1 212.16 193.65538)"  d="M-3.3333335 0L0 4.4333334L3.3333335 0L0 -4.4333334z" stroke="#0C84C6" stroke-width="2" fill="none" />
                        <path transform="matrix(1 0 0 1 214.5 194.58682)"  d="M-3.3333335 0L0 4.4333334L3.3333335 0L0 -4.4333334z" stroke="#0C84C6" stroke-width="2" fill="none" />
                        <path transform="matrix(1 0 0 1 216.84 190.01639)"  d="M-3.3333335 0L0 4.4333334L3.3333335 0L0 -4.4333334z" stroke="#0C84C6" stroke-width="2" fill="none" />
                        <path transform="matrix(1 0 0 1 219.18 163.61928)"  d="M-3.3333335 0L0 4.4333334L3.3333335 0L0 -4.4333334z" stroke="#0C84C6" stroke-width="2" fill="none" />
                        <path transform="matrix(1 0 0 1 221.52 125.727)"  d="M-3.3333335 0L0 4.4333334L3.3333335 0L0 -4.4333334z" stroke="#0C84C6" stroke-width="2" fill="none" />
                        <path transform="matrix(1 0 0 1 223.86 87.73707)"  d="M-3.3333335 0L0 4.4333334L3.3333335 0L0 -4.4333334z" stroke="#0C84C6" stroke-width="2" fill="none" />
                        <path transform="matrix(1 0 0 1 226.2 52.85463)"  d="M-3.3333335 0L0 4.4333334L3.3333335 0L0 -4.4333334z" stroke="#0C84C6" stroke-width="2" fill="none" />
                        <path transform="matrix(1 0 0 1 228.54 52.152718)"  d="M-3.3333335 0L0 4.4333334L3.3333335 0L0 -4.4333334z" stroke="#0C84C6" stroke-width="2" fill="none" />
                        <path transform="matrix(1 0 0 1 230.88 90.80809)"  d="M-3.3333335 0L0 4.4333334L3.3333335 0L0 -4.4333334z" stroke="#0C84C6" stroke-width="2" fill="none" />
                        <path transform="matrix(1 0 0 1 233.22 88.310555)"  d="M-3.3333335 0L0 4.4333334L3.3333335 0L0 -4.4333334z" stroke="#0C84C6" stroke-width="2" fill="none" />
                        <path transform="matrix(1 0 0 1 235.56 72.36728)"  d="M-3.3333335 0L0 4.4333334L3.3333335 0L0 -4.4333334z" stroke="#0C84C6" stroke-width="2" fill="none" />
                        <path transform="matrix(1 0 0 1 237.9 101.99487)"  d="M-3.3333335 0L0 4.4333334L3.3333335 0L0 -4.4333334z" stroke="#0C84C6" stroke-width="2" fill="none" />
                        <path transform="matrix(1 0 0 1 240.24 74.881424)"  d="M-3.3333335 0L0 4.4333334L3.3333335 0L0 -4.4333334z" stroke="#0C84C6" stroke-width="2" fill="none" />
                        <path transform="matrix(1 0 0 1 242.58 94.99386)"  d="M-3.3333335 0L0 4.4333334L3.3333335 0L0 -4.4333334z" stroke="#0C84C6" stroke-width="2" fill="none" />
                        <path transform="matrix(1 0 0 1 244.92 98.41935)"  d="M-3.3333335 0L0 4.4333334L3.3333335 0L0 -4.4333334z" stroke="#0C84C6" stroke-width="2" fill="none" />
                        <path transform="matrix(1 0 0 1 247.26 64.24864)"  d="M-3.3333335 0L0 4.4333334L3.3333335 0L0 -4.4333334z" stroke="#0C84C6" stroke-width="2" fill="none" />
                        <path transform="matrix(1 0 0 1 249.6 67.418175)"  d="M-3.3333335 0L0 4.4333334L3.3333335 0L0 -4.4333334z" stroke="#0C84C6" stroke-width="2" fill="none" />
                        <path transform="matrix(1 0 0 1 251.94 26.475883)"  d="M-3.3333335 0L0 4.4333334L3.3333335 0L0 -4.4333334z" stroke="#0C84C6" stroke-width="2" fill="none" />
                        <path transform="matrix(1 0 0 1 254.28 34.094288)"  d="M-3.3333335 0L0 4.4333334L3.3333335 0L0 -4.4333334z" stroke="#0C84C6" stroke-width="2" fill="none" />
                        <path transform="matrix(1 0 0 1 256.62 87.75965)"  d="M-3.3333335 0L0 4.4333334L3.3333335 0L0 -4.4333334z" stroke="#0C84C6" stroke-width="2" fill="none" />
                        <path transform="matrix(1 0 0 1 258.96 131.70715)"  d="M-3.3333335 0L0 4.4333334L3.3333335 0L0 -4.4333334z" stroke="#0C84C6" stroke-width="2" fill="none" />
                        <path transform="matrix(1 0 0 1 261.3 172.14774)"  d="M-3.3333335 0L0 4.4333334L3.3333335 0L0 -4.4333334z" stroke="#0C84C6" stroke-width="2" fill="none" />
                        <path transform="matrix(1 0 0 1 263.64 202)"  d="M-3.3333335 0L0 4.4333334L3.3333335 0L0 -4.4333334z" stroke="#0C84C6" stroke-width="2" fill="none" />
                        <path transform="matrix(1 0 0 1 265.98 197.52553)"  d="M-3.3333335 0L0 4.4333334L3.3333335 0L0 -4.4333334z" stroke="#0C84C6" stroke-width="2" fill="none" />
                        <path transform="matrix(1 0 0 1 268.32 201.16313)"  d="M-3.3333335 0L0 4.4333334L3.3333335 0L0 -4.4333334z" stroke="#0C84C6" stroke-width="2" fill="none" />
                        <path transform="matrix(1 0 0 1 270.66 196.79051)"  d="M-3.3333335 0L0 4.4333334L3.3333335 0L0 -4.4333334z" stroke="#0C84C6" stroke-width="2" fill="none" />
					</g>
				</g>
			</g>
		</g>
	</g>
</g>
</svg>