<?xml version="1.0" standalone="no"?>
<!DOCTYPE svg PUBLIC "-//W3C//DTD SVG 1.0//EN" "http://www.w3.org/TR/2001/REC-SVG-20010904/DTD/svg10.dtd">
<svg xmlns="http://www.w3.org/2000/svg" xmlns:xlink="http://www.w3.org/1999/xlink" id="body_1" width="560" height="420">

<g transform="matrix(1.3333334 0 0 1.3333334 0 0)">
    <path d="M0 0L420 0L420 315L0 315z" stroke="none" fill="#FFFFFF" fill-rule="evenodd" />
	<g transform="matrix(0.75 0 0 0.75 -0 -0)">
		<g>
			<g>
				<g transform="matrix(1 0 0 1 0 0)">
					<g>
					</g>
					<g>
                        <path transform="matrix(1 0 0 1 0 0)"  d="M0 0L560 0L560 420L0 420" stroke="none" fill="#FFFFFF" fill-rule="evenodd" />
                        <path transform="matrix(1 0 0 1 0 0)"  d="M0 0L560 0L560 420L0 420" stroke="none" fill="#FFFFFF" fill-rule="evenodd" />
                        <path transform="matrix(1 0 0 1 0 0)"  d="M73 31L507 31L507 374L73 374" stroke="none" fill="#FFFFFF" fill-rule="evenodd" />
                        <path transform="matrix(1 0 0 1 0 0)"  d="M73 374L507 374" stroke="#262626" stroke-width="0.6666667" fill="none" />
                        <path transform="matrix(1 0 0 1 0 0)"  d="M73 374L73 369.66" stroke="#262626" stroke-width="0.6666667" fill="none" />
                        <path transform="matrix(1 0 0 1 0 0)"  d="M127.25 374L127.25 369.66" stroke="#262626" stroke-width="0.6666667" fill="none" />
                        <path transform="matrix(1 0 0 1 0 0)"  d="M181.5 374L181.5 369.66" stroke="#262626" stroke-width="0.6666667" fill="none" />
                        <path transform="matrix(1 0 0 1 0 0)"  d="M235.75 374L235.75 369.66" stroke="#262626" stroke-width="0.6666667" fill="none" />
                        <path transform="matrix(1 0 0 1 0 0)"  d="M290 374L290 369.66" stroke="#262626" stroke-width="0.6666667" fill="none" />
                        <path transform="matrix(1 0 0 1 0 0)"  d="M344.25 374L344.25 369.66" stroke="#262626" stroke-width="0.6666667" fill="none" />
                        <path transform="matrix(1 0 0 1 0 0)"  d="M398.5 374L398.5 369.66" stroke="#262626" stroke-width="0.6666667" fill="none" />
                        <path transform="matrix(1 0 0 1 0 0)"  d="M452.75 374L452.75 369.66" stroke="#262626" stroke-width="0.6666667" fill="none" />
                        <path transform="matrix(1 0 0 1 0 0)"  d="M507 374L507 369.66" stroke="#262626" stroke-width="0.6666667" fill="none" />
						<text transform="matrix(1 0 0 1 73 388.53336)" x="-7.5" y="1.9296875" style="fill:#262626;font-family:ABeeZee;" font-size="10">
30
						</text>
						<text transform="matrix(1 0 0 1 127.25 388.53336)" x="-7.5" y="1.9296875" style="fill:#262626;font-family:ABeeZee;" font-size="10">
20
						</text>
						<text transform="matrix(1 0 0 1 181.5 388.53336)" x="-7.5" y="1.9296875" style="fill:#262626;font-family:ABeeZee;" font-size="10">
10
						</text>
						<text transform="matrix(1 0 0 1 235.75 388.53336)" x="-4" y="1.9296875" style="fill:#262626;font-family:ABeeZee;" font-size="10">
0
						</text>
						<text transform="matrix(1 0 0 1 290 388.53336)" x="-10" y="1.9296875" style="fill:#262626;font-family:ABeeZee;" font-size="10">
-10
						</text>
						<text transform="matrix(1 0 0 1 344.25 388.53336)" x="-7.5" y="1.9296875" style="fill:#262626;font-family:ABeeZee;" font-size="10">
30
						</text>
						<text transform="matrix(1 0 0 1 398.5 388.53336)" x="-7.5" y="1.9296875" style="fill:#262626;font-family:ABeeZee;" font-size="10">
20
						</text>
						<text transform="matrix(1 0 0 1 452.75 388.53336)" x="-7.5" y="1.9296875" style="fill:#262626;font-family:ABeeZee;" font-size="10">
10
						</text>
						<text transform="matrix(1 0 0 1 507 388.53336)" x="-4" y="1.9296875" style="fill:#262626;font-family:ABeeZee;" font-size="10">
0
						</text>
						<text transform="matrix(1 0 0 1 290.0002 407.78665)" x="-15.5" y="1.7226562" style="fill:#262626;font-family:ABeeZee;" font-size="11">
SNR
						</text>
                        <path transform="matrix(1 0 0 1 0 0)"  d="M73 374L73 31.000006" stroke="#262626" stroke-width="0.6666667" fill="none" />
                        <path transform="matrix(1 0 0 1 0 0)"  d="M73 374L77.340004 374" stroke="#262626" stroke-width="0.6666667" fill="none" />
                        <path transform="matrix(1 0 0 1 0 0)"  d="M73 325L77.340004 325" stroke="#262626" stroke-width="0.6666667" fill="none" />
                        <path transform="matrix(1 0 0 1 0 0)"  d="M73 276L77.340004 276" stroke="#262626" stroke-width="0.6666667" fill="none" />
                        <path transform="matrix(1 0 0 1 0 0)"  d="M73 227L77.340004 227" stroke="#262626" stroke-width="0.6666667" fill="none" />
                        <path transform="matrix(1 0 0 1 0 0)"  d="M73 178L77.340004 178" stroke="#262626" stroke-width="0.6666667" fill="none" />
                        <path transform="matrix(1 0 0 1 0 0)"  d="M73 129L77.340004 129" stroke="#262626" stroke-width="0.6666667" fill="none" />
                        <path transform="matrix(1 0 0 1 0 0)"  d="M73 79.999985L77.340004 79.999985" stroke="#262626" stroke-width="0.6666667" fill="none" />
                        <path transform="matrix(1 0 0 1 0 0)"  d="M73 31.000006L77.340004 31.000006" stroke="#262626" stroke-width="0.6666667" fill="none" />
						<text transform="matrix(1 0 0 1 67.666664 383.2)" x="-8" y="-6.5703125" style="fill:#262626;font-family:ABeeZee;" font-size="10">
0
						</text>
						<text transform="matrix(1 0 0 1 67.666664 334.2)" x="-19" y="-6.5703125" style="fill:#262626;font-family:ABeeZee;" font-size="10">
0.1
						</text>
						<text transform="matrix(1 0 0 1 67.666664 285.2)" x="-19" y="-6.5703125" style="fill:#262626;font-family:ABeeZee;" font-size="10">
0.2
						</text>
						<text transform="matrix(1 0 0 1 67.666664 236.2)" x="-19" y="-6.5703125" style="fill:#262626;font-family:ABeeZee;" font-size="10">
0.3
						</text>
						<text transform="matrix(1 0 0 1 67.666664 187.2)" x="-19" y="-6.5703125" style="fill:#262626;font-family:ABeeZee;" font-size="10">
0.4
						</text>
						<text transform="matrix(1 0 0 1 67.666664 138.2)" x="-19" y="-6.5703125" style="fill:#262626;font-family:ABeeZee;" font-size="10">
0.5
						</text>
						<text transform="matrix(1 0 0 1 67.666664 89.19998)" x="-19" y="-6.5703125" style="fill:#262626;font-family:ABeeZee;" font-size="10">
0.6
						</text>
						<text transform="matrix(1 0 0 1 67.666664 40.200005)" x="-19" y="-6.5703125" style="fill:#262626;font-family:ABeeZee;" font-size="10">
0.7
						</text>
						<text transform="matrix(-4.371139E-08 -1 1 -4.371139E-08 54.786667 202.49985)" x="-5" y="-17.277344" style="fill:#262626;font-family:ABeeZee;" font-size="11">
S
						</text>
						<text transform="matrix(1 0 0 1 290.00027 38.370003)" x="-24" y="-17.277344" style="fill:#000000;font-family:ABeeZee;" font-size="11">
DispEn
						</text>
                        <path transform="matrix(1 0 0 1 0 0)"  d="M73 371.82077L83.85 361.15894L94.7 347.9958L105.55 334.8046L116.4 324.69894L127.25 317.40286L138.1 303.89664L148.95 280.04797L159.8 260.8821L170.65 246.46718L181.5 226.8172L192.35 219.71326L203.2 200.30884L214.05 181.63634L224.9 162.25963L235.75 148.68233L246.6 131.02763L257.45 124.640144L268.3 116.49154L279.15 95.89229L290 96.497765L300.85 88.409615L311.7 80.59682L322.55 77.00713L333.4 77.36535L344.25 76.18016L355.1 74.178795L365.95 72.04394L376.8 72.4334L387.65 71.68902L398.5 70.75871L409.35 70.75793L420.2 70.47363L431.05 72.47269L441.9 68.85242L452.75 71.06208L463.6 70.81409L474.45 69.76062L485.3 70.22249L496.15 71.901146L507 69.45232" stroke="#8134AF" stroke-width="1.6666666" fill="none" />
                        <path transform="matrix(1 0 0 1 73 371.82077)"  d="M1.9390241E-16 -3.1666667C 1.7489017 -3.1666667 3.1666667 -1.7489017 3.1666667 0L3.1666667 0L3.1666667 7.7560965E-16C 3.1666667 1.7489017 1.7489017 3.1666667 -5.8170724E-16 3.1666667C -1.7489017 3.1666667 -3.1666667 1.7489017 -3.1666667 -3.8780482E-16C -3.1666667 -1.7489017 -1.7489017 -3.1666667 1.9390241E-16 -3.1666667zM2.959563E-16 -4.8333335C -2.6693764 -4.8333335 -4.8333335 -2.6693764 -4.8333335 -5.919126E-16C -4.8333335 2.6693764 -2.6693764 4.8333335 -8.8786894E-16 4.8333335C 2.6693764 4.8333335 4.8333335 2.6693764 4.8333335 1.1838252E-15L4.8333335 1.1838252E-15L4.8333335 0C 4.8333335 -2.6693764 2.6693764 -4.8333335 2.959563E-16 -4.8333335z" stroke="none" fill="#8134AF" fill-rule="nonzero" />
                        <path transform="matrix(1 0 0 1 83.85 361.15894)"  d="M1.9390241E-16 -3.1666667C 1.7489017 -3.1666667 3.1666667 -1.7489017 3.1666667 0L3.1666667 0L3.1666667 7.7560965E-16C 3.1666667 1.7489017 1.7489017 3.1666667 -5.8170724E-16 3.1666667C -1.7489017 3.1666667 -3.1666667 1.7489017 -3.1666667 -3.8780482E-16C -3.1666667 -1.7489017 -1.7489017 -3.1666667 1.9390241E-16 -3.1666667zM2.959563E-16 -4.8333335C -2.6693764 -4.8333335 -4.8333335 -2.6693764 -4.8333335 -5.919126E-16C -4.8333335 2.6693764 -2.6693764 4.8333335 -8.8786894E-16 4.8333335C 2.6693764 4.8333335 4.8333335 2.6693764 4.8333335 1.1838252E-15L4.8333335 1.1838252E-15L4.8333335 0C 4.8333335 -2.6693764 2.6693764 -4.8333335 2.959563E-16 -4.8333335z" stroke="none" fill="#8134AF" fill-rule="nonzero" />
                        <path transform="matrix(1 0 0 1 94.7 347.9958)"  d="M1.9390241E-16 -3.1666667C 1.7489017 -3.1666667 3.1666667 -1.7489017 3.1666667 0L3.1666667 0L3.1666667 7.7560965E-16C 3.1666667 1.7489017 1.7489017 3.1666667 -5.8170724E-16 3.1666667C -1.7489017 3.1666667 -3.1666667 1.7489017 -3.1666667 -3.8780482E-16C -3.1666667 -1.7489017 -1.7489017 -3.1666667 1.9390241E-16 -3.1666667zM2.959563E-16 -4.8333335C -2.6693764 -4.8333335 -4.8333335 -2.6693764 -4.8333335 -5.919126E-16C -4.8333335 2.6693764 -2.6693764 4.8333335 -8.8786894E-16 4.8333335C 2.6693764 4.8333335 4.8333335 2.6693764 4.8333335 1.1838252E-15L4.8333335 1.1838252E-15L4.8333335 0C 4.8333335 -2.6693764 2.6693764 -4.8333335 2.959563E-16 -4.8333335z" stroke="none" fill="#8134AF" fill-rule="nonzero" />
                        <path transform="matrix(1 0 0 1 105.55 334.8046)"  d="M1.9390241E-16 -3.1666667C 1.7489017 -3.1666667 3.1666667 -1.7489017 3.1666667 0L3.1666667 0L3.1666667 7.7560965E-16C 3.1666667 1.7489017 1.7489017 3.1666667 -5.8170724E-16 3.1666667C -1.7489017 3.1666667 -3.1666667 1.7489017 -3.1666667 -3.8780482E-16C -3.1666667 -1.7489017 -1.7489017 -3.1666667 1.9390241E-16 -3.1666667zM2.959563E-16 -4.8333335C -2.6693764 -4.8333335 -4.8333335 -2.6693764 -4.8333335 -5.919126E-16C -4.8333335 2.6693764 -2.6693764 4.8333335 -8.8786894E-16 4.8333335C 2.6693764 4.8333335 4.8333335 2.6693764 4.8333335 1.1838252E-15L4.8333335 1.1838252E-15L4.8333335 0C 4.8333335 -2.6693764 2.6693764 -4.8333335 2.959563E-16 -4.8333335z" stroke="none" fill="#8134AF" fill-rule="nonzero" />
                        <path transform="matrix(1 0 0 1 116.4 324.69894)"  d="M1.9390241E-16 -3.1666667C 1.7489017 -3.1666667 3.1666667 -1.7489017 3.1666667 0L3.1666667 0L3.1666667 7.7560965E-16C 3.1666667 1.7489017 1.7489017 3.1666667 -5.8170724E-16 3.1666667C -1.7489017 3.1666667 -3.1666667 1.7489017 -3.1666667 -3.8780482E-16C -3.1666667 -1.7489017 -1.7489017 -3.1666667 1.9390241E-16 -3.1666667zM2.959563E-16 -4.8333335C -2.6693764 -4.8333335 -4.8333335 -2.6693764 -4.8333335 -5.919126E-16C -4.8333335 2.6693764 -2.6693764 4.8333335 -8.8786894E-16 4.8333335C 2.6693764 4.8333335 4.8333335 2.6693764 4.8333335 1.1838252E-15L4.8333335 1.1838252E-15L4.8333335 0C 4.8333335 -2.6693764 2.6693764 -4.8333335 2.959563E-16 -4.8333335z" stroke="none" fill="#8134AF" fill-rule="nonzero" />
                        <path transform="matrix(1 0 0 1 127.25 317.40286)"  d="M1.9390241E-16 -3.1666667C 1.7489017 -3.1666667 3.1666667 -1.7489017 3.1666667 0L3.1666667 0L3.1666667 7.7560965E-16C 3.1666667 1.7489017 1.7489017 3.1666667 -5.8170724E-16 3.1666667C -1.7489017 3.1666667 -3.1666667 1.7489017 -3.1666667 -3.8780482E-16C -3.1666667 -1.7489017 -1.7489017 -3.1666667 1.9390241E-16 -3.1666667zM2.959563E-16 -4.8333335C -2.6693764 -4.8333335 -4.8333335 -2.6693764 -4.8333335 -5.919126E-16C -4.8333335 2.6693764 -2.6693764 4.8333335 -8.8786894E-16 4.8333335C 2.6693764 4.8333335 4.8333335 2.6693764 4.8333335 1.1838252E-15L4.8333335 1.1838252E-15L4.8333335 0C 4.8333335 -2.6693764 2.6693764 -4.8333335 2.959563E-16 -4.8333335z" stroke="none" fill="#8134AF" fill-rule="nonzero" />
                        <path transform="matrix(1 0 0 1 138.1 303.89664)"  d="M1.9390241E-16 -3.1666667C 1.7489017 -3.1666667 3.1666667 -1.7489017 3.1666667 0L3.1666667 0L3.1666667 7.7560965E-16C 3.1666667 1.7489017 1.7489017 3.1666667 -5.8170724E-16 3.1666667C -1.7489017 3.1666667 -3.1666667 1.7489017 -3.1666667 -3.8780482E-16C -3.1666667 -1.7489017 -1.7489017 -3.1666667 1.9390241E-16 -3.1666667zM2.959563E-16 -4.8333335C -2.6693764 -4.8333335 -4.8333335 -2.6693764 -4.8333335 -5.919126E-16C -4.8333335 2.6693764 -2.6693764 4.8333335 -8.8786894E-16 4.8333335C 2.6693764 4.8333335 4.8333335 2.6693764 4.8333335 1.1838252E-15L4.8333335 1.1838252E-15L4.8333335 0C 4.8333335 -2.6693764 2.6693764 -4.8333335 2.959563E-16 -4.8333335z" stroke="none" fill="#8134AF" fill-rule="nonzero" />
                        <path transform="matrix(1 0 0 1 148.95 280.04797)"  d="M1.9390241E-16 -3.1666667C 1.7489017 -3.1666667 3.1666667 -1.7489017 3.1666667 0L3.1666667 0L3.1666667 7.7560965E-16C 3.1666667 1.7489017 1.7489017 3.1666667 -5.8170724E-16 3.1666667C -1.7489017 3.1666667 -3.1666667 1.7489017 -3.1666667 -3.8780482E-16C -3.1666667 -1.7489017 -1.7489017 -3.1666667 1.9390241E-16 -3.1666667zM2.959563E-16 -4.8333335C -2.6693764 -4.8333335 -4.8333335 -2.6693764 -4.8333335 -5.919126E-16C -4.8333335 2.6693764 -2.6693764 4.8333335 -8.8786894E-16 4.8333335C 2.6693764 4.8333335 4.8333335 2.6693764 4.8333335 1.1838252E-15L4.8333335 1.1838252E-15L4.8333335 0C 4.8333335 -2.6693764 2.6693764 -4.8333335 2.959563E-16 -4.8333335z" stroke="none" fill="#8134AF" fill-rule="nonzero" />
                        <path transform="matrix(1 0 0 1 159.8 260.8821)"  d="M1.9390241E-16 -3.1666667C 1.7489017 -3.1666667 3.1666667 -1.7489017 3.1666667 0L3.1666667 0L3.1666667 7.7560965E-16C 3.1666667 1.7489017 1.7489017 3.1666667 -5.8170724E-16 3.1666667C -1.7489017 3.1666667 -3.1666667 1.7489017 -3.1666667 -3.8780482E-16C -3.1666667 -1.7489017 -1.7489017 -3.1666667 1.9390241E-16 -3.1666667zM2.959563E-16 -4.8333335C -2.6693764 -4.8333335 -4.8333335 -2.6693764 -4.8333335 -5.919126E-16C -4.8333335 2.6693764 -2.6693764 4.8333335 -8.8786894E-16 4.8333335C 2.6693764 4.8333335 4.8333335 2.6693764 4.8333335 1.1838252E-15L4.8333335 1.1838252E-15L4.8333335 0C 4.8333335 -2.6693764 2.6693764 -4.8333335 2.959563E-16 -4.8333335z" stroke="none" fill="#8134AF" fill-rule="nonzero" />
                        <path transform="matrix(1 0 0 1 170.65 246.46718)"  d="M1.9390241E-16 -3.1666667C 1.7489017 -3.1666667 3.1666667 -1.7489017 3.1666667 0L3.1666667 0L3.1666667 7.7560965E-16C 3.1666667 1.7489017 1.7489017 3.1666667 -5.8170724E-16 3.1666667C -1.7489017 3.1666667 -3.1666667 1.7489017 -3.1666667 -3.8780482E-16C -3.1666667 -1.7489017 -1.7489017 -3.1666667 1.9390241E-16 -3.1666667zM2.959563E-16 -4.8333335C -2.6693764 -4.8333335 -4.8333335 -2.6693764 -4.8333335 -5.919126E-16C -4.8333335 2.6693764 -2.6693764 4.8333335 -8.8786894E-16 4.8333335C 2.6693764 4.8333335 4.8333335 2.6693764 4.8333335 1.1838252E-15L4.8333335 1.1838252E-15L4.8333335 0C 4.8333335 -2.6693764 2.6693764 -4.8333335 2.959563E-16 -4.8333335z" stroke="none" fill="#8134AF" fill-rule="nonzero" />
                        <path transform="matrix(1 0 0 1 181.5 226.8172)"  d="M1.9390241E-16 -3.1666667C 1.7489017 -3.1666667 3.1666667 -1.7489017 3.1666667 0L3.1666667 0L3.1666667 7.7560965E-16C 3.1666667 1.7489017 1.7489017 3.1666667 -5.8170724E-16 3.1666667C -1.7489017 3.1666667 -3.1666667 1.7489017 -3.1666667 -3.8780482E-16C -3.1666667 -1.7489017 -1.7489017 -3.1666667 1.9390241E-16 -3.1666667zM2.959563E-16 -4.8333335C -2.6693764 -4.8333335 -4.8333335 -2.6693764 -4.8333335 -5.919126E-16C -4.8333335 2.6693764 -2.6693764 4.8333335 -8.8786894E-16 4.8333335C 2.6693764 4.8333335 4.8333335 2.6693764 4.8333335 1.1838252E-15L4.8333335 1.1838252E-15L4.8333335 0C 4.8333335 -2.6693764 2.6693764 -4.8333335 2.959563E-16 -4.8333335z" stroke="none" fill="#8134AF" fill-rule="nonzero" />
                        <path transform="matrix(1 0 0 1 192.35 219.71326)"  d="M1.9390241E-16 -3.1666667C 1.7489017 -3.1666667 3.1666667 -1.7489017 3.1666667 0L3.1666667 0L3.1666667 7.7560965E-16C 3.1666667 1.7489017 1.7489017 3.1666667 -5.8170724E-16 3.1666667C -1.7489017 3.1666667 -3.1666667 1.7489017 -3.1666667 -3.8780482E-16C -3.1666667 -1.7489017 -1.7489017 -3.1666667 1.9390241E-16 -3.1666667zM2.959563E-16 -4.8333335C -2.6693764 -4.8333335 -4.8333335 -2.6693764 -4.8333335 -5.919126E-16C -4.8333335 2.6693764 -2.6693764 4.8333335 -8.8786894E-16 4.8333335C 2.6693764 4.8333335 4.8333335 2.6693764 4.8333335 1.1838252E-15L4.8333335 1.1838252E-15L4.8333335 0C 4.8333335 -2.6693764 2.6693764 -4.8333335 2.959563E-16 -4.8333335z" stroke="none" fill="#8134AF" fill-rule="nonzero" />
                        <path transform="matrix(1 0 0 1 203.2 200.30884)"  d="M1.9390241E-16 -3.1666667C 1.7489017 -3.1666667 3.1666667 -1.7489017 3.1666667 0L3.1666667 0L3.1666667 7.7560965E-16C 3.1666667 1.7489017 1.7489017 3.1666667 -5.8170724E-16 3.1666667C -1.7489017 3.1666667 -3.1666667 1.7489017 -3.1666667 -3.8780482E-16C -3.1666667 -1.7489017 -1.7489017 -3.1666667 1.9390241E-16 -3.1666667zM2.959563E-16 -4.8333335C -2.6693764 -4.8333335 -4.8333335 -2.6693764 -4.8333335 -5.919126E-16C -4.8333335 2.6693764 -2.6693764 4.8333335 -8.8786894E-16 4.8333335C 2.6693764 4.8333335 4.8333335 2.6693764 4.8333335 1.1838252E-15L4.8333335 1.1838252E-15L4.8333335 0C 4.8333335 -2.6693764 2.6693764 -4.8333335 2.959563E-16 -4.8333335z" stroke="none" fill="#8134AF" fill-rule="nonzero" />
                        <path transform="matrix(1 0 0 1 214.05 181.63634)"  d="M1.9390241E-16 -3.1666667C 1.7489017 -3.1666667 3.1666667 -1.7489017 3.1666667 0L3.1666667 0L3.1666667 7.7560965E-16C 3.1666667 1.7489017 1.7489017 3.1666667 -5.8170724E-16 3.1666667C -1.7489017 3.1666667 -3.1666667 1.7489017 -3.1666667 -3.8780482E-16C -3.1666667 -1.7489017 -1.7489017 -3.1666667 1.9390241E-16 -3.1666667zM2.959563E-16 -4.8333335C -2.6693764 -4.8333335 -4.8333335 -2.6693764 -4.8333335 -5.919126E-16C -4.8333335 2.6693764 -2.6693764 4.8333335 -8.8786894E-16 4.8333335C 2.6693764 4.8333335 4.8333335 2.6693764 4.8333335 1.1838252E-15L4.8333335 1.1838252E-15L4.8333335 0C 4.8333335 -2.6693764 2.6693764 -4.8333335 2.959563E-16 -4.8333335z" stroke="none" fill="#8134AF" fill-rule="nonzero" />
                        <path transform="matrix(1 0 0 1 224.9 162.25963)"  d="M1.9390241E-16 -3.1666667C 1.7489017 -3.1666667 3.1666667 -1.7489017 3.1666667 0L3.1666667 0L3.1666667 7.7560965E-16C 3.1666667 1.7489017 1.7489017 3.1666667 -5.8170724E-16 3.1666667C -1.7489017 3.1666667 -3.1666667 1.7489017 -3.1666667 -3.8780482E-16C -3.1666667 -1.7489017 -1.7489017 -3.1666667 1.9390241E-16 -3.1666667zM2.959563E-16 -4.8333335C -2.6693764 -4.8333335 -4.8333335 -2.6693764 -4.8333335 -5.919126E-16C -4.8333335 2.6693764 -2.6693764 4.8333335 -8.8786894E-16 4.8333335C 2.6693764 4.8333335 4.8333335 2.6693764 4.8333335 1.1838252E-15L4.8333335 1.1838252E-15L4.8333335 0C 4.8333335 -2.6693764 2.6693764 -4.8333335 2.959563E-16 -4.8333335z" stroke="none" fill="#8134AF" fill-rule="nonzero" />
                        <path transform="matrix(1 0 0 1 235.75 148.68233)"  d="M1.9390241E-16 -3.1666667C 1.7489017 -3.1666667 3.1666667 -1.7489017 3.1666667 0L3.1666667 0L3.1666667 7.7560965E-16C 3.1666667 1.7489017 1.7489017 3.1666667 -5.8170724E-16 3.1666667C -1.7489017 3.1666667 -3.1666667 1.7489017 -3.1666667 -3.8780482E-16C -3.1666667 -1.7489017 -1.7489017 -3.1666667 1.9390241E-16 -3.1666667zM2.959563E-16 -4.8333335C -2.6693764 -4.8333335 -4.8333335 -2.6693764 -4.8333335 -5.919126E-16C -4.8333335 2.6693764 -2.6693764 4.8333335 -8.8786894E-16 4.8333335C 2.6693764 4.8333335 4.8333335 2.6693764 4.8333335 1.1838252E-15L4.8333335 1.1838252E-15L4.8333335 0C 4.8333335 -2.6693764 2.6693764 -4.8333335 2.959563E-16 -4.8333335z" stroke="none" fill="#8134AF" fill-rule="nonzero" />
                        <path transform="matrix(1 0 0 1 246.6 131.02763)"  d="M1.9390241E-16 -3.1666667C 1.7489017 -3.1666667 3.1666667 -1.7489017 3.1666667 0L3.1666667 0L3.1666667 7.7560965E-16C 3.1666667 1.7489017 1.7489017 3.1666667 -5.8170724E-16 3.1666667C -1.7489017 3.1666667 -3.1666667 1.7489017 -3.1666667 -3.8780482E-16C -3.1666667 -1.7489017 -1.7489017 -3.1666667 1.9390241E-16 -3.1666667zM2.959563E-16 -4.8333335C -2.6693764 -4.8333335 -4.8333335 -2.6693764 -4.8333335 -5.919126E-16C -4.8333335 2.6693764 -2.6693764 4.8333335 -8.8786894E-16 4.8333335C 2.6693764 4.8333335 4.8333335 2.6693764 4.8333335 1.1838252E-15L4.8333335 1.1838252E-15L4.8333335 0C 4.8333335 -2.6693764 2.6693764 -4.8333335 2.959563E-16 -4.8333335z" stroke="none" fill="#8134AF" fill-rule="nonzero" />
                        <path transform="matrix(1 0 0 1 257.45 124.640144)"  d="M1.9390241E-16 -3.1666667C 1.7489017 -3.1666667 3.1666667 -1.7489017 3.1666667 0L3.1666667 0L3.1666667 7.7560965E-16C 3.1666667 1.7489017 1.7489017 3.1666667 -5.8170724E-16 3.1666667C -1.7489017 3.1666667 -3.1666667 1.7489017 -3.1666667 -3.8780482E-16C -3.1666667 -1.7489017 -1.7489017 -3.1666667 1.9390241E-16 -3.1666667zM2.959563E-16 -4.8333335C -2.6693764 -4.8333335 -4.8333335 -2.6693764 -4.8333335 -5.919126E-16C -4.8333335 2.6693764 -2.6693764 4.8333335 -8.8786894E-16 4.8333335C 2.6693764 4.8333335 4.8333335 2.6693764 4.8333335 1.1838252E-15L4.8333335 1.1838252E-15L4.8333335 0C 4.8333335 -2.6693764 2.6693764 -4.8333335 2.959563E-16 -4.8333335z" stroke="none" fill="#8134AF" fill-rule="nonzero" />
                        <path transform="matrix(1 0 0 1 268.3 116.49154)"  d="M1.9390241E-16 -3.1666667C 1.7489017 -3.1666667 3.1666667 -1.7489017 3.1666667 0L3.1666667 0L3.1666667 7.7560965E-16C 3.1666667 1.7489017 1.7489017 3.1666667 -5.8170724E-16 3.1666667C -1.7489017 3.1666667 -3.1666667 1.7489017 -3.1666667 -3.8780482E-16C -3.1666667 -1.7489017 -1.7489017 -3.1666667 1.9390241E-16 -3.1666667zM2.959563E-16 -4.8333335C -2.6693764 -4.8333335 -4.8333335 -2.6693764 -4.8333335 -5.919126E-16C -4.8333335 2.6693764 -2.6693764 4.8333335 -8.8786894E-16 4.8333335C 2.6693764 4.8333335 4.8333335 2.6693764 4.8333335 1.1838252E-15L4.8333335 1.1838252E-15L4.8333335 0C 4.8333335 -2.6693764 2.6693764 -4.8333335 2.959563E-16 -4.8333335z" stroke="none" fill="#8134AF" fill-rule="nonzero" />
                        <path transform="matrix(1 0 0 1 279.15 95.89229)"  d="M1.9390241E-16 -3.1666667C 1.7489017 -3.1666667 3.1666667 -1.7489017 3.1666667 0L3.1666667 0L3.1666667 7.7560965E-16C 3.1666667 1.7489017 1.7489017 3.1666667 -5.8170724E-16 3.1666667C -1.7489017 3.1666667 -3.1666667 1.7489017 -3.1666667 -3.8780482E-16C -3.1666667 -1.7489017 -1.7489017 -3.1666667 1.9390241E-16 -3.1666667zM2.959563E-16 -4.8333335C -2.6693764 -4.8333335 -4.8333335 -2.6693764 -4.8333335 -5.919126E-16C -4.8333335 2.6693764 -2.6693764 4.8333335 -8.8786894E-16 4.8333335C 2.6693764 4.8333335 4.8333335 2.6693764 4.8333335 1.1838252E-15L4.8333335 1.1838252E-15L4.8333335 0C 4.8333335 -2.6693764 2.6693764 -4.8333335 2.959563E-16 -4.8333335z" stroke="none" fill="#8134AF" fill-rule="nonzero" />
                        <path transform="matrix(1 0 0 1 290 96.497765)"  d="M1.9390241E-16 -3.1666667C 1.7489017 -3.1666667 3.1666667 -1.7489017 3.1666667 0L3.1666667 0L3.1666667 7.7560965E-16C 3.1666667 1.7489017 1.7489017 3.1666667 -5.8170724E-16 3.1666667C -1.7489017 3.1666667 -3.1666667 1.7489017 -3.1666667 -3.8780482E-16C -3.1666667 -1.7489017 -1.7489017 -3.1666667 1.9390241E-16 -3.1666667zM2.959563E-16 -4.8333335C -2.6693764 -4.8333335 -4.8333335 -2.6693764 -4.8333335 -5.919126E-16C -4.8333335 2.6693764 -2.6693764 4.8333335 -8.8786894E-16 4.8333335C 2.6693764 4.8333335 4.8333335 2.6693764 4.8333335 1.1838252E-15L4.8333335 1.1838252E-15L4.8333335 0C 4.8333335 -2.6693764 2.6693764 -4.8333335 2.959563E-16 -4.8333335z" stroke="none" fill="#8134AF" fill-rule="nonzero" />
                        <path transform="matrix(1 0 0 1 300.85 88.409615)"  d="M1.9390241E-16 -3.1666667C 1.7489017 -3.1666667 3.1666667 -1.7489017 3.1666667 0L3.1666667 0L3.1666667 7.7560965E-16C 3.1666667 1.7489017 1.7489017 3.1666667 -5.8170724E-16 3.1666667C -1.7489017 3.1666667 -3.1666667 1.7489017 -3.1666667 -3.8780482E-16C -3.1666667 -1.7489017 -1.7489017 -3.1666667 1.9390241E-16 -3.1666667zM2.959563E-16 -4.8333335C -2.6693764 -4.8333335 -4.8333335 -2.6693764 -4.8333335 -5.919126E-16C -4.8333335 2.6693764 -2.6693764 4.8333335 -8.8786894E-16 4.8333335C 2.6693764 4.8333335 4.8333335 2.6693764 4.8333335 1.1838252E-15L4.8333335 1.1838252E-15L4.8333335 0C 4.8333335 -2.6693764 2.6693764 -4.8333335 2.959563E-16 -4.8333335z" stroke="none" fill="#8134AF" fill-rule="nonzero" />
                        <path transform="matrix(1 0 0 1 311.7 80.59682)"  d="M1.9390241E-16 -3.1666667C 1.7489017 -3.1666667 3.1666667 -1.7489017 3.1666667 0L3.1666667 0L3.1666667 7.7560965E-16C 3.1666667 1.7489017 1.7489017 3.1666667 -5.8170724E-16 3.1666667C -1.7489017 3.1666667 -3.1666667 1.7489017 -3.1666667 -3.8780482E-16C -3.1666667 -1.7489017 -1.7489017 -3.1666667 1.9390241E-16 -3.1666667zM2.959563E-16 -4.8333335C -2.6693764 -4.8333335 -4.8333335 -2.6693764 -4.8333335 -5.919126E-16C -4.8333335 2.6693764 -2.6693764 4.8333335 -8.8786894E-16 4.8333335C 2.6693764 4.8333335 4.8333335 2.6693764 4.8333335 1.1838252E-15L4.8333335 1.1838252E-15L4.8333335 0C 4.8333335 -2.6693764 2.6693764 -4.8333335 2.959563E-16 -4.8333335z" stroke="none" fill="#8134AF" fill-rule="nonzero" />
                        <path transform="matrix(1 0 0 1 322.55 77.00713)"  d="M1.9390241E-16 -3.1666667C 1.7489017 -3.1666667 3.1666667 -1.7489017 3.1666667 0L3.1666667 0L3.1666667 7.7560965E-16C 3.1666667 1.7489017 1.7489017 3.1666667 -5.8170724E-16 3.1666667C -1.7489017 3.1666667 -3.1666667 1.7489017 -3.1666667 -3.8780482E-16C -3.1666667 -1.7489017 -1.7489017 -3.1666667 1.9390241E-16 -3.1666667zM2.959563E-16 -4.8333335C -2.6693764 -4.8333335 -4.8333335 -2.6693764 -4.8333335 -5.919126E-16C -4.8333335 2.6693764 -2.6693764 4.8333335 -8.8786894E-16 4.8333335C 2.6693764 4.8333335 4.8333335 2.6693764 4.8333335 1.1838252E-15L4.8333335 1.1838252E-15L4.8333335 0C 4.8333335 -2.6693764 2.6693764 -4.8333335 2.959563E-16 -4.8333335z" stroke="none" fill="#8134AF" fill-rule="nonzero" />
                        <path transform="matrix(1 0 0 1 333.4 77.36535)"  d="M1.9390241E-16 -3.1666667C 1.7489017 -3.1666667 3.1666667 -1.7489017 3.1666667 0L3.1666667 0L3.1666667 7.7560965E-16C 3.1666667 1.7489017 1.7489017 3.1666667 -5.8170724E-16 3.1666667C -1.7489017 3.1666667 -3.1666667 1.7489017 -3.1666667 -3.8780482E-16C -3.1666667 -1.7489017 -1.7489017 -3.1666667 1.9390241E-16 -3.1666667zM2.959563E-16 -4.8333335C -2.6693764 -4.8333335 -4.8333335 -2.6693764 -4.8333335 -5.919126E-16C -4.8333335 2.6693764 -2.6693764 4.8333335 -8.8786894E-16 4.8333335C 2.6693764 4.8333335 4.8333335 2.6693764 4.8333335 1.1838252E-15L4.8333335 1.1838252E-15L4.8333335 0C 4.8333335 -2.6693764 2.6693764 -4.8333335 2.959563E-16 -4.8333335z" stroke="none" fill="#8134AF" fill-rule="nonzero" />
                        <path transform="matrix(1 0 0 1 344.25 76.18016)"  d="M1.9390241E-16 -3.1666667C 1.7489017 -3.1666667 3.1666667 -1.7489017 3.1666667 0L3.1666667 0L3.1666667 7.7560965E-16C 3.1666667 1.7489017 1.7489017 3.1666667 -5.8170724E-16 3.1666667C -1.7489017 3.1666667 -3.1666667 1.7489017 -3.1666667 -3.8780482E-16C -3.1666667 -1.7489017 -1.7489017 -3.1666667 1.9390241E-16 -3.1666667zM2.959563E-16 -4.8333335C -2.6693764 -4.8333335 -4.8333335 -2.6693764 -4.8333335 -5.919126E-16C -4.8333335 2.6693764 -2.6693764 4.8333335 -8.8786894E-16 4.8333335C 2.6693764 4.8333335 4.8333335 2.6693764 4.8333335 1.1838252E-15L4.8333335 1.1838252E-15L4.8333335 0C 4.8333335 -2.6693764 2.6693764 -4.8333335 2.959563E-16 -4.8333335z" stroke="none" fill="#8134AF" fill-rule="nonzero" />
                        <path transform="matrix(1 0 0 1 355.1 74.178795)"  d="M1.9390241E-16 -3.1666667C 1.7489017 -3.1666667 3.1666667 -1.7489017 3.1666667 0L3.1666667 0L3.1666667 7.7560965E-16C 3.1666667 1.7489017 1.7489017 3.1666667 -5.8170724E-16 3.1666667C -1.7489017 3.1666667 -3.1666667 1.7489017 -3.1666667 -3.8780482E-16C -3.1666667 -1.7489017 -1.7489017 -3.1666667 1.9390241E-16 -3.1666667zM2.959563E-16 -4.8333335C -2.6693764 -4.8333335 -4.8333335 -2.6693764 -4.8333335 -5.919126E-16C -4.8333335 2.6693764 -2.6693764 4.8333335 -8.8786894E-16 4.8333335C 2.6693764 4.8333335 4.8333335 2.6693764 4.8333335 1.1838252E-15L4.8333335 1.1838252E-15L4.8333335 0C 4.8333335 -2.6693764 2.6693764 -4.8333335 2.959563E-16 -4.8333335z" stroke="none" fill="#8134AF" fill-rule="nonzero" />
                        <path transform="matrix(1 0 0 1 365.95 72.04394)"  d="M1.9390241E-16 -3.1666667C 1.7489017 -3.1666667 3.1666667 -1.7489017 3.1666667 0L3.1666667 0L3.1666667 7.7560965E-16C 3.1666667 1.7489017 1.7489017 3.1666667 -5.8170724E-16 3.1666667C -1.7489017 3.1666667 -3.1666667 1.7489017 -3.1666667 -3.8780482E-16C -3.1666667 -1.7489017 -1.7489017 -3.1666667 1.9390241E-16 -3.1666667zM2.959563E-16 -4.8333335C -2.6693764 -4.8333335 -4.8333335 -2.6693764 -4.8333335 -5.919126E-16C -4.8333335 2.6693764 -2.6693764 4.8333335 -8.8786894E-16 4.8333335C 2.6693764 4.8333335 4.8333335 2.6693764 4.8333335 1.1838252E-15L4.8333335 1.1838252E-15L4.8333335 0C 4.8333335 -2.6693764 2.6693764 -4.8333335 2.959563E-16 -4.8333335z" stroke="none" fill="#8134AF" fill-rule="nonzero" />
                        <path transform="matrix(1 0 0 1 376.8 72.4334)"  d="M1.9390241E-16 -3.1666667C 1.7489017 -3.1666667 3.1666667 -1.7489017 3.1666667 0L3.1666667 0L3.1666667 7.7560965E-16C 3.1666667 1.7489017 1.7489017 3.1666667 -5.8170724E-16 3.1666667C -1.7489017 3.1666667 -3.1666667 1.7489017 -3.1666667 -3.8780482E-16C -3.1666667 -1.7489017 -1.7489017 -3.1666667 1.9390241E-16 -3.1666667zM2.959563E-16 -4.8333335C -2.6693764 -4.8333335 -4.8333335 -2.6693764 -4.8333335 -5.919126E-16C -4.8333335 2.6693764 -2.6693764 4.8333335 -8.8786894E-16 4.8333335C 2.6693764 4.8333335 4.8333335 2.6693764 4.8333335 1.1838252E-15L4.8333335 1.1838252E-15L4.8333335 0C 4.8333335 -2.6693764 2.6693764 -4.8333335 2.959563E-16 -4.8333335z" stroke="none" fill="#8134AF" fill-rule="nonzero" />
                        <path transform="matrix(1 0 0 1 387.65 71.68902)"  d="M1.9390241E-16 -3.1666667C 1.7489017 -3.1666667 3.1666667 -1.7489017 3.1666667 0L3.1666667 0L3.1666667 7.7560965E-16C 3.1666667 1.7489017 1.7489017 3.1666667 -5.8170724E-16 3.1666667C -1.7489017 3.1666667 -3.1666667 1.7489017 -3.1666667 -3.8780482E-16C -3.1666667 -1.7489017 -1.7489017 -3.1666667 1.9390241E-16 -3.1666667zM2.959563E-16 -4.8333335C -2.6693764 -4.8333335 -4.8333335 -2.6693764 -4.8333335 -5.919126E-16C -4.8333335 2.6693764 -2.6693764 4.8333335 -8.8786894E-16 4.8333335C 2.6693764 4.8333335 4.8333335 2.6693764 4.8333335 1.1838252E-15L4.8333335 1.1838252E-15L4.8333335 0C 4.8333335 -2.6693764 2.6693764 -4.8333335 2.959563E-16 -4.8333335z" stroke="none" fill="#8134AF" fill-rule="nonzero" />
                        <path transform="matrix(1 0 0 1 398.5 70.75871)"  d="M1.9390241E-16 -3.1666667C 1.7489017 -3.1666667 3.1666667 -1.7489017 3.1666667 0L3.1666667 0L3.1666667 7.7560965E-16C 3.1666667 1.7489017 1.7489017 3.1666667 -5.8170724E-16 3.1666667C -1.7489017 3.1666667 -3.1666667 1.7489017 -3.1666667 -3.8780482E-16C -3.1666667 -1.7489017 -1.7489017 -3.1666667 1.9390241E-16 -3.1666667zM2.959563E-16 -4.8333335C -2.6693764 -4.8333335 -4.8333335 -2.6693764 -4.8333335 -5.919126E-16C -4.8333335 2.6693764 -2.6693764 4.8333335 -8.8786894E-16 4.8333335C 2.6693764 4.8333335 4.8333335 2.6693764 4.8333335 1.1838252E-15L4.8333335 1.1838252E-15L4.8333335 0C 4.8333335 -2.6693764 2.6693764 -4.8333335 2.959563E-16 -4.8333335z" stroke="none" fill="#8134AF" fill-rule="nonzero" />
                        <path transform="matrix(1 0 0 1 409.35 70.75793)"  d="M1.9390241E-16 -3.1666667C 1.7489017 -3.1666667 3.1666667 -1.7489017 3.1666667 0L3.1666667 0L3.1666667 7.7560965E-16C 3.1666667 1.7489017 1.7489017 3.1666667 -5.8170724E-16 3.1666667C -1.7489017 3.1666667 -3.1666667 1.7489017 -3.1666667 -3.8780482E-16C -3.1666667 -1.7489017 -1.7489017 -3.1666667 1.9390241E-16 -3.1666667zM2.959563E-16 -4.8333335C -2.6693764 -4.8333335 -4.8333335 -2.6693764 -4.8333335 -5.919126E-16C -4.8333335 2.6693764 -2.6693764 4.8333335 -8.8786894E-16 4.8333335C 2.6693764 4.8333335 4.8333335 2.6693764 4.8333335 1.1838252E-15L4.8333335 1.1838252E-15L4.8333335 0C 4.8333335 -2.6693764 2.6693764 -4.8333335 2.959563E-16 -4.8333335z" stroke="none" fill="#8134AF" fill-rule="nonzero" />
                        <path transform="matrix(1 0 0 1 420.2 70.47363)"  d="M1.9390241E-16 -3.1666667C 1.7489017 -3.1666667 3.1666667 -1.7489017 3.1666667 0L3.1666667 0L3.1666667 7.7560965E-16C 3.1666667 1.7489017 1.7489017 3.1666667 -5.8170724E-16 3.1666667C -1.7489017 3.1666667 -3.1666667 1.7489017 -3.1666667 -3.8780482E-16C -3.1666667 -1.7489017 -1.7489017 -3.1666667 1.9390241E-16 -3.1666667zM2.959563E-16 -4.8333335C -2.6693764 -4.8333335 -4.8333335 -2.6693764 -4.8333335 -5.919126E-16C -4.8333335 2.6693764 -2.6693764 4.8333335 -8.8786894E-16 4.8333335C 2.6693764 4.8333335 4.8333335 2.6693764 4.8333335 1.1838252E-15L4.8333335 1.1838252E-15L4.8333335 0C 4.8333335 -2.6693764 2.6693764 -4.8333335 2.959563E-16 -4.8333335z" stroke="none" fill="#8134AF" fill-rule="nonzero" />
                        <path transform="matrix(1 0 0 1 431.05 72.47269)"  d="M1.9390241E-16 -3.1666667C 1.7489017 -3.1666667 3.1666667 -1.7489017 3.1666667 0L3.1666667 0L3.1666667 7.7560965E-16C 3.1666667 1.7489017 1.7489017 3.1666667 -5.8170724E-16 3.1666667C -1.7489017 3.1666667 -3.1666667 1.7489017 -3.1666667 -3.8780482E-16C -3.1666667 -1.7489017 -1.7489017 -3.1666667 1.9390241E-16 -3.1666667zM2.959563E-16 -4.8333335C -2.6693764 -4.8333335 -4.8333335 -2.6693764 -4.8333335 -5.919126E-16C -4.8333335 2.6693764 -2.6693764 4.8333335 -8.8786894E-16 4.8333335C 2.6693764 4.8333335 4.8333335 2.6693764 4.8333335 1.1838252E-15L4.8333335 1.1838252E-15L4.8333335 0C 4.8333335 -2.6693764 2.6693764 -4.8333335 2.959563E-16 -4.8333335z" stroke="none" fill="#8134AF" fill-rule="nonzero" />
                        <path transform="matrix(1 0 0 1 441.9 68.85242)"  d="M1.9390241E-16 -3.1666667C 1.7489017 -3.1666667 3.1666667 -1.7489017 3.1666667 0L3.1666667 0L3.1666667 7.7560965E-16C 3.1666667 1.7489017 1.7489017 3.1666667 -5.8170724E-16 3.1666667C -1.7489017 3.1666667 -3.1666667 1.7489017 -3.1666667 -3.8780482E-16C -3.1666667 -1.7489017 -1.7489017 -3.1666667 1.9390241E-16 -3.1666667zM2.959563E-16 -4.8333335C -2.6693764 -4.8333335 -4.8333335 -2.6693764 -4.8333335 -5.919126E-16C -4.8333335 2.6693764 -2.6693764 4.8333335 -8.8786894E-16 4.8333335C 2.6693764 4.8333335 4.8333335 2.6693764 4.8333335 1.1838252E-15L4.8333335 1.1838252E-15L4.8333335 0C 4.8333335 -2.6693764 2.6693764 -4.8333335 2.959563E-16 -4.8333335z" stroke="none" fill="#8134AF" fill-rule="nonzero" />
                        <path transform="matrix(1 0 0 1 452.75 71.06208)"  d="M1.9390241E-16 -3.1666667C 1.7489017 -3.1666667 3.1666667 -1.7489017 3.1666667 0L3.1666667 0L3.1666667 7.7560965E-16C 3.1666667 1.7489017 1.7489017 3.1666667 -5.8170724E-16 3.1666667C -1.7489017 3.1666667 -3.1666667 1.7489017 -3.1666667 -3.8780482E-16C -3.1666667 -1.7489017 -1.7489017 -3.1666667 1.9390241E-16 -3.1666667zM2.959563E-16 -4.8333335C -2.6693764 -4.8333335 -4.8333335 -2.6693764 -4.8333335 -5.919126E-16C -4.8333335 2.6693764 -2.6693764 4.8333335 -8.8786894E-16 4.8333335C 2.6693764 4.8333335 4.8333335 2.6693764 4.8333335 1.1838252E-15L4.8333335 1.1838252E-15L4.8333335 0C 4.8333335 -2.6693764 2.6693764 -4.8333335 2.959563E-16 -4.8333335z" stroke="none" fill="#8134AF" fill-rule="nonzero" />
                        <path transform="matrix(1 0 0 1 463.6 70.81409)"  d="M1.9390241E-16 -3.1666667C 1.7489017 -3.1666667 3.1666667 -1.7489017 3.1666667 0L3.1666667 0L3.1666667 7.7560965E-16C 3.1666667 1.7489017 1.7489017 3.1666667 -5.8170724E-16 3.1666667C -1.7489017 3.1666667 -3.1666667 1.7489017 -3.1666667 -3.8780482E-16C -3.1666667 -1.7489017 -1.7489017 -3.1666667 1.9390241E-16 -3.1666667zM2.959563E-16 -4.8333335C -2.6693764 -4.8333335 -4.8333335 -2.6693764 -4.8333335 -5.919126E-16C -4.8333335 2.6693764 -2.6693764 4.8333335 -8.8786894E-16 4.8333335C 2.6693764 4.8333335 4.8333335 2.6693764 4.8333335 1.1838252E-15L4.8333335 1.1838252E-15L4.8333335 0C 4.8333335 -2.6693764 2.6693764 -4.8333335 2.959563E-16 -4.8333335z" stroke="none" fill="#8134AF" fill-rule="nonzero" />
                        <path transform="matrix(1 0 0 1 474.45 69.76062)"  d="M1.9390241E-16 -3.1666667C 1.7489017 -3.1666667 3.1666667 -1.7489017 3.1666667 0L3.1666667 0L3.1666667 7.7560965E-16C 3.1666667 1.7489017 1.7489017 3.1666667 -5.8170724E-16 3.1666667C -1.7489017 3.1666667 -3.1666667 1.7489017 -3.1666667 -3.8780482E-16C -3.1666667 -1.7489017 -1.7489017 -3.1666667 1.9390241E-16 -3.1666667zM2.959563E-16 -4.8333335C -2.6693764 -4.8333335 -4.8333335 -2.6693764 -4.8333335 -5.919126E-16C -4.8333335 2.6693764 -2.6693764 4.8333335 -8.8786894E-16 4.8333335C 2.6693764 4.8333335 4.8333335 2.6693764 4.8333335 1.1838252E-15L4.8333335 1.1838252E-15L4.8333335 0C 4.8333335 -2.6693764 2.6693764 -4.8333335 2.959563E-16 -4.8333335z" stroke="none" fill="#8134AF" fill-rule="nonzero" />
                        <path transform="matrix(1 0 0 1 485.3 70.22249)"  d="M1.9390241E-16 -3.1666667C 1.7489017 -3.1666667 3.1666667 -1.7489017 3.1666667 0L3.1666667 0L3.1666667 7.7560965E-16C 3.1666667 1.7489017 1.7489017 3.1666667 -5.8170724E-16 3.1666667C -1.7489017 3.1666667 -3.1666667 1.7489017 -3.1666667 -3.8780482E-16C -3.1666667 -1.7489017 -1.7489017 -3.1666667 1.9390241E-16 -3.1666667zM2.959563E-16 -4.8333335C -2.6693764 -4.8333335 -4.8333335 -2.6693764 -4.8333335 -5.919126E-16C -4.8333335 2.6693764 -2.6693764 4.8333335 -8.8786894E-16 4.8333335C 2.6693764 4.8333335 4.8333335 2.6693764 4.8333335 1.1838252E-15L4.8333335 1.1838252E-15L4.8333335 0C 4.8333335 -2.6693764 2.6693764 -4.8333335 2.959563E-16 -4.8333335z" stroke="none" fill="#8134AF" fill-rule="nonzero" />
                        <path transform="matrix(1 0 0 1 496.15 71.901146)"  d="M1.9390241E-16 -3.1666667C 1.7489017 -3.1666667 3.1666667 -1.7489017 3.1666667 0L3.1666667 0L3.1666667 7.7560965E-16C 3.1666667 1.7489017 1.7489017 3.1666667 -5.8170724E-16 3.1666667C -1.7489017 3.1666667 -3.1666667 1.7489017 -3.1666667 -3.8780482E-16C -3.1666667 -1.7489017 -1.7489017 -3.1666667 1.9390241E-16 -3.1666667zM2.959563E-16 -4.8333335C -2.6693764 -4.8333335 -4.8333335 -2.6693764 -4.8333335 -5.919126E-16C -4.8333335 2.6693764 -2.6693764 4.8333335 -8.8786894E-16 4.8333335C 2.6693764 4.8333335 4.8333335 2.6693764 4.8333335 1.1838252E-15L4.8333335 1.1838252E-15L4.8333335 0C 4.8333335 -2.6693764 2.6693764 -4.8333335 2.959563E-16 -4.8333335z" stroke="none" fill="#8134AF" fill-rule="nonzero" />
                        <path transform="matrix(1 0 0 1 507 69.45232)"  d="M1.9390241E-16 -3.1666667C 1.7489017 -3.1666667 3.1666667 -1.7489017 3.1666667 0L3.1666667 0L3.1666667 7.7560965E-16C 3.1666667 1.7489017 1.7489017 3.1666667 -5.8170724E-16 3.1666667C -1.7489017 3.1666667 -3.1666667 1.7489017 -3.1666667 -3.8780482E-16C -3.1666667 -1.7489017 -1.7489017 -3.1666667 1.9390241E-16 -3.1666667zM2.959563E-16 -4.8333335C -2.6693764 -4.8333335 -4.8333335 -2.6693764 -4.8333335 -5.919126E-16C -4.8333335 2.6693764 -2.6693764 4.8333335 -8.8786894E-16 4.8333335C 2.6693764 4.8333335 4.8333335 2.6693764 4.8333335 1.1838252E-15L4.8333335 1.1838252E-15L4.8333335 0C 4.8333335 -2.6693764 2.6693764 -4.8333335 2.959563E-16 -4.8333335z" stroke="none" fill="#8134AF" fill-rule="nonzero" />
                        <path transform="matrix(1 0 0 1 0 0)"  d="M73 370.95642L83.85 367.31528L94.7 357.3155L105.55 344.89996L116.4 330.6176L127.25 319.22958L138.1 300.79477L148.95 296.05438L159.8 277.31168L170.65 267.2204L181.5 239.32327L192.35 225.72865L203.2 215.85928L214.05 204.80893L224.9 175.79555L235.75 165.25792L246.6 141.48465L257.45 136.51706L268.3 117.06892L279.15 96.490906L290 89.47728L300.85 87.22308L311.7 73.63822L322.55 70.80904L333.4 69.43628L344.25 63.82672L355.1 64.49078L365.95 60.836407L376.8 61.619137L387.65 61.411243L398.5 60.31338L409.35 61.234516L420.2 60.704395L431.05 63.00287L441.9 59.930077L452.75 61.76248L463.6 60.231342L474.45 59.431118L485.3 59.883846L496.15 59.635387L507 62.385887" stroke="#DD2A7B" stroke-width="1.6666666" fill="none" />
                        <path transform="matrix(1 0 0 1 73 370.95642)"  d="M0 -5.332L-4.617512 2.666L4.617512 2.666z" stroke="#DD2A7B" stroke-width="1.6666666" fill="none" />
                        <path transform="matrix(1 0 0 1 83.85 367.31528)"  d="M0 -5.332L-4.617512 2.666L4.617512 2.666z" stroke="#DD2A7B" stroke-width="1.6666666" fill="none" />
                        <path transform="matrix(1 0 0 1 94.7 357.3155)"  d="M0 -5.332L-4.617512 2.666L4.617512 2.666z" stroke="#DD2A7B" stroke-width="1.6666666" fill="none" />
                        <path transform="matrix(1 0 0 1 105.55 344.89996)"  d="M0 -5.332L-4.617512 2.666L4.617512 2.666z" stroke="#DD2A7B" stroke-width="1.6666666" fill="none" />
                        <path transform="matrix(1 0 0 1 116.4 330.6176)"  d="M0 -5.332L-4.617512 2.666L4.617512 2.666z" stroke="#DD2A7B" stroke-width="1.6666666" fill="none" />
                        <path transform="matrix(1 0 0 1 127.25 319.22958)"  d="M0 -5.332L-4.617512 2.666L4.617512 2.666z" stroke="#DD2A7B" stroke-width="1.6666666" fill="none" />
                        <path transform="matrix(1 0 0 1 138.1 300.79477)"  d="M0 -5.332L-4.617512 2.666L4.617512 2.666z" stroke="#DD2A7B" stroke-width="1.6666666" fill="none" />
                        <path transform="matrix(1 0 0 1 148.95 296.05438)"  d="M0 -5.332L-4.617512 2.666L4.617512 2.666z" stroke="#DD2A7B" stroke-width="1.6666666" fill="none" />
                        <path transform="matrix(1 0 0 1 159.8 277.31168)"  d="M0 -5.332L-4.617512 2.666L4.617512 2.666z" stroke="#DD2A7B" stroke-width="1.6666666" fill="none" />
                        <path transform="matrix(1 0 0 1 170.65 267.2204)"  d="M0 -5.332L-4.617512 2.666L4.617512 2.666z" stroke="#DD2A7B" stroke-width="1.6666666" fill="none" />
                        <path transform="matrix(1 0 0 1 181.5 239.32327)"  d="M0 -5.332L-4.617512 2.666L4.617512 2.666z" stroke="#DD2A7B" stroke-width="1.6666666" fill="none" />
                        <path transform="matrix(1 0 0 1 192.35 225.72865)"  d="M0 -5.332L-4.617512 2.666L4.617512 2.666z" stroke="#DD2A7B" stroke-width="1.6666666" fill="none" />
                        <path transform="matrix(1 0 0 1 203.2 215.85928)"  d="M0 -5.332L-4.617512 2.666L4.617512 2.666z" stroke="#DD2A7B" stroke-width="1.6666666" fill="none" />
                        <path transform="matrix(1 0 0 1 214.05 204.80893)"  d="M0 -5.332L-4.617512 2.666L4.617512 2.666z" stroke="#DD2A7B" stroke-width="1.6666666" fill="none" />
                        <path transform="matrix(1 0 0 1 224.9 175.79555)"  d="M0 -5.332L-4.617512 2.666L4.617512 2.666z" stroke="#DD2A7B" stroke-width="1.6666666" fill="none" />
                        <path transform="matrix(1 0 0 1 235.75 165.25792)"  d="M0 -5.332L-4.617512 2.666L4.617512 2.666z" stroke="#DD2A7B" stroke-width="1.6666666" fill="none" />
                        <path transform="matrix(1 0 0 1 246.6 141.48465)"  d="M0 -5.332L-4.617512 2.666L4.617512 2.666z" stroke="#DD2A7B" stroke-width="1.6666666" fill="none" />
                        <path transform="matrix(1 0 0 1 257.45 136.51706)"  d="M0 -5.332L-4.617512 2.666L4.617512 2.666z" stroke="#DD2A7B" stroke-width="1.6666666" fill="none" />
                        <path transform="matrix(1 0 0 1 268.3 117.06892)"  d="M0 -5.332L-4.617512 2.666L4.617512 2.666z" stroke="#DD2A7B" stroke-width="1.6666666" fill="none" />
                        <path transform="matrix(1 0 0 1 279.15 96.490906)"  d="M0 -5.332L-4.617512 2.666L4.617512 2.666z" stroke="#DD2A7B" stroke-width="1.6666666" fill="none" />
                        <path transform="matrix(1 0 0 1 290 89.47728)"  d="M0 -5.332L-4.617512 2.666L4.617512 2.666z" stroke="#DD2A7B" stroke-width="1.6666666" fill="none" />
                        <path transform="matrix(1 0 0 1 300.85 87.22308)"  d="M0 -5.332L-4.617512 2.666L4.617512 2.666z" stroke="#DD2A7B" stroke-width="1.6666666" fill="none" />
                        <path transform="matrix(1 0 0 1 311.7 73.63822)"  d="M0 -5.332L-4.617512 2.666L4.617512 2.666z" stroke="#DD2A7B" stroke-width="1.6666666" fill="none" />
                        <path transform="matrix(1 0 0 1 322.55 70.80904)"  d="M0 -5.332L-4.617512 2.666L4.617512 2.666z" stroke="#DD2A7B" stroke-width="1.6666666" fill="none" />
                        <path transform="matrix(1 0 0 1 333.4 69.43628)"  d="M0 -5.332L-4.617512 2.666L4.617512 2.666z" stroke="#DD2A7B" stroke-width="1.6666666" fill="none" />
                        <path transform="matrix(1 0 0 1 344.25 63.82672)"  d="M0 -5.332L-4.617512 2.666L4.617512 2.666z" stroke="#DD2A7B" stroke-width="1.6666666" fill="none" />
                        <path transform="matrix(1 0 0 1 355.1 64.49078)"  d="M0 -5.332L-4.617512 2.666L4.617512 2.666z" stroke="#DD2A7B" stroke-width="1.6666666" fill="none" />
                        <path transform="matrix(1 0 0 1 365.95 60.836407)"  d="M0 -5.332L-4.617512 2.666L4.617512 2.666z" stroke="#DD2A7B" stroke-width="1.6666666" fill="none" />
                        <path transform="matrix(1 0 0 1 376.8 61.619137)"  d="M0 -5.332L-4.617512 2.666L4.617512 2.666z" stroke="#DD2A7B" stroke-width="1.6666666" fill="none" />
                        <path transform="matrix(1 0 0 1 387.65 61.411243)"  d="M0 -5.332L-4.617512 2.666L4.617512 2.666z" stroke="#DD2A7B" stroke-width="1.6666666" fill="none" />
                        <path transform="matrix(1 0 0 1 398.5 60.31338)"  d="M0 -5.332L-4.617512 2.666L4.617512 2.666z" stroke="#DD2A7B" stroke-width="1.6666666" fill="none" />
                        <path transform="matrix(1 0 0 1 409.35 61.234516)"  d="M0 -5.332L-4.617512 2.666L4.617512 2.666z" stroke="#DD2A7B" stroke-width="1.6666666" fill="none" />
                        <path transform="matrix(1 0 0 1 420.2 60.704395)"  d="M0 -5.332L-4.617512 2.666L4.617512 2.666z" stroke="#DD2A7B" stroke-width="1.6666666" fill="none" />
                        <path transform="matrix(1 0 0 1 431.05 63.00287)"  d="M0 -5.332L-4.617512 2.666L4.617512 2.666z" stroke="#DD2A7B" stroke-width="1.6666666" fill="none" />
                        <path transform="matrix(1 0 0 1 441.9 59.930077)"  d="M0 -5.332L-4.617512 2.666L4.617512 2.666z" stroke="#DD2A7B" stroke-width="1.6666666" fill="none" />
                        <path transform="matrix(1 0 0 1 452.75 61.76248)"  d="M0 -5.332L-4.617512 2.666L4.617512 2.666z" stroke="#DD2A7B" stroke-width="1.6666666" fill="none" />
                        <path transform="matrix(1 0 0 1 463.6 60.231342)"  d="M0 -5.332L-4.617512 2.666L4.617512 2.666z" stroke="#DD2A7B" stroke-width="1.6666666" fill="none" />
                        <path transform="matrix(1 0 0 1 474.45 59.431118)"  d="M0 -5.332L-4.617512 2.666L4.617512 2.666z" stroke="#DD2A7B" stroke-width="1.6666666" fill="none" />
                        <path transform="matrix(1 0 0 1 485.3 59.883846)"  d="M0 -5.332L-4.617512 2.666L4.617512 2.666z" stroke="#DD2A7B" stroke-width="1.6666666" fill="none" />
                        <path transform="matrix(1 0 0 1 496.15 59.635387)"  d="M0 -5.332L-4.617512 2.666L4.617512 2.666z" stroke="#DD2A7B" stroke-width="1.6666666" fill="none" />
                        <path transform="matrix(1 0 0 1 507 62.385887)"  d="M0 -5.332L-4.617512 2.666L4.617512 2.666z" stroke="#DD2A7B" stroke-width="1.6666666" fill="none" />
                        <path transform="matrix(1 0 0 1 0 0)"  d="M73 371.44614L83.85 368.7249L94.7 361.55328L105.55 356.64133L116.4 350.23282L127.25 338.91394L138.1 328.54294L148.95 317.70895L159.8 303.0462L170.65 290.17175L181.5 275.0827L192.35 258.6463L203.2 249.04391L214.05 229.71693L224.9 203.01921L235.75 183.25221L246.6 173.36955L257.45 154.82498L268.3 128.98102L279.15 123.548325L290 111.42273L300.85 101.48135L311.7 84.48496L322.55 83.46952L333.4 75.730644L344.25 70.12453L355.1 66.00936L365.95 64.92549L376.8 62.175488L387.65 63.604492L398.5 62.47523L409.35 63.249313L420.2 62.715336L431.05 60.661755L441.9 60.58249L452.75 61.138138L463.6 60.672268L474.45 62.78607L485.3 60.746277L496.15 61.754536L507 58.860165" stroke="#515BD4" stroke-width="1.6666666" fill="none" />
                        <path transform="matrix(1 0 0 1 73 371.44614)"  d="M0 5.332L-4.617512 -2.666L4.617512 -2.666z" stroke="#515BD4" stroke-width="1.6666666" fill="none" />
                        <path transform="matrix(1 0 0 1 83.85 368.7249)"  d="M0 5.332L-4.617512 -2.666L4.617512 -2.666z" stroke="#515BD4" stroke-width="1.6666666" fill="none" />
                        <path transform="matrix(1 0 0 1 94.7 361.55328)"  d="M0 5.332L-4.617512 -2.666L4.617512 -2.666z" stroke="#515BD4" stroke-width="1.6666666" fill="none" />
                        <path transform="matrix(1 0 0 1 105.55 356.64133)"  d="M0 5.332L-4.617512 -2.666L4.617512 -2.666z" stroke="#515BD4" stroke-width="1.6666666" fill="none" />
                        <path transform="matrix(1 0 0 1 116.4 350.23282)"  d="M0 5.332L-4.617512 -2.666L4.617512 -2.666z" stroke="#515BD4" stroke-width="1.6666666" fill="none" />
                        <path transform="matrix(1 0 0 1 127.25 338.91394)"  d="M0 5.332L-4.617512 -2.666L4.617512 -2.666z" stroke="#515BD4" stroke-width="1.6666666" fill="none" />
                        <path transform="matrix(1 0 0 1 138.1 328.54294)"  d="M0 5.332L-4.617512 -2.666L4.617512 -2.666z" stroke="#515BD4" stroke-width="1.6666666" fill="none" />
                        <path transform="matrix(1 0 0 1 148.95 317.70895)"  d="M0 5.332L-4.617512 -2.666L4.617512 -2.666z" stroke="#515BD4" stroke-width="1.6666666" fill="none" />
                        <path transform="matrix(1 0 0 1 159.8 303.0462)"  d="M0 5.332L-4.617512 -2.666L4.617512 -2.666z" stroke="#515BD4" stroke-width="1.6666666" fill="none" />
                        <path transform="matrix(1 0 0 1 170.65 290.17175)"  d="M0 5.332L-4.617512 -2.666L4.617512 -2.666z" stroke="#515BD4" stroke-width="1.6666666" fill="none" />
                        <path transform="matrix(1 0 0 1 181.5 275.0827)"  d="M0 5.332L-4.617512 -2.666L4.617512 -2.666z" stroke="#515BD4" stroke-width="1.6666666" fill="none" />
                        <path transform="matrix(1 0 0 1 192.35 258.6463)"  d="M0 5.332L-4.617512 -2.666L4.617512 -2.666z" stroke="#515BD4" stroke-width="1.6666666" fill="none" />
                        <path transform="matrix(1 0 0 1 203.2 249.04391)"  d="M0 5.332L-4.617512 -2.666L4.617512 -2.666z" stroke="#515BD4" stroke-width="1.6666666" fill="none" />
                        <path transform="matrix(1 0 0 1 214.05 229.71693)"  d="M0 5.332L-4.617512 -2.666L4.617512 -2.666z" stroke="#515BD4" stroke-width="1.6666666" fill="none" />
                        <path transform="matrix(1 0 0 1 224.9 203.01921)"  d="M0 5.332L-4.617512 -2.666L4.617512 -2.666z" stroke="#515BD4" stroke-width="1.6666666" fill="none" />
                        <path transform="matrix(1 0 0 1 235.75 183.25221)"  d="M0 5.332L-4.617512 -2.666L4.617512 -2.666z" stroke="#515BD4" stroke-width="1.6666666" fill="none" />
                        <path transform="matrix(1 0 0 1 246.6 173.36955)"  d="M0 5.332L-4.617512 -2.666L4.617512 -2.666z" stroke="#515BD4" stroke-width="1.6666666" fill="none" />
                        <path transform="matrix(1 0 0 1 257.45 154.82498)"  d="M0 5.332L-4.617512 -2.666L4.617512 -2.666z" stroke="#515BD4" stroke-width="1.6666666" fill="none" />
                        <path transform="matrix(1 0 0 1 268.3 128.98102)"  d="M0 5.332L-4.617512 -2.666L4.617512 -2.666z" stroke="#515BD4" stroke-width="1.6666666" fill="none" />
                        <path transform="matrix(1 0 0 1 279.15 123.548325)"  d="M0 5.332L-4.617512 -2.666L4.617512 -2.666z" stroke="#515BD4" stroke-width="1.6666666" fill="none" />
                        <path transform="matrix(1 0 0 1 290 111.42273)"  d="M0 5.332L-4.617512 -2.666L4.617512 -2.666z" stroke="#515BD4" stroke-width="1.6666666" fill="none" />
                        <path transform="matrix(1 0 0 1 300.85 101.48135)"  d="M0 5.332L-4.617512 -2.666L4.617512 -2.666z" stroke="#515BD4" stroke-width="1.6666666" fill="none" />
                        <path transform="matrix(1 0 0 1 311.7 84.48496)"  d="M0 5.332L-4.617512 -2.666L4.617512 -2.666z" stroke="#515BD4" stroke-width="1.6666666" fill="none" />
                        <path transform="matrix(1 0 0 1 322.55 83.46952)"  d="M0 5.332L-4.617512 -2.666L4.617512 -2.666z" stroke="#515BD4" stroke-width="1.6666666" fill="none" />
                        <path transform="matrix(1 0 0 1 333.4 75.730644)"  d="M0 5.332L-4.617512 -2.666L4.617512 -2.666z" stroke="#515BD4" stroke-width="1.6666666" fill="none" />
                        <path transform="matrix(1 0 0 1 344.25 70.12453)"  d="M0 5.332L-4.617512 -2.666L4.617512 -2.666z" stroke="#515BD4" stroke-width="1.6666666" fill="none" />
                        <path transform="matrix(1 0 0 1 355.1 66.00936)"  d="M0 5.332L-4.617512 -2.666L4.617512 -2.666z" stroke="#515BD4" stroke-width="1.6666666" fill="none" />
                        <path transform="matrix(1 0 0 1 365.95 64.92549)"  d="M0 5.332L-4.617512 -2.666L4.617512 -2.666z" stroke="#515BD4" stroke-width="1.6666666" fill="none" />
                        <path transform="matrix(1 0 0 1 376.8 62.175488)"  d="M0 5.332L-4.617512 -2.666L4.617512 -2.666z" stroke="#515BD4" stroke-width="1.6666666" fill="none" />
                        <path transform="matrix(1 0 0 1 387.65 63.604492)"  d="M0 5.332L-4.617512 -2.666L4.617512 -2.666z" stroke="#515BD4" stroke-width="1.6666666" fill="none" />
                        <path transform="matrix(1 0 0 1 398.5 62.47523)"  d="M0 5.332L-4.617512 -2.666L4.617512 -2.666z" stroke="#515BD4" stroke-width="1.6666666" fill="none" />
                        <path transform="matrix(1 0 0 1 409.35 63.249313)"  d="M0 5.332L-4.617512 -2.666L4.617512 -2.666z" stroke="#515BD4" stroke-width="1.6666666" fill="none" />
                        <path transform="matrix(1 0 0 1 420.2 62.715336)"  d="M0 5.332L-4.617512 -2.666L4.617512 -2.666z" stroke="#515BD4" stroke-width="1.6666666" fill="none" />
                        <path transform="matrix(1 0 0 1 431.05 60.661755)"  d="M0 5.332L-4.617512 -2.666L4.617512 -2.666z" stroke="#515BD4" stroke-width="1.6666666" fill="none" />
                        <path transform="matrix(1 0 0 1 441.9 60.58249)"  d="M0 5.332L-4.617512 -2.666L4.617512 -2.666z" stroke="#515BD4" stroke-width="1.6666666" fill="none" />
                        <path transform="matrix(1 0 0 1 452.75 61.138138)"  d="M0 5.332L-4.617512 -2.666L4.617512 -2.666z" stroke="#515BD4" stroke-width="1.6666666" fill="none" />
                        <path transform="matrix(1 0 0 1 463.6 60.672268)"  d="M0 5.332L-4.617512 -2.666L4.617512 -2.666z" stroke="#515BD4" stroke-width="1.6666666" fill="none" />
                        <path transform="matrix(1 0 0 1 474.45 62.78607)"  d="M0 5.332L-4.617512 -2.666L4.617512 -2.666z" stroke="#515BD4" stroke-width="1.6666666" fill="none" />
                        <path transform="matrix(1 0 0 1 485.3 60.746277)"  d="M0 5.332L-4.617512 -2.666L4.617512 -2.666z" stroke="#515BD4" stroke-width="1.6666666" fill="none" />
                        <path transform="matrix(1 0 0 1 496.15 61.754536)"  d="M0 5.332L-4.617512 -2.666L4.617512 -2.666z" stroke="#515BD4" stroke-width="1.6666666" fill="none" />
                        <path transform="matrix(1 0 0 1 507 58.860165)"  d="M0 5.332L-4.617512 -2.666L4.617512 -2.666z" stroke="#515BD4" stroke-width="1.6666666" fill="none" />
                        <path transform="matrix(1 0 0 1 0 0)"  d="M73 371.30618L83.85 367.68082L94.7 365.07077L105.55 362.21573L116.4 359.02368L127.25 354.03375L138.1 349.7216L148.95 341.57452L159.8 329.77557L170.65 320.59174L181.5 309.85974L192.35 295.54086L203.2 280.4615L214.05 267.378L224.9 246.83556L235.75 234.3024L246.6 211.0146L257.45 196.63394L268.3 180.88269L279.15 169.56734L290 157.69067L300.85 140.98466L311.7 133.6202L322.55 122.976326L333.4 118.74305L344.25 115.62817L355.1 110.58509L365.95 111.25728L376.8 111.14591L387.65 109.09864L398.5 108.5818L409.35 110.32933L420.2 108.017395L431.05 108.29634L441.9 109.584045L452.75 109.16631L463.6 108.6562L474.45 110.13464L485.3 108.12736L496.15 108.66045L507 109.060555" stroke="#FEDA77" stroke-width="1.6666666" fill="none" />
                        <path transform="matrix(1 0 0 1 73 371.30618)"  d="M-4 0L0 5.32L4 0L0 -5.32z" stroke="#FEDA77" stroke-width="1.6666666" fill="none" />
                        <path transform="matrix(1 0 0 1 83.85 367.68082)"  d="M-4 0L0 5.32L4 0L0 -5.32z" stroke="#FEDA77" stroke-width="1.6666666" fill="none" />
                        <path transform="matrix(1 0 0 1 94.7 365.07077)"  d="M-4 0L0 5.32L4 0L0 -5.32z" stroke="#FEDA77" stroke-width="1.6666666" fill="none" />
                        <path transform="matrix(1 0 0 1 105.55 362.21573)"  d="M-4 0L0 5.32L4 0L0 -5.32z" stroke="#FEDA77" stroke-width="1.6666666" fill="none" />
                        <path transform="matrix(1 0 0 1 116.4 359.02368)"  d="M-4 0L0 5.32L4 0L0 -5.32z" stroke="#FEDA77" stroke-width="1.6666666" fill="none" />
                        <path transform="matrix(1 0 0 1 127.25 354.03375)"  d="M-4 0L0 5.32L4 0L0 -5.32z" stroke="#FEDA77" stroke-width="1.6666666" fill="none" />
                        <path transform="matrix(1 0 0 1 138.1 349.7216)"  d="M-4 0L0 5.32L4 0L0 -5.32z" stroke="#FEDA77" stroke-width="1.6666666" fill="none" />
                        <path transform="matrix(1 0 0 1 148.95 341.57452)"  d="M-4 0L0 5.32L4 0L0 -5.32z" stroke="#FEDA77" stroke-width="1.6666666" fill="none" />
                        <path transform="matrix(1 0 0 1 159.8 329.77557)"  d="M-4 0L0 5.32L4 0L0 -5.32z" stroke="#FEDA77" stroke-width="1.6666666" fill="none" />
                        <path transform="matrix(1 0 0 1 170.65 320.59174)"  d="M-4 0L0 5.32L4 0L0 -5.32z" stroke="#FEDA77" stroke-width="1.6666666" fill="none" />
                        <path transform="matrix(1 0 0 1 181.5 309.85974)"  d="M-4 0L0 5.32L4 0L0 -5.32z" stroke="#FEDA77" stroke-width="1.6666666" fill="none" />
                        <path transform="matrix(1 0 0 1 192.35 295.54086)"  d="M-4 0L0 5.32L4 0L0 -5.32z" stroke="#FEDA77" stroke-width="1.6666666" fill="none" />
                        <path transform="matrix(1 0 0 1 203.2 280.4615)"  d="M-4 0L0 5.32L4 0L0 -5.32z" stroke="#FEDA77" stroke-width="1.6666666" fill="none" />
                        <path transform="matrix(1 0 0 1 214.05 267.378)"  d="M-4 0L0 5.32L4 0L0 -5.32z" stroke="#FEDA77" stroke-width="1.6666666" fill="none" />
                        <path transform="matrix(1 0 0 1 224.9 246.83556)"  d="M-4 0L0 5.32L4 0L0 -5.32z" stroke="#FEDA77" stroke-width="1.6666666" fill="none" />
                        <path transform="matrix(1 0 0 1 235.75 234.3024)"  d="M-4 0L0 5.32L4 0L0 -5.32z" stroke="#FEDA77" stroke-width="1.6666666" fill="none" />
                        <path transform="matrix(1 0 0 1 246.6 211.0146)"  d="M-4 0L0 5.32L4 0L0 -5.32z" stroke="#FEDA77" stroke-width="1.6666666" fill="none" />
                        <path transform="matrix(1 0 0 1 257.45 196.63394)"  d="M-4 0L0 5.32L4 0L0 -5.32z" stroke="#FEDA77" stroke-width="1.6666666" fill="none" />
                        <path transform="matrix(1 0 0 1 268.3 180.88269)"  d="M-4 0L0 5.32L4 0L0 -5.32z" stroke="#FEDA77" stroke-width="1.6666666" fill="none" />
                        <path transform="matrix(1 0 0 1 279.15 169.56734)"  d="M-4 0L0 5.32L4 0L0 -5.32z" stroke="#FEDA77" stroke-width="1.6666666" fill="none" />
                        <path transform="matrix(1 0 0 1 290 157.69067)"  d="M-4 0L0 5.32L4 0L0 -5.32z" stroke="#FEDA77" stroke-width="1.6666666" fill="none" />
                        <path transform="matrix(1 0 0 1 300.85 140.98466)"  d="M-4 0L0 5.32L4 0L0 -5.32z" stroke="#FEDA77" stroke-width="1.6666666" fill="none" />
                        <path transform="matrix(1 0 0 1 311.7 133.6202)"  d="M-4 0L0 5.32L4 0L0 -5.32z" stroke="#FEDA77" stroke-width="1.6666666" fill="none" />
                        <path transform="matrix(1 0 0 1 322.55 122.976326)"  d="M-4 0L0 5.32L4 0L0 -5.32z" stroke="#FEDA77" stroke-width="1.6666666" fill="none" />
                        <path transform="matrix(1 0 0 1 333.4 118.74305)"  d="M-4 0L0 5.32L4 0L0 -5.32z" stroke="#FEDA77" stroke-width="1.6666666" fill="none" />
                        <path transform="matrix(1 0 0 1 344.25 115.62817)"  d="M-4 0L0 5.32L4 0L0 -5.32z" stroke="#FEDA77" stroke-width="1.6666666" fill="none" />
                        <path transform="matrix(1 0 0 1 355.1 110.58509)"  d="M-4 0L0 5.32L4 0L0 -5.32z" stroke="#FEDA77" stroke-width="1.6666666" fill="none" />
                        <path transform="matrix(1 0 0 1 365.95 111.25728)"  d="M-4 0L0 5.32L4 0L0 -5.32z" stroke="#FEDA77" stroke-width="1.6666666" fill="none" />
                        <path transform="matrix(1 0 0 1 376.8 111.14591)"  d="M-4 0L0 5.32L4 0L0 -5.32z" stroke="#FEDA77" stroke-width="1.6666666" fill="none" />
                        <path transform="matrix(1 0 0 1 387.65 109.09864)"  d="M-4 0L0 5.32L4 0L0 -5.32z" stroke="#FEDA77" stroke-width="1.6666666" fill="none" />
                        <path transform="matrix(1 0 0 1 398.5 108.5818)"  d="M-4 0L0 5.32L4 0L0 -5.32z" stroke="#FEDA77" stroke-width="1.6666666" fill="none" />
                        <path transform="matrix(1 0 0 1 409.35 110.32933)"  d="M-4 0L0 5.32L4 0L0 -5.32z" stroke="#FEDA77" stroke-width="1.6666666" fill="none" />
                        <path transform="matrix(1 0 0 1 420.2 108.017395)"  d="M-4 0L0 5.32L4 0L0 -5.32z" stroke="#FEDA77" stroke-width="1.6666666" fill="none" />
                        <path transform="matrix(1 0 0 1 431.05 108.29634)"  d="M-4 0L0 5.32L4 0L0 -5.32z" stroke="#FEDA77" stroke-width="1.6666666" fill="none" />
                        <path transform="matrix(1 0 0 1 441.9 109.584045)"  d="M-4 0L0 5.32L4 0L0 -5.32z" stroke="#FEDA77" stroke-width="1.6666666" fill="none" />
                        <path transform="matrix(1 0 0 1 452.75 109.16631)"  d="M-4 0L0 5.32L4 0L0 -5.32z" stroke="#FEDA77" stroke-width="1.6666666" fill="none" />
                        <path transform="matrix(1 0 0 1 463.6 108.6562)"  d="M-4 0L0 5.32L4 0L0 -5.32z" stroke="#FEDA77" stroke-width="1.6666666" fill="none" />
                        <path transform="matrix(1 0 0 1 474.45 110.13464)"  d="M-4 0L0 5.32L4 0L0 -5.32z" stroke="#FEDA77" stroke-width="1.6666666" fill="none" />
                        <path transform="matrix(1 0 0 1 485.3 108.12736)"  d="M-4 0L0 5.32L4 0L0 -5.32z" stroke="#FEDA77" stroke-width="1.6666666" fill="none" />
                        <path transform="matrix(1 0 0 1 496.15 108.66045)"  d="M-4 0L0 5.32L4 0L0 -5.32z" stroke="#FEDA77" stroke-width="1.6666666" fill="none" />
                        <path transform="matrix(1 0 0 1 507 109.060555)"  d="M-4 0L0 5.32L4 0L0 -5.32z" stroke="#FEDA77" stroke-width="1.6666666" fill="none" />
                        <path transform="matrix(1 0 0 1 0 0)"  d="M417 42L496 42L496 111L417 111" stroke="none" fill="#FFFFFF" fill-rule="evenodd" />
						<text transform="matrix(1 0 0 1 464 60.208057)" x="0" y="-5.8632812" style="fill:#000000;font-family:ABeeZee;" font-size="9">
r=3.7
						</text>
                        <path transform="matrix(1 0 0 1 0 0)"  d="M421 51.92806L461 51.92806" stroke="#8134AF" stroke-width="1.6666666" fill="none" />
                        <path transform="matrix(1 0 0 1 441 51.92806)"  d="M1.9390241E-16 -3.1666667C 1.7489017 -3.1666667 3.1666667 -1.7489017 3.1666667 0L3.1666667 0L3.1666667 7.7560965E-16C 3.1666667 1.7489017 1.7489017 3.1666667 -5.8170724E-16 3.1666667C -1.7489017 3.1666667 -3.1666667 1.7489017 -3.1666667 -3.8780482E-16C -3.1666667 -1.7489017 -1.7489017 -3.1666667 1.9390241E-16 -3.1666667zM2.959563E-16 -4.8333335C -2.6693764 -4.8333335 -4.8333335 -2.6693764 -4.8333335 -5.919126E-16C -4.8333335 2.6693764 -2.6693764 4.8333335 -8.8786894E-16 4.8333335C 2.6693764 4.8333335 4.8333335 2.6693764 4.8333335 1.1838252E-15L4.8333335 1.1838252E-15L4.8333335 0C 4.8333335 -2.6693764 2.6693764 -4.8333335 2.959563E-16 -4.8333335z" stroke="none" fill="#8134AF" fill-rule="nonzero" />
						<text transform="matrix(1 0 0 1 464 76.58935)" x="0" y="-5.8632812" style="fill:#000000;font-family:ABeeZee;" font-size="9">
r=3.8
						</text>
                        <path transform="matrix(1 0 0 1 0 0)"  d="M421 68.30935L461 68.30935" stroke="#DD2A7B" stroke-width="1.6666666" fill="none" />
                        <path transform="matrix(1 0 0 1 441 68.30935)"  d="M0 -5.332L-4.617512 2.666L4.617512 2.666z" stroke="#DD2A7B" stroke-width="1.6666666" fill="none" />
						<text transform="matrix(1 0 0 1 464 92.97065)" x="0" y="-5.8632812" style="fill:#000000;font-family:ABeeZee;" font-size="9">
r=3.9
						</text>
                        <path transform="matrix(1 0 0 1 0 0)"  d="M421 84.69065L461 84.69065" stroke="#515BD4" stroke-width="1.6666666" fill="none" />
                        <path transform="matrix(1 0 0 1 441 84.69065)"  d="M0 5.332L-4.617512 -2.666L4.617512 -2.666z" stroke="#515BD4" stroke-width="1.6666666" fill="none" />
						<text transform="matrix(1 0 0 1 464 109.351944)" x="0" y="-5.8632812" style="fill:#000000;font-family:ABeeZee;" font-size="9">
r=4.0
						</text>
                        <path transform="matrix(1 0 0 1 0 0)"  d="M421 101.071945L461 101.071945" stroke="#FEDA77" stroke-width="1.6666666" fill="none" />
                        <path transform="matrix(1 0 0 1 441 101.071945)"  d="M-4 0L0 5.32L4 0L0 -5.32z" stroke="#FEDA77" stroke-width="1.6666666" fill="none" />
                        <path transform="matrix(1 0 0 1 0 0)"  d="M417 111L417 42L496 42L496 111z" stroke="#262626" stroke-width="0.6666667" fill="none" />
					</g>
				</g>
			</g>
		</g>
	</g>
</g>
</svg>