<?xml version="1.0" standalone="no"?>
<!DOCTYPE svg PUBLIC "-//W3C//DTD SVG 1.0//EN" "http://www.w3.org/TR/2001/REC-SVG-20010904/DTD/svg10.dtd">
<svg xmlns="http://www.w3.org/2000/svg" xmlns:xlink="http://www.w3.org/1999/xlink" id="body_3" width="532" height="390">

<defs>
                    <clipPath  id="1">

                        <path clip-rule="evenodd" d="M0 0L531 0L531 389L0 389z" />                    </clipPath>
                    <clipPath  id="2">

                        <path clip-rule="evenodd" d="M0 0L531 0L531 389L0 389z" />                    </clipPath>
                    <clipPath  id="3">

                        <path clip-rule="evenodd" d="M0 0L531 0L531 389L0 389z" />                    </clipPath>
                    <clipPath  id="4">

                        <path clip-rule="evenodd" d="M0 0L531 0L531 389L0 389z" />                    </clipPath>
                    <clipPath  id="5">

                        <path clip-rule="evenodd" d="M0 0L531 0L531 389L0 389z" />                    </clipPath>
                    <clipPath  id="6">

                        <path clip-rule="evenodd" d="M0 0L531 0L531 389L0 389z" />                    </clipPath>
                    <clipPath  id="7">

                        <path clip-rule="evenodd" d="M0 0L531 0L531 389L0 389z" />                    </clipPath>
                    <clipPath  id="8">

                        <path clip-rule="evenodd" d="M0 0L531 0L531 389L0 389z" />                    </clipPath>
                    <clipPath  id="9">

                        <path clip-rule="evenodd" d="M0 0L531 0L531 389L0 389z" />                    </clipPath>
                    <clipPath  id="10">

                        <path clip-rule="evenodd" d="M0 0L531 0L531 389L0 389z" />                    </clipPath>
                    <clipPath  id="11">

                        <path clip-rule="evenodd" d="M0 0L531 0L531 389L0 389z" />                    </clipPath>
                    <clipPath  id="12">

                        <path clip-rule="evenodd" d="M0 0L531 0L531 389L0 389z" />                    </clipPath>
                    <clipPath  id="13">

                        <path clip-rule="evenodd" d="M0 0L531 0L531 389L0 389z" />                    </clipPath>
                    <clipPath  id="14">

                        <path clip-rule="evenodd" d="M0 0L531 0L531 389L0 389z" />                    </clipPath>
                    <clipPath  id="15">

                        <path clip-rule="evenodd" d="M0 0L531 0L531 389L0 389z" />                    </clipPath>
                    <clipPath  id="16">

                        <path clip-rule="evenodd" d="M0 0L531 0L531 389L0 389z" />                    </clipPath>
                    <clipPath  id="17">

                        <path clip-rule="evenodd" d="M0 0L531 0L531 389L0 389z" />                    </clipPath>
                    <clipPath  id="18">

                        <path clip-rule="evenodd" d="M0 0L531 0L531 389L0 389z" />                    </clipPath>
                    <clipPath  id="19">

                        <path clip-rule="evenodd" d="M0 0L531 0L531 389L0 389z" />                    </clipPath>
                    <clipPath  id="20">

                        <path clip-rule="evenodd" d="M0 0L531 0L531 389L0 389z" />                    </clipPath>
                    <clipPath  id="21">

                        <path clip-rule="evenodd" d="M0 0L531 0L531 389L0 389z" />                    </clipPath>
                    <clipPath  id="22">

                        <path clip-rule="evenodd" d="M0 0L531 0L531 389L0 389z" />                    </clipPath>
                    <clipPath  id="23">

                        <path clip-rule="evenodd" d="M0 0L531 0L531 389L0 389z" />                    </clipPath>
                    <clipPath  id="24">

                        <path clip-rule="evenodd" d="M0 0L531 0L531 389L0 389z" />                    </clipPath>
                    <clipPath  id="25">

                        <path clip-rule="evenodd" d="M0 0L531 0L531 389L0 389z" />                    </clipPath>
                    <clipPath  id="26">

                        <path clip-rule="evenodd" d="M0 0L531 0L531 389L0 389z" />                    </clipPath>
                    <clipPath  id="27">

                        <path clip-rule="evenodd" d="M0 0L531 0L531 389L0 389z" />                    </clipPath>
                        <clipPath  id="28">

                            <path clip-rule="evenodd" d="M0 0L531 0L531 389L0 389z" />                        </clipPath>
</defs>

<g transform="matrix(1.3333334 0 0 1.3333334 0 0)">
    <path d="M0 0L399 0L399 292.5L0 292.5z" stroke="none" fill="#FFFFFF" fill-rule="evenodd" />
	<g transform="matrix(0.75 0 0 0.75 -0 -0)">
		<g>
			<g>
				<g transform="matrix(1 0 0 1 0 0)">
					<g>
					</g>
					<g>
					</g>
				</g>
				<g>
				</g>
				<g clip-path="url(#1)" >
				</g>
				<g transform="matrix(1 0 0 1 0 0)">
					<g>
                        <path transform="matrix(96 0 0 96 1.5 383.65222)"  d="M0 -3.9807525L5.500328 -3.9807525L5.500328 0L0 0" stroke="none" fill="#FFFFFF" fill-rule="evenodd" />
                        <path transform="matrix(96 0 0 96 1.5 383.65222)"  d="M0 -3.9807525L5.500328 -3.9807525L5.500328 0L0 0" stroke="none" fill="#FFFFFF" fill-rule="evenodd" />
                        <path transform="matrix(96 0 0 96 70.33267 341.79745)"  d="M0 -3.2509477L4.2627544 -3.2509477L4.2627544 0L0 0" stroke="none" fill="#FFFFFF" fill-rule="evenodd" />
                        <path transform="matrix(96 0 0 96 70.33267 341.79745)"  d="M0 0L4.2627544 0" stroke="#262626" stroke-width="0.0066343737" stroke-linecap="round" fill="none" />
                        <path transform="matrix(96 0 0 96 70.33267 341.79745)"  d="M0 0L0 -0.040873803" stroke="#262626" stroke-width="0.0066343737" stroke-linecap="round" fill="none" />
                        <path transform="matrix(96 0 0 96 121.48573 341.79745)"  d="M0 0L0 -0.040873803" stroke="#262626" stroke-width="0.0066343737" stroke-linecap="round" fill="none" />
                        <path transform="matrix(96 0 0 96 172.63878 341.79745)"  d="M0 0L0 -0.040873803" stroke="#262626" stroke-width="0.0066343737" stroke-linecap="round" fill="none" />
                        <path transform="matrix(96 0 0 96 223.79184 341.79745)"  d="M0 0L0 -0.040873803" stroke="#262626" stroke-width="0.0066343737" stroke-linecap="round" fill="none" />
                        <path transform="matrix(96 0 0 96 274.9449 341.79745)"  d="M0 0L0 -0.040873803" stroke="#262626" stroke-width="0.0066343737" stroke-linecap="round" fill="none" />
                        <path transform="matrix(96 0 0 96 326.09793 341.79745)"  d="M0 0L0 -0.040873803" stroke="#262626" stroke-width="0.0066343737" stroke-linecap="round" fill="none" />
                        <path transform="matrix(96 0 0 96 377.25098 341.79745)"  d="M0 0L0 -0.040873803" stroke="#262626" stroke-width="0.0066343737" stroke-linecap="round" fill="none" />
                        <path transform="matrix(96 0 0 96 428.40405 341.79745)"  d="M0 0L0 -0.040873803" stroke="#262626" stroke-width="0.0066343737" stroke-linecap="round" fill="none" />
                        <path transform="matrix(96 0 0 96 479.55707 341.79745)"  d="M0 0L0 -0.040873803" stroke="#262626" stroke-width="0.0066343737" stroke-linecap="round" fill="none" />
					</g>
				</g>
				<g>
				</g>
				<g clip-path="url(#2)" >
					<text transform="matrix(1 0 0 1 66.611435 359.99414)" x="0" y="2.3669999" style="fill:#262626;font-family:ABeeZee;" font-size="12">
30
					</text>
				</g>
				<g transform="matrix(1 0 0 1 0 0)">
					<g>
					</g>
				</g>
				<g>
				</g>
				<g clip-path="url(#3)" >
					<text transform="matrix(1 0 0 1 117.52875 359.99414)" x="0" y="2.3669999" style="fill:#262626;font-family:ABeeZee;" font-size="12">
25
					</text>
				</g>
				<g transform="matrix(1 0 0 1 0 0)">
					<g>
					</g>
				</g>
				<g>
				</g>
				<g clip-path="url(#4)" >
					<text transform="matrix(1 0 0 1 169.389 359.99414)" x="0" y="2.3669999" style="fill:#262626;font-family:ABeeZee;" font-size="12">
20
					</text>
				</g>
				<g transform="matrix(1 0 0 1 0 0)">
					<g>
					</g>
				</g>
				<g>
				</g>
				<g clip-path="url(#5)" >
					<text transform="matrix(1 0 0 1 216.83618 359.99414)" x="0" y="2.3669999" style="fill:#262626;font-family:ABeeZee;" font-size="12">
15
					</text>
				</g>
				<g transform="matrix(1 0 0 1 0 0)">
					<g>
					</g>
				</g>
				<g>
				</g>
				<g clip-path="url(#6)" >
					<text transform="matrix(1 0 0 1 270.6599 359.99414)" x="0" y="2.3669999" style="fill:#262626;font-family:ABeeZee;" font-size="12">
10
					</text>
				</g>
				<g transform="matrix(1 0 0 1 0 0)">
					<g>
					</g>
				</g>
				<g>
				</g>
				<g clip-path="url(#7)" >
					<text transform="matrix(1 0 0 1 325.43024 359.99414)" x="0" y="2.3669999" style="fill:#262626;font-family:ABeeZee;" font-size="12">
5
					</text>
				</g>
				<g transform="matrix(1 0 0 1 0 0)">
					<g>
					</g>
				</g>
				<g>
				</g>
				<g clip-path="url(#8)" >
					<text transform="matrix(1 0 0 1 377.29053 359.99414)" x="0" y="2.3669999" style="fill:#262626;font-family:ABeeZee;" font-size="12">
0
					</text>
				</g>
				<g transform="matrix(1 0 0 1 0 0)">
					<g>
					</g>
				</g>
				<g>
				</g>
				<g clip-path="url(#9)" >
					<text transform="matrix(1 0 0 1 426.2383 359.99414)" x="0" y="2.3669999" style="fill:#262626;font-family:ABeeZee;" font-size="12">
-
					</text>
				</g>
				<g transform="matrix(1 0 0 1 0 0)">
					<g>
					</g>
				</g>
				<g>
				</g>
				<g clip-path="url(#10)" >
					<text transform="matrix(1 0 0 1 430.17728 359.99414)" x="0" y="2.3669999" style="fill:#262626;font-family:ABeeZee;" font-size="12">
5
					</text>
				</g>
				<g transform="matrix(1 0 0 1 0 0)">
					<g>
					</g>
				</g>
				<g>
				</g>
				<g clip-path="url(#11)" >
					<text transform="matrix(1 0 0 1 469.12967 359.99414)" x="0" y="2.3669999" style="fill:#262626;font-family:ABeeZee;" font-size="12">
-
					</text>
				</g>
				<g transform="matrix(1 0 0 1 0 0)">
					<g>
					</g>
				</g>
				<g>
				</g>
				<g clip-path="url(#12)" >
					<text transform="matrix(1 0 0 1 473.06863 359.99414)" x="0" y="2.3669999" style="fill:#262626;font-family:ABeeZee;" font-size="12">
10
					</text>
				</g>
				<g transform="matrix(1 0 0 1 0 0)">
					<g>
					</g>
				</g>
				<g>
				</g>
				<g clip-path="url(#13)" >
					<text transform="matrix(1 0 0 1 265.14554 378.19183)" x="0" y="2.7615" style="fill:#262626;font-family:ABeeZee;" font-size="14">
SNR
					</text>
				</g>
				<g transform="matrix(1 0 0 1 0 0)">
					<g>
                        <path transform="matrix(96 0 0 96 70.33267 341.79745)"  d="M0 0L0 -3.2509477" stroke="#262626" stroke-width="0.0066343737" stroke-linecap="round" fill="none" />
                        <path transform="matrix(96 0 0 96 70.33267 341.79745)"  d="M0 0L0.042971324 0" stroke="#262626" stroke-width="0.0066343737" stroke-linecap="round" fill="none" />
                        <path transform="matrix(96 0 0 96 70.33267 297.21307)"  d="M0 0L0.042971324 0" stroke="#262626" stroke-width="0.0066343737" stroke-linecap="round" fill="none" />
                        <path transform="matrix(96 0 0 96 70.33267 252.62863)"  d="M0 0L0.042971324 0" stroke="#262626" stroke-width="0.0066343737" stroke-linecap="round" fill="none" />
                        <path transform="matrix(96 0 0 96 70.33267 208.04419)"  d="M0 0L0.042971324 0" stroke="#262626" stroke-width="0.0066343737" stroke-linecap="round" fill="none" />
                        <path transform="matrix(96 0 0 96 70.33267 163.45978)"  d="M0 0L0.042971324 0" stroke="#262626" stroke-width="0.0066343737" stroke-linecap="round" fill="none" />
                        <path transform="matrix(96 0 0 96 70.33267 118.87534)"  d="M0 0L0.042971324 0" stroke="#262626" stroke-width="0.0066343737" stroke-linecap="round" fill="none" />
                        <path transform="matrix(96 0 0 96 70.33267 74.2909)"  d="M0 0L0.042971324 0" stroke="#262626" stroke-width="0.0066343737" stroke-linecap="round" fill="none" />
                        <path transform="matrix(96 0 0 96 70.33267 29.706505)"  d="M0 0L0.042971324 0" stroke="#262626" stroke-width="0.0066343737" stroke-linecap="round" fill="none" />
					</g>
				</g>
				<g>
				</g>
				<g clip-path="url(#14)" >
					<text transform="matrix(1 0 0 1 60.46067 347.25574)" x="0" y="2.3669999" style="fill:#262626;font-family:ABeeZee;" font-size="12">
0
					</text>
				</g>
				<g transform="matrix(1 0 0 1 0 0)">
					<g>
					</g>
				</g>
				<g>
				</g>
				<g clip-path="url(#15)" >
					<text transform="matrix(1 0 0 1 50.82836 302.6713)" x="0" y="2.3669999" style="fill:#262626;font-family:ABeeZee;" font-size="12">
0.2
					</text>
				</g>
				<g transform="matrix(1 0 0 1 0 0)">
					<g>
					</g>
				</g>
				<g>
				</g>
				<g clip-path="url(#16)" >
					<text transform="matrix(1 0 0 1 50.82836 258.0869)" x="0" y="2.3669999" style="fill:#262626;font-family:ABeeZee;" font-size="12">
0.4
					</text>
				</g>
				<g transform="matrix(1 0 0 1 0 0)">
					<g>
					</g>
				</g>
				<g>
				</g>
				<g clip-path="url(#17)" >
					<text transform="matrix(1 0 0 1 50.82836 213.50247)" x="0" y="2.3669999" style="fill:#262626;font-family:ABeeZee;" font-size="12">
0.6
					</text>
				</g>
				<g transform="matrix(1 0 0 1 0 0)">
					<g>
					</g>
				</g>
				<g>
				</g>
				<g clip-path="url(#18)" >
					<text transform="matrix(1 0 0 1 50.82836 168.91803)" x="0" y="2.3669999" style="fill:#262626;font-family:ABeeZee;" font-size="12">
0.8
					</text>
				</g>
				<g transform="matrix(1 0 0 1 0 0)">
					<g>
					</g>
				</g>
				<g>
				</g>
				<g clip-path="url(#19)" >
					<text transform="matrix(1 0 0 1 60.46067 124.33363)" x="0" y="2.3669999" style="fill:#262626;font-family:ABeeZee;" font-size="12">
1
					</text>
				</g>
				<g transform="matrix(1 0 0 1 0 0)">
					<g>
					</g>
				</g>
				<g>
				</g>
				<g clip-path="url(#20)" >
					<text transform="matrix(1 0 0 1 50.82836 79.74919)" x="0" y="2.3669999" style="fill:#262626;font-family:ABeeZee;" font-size="12">
1.2
					</text>
				</g>
				<g transform="matrix(1 0 0 1 0 0)">
					<g>
					</g>
				</g>
				<g>
				</g>
				<g clip-path="url(#21)" >
					<text transform="matrix(1 0 0 1 50.82836 35.16475)" x="0" y="2.3669999" style="fill:#262626;font-family:ABeeZee;" font-size="12">
1.4
					</text>
				</g>
				<g transform="matrix(1 0 0 1 0 0)">
					<g>
					</g>
				</g>
				<g>
				</g>
				<g clip-path="url(#22)" >
					<text transform="matrix(0 -1 1 0 40.15837 186.9805)" x="0" y="0" style="fill:#262626;font-family:ABeeZee;" font-size="14">
S
					</text>
				</g>
				<g transform="matrix(1 0 0 1 0 0)">
					<g>
					</g>
				</g>
				<g>
				</g>
				<g clip-path="url(#23)" >
					<text transform="matrix(1 0 0 1 261.00006 24.246105)" x="0" y="2.7615" style="fill:#000000;font-family:ABeeZee;" font-size="14">
DivEn
					</text>
				</g>
				<g transform="matrix(1 0 0 1 0 0)">
					<g>
                        <path transform="matrix(96 0 0 96 70.33267 341.68375)"  d="M0 0L0.10681441 -0.0035542431L0.21362881 -0.06397638L0.31982934 -0.057460267L0.42664376 -0.066938244L0.5328443 -0.10544255L0.6396587 -0.1587562L0.7464731 -0.19607575L0.85267365 -0.20377661L0.95948803 -0.26716062L1.0656886 -0.29381743L1.172503 -0.38741252L1.2793174 -0.51595765L1.385518 -0.46382874L1.4923323 -0.5254356L1.5985328 -0.55446196L1.7053473 -0.73098934L1.8121617 -0.7979276L1.9183621 -0.8115522L2.0251765 -0.9229185L2.1313772 -1.1450586L2.2381916 -1.174085L2.345006 -1.3233632L2.4512064 -1.5934857L2.5580208 -1.6764181L2.6642215 -1.7664589L2.771036 -1.9240303L2.8778503 -2.0620534L2.9840508 -2.2806394L3.0908651 -2.4026685L3.1970656 -2.4974482L3.3038802 -2.5608323L3.4106946 -2.6864154L3.516895 -2.7243273L3.6237094 -2.7403216L3.72991 -2.78238L3.8367243 -2.8185148L3.943539 -2.8161454L4.0497394 -2.7883039L4.1565537 -2.769348L4.2627544 -2.7746792" stroke="#8134AF" stroke-width="0.016284373" stroke-linecap="round" fill="none" />
                        <path transform="matrix(96 0 0 96 65.79491 346.06253)"  d="M0.047268443 -0.07582386C 0.06445697 -0.07582386 0.07857612 -0.062199257 0.07857612 -0.04561279C 0.07857612 -0.02902632 0.06445697 -0.015401721 0.047268443 -0.015401721C 0.03007992 -0.015401721 0.01657465 -0.02902632 0.01657465 -0.04561279C 0.01657465 -0.062199257 0.03007992 -0.07582386 0.047268443 -0.07582386zM0.047268443 -0.09122558C 0.021485656 -0.09122558 7.806256E-18 -0.071084864 0 -0.04561279C -6.3425827E-18 -0.020140711 0.021485656 0 0.047268443 0C 0.073665105 -4.87891E-19 0.09515076 -0.020140711 0.09515076 -0.04561279C 0.09515076 -0.071084864 0.073665105 -0.09122558 0.047268443 -0.09122558z" stroke="none" fill="#8134AF" fill-rule="nonzero" />
                        <path transform="matrix(96 0 0 96 76.04909 345.77823)"  d="M0.047268443 -0.07582386C 0.06445697 -0.07582386 0.07857612 -0.06279163 0.07857612 -0.046205163C 0.07857612 -0.029618694 0.06445697 -0.015994094 0.047268443 -0.015994094C 0.03007992 -0.015994094 0.015960773 -0.029618694 0.015960773 -0.046205163C 0.015960773 -0.06279163 0.03007992 -0.07582386 0.047268443 -0.07582386zM0.047268443 -0.09181795C 0.02087178 -0.09181795 7.806256E-18 -0.071084864 0 -0.046205163C -3.4152368E-18 -0.020733085 0.02087178 2.6020852E-18 0.047268443 0C 0.073665105 1.4636729E-18 0.094536886 -0.020733085 0.094536886 -0.046205163C 0.094536886 -0.071084864 0.073665105 -0.09181795 0.047268443 -0.09181795z" stroke="none" fill="#8134AF" fill-rule="nonzero" />
                        <path transform="matrix(96 0 0 96 86.24434 339.97772)"  d="M0.047882322 -0.07582386C 0.065070845 -0.07582386 0.07857612 -0.06279163 0.07857612 -0.046205163C 0.07857612 -0.029618694 0.065070845 -0.015994094 0.047882322 -0.015994094C 0.030693796 -0.015994094 0.01657465 -0.029618694 0.01657465 -0.046205163C 0.01657465 -0.06279163 0.030693796 -0.07582386 0.047882322 -0.07582386zM0.047882322 -0.09181795C 0.021485656 -0.09181795 5.2041704E-18 -0.071084864 0 -0.046205163C -5.3668008E-18 -0.020733085 0.021485656 2.6020852E-18 0.047882322 0C 0.073665105 1.4636729E-18 0.09515076 -0.020733085 0.09515076 -0.046205163C 0.09515076 -0.071084864 0.073665105 -0.09181795 0.047882322 -0.09181795z" stroke="none" fill="#8134AF" fill-rule="nonzero" />
                        <path transform="matrix(96 0 0 96 96.49853 340.5464)"  d="M0.047268443 -0.07582386C 0.06445697 -0.07582386 0.07857612 -0.062199257 0.07857612 -0.04561279C 0.07857612 -0.02902632 0.06445697 -0.015401721 0.047268443 -0.015401721C 0.03007992 -0.015401721 0.01657465 -0.02902632 0.01657465 -0.04561279C 0.01657465 -0.062199257 0.03007992 -0.07582386 0.047268443 -0.07582386zM0.047268443 -0.09122558C 0.021485656 -0.09122558 7.806256E-18 -0.071084864 0 -0.04561279C 3.4152368E-18 -0.020140711 0.021485656 0 0.047268443 0C 0.073665105 -4.87891E-19 0.09515076 -0.020140711 0.09515076 -0.04561279C 0.09515076 -0.071084864 0.073665105 -0.09122558 0.047268443 -0.09122558z" stroke="none" fill="#8134AF" fill-rule="nonzero" />
                        <path transform="matrix(96 0 0 96 106.75271 339.69336)"  d="M0.047268443 -0.07582386C 0.06445697 -0.07582386 0.07857612 -0.06279163 0.07857612 -0.046205163C 0.07857612 -0.029618694 0.06445697 -0.015994094 0.047268443 -0.015994094C 0.03007992 -0.015994094 0.015960773 -0.029618694 0.015960773 -0.046205163C 0.015960773 -0.06279163 0.03007992 -0.07582386 0.047268443 -0.07582386zM0.047268443 -0.09181795C 0.02087178 -0.09181795 7.806256E-18 -0.071084864 0 -0.046205163C -4.391019E-18 -0.020733085 0.02087178 2.6020852E-18 0.047268443 0C 0.073665105 1.4636729E-18 0.094536886 -0.020733085 0.094536886 -0.046205163C 0.094536886 -0.071084864 0.073665105 -0.09181795 0.047268443 -0.09181795z" stroke="none" fill="#8134AF" fill-rule="nonzero" />
                        <path transform="matrix(96 0 0 96 116.94795 335.94006)"  d="M0.047268443 -0.07582386C 0.06445697 -0.07582386 0.07857612 -0.062199257 0.07857612 -0.04561279C 0.07857612 -0.02902632 0.06445697 -0.015401721 0.047268443 -0.015401721C 0.03007992 -0.015401721 0.01657465 -0.02902632 0.01657465 -0.04561279C 0.01657465 -0.062199257 0.03007992 -0.07582386 0.047268443 -0.07582386zM0.047268443 -0.09122558C 0.021485656 -0.09122558 5.2041704E-18 -0.071084864 0 -0.04561279C 1.951564E-18 -0.020140711 0.021485656 2.6020852E-18 0.047268443 0C 0.073665105 -4.87891E-19 0.09515076 -0.020140711 0.09515076 -0.04561279C 0.09515076 -0.071084864 0.073665105 -0.09122558 0.047268443 -0.09122558z" stroke="none" fill="#8134AF" fill-rule="nonzero" />
                        <path transform="matrix(96 0 0 96 127.20215 330.87885)"  d="M0.047268443 -0.07582386C 0.06445697 -0.07582386 0.07857612 -0.06279163 0.07857612 -0.046205163C 0.07857612 -0.029618694 0.06445697 -0.015994094 0.047268443 -0.015994094C 0.03007992 -0.015994094 0.015960773 -0.029618694 0.015960773 -0.046205163C 0.015960773 -0.06279163 0.03007992 -0.07582386 0.047268443 -0.07582386zM0.047268443 -0.09181795C 0.02087178 -0.09181795 7.806256E-18 -0.071084864 0 -0.046205163C 3.4152368E-18 -0.020733085 0.02087178 2.6020852E-18 0.047268443 0C 0.073665105 0 0.094536886 -0.020733085 0.094536886 -0.046205163C 0.094536886 -0.071084864 0.073665105 -0.09181795 0.047268443 -0.09181795z" stroke="none" fill="#8134AF" fill-rule="nonzero" />
                        <path transform="matrix(96 0 0 96 137.39738 327.29614)"  d="M0.047882322 -0.07582386C 0.065070845 -0.07582386 0.07857612 -0.06279163 0.07857612 -0.046205163C 0.07857612 -0.029618694 0.065070845 -0.015994094 0.047882322 -0.015994094C 0.030693796 -0.015994094 0.01657465 -0.029618694 0.01657465 -0.046205163C 0.01657465 -0.06279163 0.030693796 -0.07582386 0.047882322 -0.07582386zM0.047882322 -0.09181795C 0.021485656 -0.09181795 1.0408341E-17 -0.071084864 0 -0.046205163C -1.4636729E-18 -0.020733085 0.021485656 2.6020852E-18 0.047882322 0C 0.073665105 0 0.09515076 -0.020733085 0.09515076 -0.046205163C 0.09515076 -0.071084864 0.073665105 -0.09181795 0.047882322 -0.09181795z" stroke="none" fill="#8134AF" fill-rule="nonzero" />
                        <path transform="matrix(96 0 0 96 147.65157 326.5)"  d="M0.047268443 -0.07582386C 0.06445697 -0.07582386 0.07857612 -0.062199257 0.07857612 -0.04561279C 0.07857612 -0.02902632 0.06445697 -0.015994094 0.047268443 -0.015994094C 0.03007992 -0.015994094 0.01657465 -0.02902632 0.01657465 -0.04561279C 0.01657465 -0.062199257 0.03007992 -0.07582386 0.047268443 -0.07582386zM0.047268443 -0.09181795C 0.021485656 -0.09181795 7.806256E-18 -0.071084864 0 -0.04561279C 3.4152368E-18 -0.020733085 0.021485656 2.6020852E-18 0.047268443 0C 0.073665105 1.4636729E-18 0.09515076 -0.020733085 0.09515076 -0.04561279C 0.09515076 -0.071084864 0.073665105 -0.09181795 0.047268443 -0.09181795z" stroke="none" fill="#8134AF" fill-rule="nonzero" />
                        <path transform="matrix(96 0 0 96 157.90575 320.472)"  d="M0.047268443 -0.07582386C 0.06445697 -0.07582386 0.07857612 -0.06279163 0.07857612 -0.046205163C 0.07857612 -0.029618694 0.06445697 -0.015994094 0.047268443 -0.015994094C 0.03007992 -0.015994094 0.015960773 -0.029618694 0.015960773 -0.046205163C 0.015960773 -0.06279163 0.03007992 -0.07582386 0.047268443 -0.07582386zM0.047268443 -0.09181795C 0.02087178 -0.09181795 7.806256E-18 -0.071084864 0 -0.046205163C 3.4152368E-18 -0.020733085 0.02087178 2.6020852E-18 0.047268443 0C 0.073665105 0 0.094536886 -0.020733085 0.094536886 -0.046205163C 0.094536886 -0.071084864 0.073665105 -0.09181795 0.047268443 -0.09181795z" stroke="none" fill="#8134AF" fill-rule="nonzero" />
                        <path transform="matrix(96 0 0 96 168.10101 317.91296)"  d="M0.047268443 -0.07582386C 0.06445697 -0.07582386 0.07857612 -0.06279163 0.07857612 -0.046205163C 0.07857612 -0.029618694 0.06445697 -0.015994094 0.047268443 -0.015994094C 0.03007992 -0.015994094 0.01657465 -0.029618694 0.01657465 -0.046205163C 0.01657465 -0.06279163 0.03007992 -0.07582386 0.047268443 -0.07582386zM0.047268443 -0.09181795C 0.021485656 -0.09181795 7.806256E-18 -0.071084864 0 -0.046205163C 3.4152368E-18 -0.020733085 0.021485656 2.6020852E-18 0.047268443 0C 0.073665105 0 0.09515076 -0.020733085 0.09515076 -0.046205163C 0.09515076 -0.071084864 0.073665105 -0.09181795 0.047268443 -0.09181795z" stroke="none" fill="#8134AF" fill-rule="nonzero" />
                        <path transform="matrix(96 0 0 96 178.3552 308.87097)"  d="M0.047268443 -0.07582386C 0.06445697 -0.07582386 0.07857612 -0.062199257 0.07857612 -0.04561279C 0.07857612 -0.02902632 0.06445697 -0.015994094 0.047268443 -0.015994094C 0.03007992 -0.015994094 0.015960773 -0.02902632 0.015960773 -0.04561279C 0.015960773 -0.062199257 0.03007992 -0.07582386 0.047268443 -0.07582386zM0.047268443 -0.09181795C 0.02087178 -0.09181795 7.806256E-18 -0.071084864 0 -0.04561279C -4.391019E-18 -0.020733085 0.02087178 5.2041704E-18 0.047268443 0C 0.073665105 3.4152368E-18 0.094536886 -0.020733085 0.094536886 -0.04561279C 0.094536886 -0.071084864 0.073665105 -0.09181795 0.047268443 -0.09181795z" stroke="none" fill="#8134AF" fill-rule="nonzero" />
                        <path transform="matrix(96 0 0 96 188.55045 296.53064)"  d="M0.047882322 -0.07582386C 0.065070845 -0.07582386 0.07857612 -0.062199257 0.07857612 -0.04561279C 0.07857612 -0.02902632 0.065070845 -0.015401721 0.047882322 -0.015401721C 0.030693796 -0.015401721 0.01657465 -0.02902632 0.01657465 -0.04561279C 0.01657465 -0.062199257 0.030693796 -0.07582386 0.047882322 -0.07582386zM0.047882322 -0.09122558C 0.021485656 -0.09122558 7.806256E-18 -0.071084864 0 -0.04561279C -6.3425827E-18 -0.020140711 0.021485656 2.6020852E-18 0.047882322 0C 0.073665105 -4.87891E-19 0.09515076 -0.020140711 0.09515076 -0.04561279C 0.09515076 -0.071084864 0.073665105 -0.09122558 0.047882322 -0.09122558z" stroke="none" fill="#8134AF" fill-rule="nonzero" />
                        <path transform="matrix(96 0 0 96 198.80463 301.535)"  d="M0.047268443 -0.07582386C 0.06445697 -0.07582386 0.07857612 -0.062199257 0.07857612 -0.04561279C 0.07857612 -0.02902632 0.06445697 -0.015994094 0.047268443 -0.015994094C 0.03007992 -0.015994094 0.01657465 -0.02902632 0.01657465 -0.04561279C 0.01657465 -0.062199257 0.03007992 -0.07582386 0.047268443 -0.07582386zM0.047268443 -0.09181795C 0.021485656 -0.09181795 5.2041704E-18 -0.071084864 0 -0.04561279C 3.903128E-18 -0.020733085 0.021485656 5.2041704E-18 0.047268443 0C 0.073665105 3.4152368E-18 0.09515076 -0.020733085 0.09515076 -0.04561279C 0.09515076 -0.071084864 0.073665105 -0.09181795 0.047268443 -0.09181795z" stroke="none" fill="#8134AF" fill-rule="nonzero" />
                        <path transform="matrix(96 0 0 96 209.0588 295.67758)"  d="M0.047268443 -0.07582386C 0.06445697 -0.07582386 0.07857612 -0.06279163 0.07857612 -0.046205163C 0.07857612 -0.029618694 0.06445697 -0.015994094 0.047268443 -0.015994094C 0.03007992 -0.015994094 0.015960773 -0.029618694 0.015960773 -0.046205163C 0.015960773 -0.06279163 0.03007992 -0.07582386 0.047268443 -0.07582386zM0.047268443 -0.09181795C 0.02087178 -0.09181795 1.0408341E-17 -0.071084864 0 -0.046205163C 2.4394549E-18 -0.020733085 0.02087178 2.6020852E-18 0.047268443 0C 0.073665105 0 0.094536886 -0.020733085 0.094536886 -0.046205163C 0.094536886 -0.071084864 0.073665105 -0.09181795 0.047268443 -0.09181795z" stroke="none" fill="#8134AF" fill-rule="nonzero" />
                        <path transform="matrix(96 0 0 96 219.25407 292.83423)"  d="M0.047268443 -0.07582386C 0.06445697 -0.07582386 0.07857612 -0.062199257 0.07857612 -0.04561279C 0.07857612 -0.02902632 0.06445697 -0.015994094 0.047268443 -0.015994094C 0.03007992 -0.015994094 0.01657465 -0.02902632 0.01657465 -0.04561279C 0.01657465 -0.062199257 0.03007992 -0.07582386 0.047268443 -0.07582386zM0.047268443 -0.09181795C 0.021485656 -0.09181795 5.2041704E-18 -0.071084864 0 -0.04561279C 0 -0.020733085 0.021485656 5.2041704E-18 0.047268443 0C 0.073665105 3.4152368E-18 0.09515076 -0.020733085 0.09515076 -0.04561279C 0.09515076 -0.071084864 0.073665105 -0.09181795 0.047268443 -0.09181795z" stroke="none" fill="#8134AF" fill-rule="nonzero" />
                        <path transform="matrix(96 0 0 96 229.50826 275.8876)"  d="M0.047268443 -0.07582386C 0.06445697 -0.07582386 0.07857612 -0.062199257 0.07857612 -0.04561279C 0.07857612 -0.02902632 0.06445697 -0.015994094 0.047268443 -0.015994094C 0.03007992 -0.015994094 0.015960773 -0.02902632 0.015960773 -0.04561279C 0.015960773 -0.062199257 0.03007992 -0.07582386 0.047268443 -0.07582386zM0.047268443 -0.09181795C 0.02087178 -0.09181795 1.0408341E-17 -0.071084864 0 -0.04561279C -3.4152368E-18 -0.020733085 0.02087178 5.2041704E-18 0.047268443 0C 0.073665105 3.4152368E-18 0.094536886 -0.020733085 0.094536886 -0.04561279C 0.094536886 -0.071084864 0.073665105 -0.09181795 0.047268443 -0.09181795z" stroke="none" fill="#8134AF" fill-rule="nonzero" />
                        <path transform="matrix(96 0 0 96 239.70349 269.46152)"  d="M0.047882322 -0.07582386C 0.065070845 -0.07582386 0.07857612 -0.062199257 0.07857612 -0.04561279C 0.07857612 -0.02902632 0.065070845 -0.015994094 0.047882322 -0.015994094C 0.030693796 -0.015994094 0.01657465 -0.02902632 0.01657465 -0.04561279C 0.01657465 -0.062199257 0.030693796 -0.07582386 0.047882322 -0.07582386zM0.047882322 -0.09181795C 0.021485656 -0.09181795 2.6020852E-18 -0.071084864 0 -0.04561279C -4.391019E-18 -0.020733085 0.021485656 5.2041704E-18 0.047882322 0C 0.073665105 3.4152368E-18 0.09515076 -0.020733085 0.09515076 -0.04561279C 0.09515076 -0.071084864 0.073665105 -0.09181795 0.047882322 -0.09181795z" stroke="none" fill="#8134AF" fill-rule="nonzero" />
                        <path transform="matrix(96 0 0 96 249.95767 268.15353)"  d="M0.047268443 -0.07582386C 0.06445697 -0.07582386 0.07857612 -0.062199257 0.07857612 -0.04561279C 0.07857612 -0.02902632 0.06445697 -0.015994094 0.047268443 -0.015994094C 0.03007992 -0.015994094 0.01657465 -0.02902632 0.01657465 -0.04561279C 0.01657465 -0.062199257 0.03007992 -0.07582386 0.047268443 -0.07582386zM0.047268443 -0.09181795C 0.021485656 -0.09181795 5.2041704E-18 -0.071084864 0 -0.04561279C 0 -0.020733085 0.021485656 2.6020852E-18 0.047268443 0C 0.073665105 1.4636729E-18 0.09515076 -0.020733085 0.09515076 -0.04561279C 0.09515076 -0.071084864 0.073665105 -0.09181795 0.047268443 -0.09181795z" stroke="none" fill="#8134AF" fill-rule="nonzero" />
                        <path transform="matrix(96 0 0 96 260.21185 257.46237)"  d="M0.047268443 -0.07582386C 0.06445697 -0.07582386 0.07857612 -0.062199257 0.07857612 -0.04561279C 0.07857612 -0.02902632 0.06445697 -0.015994094 0.047268443 -0.015994094C 0.03007992 -0.015994094 0.015960773 -0.02902632 0.015960773 -0.04561279C 0.015960773 -0.062199257 0.03007992 -0.07582386 0.047268443 -0.07582386zM0.047268443 -0.09181795C 0.02087178 -0.09181795 1.0408341E-17 -0.071084864 0 -0.04561279C -3.4152368E-18 -0.020140711 0.02087178 0 0.047268443 0C 0.073665105 -4.87891E-19 0.094536886 -0.020140711 0.094536886 -0.04561279C 0.094536886 -0.071084864 0.073665105 -0.09181795 0.047268443 -0.09181795z" stroke="none" fill="#8134AF" fill-rule="nonzero" />
                        <path transform="matrix(96 0 0 96 270.4071 236.19382)"  d="M0.047268443 -0.07582386C 0.06445697 -0.07582386 0.07857612 -0.06279163 0.07857612 -0.046205163C 0.07857612 -0.029618694 0.06445697 -0.015994094 0.047268443 -0.015994094C 0.03007992 -0.015994094 0.01657465 -0.029618694 0.01657465 -0.046205163C 0.01657465 -0.06279163 0.03007992 -0.07582386 0.047268443 -0.07582386zM0.047268443 -0.09181795C 0.021485656 -0.09181795 0 -0.07167724 0 -0.046205163C 3.903128E-18 -0.020733085 0.021485656 2.6020852E-18 0.047268443 0C 0.073665105 0 0.09515076 -0.020733085 0.09515076 -0.046205163C 0.09515076 -0.07167724 0.073665105 -0.09181795 0.047268443 -0.09181795z" stroke="none" fill="#8134AF" fill-rule="nonzero" />
                        <path transform="matrix(96 0 0 96 280.66132 233.3504)"  d="M0.047268443 -0.07582386C 0.06445697 -0.07582386 0.07857612 -0.062199257 0.07857612 -0.04561279C 0.07857612 -0.02902632 0.06445697 -0.015401721 0.047268443 -0.015401721C 0.03007992 -0.015401721 0.015960773 -0.02902632 0.015960773 -0.04561279C 0.015960773 -0.062199257 0.03007992 -0.07582386 0.047268443 -0.07582386zM0.047268443 -0.09122558C 0.02087178 -0.09122558 1.0408341E-17 -0.071084864 0 -0.04561279C -3.4152368E-18 -0.020140711 0.02087178 0 0.047268443 0C 0.073665105 -4.87891E-19 0.094536886 -0.020140711 0.094536886 -0.04561279C 0.094536886 -0.071084864 0.073665105 -0.09122558 0.047268443 -0.09122558z" stroke="none" fill="#8134AF" fill-rule="nonzero" />
                        <path transform="matrix(96 0 0 96 290.85654 219.07657)"  d="M0.047882322 -0.07582386C 0.065070845 -0.07582386 0.07857612 -0.06279163 0.07857612 -0.046205163C 0.07857612 -0.029618694 0.065070845 -0.015994094 0.047882322 -0.015994094C 0.030693796 -0.015994094 0.01657465 -0.029618694 0.01657465 -0.046205163C 0.01657465 -0.06279163 0.030693796 -0.07582386 0.047882322 -0.07582386zM0.047882322 -0.09181795C 0.021485656 -0.09181795 5.2041704E-18 -0.071084864 0 -0.046205163C 4.87891E-19 -0.020733085 0.021485656 2.6020852E-18 0.047882322 0C 0.073665105 0 0.09515076 -0.020733085 0.09515076 -0.046205163C 0.09515076 -0.071084864 0.073665105 -0.09181795 0.047882322 -0.09181795z" stroke="none" fill="#8134AF" fill-rule="nonzero" />
                        <path transform="matrix(96 0 0 96 301.11072 193.08795)"  d="M0.047268443 -0.07582386C 0.06445697 -0.07582386 0.07857612 -0.062199257 0.07857612 -0.04561279C 0.07857612 -0.02902632 0.06445697 -0.015401721 0.047268443 -0.015401721C 0.03007992 -0.015401721 0.01657465 -0.02902632 0.01657465 -0.04561279C 0.01657465 -0.062199257 0.03007992 -0.07582386 0.047268443 -0.07582386zM0.047268443 -0.09122558C 0.021485656 -0.09122558 0 -0.071084864 0 -0.04561279C 3.903128E-18 -0.020140711 0.021485656 0 0.047268443 0C 0.073665105 -4.87891E-19 0.09515076 -0.020140711 0.09515076 -0.04561279C 0.09515076 -0.071084864 0.073665105 -0.09122558 0.047268443 -0.09122558z" stroke="none" fill="#8134AF" fill-rule="nonzero" />
                        <path transform="matrix(96 0 0 96 311.3649 185.12643)"  d="M0.047268443 -0.07582386C 0.06445697 -0.07582386 0.07857612 -0.062199257 0.07857612 -0.04561279C 0.07857612 -0.029618694 0.06445697 -0.015994094 0.047268443 -0.015994094C 0.03007992 -0.015994094 0.015960773 -0.029618694 0.015960773 -0.04561279C 0.015960773 -0.062199257 0.03007992 -0.07582386 0.047268443 -0.07582386zM0.047268443 -0.09181795C 0.02087178 -0.09181795 5.2041704E-18 -0.071084864 0 -0.04561279C 9.7578196E-18 -0.020733085 0.02087178 5.2041704E-18 0.047268443 0C 0.073665105 3.4152368E-18 0.094536886 -0.020733085 0.094536886 -0.04561279C 0.094536886 -0.071084864 0.073665105 -0.09181795 0.047268443 -0.09181795z" stroke="none" fill="#8134AF" fill-rule="nonzero" />
                        <path transform="matrix(96 0 0 96 321.56018 176.48251)"  d="M0.047268443 -0.07582386C 0.06445697 -0.07582386 0.07857612 -0.062199257 0.07857612 -0.04561279C 0.07857612 -0.02902632 0.06445697 -0.015994094 0.047268443 -0.015994094C 0.03007992 -0.015994094 0.01657465 -0.02902632 0.01657465 -0.04561279C 0.01657465 -0.062199257 0.03007992 -0.07582386 0.047268443 -0.07582386zM0.047268443 -0.09181795C 0.021485656 -0.09181795 0 -0.071084864 0 -0.04561279C 3.903128E-18 -0.020733085 0.021485656 5.2041704E-18 0.047268443 0C 0.073665105 3.4152368E-18 0.09515076 -0.020733085 0.09515076 -0.04561279C 0.09515076 -0.071084864 0.073665105 -0.09181795 0.047268443 -0.09181795z" stroke="none" fill="#8134AF" fill-rule="nonzero" />
                        <path transform="matrix(96 0 0 96 331.81436 161.35562)"  d="M0.047268443 -0.07582386C 0.06445697 -0.07582386 0.07857612 -0.062199257 0.07857612 -0.04561279C 0.07857612 -0.02902632 0.06445697 -0.015994094 0.047268443 -0.015994094C 0.03007992 -0.015994094 0.015960773 -0.02902632 0.015960773 -0.04561279C 0.015960773 -0.062199257 0.03007992 -0.07582386 0.047268443 -0.07582386zM0.047268443 -0.09181795C 0.02087178 -0.09181795 1.0408341E-17 -0.071084864 0 -0.04561279C 6.3425827E-18 -0.020733085 0.02087178 5.2041704E-18 0.047268443 0C 0.073665105 3.4152368E-18 0.094536886 -0.020733085 0.094536886 -0.04561279C 0.094536886 -0.071084864 0.073665105 -0.09181795 0.047268443 -0.09181795z" stroke="none" fill="#8134AF" fill-rule="nonzero" />
                        <path transform="matrix(96 0 0 96 342.00958 148.1623)"  d="M0.047882322 -0.07582386C 0.065070845 -0.07582386 0.07857612 -0.06279163 0.07857612 -0.046205163C 0.07857612 -0.029618694 0.065070845 -0.015994094 0.047882322 -0.015994094C 0.030693796 -0.015994094 0.01657465 -0.029618694 0.01657465 -0.046205163C 0.01657465 -0.06279163 0.030693796 -0.07582386 0.047882322 -0.07582386zM0.047882322 -0.09181795C 0.021485656 -0.09181795 7.806256E-18 -0.07167724 0 -0.046205163C 5.3668008E-18 -0.020733085 0.021485656 2.6020852E-18 0.047882322 0C 0.073665105 1.4636729E-18 0.09515076 -0.020733085 0.09515076 -0.046205163C 0.09515076 -0.07167724 0.073665105 -0.09181795 0.047882322 -0.09181795z" stroke="none" fill="#8134AF" fill-rule="nonzero" />
                        <path transform="matrix(96 0 0 96 352.26376 127.12118)"  d="M0.047268443 -0.07582386C 0.06445697 -0.07582386 0.07857612 -0.062199257 0.07857612 -0.04561279C 0.07857612 -0.02902632 0.06445697 -0.015401721 0.047268443 -0.015401721C 0.03007992 -0.015401721 0.01657465 -0.02902632 0.01657465 -0.04561279C 0.01657465 -0.062199257 0.03007992 -0.07582386 0.047268443 -0.07582386zM0.047268443 -0.09122558C 0.021485656 -0.09122558 0 -0.071084864 0 -0.04561279C 3.903128E-18 -0.020140711 0.021485656 5.2041704E-18 0.047268443 0C 0.073665105 1.4636729E-18 0.09515076 -0.020140711 0.09515076 -0.04561279C 0.09515076 -0.071084864 0.073665105 -0.09122558 0.047268443 -0.09122558z" stroke="none" fill="#8134AF" fill-rule="nonzero" />
                        <path transform="matrix(96 0 0 96 362.51794 115.40641)"  d="M0.047268443 -0.07582386C 0.06445697 -0.07582386 0.07857612 -0.062199257 0.07857612 -0.04561279C 0.07857612 -0.02902632 0.06445697 -0.015994094 0.047268443 -0.015994094C 0.03007992 -0.015994094 0.015960773 -0.02902632 0.015960773 -0.04561279C 0.015960773 -0.062199257 0.03007992 -0.07582386 0.047268443 -0.07582386zM0.047268443 -0.09181795C 0.02087178 -0.09181795 1.0408341E-17 -0.071084864 0 -0.04561279C 6.3425827E-18 -0.020733085 0.02087178 5.2041704E-18 0.047268443 0C 0.073665105 3.4152368E-18 0.094536886 -0.020733085 0.094536886 -0.04561279C 0.094536886 -0.071084864 0.073665105 -0.09181795 0.047268443 -0.09181795z" stroke="none" fill="#8134AF" fill-rule="nonzero" />
                        <path transform="matrix(96 0 0 96 372.7132 106.36439)"  d="M0.047268443 -0.07582386C 0.06445697 -0.07582386 0.07857612 -0.06279163 0.07857612 -0.046205163C 0.07857612 -0.029618694 0.06445697 -0.015994094 0.047268443 -0.015994094C 0.03007992 -0.015994094 0.01657465 -0.029618694 0.01657465 -0.046205163C 0.01657465 -0.06279163 0.03007992 -0.07582386 0.047268443 -0.07582386zM0.047268443 -0.09181795C 0.021485656 -0.09181795 5.2041704E-18 -0.071084864 0 -0.046205163C 3.903128E-18 -0.020733085 0.021485656 2.6020852E-18 0.047268443 0C 0.073665105 0 0.09515076 -0.020733085 0.09515076 -0.046205163C 0.09515076 -0.071084864 0.073665105 -0.09181795 0.047268443 -0.09181795z" stroke="none" fill="#8134AF" fill-rule="nonzero" />
                        <path transform="matrix(96 0 0 96 382.96738 100.222664)"  d="M0.047268443 -0.07582386C 0.06445697 -0.07582386 0.07857612 -0.062199257 0.07857612 -0.04561279C 0.07857612 -0.02902632 0.06445697 -0.015994094 0.047268443 -0.015994094C 0.03007992 -0.015994094 0.015960773 -0.02902632 0.015960773 -0.04561279C 0.015960773 -0.062199257 0.03007992 -0.07582386 0.047268443 -0.07582386zM0.047268443 -0.09181795C 0.02087178 -0.09181795 1.0408341E-17 -0.071084864 0 -0.04561279C 2.4394549E-18 -0.020733085 0.02087178 5.2041704E-18 0.047268443 0C 0.073665105 3.4152368E-18 0.094536886 -0.020733085 0.094536886 -0.04561279C 0.094536886 -0.071084864 0.073665105 -0.09181795 0.047268443 -0.09181795z" stroke="none" fill="#8134AF" fill-rule="nonzero" />
                        <path transform="matrix(96 0 0 96 393.16266 88.16668)"  d="M0.047882322 -0.07582386C 0.065070845 -0.07582386 0.07857612 -0.062199257 0.07857612 -0.04561279C 0.07857612 -0.02902632 0.065070845 -0.015994094 0.047882322 -0.015994094C 0.030693796 -0.015994094 0.01657465 -0.02902632 0.01657465 -0.04561279C 0.01657465 -0.062199257 0.030693796 -0.07582386 0.047882322 -0.07582386zM0.047882322 -0.09181795C 0.021485656 -0.09181795 2.6020852E-18 -0.071084864 0 -0.04561279C -4.391019E-18 -0.020733085 0.021485656 5.2041704E-18 0.047882322 0C 0.073665105 3.4152368E-18 0.09515076 -0.020733085 0.09515076 -0.04561279C 0.09515076 -0.071084864 0.073665105 -0.09181795 0.047882322 -0.09181795z" stroke="none" fill="#8134AF" fill-rule="nonzero" />
                        <path transform="matrix(96 0 0 96 403.41684 84.52714)"  d="M0.047268443 -0.07582386C 0.06445697 -0.07582386 0.07857612 -0.062199257 0.07857612 -0.04561279C 0.07857612 -0.02902632 0.06445697 -0.015401721 0.047268443 -0.015401721C 0.03007992 -0.015401721 0.01657465 -0.02902632 0.01657465 -0.04561279C 0.01657465 -0.062199257 0.03007992 -0.07582386 0.047268443 -0.07582386zM0.047268443 -0.09122558C 0.021485656 -0.09122558 5.2041704E-18 -0.071084864 0 -0.04561279C 0 -0.020140711 0.021485656 0 0.047268443 0C 0.073665105 -4.87891E-19 0.09515076 -0.020140711 0.09515076 -0.04561279C 0.09515076 -0.071084864 0.073665105 -0.09122558 0.047268443 -0.09122558z" stroke="none" fill="#8134AF" fill-rule="nonzero" />
                        <path transform="matrix(96 0 0 96 413.67102 83.04856)"  d="M0.047268443 -0.07582386C 0.06445697 -0.07582386 0.07857612 -0.06279163 0.07857612 -0.046205163C 0.07857612 -0.029618694 0.06445697 -0.015994094 0.047268443 -0.015994094C 0.03007992 -0.015994094 0.015960773 -0.029618694 0.015960773 -0.046205163C 0.015960773 -0.06279163 0.03007992 -0.07582386 0.047268443 -0.07582386zM0.047268443 -0.09181795C 0.02087178 -0.09181795 5.2041704E-18 -0.071084864 0 -0.046205163C 1.951564E-18 -0.020733085 0.02087178 2.6020852E-18 0.047268443 0C 0.073665105 0 0.094536886 -0.020733085 0.094536886 -0.046205163C 0.094536886 -0.071084864 0.073665105 -0.09181795 0.047268443 -0.09181795z" stroke="none" fill="#8134AF" fill-rule="nonzero" />
                        <path transform="matrix(96 0 0 96 423.86627 78.954094)"  d="M0.047268443 -0.07582386C 0.06445697 -0.07582386 0.07857612 -0.062199257 0.07857612 -0.04561279C 0.07857612 -0.02902632 0.06445697 -0.015401721 0.047268443 -0.015401721C 0.03007992 -0.015401721 0.01657465 -0.02902632 0.01657465 -0.04561279C 0.01657465 -0.062199257 0.03007992 -0.07582386 0.047268443 -0.07582386zM0.047268443 -0.09122558C 0.021485656 -0.09122558 5.2041704E-18 -0.071084864 0 -0.04561279C 4.87891E-19 -0.020140711 0.021485656 2.6020852E-18 0.047268443 0C 0.073665105 -4.87891E-19 0.09515076 -0.020140711 0.09515076 -0.04561279C 0.09515076 -0.071084864 0.073665105 -0.09122558 0.047268443 -0.09122558z" stroke="none" fill="#8134AF" fill-rule="nonzero" />
                        <path transform="matrix(96 0 0 96 434.12045 75.485115)"  d="M0.047268443 -0.07582386C 0.06445697 -0.07582386 0.07857612 -0.062199257 0.07857612 -0.04561279C 0.07857612 -0.02902632 0.06445697 -0.015401721 0.047268443 -0.015401721C 0.03007992 -0.015401721 0.015960773 -0.02902632 0.015960773 -0.04561279C 0.015960773 -0.062199257 0.03007992 -0.07582386 0.047268443 -0.07582386zM0.047268443 -0.09122558C 0.02087178 -0.09122558 2.6020852E-18 -0.071084864 0 -0.04561279C -1.951564E-18 -0.020140711 0.02087178 0 0.047268443 0C 0.073665105 -4.87891E-19 0.094536886 -0.020140711 0.094536886 -0.04561279C 0.094536886 -0.071084864 0.073665105 -0.09122558 0.047268443 -0.09122558z" stroke="none" fill="#8134AF" fill-rule="nonzero" />
                        <path transform="matrix(96 0 0 96 444.31567 75.71262)"  d="M0.047882322 -0.07582386C 0.065070845 -0.07582386 0.07857612 -0.062199257 0.07857612 -0.04561279C 0.07857612 -0.02902632 0.065070845 -0.015401721 0.047882322 -0.015401721C 0.030693796 -0.015401721 0.01657465 -0.02902632 0.01657465 -0.04561279C 0.01657465 -0.062199257 0.030693796 -0.07582386 0.047882322 -0.07582386zM0.047882322 -0.09122558C 0.021485656 -0.09122558 2.6020852E-18 -0.071084864 0 -0.04561279C -4.391019E-18 -0.020140711 0.021485656 0 0.047882322 0C 0.073665105 -4.87891E-19 0.09515076 -0.020140711 0.09515076 -0.04561279C 0.09515076 -0.071084864 0.073665105 -0.09122558 0.047882322 -0.09122558z" stroke="none" fill="#8134AF" fill-rule="nonzero" />
                        <path transform="matrix(96 0 0 96 454.56985 78.385414)"  d="M0.047268443 -0.07582386C 0.06445697 -0.07582386 0.07857612 -0.062199257 0.07857612 -0.04561279C 0.07857612 -0.02902632 0.06445697 -0.015401721 0.047268443 -0.015401721C 0.03007992 -0.015401721 0.01657465 -0.02902632 0.01657465 -0.04561279C 0.01657465 -0.062199257 0.03007992 -0.07582386 0.047268443 -0.07582386zM0.047268443 -0.09122558C 0.021485656 -0.09122558 5.2041704E-18 -0.071084864 0 -0.04561279C 0 -0.020140711 0.021485656 2.6020852E-18 0.047268443 0C 0.073665105 1.4636729E-18 0.09515076 -0.020140711 0.09515076 -0.04561279C 0.09515076 -0.071084864 0.073665105 -0.09122558 0.047268443 -0.09122558z" stroke="none" fill="#8134AF" fill-rule="nonzero" />
                        <path transform="matrix(96 0 0 96 464.82404 80.26202)"  d="M0.047268443 -0.07582386C 0.06445697 -0.07582386 0.07857612 -0.06279163 0.07857612 -0.046205163C 0.07857612 -0.029618694 0.06445697 -0.015994094 0.047268443 -0.015994094C 0.03007992 -0.015994094 0.015960773 -0.029618694 0.015960773 -0.046205163C 0.015960773 -0.06279163 0.03007992 -0.07582386 0.047268443 -0.07582386zM0.047268443 -0.09181795C 0.02087178 -0.09181795 5.2041704E-18 -0.071084864 0 -0.046205163C 0 -0.020733085 0.02087178 2.6020852E-18 0.047268443 0C 0.073665105 1.4636729E-18 0.094536886 -0.020733085 0.094536886 -0.046205163C 0.094536886 -0.071084864 0.073665105 -0.09181795 0.047268443 -0.09181795z" stroke="none" fill="#8134AF" fill-rule="nonzero" />
                        <path transform="matrix(96 0 0 96 475.01932 79.75024)"  d="M0.047268443 -0.07582386C 0.06445697 -0.07582386 0.07857612 -0.062199257 0.07857612 -0.046205163C 0.07857612 -0.029618694 0.06445697 -0.015994094 0.047268443 -0.015994094C 0.03007992 -0.015994094 0.01657465 -0.029618694 0.01657465 -0.046205163C 0.01657465 -0.062199257 0.03007992 -0.07582386 0.047268443 -0.07582386zM0.047268443 -0.09181795C 0.021485656 -0.09181795 5.2041704E-18 -0.071084864 0 -0.046205163C 1.951564E-18 -0.020733085 0.021485656 2.6020852E-18 0.047268443 0C 0.073665105 0 0.09515076 -0.020733085 0.09515076 -0.046205163C 0.09515076 -0.071084864 0.073665105 -0.09181795 0.047268443 -0.09181795z" stroke="none" fill="#8134AF" fill-rule="nonzero" />
                        <path transform="matrix(96 0 0 96 70.33267 341.79745)"  d="M0 0L0.10681441 -0.008293234L0.21362881 -0.02132546L0.31982934 -0.048574656L0.42664376 -0.048574656L0.5328443 -0.09951881L0.6396587 -0.07049249L0.7464731 -0.1451316L0.85267365 -0.18482065L0.95948803 -0.18837489L1.0656886 -0.2286563L1.172503 -0.27723098L1.2793174 -0.32580563L1.385518 -0.38622776L1.4923323 -0.44428042L1.5985328 -0.5064797L1.7053473 -0.60659087L1.8121617 -0.6984088L1.9183621 -0.7108486L2.0251765 -0.82162255L2.1313772 -0.8743438L2.2381916 -0.98571014L2.345006 -1.1361731L2.4512064 -1.1509824L2.5580208 -1.3523896L2.6642215 -1.5158848L2.771036 -1.6254739L2.8778503 -1.7486876L2.9840508 -1.8505759L3.0908651 -1.9791211L3.1970656 -2.0525753L3.3038802 -2.0922644L3.4106946 -2.1094434L3.516895 -2.1977072L3.6237094 -2.214886L3.72991 -2.2474666L3.8367243 -2.1900063L3.943539 -2.2154782L4.0497394 -2.2729385L4.1565537 -2.2604988L4.2627544 -2.221402" stroke="#DD2A7B" stroke-width="0.016284373" stroke-linecap="round" fill="none" />
                        <path transform="matrix(96 0 0 96 66.03064 344.18594)"  d="M0.04481294 -0.07582386L0 0L0.090239756 0L0.04481294 -0.07582386z" stroke="#DD2A7B" stroke-width="0.016284373" stroke-linecap="round" fill="none" />
                        <path transform="matrix(96 0 0 96 76.22589 343.38974)"  d="M0.045426816 -0.07582386L0 0L0.09085363 0L0.045426816 -0.07582386z" stroke="#DD2A7B" stroke-width="0.016284373" stroke-linecap="round" fill="none" />
                        <path transform="matrix(96 0 0 96 86.48007 342.13867)"  d="M0.045426816 -0.07582386L0 0L0.09085363 0L0.045426816 -0.07582386z" stroke="#DD2A7B" stroke-width="0.016284373" stroke-linecap="round" fill="none" />
                        <path transform="matrix(96 0 0 96 96.675316 339.57965)"  d="M0.045426816 -0.07582386L0 0L0.09085363 0L0.045426816 -0.07582386z" stroke="#DD2A7B" stroke-width="0.016284373" stroke-linecap="round" fill="none" />
                        <path transform="matrix(96 0 0 96 106.929504 339.52274)"  d="M0.045426816 -0.07582386L0 0L0.09085363 0L0.045426816 -0.07582386z" stroke="#DD2A7B" stroke-width="0.016284373" stroke-linecap="round" fill="none" />
                        <path transform="matrix(96 0 0 96 117.183685 334.689)"  d="M0.04481294 -0.07582386L0 0L0.090239756 0L0.04481294 -0.07582386z" stroke="#DD2A7B" stroke-width="0.016284373" stroke-linecap="round" fill="none" />
                        <path transform="matrix(96 0 0 96 127.37894 337.41864)"  d="M0.045426816 -0.07582386L0 0L0.09085363 0L0.045426816 -0.07582386z" stroke="#DD2A7B" stroke-width="0.016284373" stroke-linecap="round" fill="none" />
                        <path transform="matrix(96 0 0 96 137.63312 330.31015)"  d="M0.045426816 -0.07582386L0 0L0.09085363 0L0.045426816 -0.07582386z" stroke="#DD2A7B" stroke-width="0.016284373" stroke-linecap="round" fill="none" />
                        <path transform="matrix(96 0 0 96 147.82838 326.5)"  d="M0.045426816 -0.07582386L0 0L0.09085363 0L0.045426816 -0.07582386z" stroke="#DD2A7B" stroke-width="0.016284373" stroke-linecap="round" fill="none" />
                        <path transform="matrix(96 0 0 96 158.08257 326.15878)"  d="M0.045426816 -0.07582386L0 0L0.09085363 0L0.045426816 -0.07582386z" stroke="#DD2A7B" stroke-width="0.016284373" stroke-linecap="round" fill="none" />
                        <path transform="matrix(96 0 0 96 168.33675 322.29178)"  d="M0.04481294 -0.07582386L0 0L0.090239756 0L0.04481294 -0.07582386z" stroke="#DD2A7B" stroke-width="0.016284373" stroke-linecap="round" fill="none" />
                        <path transform="matrix(96 0 0 96 178.53198 317.6286)"  d="M0.045426816 -0.07582386L0 0L0.09085363 0L0.045426816 -0.07582386z" stroke="#DD2A7B" stroke-width="0.016284373" stroke-linecap="round" fill="none" />
                        <path transform="matrix(96 0 0 96 188.78616 312.9086)"  d="M0.045426816 -0.07582386L0 0L0.09085363 0L0.045426816 -0.07582386z" stroke="#DD2A7B" stroke-width="0.016284373" stroke-linecap="round" fill="none" />
                        <path transform="matrix(96 0 0 96 198.98141 307.16495)"  d="M0.045426816 -0.07582386L0 0L0.09085363 0L0.045426816 -0.07582386z" stroke="#DD2A7B" stroke-width="0.016284373" stroke-linecap="round" fill="none" />
                        <path transform="matrix(96 0 0 96 209.23561 301.59186)"  d="M0.045426816 -0.07582386L0 0L0.09085363 0L0.045426816 -0.07582386z" stroke="#DD2A7B" stroke-width="0.016284373" stroke-linecap="round" fill="none" />
                        <path transform="matrix(96 0 0 96 219.48979 295.62073)"  d="M0.04481294 -0.07582386L0 0L0.090239756 0L0.04481294 -0.07582386z" stroke="#DD2A7B" stroke-width="0.016284373" stroke-linecap="round" fill="none" />
                        <path transform="matrix(96 0 0 96 229.68504 286.01007)"  d="M0.045426816 -0.07582386L0 0L0.09085363 0L0.045426816 -0.07582386z" stroke="#DD2A7B" stroke-width="0.016284373" stroke-linecap="round" fill="none" />
                        <path transform="matrix(96 0 0 96 239.93922 277.19556)"  d="M0.045426816 -0.07582386L0 0L0.09085363 0L0.045426816 -0.07582386z" stroke="#DD2A7B" stroke-width="0.016284373" stroke-linecap="round" fill="none" />
                        <path transform="matrix(96 0 0 96 250.13446 275.94446)"  d="M0.045426816 -0.07582386L0 0L0.09085363 0L0.045426816 -0.07582386z" stroke="#DD2A7B" stroke-width="0.016284373" stroke-linecap="round" fill="none" />
                        <path transform="matrix(96 0 0 96 260.38867 265.31015)"  d="M0.045426816 -0.07582386L0 0L0.09085363 0L0.045426816 -0.07582386z" stroke="#DD2A7B" stroke-width="0.016284373" stroke-linecap="round" fill="none" />
                        <path transform="matrix(96 0 0 96 270.64285 260.3058)"  d="M0.04481294 -0.07582386L0 0L0.090239756 0L0.04481294 -0.07582386z" stroke="#DD2A7B" stroke-width="0.016284373" stroke-linecap="round" fill="none" />
                        <path transform="matrix(96 0 0 96 280.8381 249.55777)"  d="M0.045426816 -0.07582386L0 0L0.09085363 0L0.045426816 -0.07582386z" stroke="#DD2A7B" stroke-width="0.016284373" stroke-linecap="round" fill="none" />
                        <path transform="matrix(96 0 0 96 291.0923 235.17017)"  d="M0.045426816 -0.07582386L0 0L0.09085363 0L0.045426816 -0.07582386z" stroke="#DD2A7B" stroke-width="0.016284373" stroke-linecap="round" fill="none" />
                        <path transform="matrix(96 0 0 96 301.2875 233.74847)"  d="M0.045426816 -0.07582386L0 0L0.09085363 0L0.045426816 -0.07582386z" stroke="#DD2A7B" stroke-width="0.016284373" stroke-linecap="round" fill="none" />
                        <path transform="matrix(96 0 0 96 311.5417 214.41342)"  d="M0.045426816 -0.07582386L0 0L0.09085363 0L0.045426816 -0.07582386z" stroke="#DD2A7B" stroke-width="0.016284373" stroke-linecap="round" fill="none" />
                        <path transform="matrix(96 0 0 96 321.79587 198.71783)"  d="M0.04481294 -0.07582386L0 0L0.090239756 0L0.04481294 -0.07582386z" stroke="#DD2A7B" stroke-width="0.016284373" stroke-linecap="round" fill="none" />
                        <path transform="matrix(96 0 0 96 331.99115 188.1973)"  d="M0.045426816 -0.07582386L0 0L0.09085363 0L0.045426816 -0.07582386z" stroke="#DD2A7B" stroke-width="0.016284373" stroke-linecap="round" fill="none" />
                        <path transform="matrix(96 0 0 96 342.24533 176.31192)"  d="M0.045426816 -0.075231485L0 0L0.09085363 0L0.045426816 -0.075231485z" stroke="#DD2A7B" stroke-width="0.016284373" stroke-linecap="round" fill="none" />
                        <path transform="matrix(96 0 0 96 352.44058 166.5875)"  d="M0.045426816 -0.07582386L0 0L0.09085363 0L0.045426816 -0.07582386z" stroke="#DD2A7B" stroke-width="0.016284373" stroke-linecap="round" fill="none" />
                        <path transform="matrix(96 0 0 96 362.69476 154.1903)"  d="M0.045426816 -0.075231485L0 0L0.09085363 0L0.045426816 -0.075231485z" stroke="#DD2A7B" stroke-width="0.016284373" stroke-linecap="round" fill="none" />
                        <path transform="matrix(96 0 0 96 372.94894 147.13867)"  d="M0.04481294 -0.07582386L0 0L0.090239756 0L0.04481294 -0.07582386z" stroke="#DD2A7B" stroke-width="0.016284373" stroke-linecap="round" fill="none" />
                        <path transform="matrix(96 0 0 96 383.14417 143.38538)"  d="M0.045426816 -0.07582386L0 0L0.09085363 0L0.045426816 -0.07582386z" stroke="#DD2A7B" stroke-width="0.016284373" stroke-linecap="round" fill="none" />
                        <path transform="matrix(96 0 0 96 393.39835 141.73624)"  d="M0.045426816 -0.07582386L0 0L0.09085363 0L0.045426816 -0.07582386z" stroke="#DD2A7B" stroke-width="0.016284373" stroke-linecap="round" fill="none" />
                        <path transform="matrix(96 0 0 96 403.59363 133.26291)"  d="M0.045426816 -0.07582386L0 0L0.09085363 0L0.045426816 -0.07582386z" stroke="#DD2A7B" stroke-width="0.016284373" stroke-linecap="round" fill="none" />
                        <path transform="matrix(96 0 0 96 413.8478 131.55685)"  d="M0.045426816 -0.07582386L0 0L0.09085363 0L0.045426816 -0.07582386z" stroke="#DD2A7B" stroke-width="0.016284373" stroke-linecap="round" fill="none" />
                        <path transform="matrix(96 0 0 96 424.102 128.486)"  d="M0.04481294 -0.07582386L0 0L0.090239756 0L0.04481294 -0.07582386z" stroke="#DD2A7B" stroke-width="0.016284373" stroke-linecap="round" fill="none" />
                        <path transform="matrix(96 0 0 96 434.29724 134.0022)"  d="M0.045426816 -0.07582386L0 0L0.09085363 0L0.045426816 -0.07582386z" stroke="#DD2A7B" stroke-width="0.016284373" stroke-linecap="round" fill="none" />
                        <path transform="matrix(96 0 0 96 444.55142 131.55685)"  d="M0.045426816 -0.07582386L0 0L0.09085363 0L0.045426816 -0.07582386z" stroke="#DD2A7B" stroke-width="0.016284373" stroke-linecap="round" fill="none" />
                        <path transform="matrix(96 0 0 96 454.7467 126.04067)"  d="M0.045426816 -0.07582386L0 0L0.09085363 0L0.045426816 -0.07582386z" stroke="#DD2A7B" stroke-width="0.016284373" stroke-linecap="round" fill="none" />
                        <path transform="matrix(96 0 0 96 465.0009 127.23493)"  d="M0.045426816 -0.07582386L0 0L0.09085363 0L0.045426816 -0.07582386z" stroke="#DD2A7B" stroke-width="0.016284373" stroke-linecap="round" fill="none" />
                        <path transform="matrix(96 0 0 96 475.25507 130.93134)"  d="M0.04481294 -0.07582386L0 0L0.090239756 0L0.04481294 -0.07582386z" stroke="#DD2A7B" stroke-width="0.016284373" stroke-linecap="round" fill="none" />
                        <path transform="matrix(96 0 0 96 70.33267 341.68375)"  d="M0 -0.0029618694L0.10681441 -0.0077008605L0.21362881 0L0.31982934 -0.04738991L0.42664376 -0.024287328L0.5328443 -0.022510206L0.6396587 -0.07049249L0.7464731 -0.06990012L0.85267365 -0.095964566L0.95948803 -0.124398515L1.0656886 -0.16171807L1.172503 -0.19666812L1.2793174 -0.23221056L1.385518 -0.30744204L1.4923323 -0.30744204L1.5985328 -0.34713107L1.7053473 -0.50588727L1.8121617 -0.50411016L1.9183621 -0.6101451L2.0251765 -0.67471385L2.1313772 -0.7369131L2.2381916 -0.842948L2.345006 -0.8660506L2.4512064 -0.97208554L2.5580208 -1.0289534L2.6642215 -1.1195866L2.771036 -1.1871172L2.8778503 -1.3192166L2.9840508 -1.373715L3.0908651 -1.4305829L3.1970656 -1.4898202L3.3038802 -1.5312865L3.4106946 -1.5585357L3.516895 -1.5757145L3.6237094 -1.6041484L3.72991 -1.6159959L3.8367243 -1.6296206L3.943539 -1.6503536L4.0497394 -1.6313976L4.1565537 -1.6242892L4.2627544 -1.6183654" stroke="#515BD4" stroke-width="0.016284373" stroke-linecap="round" fill="none" />
                        <path transform="matrix(96 0 0 96 66.03064 346.23315)"  d="M0.04481294 0L0 -0.07582386L0.090239756 -0.07582386L0.04481294 0z" stroke="#515BD4" stroke-width="0.016284373" stroke-linecap="round" fill="none" />
                        <path transform="matrix(96 0 0 96 76.22589 345.77823)"  d="M0.045426816 0L0 -0.07582386L0.09085363 -0.07582386L0.045426816 0z" stroke="#515BD4" stroke-width="0.016284373" stroke-linecap="round" fill="none" />
                        <path transform="matrix(96 0 0 96 86.48007 346.51752)"  d="M0.045426816 0L0 -0.07582386L0.09085363 -0.07582386L0.045426816 0z" stroke="#515BD4" stroke-width="0.016284373" stroke-linecap="round" fill="none" />
                        <path transform="matrix(96 0 0 96 96.675316 341.96808)"  d="M0.045426816 0L0 -0.07582386L0.09085363 -0.07582386L0.045426816 0z" stroke="#515BD4" stroke-width="0.016284373" stroke-linecap="round" fill="none" />
                        <path transform="matrix(96 0 0 96 106.929504 344.2428)"  d="M0.045426816 0L0 -0.07582386L0.09085363 -0.07582386L0.045426816 0z" stroke="#515BD4" stroke-width="0.016284373" stroke-linecap="round" fill="none" />
                        <path transform="matrix(96 0 0 96 117.183685 344.35654)"  d="M0.04481294 0L0 -0.07582386L0.090239756 -0.07582386L0.04481294 0z" stroke="#515BD4" stroke-width="0.016284373" stroke-linecap="round" fill="none" />
                        <path transform="matrix(96 0 0 96 127.37894 339.8071)"  d="M0.045426816 0L0 -0.07582386L0.09085363 -0.07582386L0.045426816 0z" stroke="#515BD4" stroke-width="0.016284373" stroke-linecap="round" fill="none" />
                        <path transform="matrix(96 0 0 96 137.63312 339.8071)"  d="M0.045426816 0L0 -0.07582386L0.09085363 -0.07582386L0.045426816 0z" stroke="#515BD4" stroke-width="0.016284373" stroke-linecap="round" fill="none" />
                        <path transform="matrix(96 0 0 96 147.82838 337.3618)"  d="M0.045426816 0L0 -0.07582386L0.09085363 -0.07582386L0.045426816 0z" stroke="#515BD4" stroke-width="0.016284373" stroke-linecap="round" fill="none" />
                        <path transform="matrix(96 0 0 96 158.08257 334.63214)"  d="M0.045426816 0L0 -0.07582386L0.09085363 -0.07582386L0.045426816 0z" stroke="#515BD4" stroke-width="0.016284373" stroke-linecap="round" fill="none" />
                        <path transform="matrix(96 0 0 96 168.33675 330.99258)"  d="M0.04481294 0L0 -0.075231485L0.090239756 -0.075231485L0.04481294 0z" stroke="#515BD4" stroke-width="0.016284373" stroke-linecap="round" fill="none" />
                        <path transform="matrix(96 0 0 96 178.53198 327.63736)"  d="M0.045426816 0L0 -0.07582386L0.09085363 -0.07582386L0.045426816 0z" stroke="#515BD4" stroke-width="0.016284373" stroke-linecap="round" fill="none" />
                        <path transform="matrix(96 0 0 96 188.78616 324.22528)"  d="M0.045426816 0L0 -0.07582386L0.09085363 -0.07582386L0.045426816 0z" stroke="#515BD4" stroke-width="0.016284373" stroke-linecap="round" fill="none" />
                        <path transform="matrix(96 0 0 96 198.98141 317.0599)"  d="M0.045426816 0L0 -0.07582386L0.09085363 -0.07582386L0.045426816 0z" stroke="#515BD4" stroke-width="0.016284373" stroke-linecap="round" fill="none" />
                        <path transform="matrix(96 0 0 96 209.23561 317.0599)"  d="M0.045426816 0L0 -0.07582386L0.09085363 -0.07582386L0.045426816 0z" stroke="#515BD4" stroke-width="0.016284373" stroke-linecap="round" fill="none" />
                        <path transform="matrix(96 0 0 96 219.48979 313.24982)"  d="M0.04481294 0L0 -0.07582386L0.090239756 -0.07582386L0.04481294 0z" stroke="#515BD4" stroke-width="0.016284373" stroke-linecap="round" fill="none" />
                        <path transform="matrix(96 0 0 96 229.68504 298.00922)"  d="M0.045426816 0L0 -0.07582386L0.09085363 -0.07582386L0.045426816 0z" stroke="#515BD4" stroke-width="0.016284373" stroke-linecap="round" fill="none" />
                        <path transform="matrix(96 0 0 96 239.93922 298.12292)"  d="M0.045426816 0L0 -0.07582386L0.09085363 -0.07582386L0.045426816 0z" stroke="#515BD4" stroke-width="0.016284373" stroke-linecap="round" fill="none" />
                        <path transform="matrix(96 0 0 96 250.13446 287.94357)"  d="M0.045426816 0L0 -0.07582386L0.09085363 -0.07582386L0.045426816 0z" stroke="#515BD4" stroke-width="0.016284373" stroke-linecap="round" fill="none" />
                        <path transform="matrix(96 0 0 96 260.38867 281.80185)"  d="M0.045426816 0L0 -0.07582386L0.09085363 -0.07582386L0.045426816 0z" stroke="#515BD4" stroke-width="0.016284373" stroke-linecap="round" fill="none" />
                        <path transform="matrix(96 0 0 96 270.64285 275.8307)"  d="M0.04481294 0L0 -0.07582386L0.090239756 -0.07582386L0.04481294 0z" stroke="#515BD4" stroke-width="0.016284373" stroke-linecap="round" fill="none" />
                        <path transform="matrix(96 0 0 96 280.8381 265.65137)"  d="M0.045426816 0L0 -0.07582386L0.09085363 -0.07582386L0.045426816 0z" stroke="#515BD4" stroke-width="0.016284373" stroke-linecap="round" fill="none" />
                        <path transform="matrix(96 0 0 96 291.0923 263.4335)"  d="M0.045426816 0L0 -0.07582386L0.09085363 -0.07582386L0.045426816 0z" stroke="#515BD4" stroke-width="0.016284373" stroke-linecap="round" fill="none" />
                        <path transform="matrix(96 0 0 96 301.2875 253.1973)"  d="M0.045426816 0L0 -0.07582386L0.09085363 -0.07582386L0.045426816 0z" stroke="#515BD4" stroke-width="0.016284373" stroke-linecap="round" fill="none" />
                        <path transform="matrix(96 0 0 96 311.5417 247.73798)"  d="M0.045426816 0L0 -0.07582386L0.09085363 -0.07582386L0.045426816 0z" stroke="#515BD4" stroke-width="0.016284373" stroke-linecap="round" fill="none" />
                        <path transform="matrix(96 0 0 96 321.79587 239.09406)"  d="M0.04481294 0L0 -0.07582386L0.090239756 -0.07582386L0.04481294 0z" stroke="#515BD4" stroke-width="0.016284373" stroke-linecap="round" fill="none" />
                        <path transform="matrix(96 0 0 96 331.99115 232.55426)"  d="M0.045426816 0L0 -0.07582386L0.09085363 -0.07582386L0.045426816 0z" stroke="#515BD4" stroke-width="0.016284373" stroke-linecap="round" fill="none" />
                        <path transform="matrix(96 0 0 96 342.24533 219.87271)"  d="M0.045426816 0L0 -0.07582386L0.09085363 -0.07582386L0.045426816 0z" stroke="#515BD4" stroke-width="0.016284373" stroke-linecap="round" fill="none" />
                        <path transform="matrix(96 0 0 96 352.44058 214.64087)"  d="M0.045426816 0L0 -0.07582386L0.09085363 -0.07582386L0.045426816 0z" stroke="#515BD4" stroke-width="0.016284373" stroke-linecap="round" fill="none" />
                        <path transform="matrix(96 0 0 96 362.69476 209.18155)"  d="M0.045426816 0L0 -0.075231485L0.09085363 -0.075231485L0.045426816 0z" stroke="#515BD4" stroke-width="0.016284373" stroke-linecap="round" fill="none" />
                        <path transform="matrix(96 0 0 96 372.94894 203.49475)"  d="M0.04481294 0L0 -0.07582386L0.090239756 -0.07582386L0.04481294 0z" stroke="#515BD4" stroke-width="0.016284373" stroke-linecap="round" fill="none" />
                        <path transform="matrix(96 0 0 96 383.14417 199.51398)"  d="M0.045426816 0L0 -0.07582386L0.09085363 -0.07582386L0.045426816 0z" stroke="#515BD4" stroke-width="0.016284373" stroke-linecap="round" fill="none" />
                        <path transform="matrix(96 0 0 96 393.39835 196.95496)"  d="M0.045426816 0L0 -0.07582386L0.09085363 -0.07582386L0.045426816 0z" stroke="#515BD4" stroke-width="0.016284373" stroke-linecap="round" fill="none" />
                        <path transform="matrix(96 0 0 96 403.59363 195.2489)"  d="M0.045426816 0L0 -0.07582386L0.09085363 -0.07582386L0.045426816 0z" stroke="#515BD4" stroke-width="0.016284373" stroke-linecap="round" fill="none" />
                        <path transform="matrix(96 0 0 96 413.8478 192.51926)"  d="M0.045426816 0L0 -0.075231485L0.09085363 -0.075231485L0.045426816 0z" stroke="#515BD4" stroke-width="0.016284373" stroke-linecap="round" fill="none" />
                        <path transform="matrix(96 0 0 96 424.102 191.3819)"  d="M0.04481294 0L0 -0.07582386L0.090239756 -0.07582386L0.04481294 0z" stroke="#515BD4" stroke-width="0.016284373" stroke-linecap="round" fill="none" />
                        <path transform="matrix(96 0 0 96 434.29724 190.1308)"  d="M0.045426816 0L0 -0.07582386L0.09085363 -0.07582386L0.045426816 0z" stroke="#515BD4" stroke-width="0.016284373" stroke-linecap="round" fill="none" />
                        <path transform="matrix(96 0 0 96 444.55142 188.08359)"  d="M0.045426816 0L0 -0.07582386L0.09085363 -0.07582386L0.045426816 0z" stroke="#515BD4" stroke-width="0.016284373" stroke-linecap="round" fill="none" />
                        <path transform="matrix(96 0 0 96 454.7467 189.96017)"  d="M0.045426816 0L0 -0.07582386L0.09085363 -0.07582386L0.045426816 0z" stroke="#515BD4" stroke-width="0.016284373" stroke-linecap="round" fill="none" />
                        <path transform="matrix(96 0 0 96 465.0009 190.64261)"  d="M0.045426816 0L0 -0.07582386L0.09085363 -0.07582386L0.045426816 0z" stroke="#515BD4" stroke-width="0.016284373" stroke-linecap="round" fill="none" />
                        <path transform="matrix(96 0 0 96 475.25507 191.15445)"  d="M0.04481294 0L0 -0.075231485L0.090239756 -0.075231485L0.04481294 0z" stroke="#515BD4" stroke-width="0.016284373" stroke-linecap="round" fill="none" />
                        <path transform="matrix(96 0 0 96 70.33267 341.79745)"  d="M0 -0.0071084863L0.10681441 -0.012439852L0.21362881 0L0.31982934 -0.023102582L0.42664376 -0.015994094L0.5328443 -0.02132546L0.6396587 -0.04442804L0.7464731 -0.06397638L0.85267365 -0.04738991L0.95948803 -0.08885608L1.0656886 -0.0906332L1.172503 -0.11077391L1.2793174 -0.08707896L1.385518 -0.09181795L1.4923323 -0.15046297L1.5985328 -0.14394686L1.7053473 -0.18778251L1.8121617 -0.20140712L1.9183621 -0.26538348L2.0251765 -0.31455052L2.1313772 -0.31455052L2.2381916 -0.34357685L2.345006 -0.42947105L2.4512064 -0.4419109L2.5580208 -0.47863808L2.6642215 -0.4922627L2.771036 -0.55268484L2.8778503 -0.5917815L2.9840508 -0.6486494L3.0908651 -0.7072944L3.1970656 -0.72980464L3.3038802 -0.78134114L3.4106946 -0.79200387L3.516895 -0.78489536L3.6237094 -0.7807488L3.72991 -0.78963435L3.8367243 -0.7914115L3.943539 -0.8002971L4.0497394 -0.7724555L4.1565537 -0.8311005L4.2627544 -0.8062208" stroke="#FEDA77" stroke-width="0.016284373" stroke-linecap="round" fill="none" />
                        <path transform="matrix(96 0 0 96 66.56102 345.94882)"  d="M0 -0.05035178L0.03928806 0L0.07857612 -0.05035178L0.03928806 -0.10070356L0 -0.05035178z" stroke="#FEDA77" stroke-width="0.016284373" stroke-linecap="round" fill="none" />
                        <path transform="matrix(96 0 0 96 76.8152 345.437)"  d="M0 -0.05035178L0.03928806 0L0.07857612 -0.05035178L0.03928806 -0.10070356L0 -0.05035178z" stroke="#FEDA77" stroke-width="0.016284373" stroke-linecap="round" fill="none" />
                        <path transform="matrix(96 0 0 96 87.06938 346.63123)"  d="M0 -0.05035178L0.03928806 0L0.07857612 -0.05035178L0.03928806 -0.10070356L0 -0.05035178z" stroke="#FEDA77" stroke-width="0.016284373" stroke-linecap="round" fill="none" />
                        <path transform="matrix(96 0 0 96 97.26464 344.4134)"  d="M0 -0.05035178L0.03928806 0L0.07857612 -0.05035178L0.03928806 -0.10070356L0 -0.05035178z" stroke="#FEDA77" stroke-width="0.016284373" stroke-linecap="round" fill="none" />
                        <path transform="matrix(96 0 0 96 107.51882 345.0958)"  d="M0 -0.05035178L0.03928806 0L0.07857612 -0.05035178L0.03928806 -0.10070356L0 -0.05035178z" stroke="#FEDA77" stroke-width="0.016284373" stroke-linecap="round" fill="none" />
                        <path transform="matrix(96 0 0 96 117.71408 344.584)"  d="M0 -0.05035178L0.03928806 0L0.07857612 -0.05035178L0.03928806 -0.10070356L0 -0.05035178z" stroke="#FEDA77" stroke-width="0.016284373" stroke-linecap="round" fill="none" />
                        <path transform="matrix(96 0 0 96 127.96826 342.36615)"  d="M0 -0.05035178L0.03928806 0L0.07857612 -0.05035178L0.03928806 -0.10070356L0 -0.05035178z" stroke="#FEDA77" stroke-width="0.016284373" stroke-linecap="round" fill="none" />
                        <path transform="matrix(96 0 0 96 138.22244 340.5464)"  d="M0 -0.050944153L0.03928806 0L0.07857612 -0.050944153L0.03928806 -0.10129593L0 -0.050944153z" stroke="#FEDA77" stroke-width="0.016284373" stroke-linecap="round" fill="none" />
                        <path transform="matrix(96 0 0 96 148.41768 342.08182)"  d="M0 -0.05035178L0.03928806 0L0.07857612 -0.05035178L0.03928806 -0.10070356L0 -0.05035178z" stroke="#FEDA77" stroke-width="0.016284373" stroke-linecap="round" fill="none" />
                        <path transform="matrix(96 0 0 96 158.67189 338.10107)"  d="M0 -0.05035178L0.03928806 0L0.07857612 -0.05035178L0.03928806 -0.10070356L0 -0.05035178z" stroke="#FEDA77" stroke-width="0.016284373" stroke-linecap="round" fill="none" />
                        <path transform="matrix(96 0 0 96 168.86713 337.93045)"  d="M0 -0.05035178L0.03928806 0L0.07857612 -0.05035178L0.03928806 -0.10129593L0 -0.05035178z" stroke="#FEDA77" stroke-width="0.016284373" stroke-linecap="round" fill="none" />
                        <path transform="matrix(96 0 0 96 179.1213 335.99695)"  d="M0 -0.05035178L0.03928806 0L0.07857612 -0.05035178L0.03928806 -0.10070356L0 -0.05035178z" stroke="#FEDA77" stroke-width="0.016284373" stroke-linecap="round" fill="none" />
                        <path transform="matrix(96 0 0 96 189.37549 338.27167)"  d="M0 -0.05035178L0.03928806 0L0.07857612 -0.05035178L0.03928806 -0.10070356L0 -0.05035178z" stroke="#FEDA77" stroke-width="0.016284373" stroke-linecap="round" fill="none" />
                        <path transform="matrix(96 0 0 96 199.57074 337.8167)"  d="M0 -0.05035178L0.03928806 0L0.07857612 -0.05035178L0.03928806 -0.10070356L0 -0.05035178z" stroke="#FEDA77" stroke-width="0.016284373" stroke-linecap="round" fill="none" />
                        <path transform="matrix(96 0 0 96 209.82492 332.1868)"  d="M0 -0.05035178L0.03928806 0L0.07857612 -0.05035178L0.03928806 -0.10070356L0 -0.05035178z" stroke="#FEDA77" stroke-width="0.016284373" stroke-linecap="round" fill="none" />
                        <path transform="matrix(96 0 0 96 220.02019 332.81235)"  d="M0 -0.05035178L0.03928806 0L0.07857612 -0.05035178L0.03928806 -0.10129593L0 -0.05035178z" stroke="#FEDA77" stroke-width="0.016284373" stroke-linecap="round" fill="none" />
                        <path transform="matrix(96 0 0 96 230.27437 328.60413)"  d="M0 -0.05035178L0.03928806 0L0.07857612 -0.05035178L0.03928806 -0.10070356L0 -0.05035178z" stroke="#FEDA77" stroke-width="0.016284373" stroke-linecap="round" fill="none" />
                        <path transform="matrix(96 0 0 96 240.52855 327.29614)"  d="M0 -0.05035178L0.03928806 0L0.07857612 -0.05035178L0.03928806 -0.10070356L0 -0.05035178z" stroke="#FEDA77" stroke-width="0.016284373" stroke-linecap="round" fill="none" />
                        <path transform="matrix(96 0 0 96 250.72379 321.15442)"  d="M0 -0.05035178L0.03928806 0L0.07857612 -0.05035178L0.03928806 -0.10070356L0 -0.05035178z" stroke="#FEDA77" stroke-width="0.016284373" stroke-linecap="round" fill="none" />
                        <path transform="matrix(96 0 0 96 260.97797 316.4344)"  d="M0 -0.05035178L0.03928806 0L0.07857612 -0.05035178L0.03928806 -0.10070356L0 -0.05035178z" stroke="#FEDA77" stroke-width="0.016284373" stroke-linecap="round" fill="none" />
                        <path transform="matrix(96 0 0 96 271.17325 316.4344)"  d="M0 -0.05035178L0.03928806 0L0.07857612 -0.05035178L0.03928806 -0.10129593L0 -0.05035178z" stroke="#FEDA77" stroke-width="0.016284373" stroke-linecap="round" fill="none" />
                        <path transform="matrix(96 0 0 96 281.42743 313.6479)"  d="M0 -0.05035178L0.03928806 0L0.07857612 -0.05035178L0.03928806 -0.10070356L0 -0.05035178z" stroke="#FEDA77" stroke-width="0.016284373" stroke-linecap="round" fill="none" />
                        <path transform="matrix(96 0 0 96 291.6816 305.402)"  d="M0 -0.05035178L0.03928806 0L0.07857612 -0.05035178L0.03928806 -0.10070356L0 -0.05035178z" stroke="#FEDA77" stroke-width="0.016284373" stroke-linecap="round" fill="none" />
                        <path transform="matrix(96 0 0 96 301.87683 304.26465)"  d="M0 -0.050944153L0.03928806 0L0.07857612 -0.050944153L0.03928806 -0.10129593L0 -0.050944153z" stroke="#FEDA77" stroke-width="0.016284373" stroke-linecap="round" fill="none" />
                        <path transform="matrix(96 0 0 96 312.131 300.682)"  d="M0 -0.05035178L0.03928806 0L0.07857612 -0.05035178L0.03928806 -0.10070356L0 -0.05035178z" stroke="#FEDA77" stroke-width="0.016284373" stroke-linecap="round" fill="none" />
                        <path transform="matrix(96 0 0 96 322.3263 299.37402)"  d="M0 -0.05035178L0.03928806 0L0.07857612 -0.05035178L0.03928806 -0.10070356L0 -0.05035178z" stroke="#FEDA77" stroke-width="0.016284373" stroke-linecap="round" fill="none" />
                        <path transform="matrix(96 0 0 96 332.58047 293.5735)"  d="M0 -0.05035178L0.03928806 0L0.07857612 -0.05035178L0.03928806 -0.10070356L0 -0.05035178z" stroke="#FEDA77" stroke-width="0.016284373" stroke-linecap="round" fill="none" />
                        <path transform="matrix(96 0 0 96 342.83466 289.82022)"  d="M0 -0.05035178L0.03928806 0L0.07857612 -0.05035178L0.03928806 -0.10070356L0 -0.05035178z" stroke="#FEDA77" stroke-width="0.016284373" stroke-linecap="round" fill="none" />
                        <path transform="matrix(96 0 0 96 353.0299 284.3609)"  d="M0 -0.05035178L0.03928806 0L0.07857612 -0.05035178L0.03928806 -0.10070356L0 -0.05035178z" stroke="#FEDA77" stroke-width="0.016284373" stroke-linecap="round" fill="none" />
                        <path transform="matrix(96 0 0 96 363.2841 278.731)"  d="M0 -0.05035178L0.03928806 0L0.07857612 -0.05035178L0.03928806 -0.10070356L0 -0.05035178z" stroke="#FEDA77" stroke-width="0.016284373" stroke-linecap="round" fill="none" />
                        <path transform="matrix(96 0 0 96 373.4793 276.6269)"  d="M0 -0.050944153L0.03928806 0L0.07857612 -0.050944153L0.03928806 -0.10129593L0 -0.050944153z" stroke="#FEDA77" stroke-width="0.016284373" stroke-linecap="round" fill="none" />
                        <path transform="matrix(96 0 0 96 383.7335 271.62247)"  d="M0 -0.05035178L0.03928806 0L0.07857612 -0.05035178L0.03928806 -0.10129593L0 -0.05035178z" stroke="#FEDA77" stroke-width="0.016284373" stroke-linecap="round" fill="none" />
                        <path transform="matrix(96 0 0 96 393.98767 270.65573)"  d="M0 -0.050944153L0.03928806 0L0.07857612 -0.050944153L0.03928806 -0.10129593L0 -0.050944153z" stroke="#FEDA77" stroke-width="0.016284373" stroke-linecap="round" fill="none" />
                        <path transform="matrix(96 0 0 96 404.18295 271.2813)"  d="M0 -0.05035178L0.03928806 0L0.07857612 -0.05035178L0.03928806 -0.10070356L0 -0.05035178z" stroke="#FEDA77" stroke-width="0.016284373" stroke-linecap="round" fill="none" />
                        <path transform="matrix(96 0 0 96 414.43713 271.67938)"  d="M0 -0.05035178L0.03928806 0L0.07857612 -0.05035178L0.03928806 -0.10070356L0 -0.05035178z" stroke="#FEDA77" stroke-width="0.016284373" stroke-linecap="round" fill="none" />
                        <path transform="matrix(96 0 0 96 424.6324 270.82632)"  d="M0 -0.05035178L0.03928806 0L0.07857612 -0.05035178L0.03928806 -0.10070356L0 -0.05035178z" stroke="#FEDA77" stroke-width="0.016284373" stroke-linecap="round" fill="none" />
                        <path transform="matrix(96 0 0 96 434.88657 270.65573)"  d="M0 -0.05035178L0.03928806 0L0.07857612 -0.05035178L0.03928806 -0.10070356L0 -0.05035178z" stroke="#FEDA77" stroke-width="0.016284373" stroke-linecap="round" fill="none" />
                        <path transform="matrix(96 0 0 96 445.14075 269.80273)"  d="M0 -0.05035178L0.03928806 0L0.07857612 -0.05035178L0.03928806 -0.10070356L0 -0.05035178z" stroke="#FEDA77" stroke-width="0.016284373" stroke-linecap="round" fill="none" />
                        <path transform="matrix(96 0 0 96 455.33597 272.53238)"  d="M0 -0.050944153L0.03928806 0L0.07857612 -0.050944153L0.03928806 -0.10129593L0 -0.050944153z" stroke="#FEDA77" stroke-width="0.016284373" stroke-linecap="round" fill="none" />
                        <path transform="matrix(96 0 0 96 465.59015 266.84558)"  d="M0 -0.05035178L0.03928806 0L0.07857612 -0.05035178L0.03928806 -0.10070356L0 -0.05035178z" stroke="#FEDA77" stroke-width="0.016284373" stroke-linecap="round" fill="none" />
                        <path transform="matrix(96 0 0 96 475.78543 269.23404)"  d="M0 -0.05035178L0.03928806 0L0.07857612 -0.05035178L0.03928806 -0.10070356L0 -0.05035178z" stroke="#FEDA77" stroke-width="0.016284373" stroke-linecap="round" fill="none" />
                        <path transform="matrix(96 0 0 96 394.6949 102.49738)"  d="M0 -0.65398073L0.77593917 -0.65398073L0.77593917 0L0 0" stroke="none" fill="#FFFFFF" fill-rule="evenodd" />
					</g>
				</g>
				<g>
				</g>
				<g clip-path="url(#24)" >
					<text transform="matrix(1 0 0 1 442.6483 54.272537)" x="0" y="2.1697502" style="fill:#000000;font-family:ABeeZee;" font-size="11">
r=3.7
					</text>
				</g>
				<g transform="matrix(1 0 0 1 0 0)">
					<g>
                        <path transform="matrix(96 0 0 96 398.46652 48.75721)"  d="M0 0L0.3928807 0" stroke="#8134AF" stroke-width="0.016284373" stroke-linecap="round" fill="none" />
                        <path transform="matrix(96 0 0 96 412.78702 53.19294)"  d="M0.047268443 -0.07582386C 0.06445697 -0.07582386 0.07857612 -0.06279163 0.07857612 -0.046205163C 0.07857612 -0.029618694 0.06445697 -0.015994094 0.047268443 -0.015994094C 0.03007992 -0.015994094 0.01657465 -0.029618694 0.01657465 -0.046205163C 0.01657465 -0.06279163 0.03007992 -0.07582386 0.047268443 -0.07582386zM0.047268443 -0.09181795C 0.021485656 -0.09181795 5.2041704E-18 -0.071084864 0 -0.046205163C 4.87891E-19 -0.020733085 0.021485656 2.6020852E-18 0.047268443 0C 0.073665105 0 0.09515076 -0.020733085 0.09515076 -0.046205163C 0.09515076 -0.071084864 0.073665105 -0.09181795 0.047268443 -0.09181795z" stroke="none" fill="#8134AF" fill-rule="nonzero" />
					</g>
				</g>
				<g>
				</g>
				<g clip-path="url(#25)" >
					<text transform="matrix(1 0 0 1 442.6483 68.83075)" x="0" y="2.1697502" style="fill:#000000;font-family:ABeeZee;" font-size="11">
r=3.8
					</text>
				</g>
				<g transform="matrix(1 0 0 1 0 0)">
					<g>
                        <path transform="matrix(96 0 0 96 398.46652 63.656593)"  d="M0 0L0.3928807 0" stroke="#DD2A7B" stroke-width="0.016284373" stroke-linecap="round" fill="none" />
                        <path transform="matrix(96 0 0 96 413.02277 66.10192)"  d="M0.04481294 -0.07582386L0 0L0.090239756 0L0.04481294 -0.07582386z" stroke="#DD2A7B" stroke-width="0.016284373" stroke-linecap="round" fill="none" />
					</g>
				</g>
				<g>
				</g>
				<g clip-path="url(#26)" >
					<text transform="matrix(1 0 0 1 442.6483 84.29881)" x="0" y="2.1697502" style="fill:#000000;font-family:ABeeZee;" font-size="11">
r=3.9
					</text>
				</g>
				<g transform="matrix(1 0 0 1 0 0)">
					<g>
                        <path transform="matrix(96 0 0 96 398.46652 78.61288)"  d="M0 0L0.3928807 0" stroke="#515BD4" stroke-width="0.016284373" stroke-linecap="round" fill="none" />
                        <path transform="matrix(96 0 0 96 413.02277 83.44663)"  d="M0.04481294 0L0 -0.07582386L0.090239756 -0.07582386L0.04481294 0z" stroke="#515BD4" stroke-width="0.016284373" stroke-linecap="round" fill="none" />
					</g>
				</g>
				<g>
				</g>
				<g clip-path="url(#27)" >
					<text transform="matrix(1 0 0 1 442.6483 98.85698)" x="0" y="2.1697502" style="fill:#000000;font-family:ABeeZee;" font-size="11">
r=4.0
					</text>
				</g>
				<g transform="matrix(1 0 0 1 0 0)">
					<g clip-path="url(#28)" >
                        <path transform="matrix(96 0 0 96 398.46652 93.51226)"  d="M0 0L0.3928807 0" stroke="#FEDA77" stroke-width="0.016284373" stroke-linecap="round" fill="none" />
                        <path transform="matrix(96 0 0 96 413.55313 98.346016)"  d="M0 -0.05035178L0.03928806 0L0.07857612 -0.05035178L0.03928806 -0.10129593L0 -0.05035178z" stroke="#FEDA77" stroke-width="0.016284373" stroke-linecap="round" fill="none" />
                        <path transform="matrix(96 0 0 96 394.6949 102.49738)"  d="M0 0L0 -0.65398073L0.77593917 -0.65398073L0.77593917 0L0 0z" stroke="#262626" stroke-width="0.0066343737" stroke-linecap="round" fill="none" />
					</g>
					<g>
					</g>
				</g>
			</g>
		</g>
	</g>
</g>
</svg>