<?xml version="1.0" standalone="no"?>
<!DOCTYPE svg PUBLIC "-//W3C//DTD SVG 1.0//EN" "http://www.w3.org/TR/2001/REC-SVG-20010904/DTD/svg10.dtd">
<svg xmlns="http://www.w3.org/2000/svg" xmlns:xlink="http://www.w3.org/1999/xlink" id="body_7" width="532" height="390">

<defs>
                    <clipPath  id="1">

                        <path clip-rule="evenodd" d="M0 0L531 0L531 389L0 389z" />                    </clipPath>
                    <clipPath  id="2">

                        <path clip-rule="evenodd" d="M0 0L531 0L531 389L0 389z" />                    </clipPath>
                    <clipPath  id="3">

                        <path clip-rule="evenodd" d="M0 0L531 0L531 389L0 389z" />                    </clipPath>
                    <clipPath  id="4">

                        <path clip-rule="evenodd" d="M0 0L531 0L531 389L0 389z" />                    </clipPath>
                    <clipPath  id="5">

                        <path clip-rule="evenodd" d="M0 0L531 0L531 389L0 389z" />                    </clipPath>
                    <clipPath  id="6">

                        <path clip-rule="evenodd" d="M0 0L531 0L531 389L0 389z" />                    </clipPath>
                    <clipPath  id="7">

                        <path clip-rule="evenodd" d="M0 0L531 0L531 389L0 389z" />                    </clipPath>
                    <clipPath  id="8">

                        <path clip-rule="evenodd" d="M0 0L531 0L531 389L0 389z" />                    </clipPath>
                    <clipPath  id="9">

                        <path clip-rule="evenodd" d="M0 0L531 0L531 389L0 389z" />                    </clipPath>
                    <clipPath  id="10">

                        <path clip-rule="evenodd" d="M0 0L531 0L531 389L0 389z" />                    </clipPath>
                    <clipPath  id="11">

                        <path clip-rule="evenodd" d="M0 0L531 0L531 389L0 389z" />                    </clipPath>
                    <clipPath  id="12">

                        <path clip-rule="evenodd" d="M0 0L531 0L531 389L0 389z" />                    </clipPath>
                    <clipPath  id="13">

                        <path clip-rule="evenodd" d="M0 0L531 0L531 389L0 389z" />                    </clipPath>
                    <clipPath  id="14">

                        <path clip-rule="evenodd" d="M0 0L531 0L531 389L0 389z" />                    </clipPath>
                    <clipPath  id="15">

                        <path clip-rule="evenodd" d="M0 0L531 0L531 389L0 389z" />                    </clipPath>
                    <clipPath  id="16">

                        <path clip-rule="evenodd" d="M0 0L531 0L531 389L0 389z" />                    </clipPath>
                    <clipPath  id="17">

                        <path clip-rule="evenodd" d="M0 0L531 0L531 389L0 389z" />                    </clipPath>
                    <clipPath  id="18">

                        <path clip-rule="evenodd" d="M0 0L531 0L531 389L0 389z" />                    </clipPath>
                    <clipPath  id="19">

                        <path clip-rule="evenodd" d="M0 0L531 0L531 389L0 389z" />                    </clipPath>
                    <clipPath  id="20">

                        <path clip-rule="evenodd" d="M0 0L531 0L531 389L0 389z" />                    </clipPath>
                    <clipPath  id="21">

                        <path clip-rule="evenodd" d="M0 0L531 0L531 389L0 389z" />                    </clipPath>
                    <clipPath  id="22">

                        <path clip-rule="evenodd" d="M0 0L531 0L531 389L0 389z" />                    </clipPath>
                    <clipPath  id="23">

                        <path clip-rule="evenodd" d="M0 0L531 0L531 389L0 389z" />                    </clipPath>
                    <clipPath  id="24">

                        <path clip-rule="evenodd" d="M0 0L531 0L531 389L0 389z" />                    </clipPath>
                    <clipPath  id="25">

                        <path clip-rule="evenodd" d="M0 0L531 0L531 389L0 389z" />                    </clipPath>
                    <clipPath  id="26">

                        <path clip-rule="evenodd" d="M0 0L531 0L531 389L0 389z" />                    </clipPath>
                        <clipPath  id="27">

                            <path clip-rule="evenodd" d="M0 0L531 0L531 389L0 389z" />                        </clipPath>
</defs>

<g transform="matrix(1.3333334 0 0 1.3333334 0 0)">
    <path d="M0 0L399 0L399 292.5L0 292.5z" stroke="none" fill="#FFFFFF" fill-rule="evenodd" />
	<g transform="matrix(0.75 0 0 0.75 -0 -0)">
		<g>
			<g>
				<g transform="matrix(1 0 0 1 0 0)">
					<g>
					</g>
					<g>
					</g>
				</g>
				<g>
				</g>
				<g clip-path="url(#1)" >
				</g>
				<g transform="matrix(1 0 0 1 0 0)">
					<g>
                        <path transform="matrix(96 0 0 96 1.5 383.65222)"  d="M0 -3.9807525L5.500328 -3.9807525L5.500328 0L0 0" stroke="none" fill="#FFFFFF" fill-rule="evenodd" />
                        <path transform="matrix(96 0 0 96 1.5 383.65222)"  d="M0 -3.9807525L5.500328 -3.9807525L5.500328 0L0 0" stroke="none" fill="#FFFFFF" fill-rule="evenodd" />
                        <path transform="matrix(96 0 0 96 70.33268 341.7975)"  d="M0 -3.2509477L4.2627544 -3.2509477L4.2627544 0L0 0" stroke="none" fill="#FFFFFF" fill-rule="evenodd" />
                        <path transform="matrix(96 0 0 96 70.33268 341.7975)"  d="M0 0L4.2627544 0" stroke="#262626" stroke-width="0.0066343737" stroke-linecap="round" fill="none" />
                        <path transform="matrix(96 0 0 96 70.33268 341.7975)"  d="M0 0L0 -0.040873803" stroke="#262626" stroke-width="0.0066343737" stroke-linecap="round" fill="none" />
                        <path transform="matrix(96 0 0 96 121.48573 341.7975)"  d="M0 0L0 -0.040873803" stroke="#262626" stroke-width="0.0066343737" stroke-linecap="round" fill="none" />
                        <path transform="matrix(96 0 0 96 172.6388 341.7975)"  d="M0 0L0 -0.040873803" stroke="#262626" stroke-width="0.0066343737" stroke-linecap="round" fill="none" />
                        <path transform="matrix(96 0 0 96 223.79182 341.7975)"  d="M0 0L0 -0.040873803" stroke="#262626" stroke-width="0.0066343737" stroke-linecap="round" fill="none" />
                        <path transform="matrix(96 0 0 96 274.9449 341.7975)"  d="M0 0L0 -0.040873803" stroke="#262626" stroke-width="0.0066343737" stroke-linecap="round" fill="none" />
                        <path transform="matrix(96 0 0 96 326.09796 341.7975)"  d="M0 0L0 -0.040873803" stroke="#262626" stroke-width="0.0066343737" stroke-linecap="round" fill="none" />
                        <path transform="matrix(96 0 0 96 377.25098 341.7975)"  d="M0 0L0 -0.040873803" stroke="#262626" stroke-width="0.0066343737" stroke-linecap="round" fill="none" />
                        <path transform="matrix(96 0 0 96 428.40405 341.7975)"  d="M0 0L0 -0.040873803" stroke="#262626" stroke-width="0.0066343737" stroke-linecap="round" fill="none" />
                        <path transform="matrix(96 0 0 96 479.5571 341.7975)"  d="M0 0L0 -0.040873803" stroke="#262626" stroke-width="0.0066343737" stroke-linecap="round" fill="none" />
					</g>
				</g>
				<g>
				</g>
				<g clip-path="url(#2)" >
					<text transform="matrix(1 0 0 1 66.61144 359.99414)" x="0" y="2.3669999" style="fill:#262626;font-family:ABeeZee;" font-size="12">
30
					</text>
				</g>
				<g transform="matrix(1 0 0 1 0 0)">
					<g>
					</g>
				</g>
				<g>
				</g>
				<g clip-path="url(#3)" >
					<text transform="matrix(1 0 0 1 117.528755 359.99414)" x="0" y="2.3669999" style="fill:#262626;font-family:ABeeZee;" font-size="12">
25
					</text>
				</g>
				<g transform="matrix(1 0 0 1 0 0)">
					<g>
					</g>
				</g>
				<g>
				</g>
				<g clip-path="url(#4)" >
					<text transform="matrix(1 0 0 1 169.38899 359.99414)" x="0" y="2.3669999" style="fill:#262626;font-family:ABeeZee;" font-size="12">
20
					</text>
				</g>
				<g transform="matrix(1 0 0 1 0 0)">
					<g>
					</g>
				</g>
				<g>
				</g>
				<g clip-path="url(#5)" >
					<text transform="matrix(1 0 0 1 216.8362 359.99414)" x="0" y="2.3669999" style="fill:#262626;font-family:ABeeZee;" font-size="12">
15
					</text>
				</g>
				<g transform="matrix(1 0 0 1 0 0)">
					<g>
					</g>
				</g>
				<g>
				</g>
				<g clip-path="url(#6)" >
					<text transform="matrix(1 0 0 1 270.6599 359.99414)" x="0" y="2.3669999" style="fill:#262626;font-family:ABeeZee;" font-size="12">
10
					</text>
				</g>
				<g transform="matrix(1 0 0 1 0 0)">
					<g>
					</g>
				</g>
				<g>
				</g>
				<g clip-path="url(#7)" >
					<text transform="matrix(1 0 0 1 325.43027 359.99414)" x="0" y="2.3669999" style="fill:#262626;font-family:ABeeZee;" font-size="12">
5
					</text>
				</g>
				<g transform="matrix(1 0 0 1 0 0)">
					<g>
					</g>
				</g>
				<g>
				</g>
				<g clip-path="url(#8)" >
					<text transform="matrix(1 0 0 1 377.2905 359.99414)" x="0" y="2.3669999" style="fill:#262626;font-family:ABeeZee;" font-size="12">
0
					</text>
				</g>
				<g transform="matrix(1 0 0 1 0 0)">
					<g>
					</g>
				</g>
				<g>
				</g>
				<g clip-path="url(#9)" >
					<text transform="matrix(1 0 0 1 426.23834 359.99414)" x="0" y="2.3669999" style="fill:#262626;font-family:ABeeZee;" font-size="12">
-
					</text>
				</g>
				<g transform="matrix(1 0 0 1 0 0)">
					<g>
					</g>
				</g>
				<g>
				</g>
				<g clip-path="url(#10)" >
					<text transform="matrix(1 0 0 1 430.1773 359.99414)" x="0" y="2.3669999" style="fill:#262626;font-family:ABeeZee;" font-size="12">
5
					</text>
				</g>
				<g transform="matrix(1 0 0 1 0 0)">
					<g>
					</g>
				</g>
				<g>
				</g>
				<g clip-path="url(#11)" >
					<text transform="matrix(1 0 0 1 467.24 359.99414)" x="0" y="2.3669999" style="fill:#262626;font-family:ABeeZee;" font-size="12">
-
					</text>
				</g>
				<g transform="matrix(1 0 0 1 0 0)">
					<g>
					</g>
				</g>
				<g>
				</g>
				<g clip-path="url(#12)" >
					<text transform="matrix(1 0 0 1 471.17896 359.99414)" x="0" y="2.3669999" style="fill:#262626;font-family:ABeeZee;" font-size="12">
10
					</text>
				</g>
				<g transform="matrix(1 0 0 1 0 0)">
					<g>
					</g>
				</g>
				<g>
				</g>
				<g clip-path="url(#13)" >
					<text transform="matrix(1 0 0 1 265.14554 378.19183)" x="0" y="2.7615" style="fill:#262626;font-family:ABeeZee;" font-size="14">
SNR
					</text>
				</g>
				<g transform="matrix(1 0 0 1 0 0)">
					<g>
                        <path transform="matrix(96 0 0 96 70.33268 341.7975)"  d="M0 0L0 -3.2509477" stroke="#262626" stroke-width="0.0066343737" stroke-linecap="round" fill="none" />
                        <path transform="matrix(96 0 0 96 70.33268 341.7975)"  d="M0 0L0.042971324 0" stroke="#262626" stroke-width="0.0066343737" stroke-linecap="round" fill="none" />
                        <path transform="matrix(96 0 0 96 70.33268 289.82025)"  d="M0 0L0.042971324 0" stroke="#262626" stroke-width="0.0066343737" stroke-linecap="round" fill="none" />
                        <path transform="matrix(96 0 0 96 70.33268 237.78612)"  d="M0 0L0.042971324 0" stroke="#262626" stroke-width="0.0066343737" stroke-linecap="round" fill="none" />
                        <path transform="matrix(96 0 0 96 70.33268 185.75198)"  d="M0 0L0.042971324 0" stroke="#262626" stroke-width="0.0066343737" stroke-linecap="round" fill="none" />
                        <path transform="matrix(96 0 0 96 70.33268 133.7747)"  d="M0 0L0.042971324 0" stroke="#262626" stroke-width="0.0066343737" stroke-linecap="round" fill="none" />
                        <path transform="matrix(96 0 0 96 70.33268 81.74057)"  d="M0 0L0.042971324 0" stroke="#262626" stroke-width="0.0066343737" stroke-linecap="round" fill="none" />
                        <path transform="matrix(96 0 0 96 70.33268 29.706482)"  d="M0 0L0.042971324 0" stroke="#262626" stroke-width="0.0066343737" stroke-linecap="round" fill="none" />
					</g>
				</g>
				<g>
				</g>
				<g clip-path="url(#14)" >
					<text transform="matrix(1 0 0 1 60.460663 347.25577)" x="0" y="2.3669999" style="fill:#262626;font-family:ABeeZee;" font-size="12">
0
					</text>
				</g>
				<g transform="matrix(1 0 0 1 0 0)">
					<g>
					</g>
				</g>
				<g>
				</g>
				<g clip-path="url(#15)" >
					<text transform="matrix(1 0 0 1 50.82837 295.39224)" x="0" y="2.3669999" style="fill:#262626;font-family:ABeeZee;" font-size="12">
0.5
					</text>
				</g>
				<g transform="matrix(1 0 0 1 0 0)">
					<g>
					</g>
				</g>
				<g>
				</g>
				<g clip-path="url(#16)" >
					<text transform="matrix(1 0 0 1 60.460663 243.52872)" x="0" y="2.3669999" style="fill:#262626;font-family:ABeeZee;" font-size="12">
1
					</text>
				</g>
				<g transform="matrix(1 0 0 1 0 0)">
					<g>
					</g>
				</g>
				<g>
				</g>
				<g clip-path="url(#17)" >
					<text transform="matrix(1 0 0 1 50.82837 191.66519)" x="0" y="2.3669999" style="fill:#262626;font-family:ABeeZee;" font-size="12">
1.5
					</text>
				</g>
				<g transform="matrix(1 0 0 1 0 0)">
					<g>
					</g>
				</g>
				<g>
				</g>
				<g clip-path="url(#18)" >
					<text transform="matrix(1 0 0 1 60.460663 138.89182)" x="0" y="2.3669999" style="fill:#262626;font-family:ABeeZee;" font-size="12">
2
					</text>
				</g>
				<g transform="matrix(1 0 0 1 0 0)">
					<g>
					</g>
				</g>
				<g>
				</g>
				<g clip-path="url(#19)" >
					<text transform="matrix(1 0 0 1 50.82837 87.02825)" x="0" y="2.3669999" style="fill:#262626;font-family:ABeeZee;" font-size="12">
2.5
					</text>
				</g>
				<g transform="matrix(1 0 0 1 0 0)">
					<g>
					</g>
				</g>
				<g>
				</g>
				<g clip-path="url(#20)" >
					<text transform="matrix(1 0 0 1 60.460663 35.164818)" x="0" y="2.3669999" style="fill:#262626;font-family:ABeeZee;" font-size="12">
3
					</text>
				</g>
				<g transform="matrix(1 0 0 1 0 0)">
					<g>
					</g>
				</g>
				<g>
				</g>
				<g clip-path="url(#21)" >
					<text transform="matrix(0 -1 1 0 40.158375 186.98053)" x="0" y="0" style="fill:#262626;font-family:ABeeZee;" font-size="14">
S
					</text>
				</g>
				<g transform="matrix(1 0 0 1 0 0)">
					<g>
					</g>
				</g>
				<g>
				</g>
				<g clip-path="url(#22)" >
					<text transform="matrix(1 0 0 1 269.06433 24.246128)" x="0" y="2.7615" style="fill:#000000;font-family:ABeeZee;" font-size="14">
SE
					</text>
				</g>
				<g transform="matrix(1 0 0 1 0 0)">
					<g>
                        <path transform="matrix(96 0 0 96 70.33268 340.66013)"  d="M0 0L0.10681441 -0.09833406L0.21362881 -0.24050379L0.31982934 -0.39511338L0.42664376 -0.4756762L0.5328443 -0.6397638L0.6396587 -0.7973352L0.7464731 -0.87375146L0.85267365 -1.0455399L0.95948803 -1.1308417L1.0656886 -1.1918563L1.172503 -1.4228821L1.2793174 -1.4921898L1.385518 -1.6207349L1.4923323 -1.7084062L1.5985328 -1.8025937L1.7053473 -2.0176253L1.8121617 -1.928177L1.9183621 -2.0353966L2.0251765 -2.1633494L2.1313772 -2.1509094L2.2381916 -2.2113316L2.345006 -2.1710503L2.4512064 -2.2036307L2.5580208 -2.2871556L2.6642215 -2.2403579L2.771036 -2.2415428L2.8778503 -2.268792L2.9840508 -2.2522054L3.0908651 -2.2510207L3.1970656 -2.2285104L3.3038802 -2.26583L3.4106946 -2.1692731L3.516895 -2.2439122L3.6237094 -2.3209207L3.72991 -2.3025572L3.8367243 -2.2492435L3.943539 -2.3440235L4.0497394 -2.3635716L4.1565537 -2.2314723L4.2627544 -2.319736" stroke="#8134AF" stroke-width="0.016284373" stroke-linecap="round" fill="none" />
                        <path transform="matrix(96 0 0 96 65.79491 345.09583)"  d="M0.047268443 -0.07582386C 0.06445697 -0.07582386 0.07857612 -0.062199257 0.07857612 -0.046205163C 0.07857612 -0.029618694 0.06445697 -0.015994094 0.047268443 -0.015994094C 0.03007992 -0.015994094 0.01657465 -0.029618694 0.01657465 -0.046205163C 0.01657465 -0.062199257 0.03007992 -0.07582386 0.047268443 -0.07582386zM0.047268443 -0.09181795C 0.021485656 -0.09181795 7.806256E-18 -0.071084864 0 -0.046205163C -6.3425827E-18 -0.020733085 0.021485656 2.6020852E-18 0.047268443 0C 0.073665105 0 0.09515076 -0.020733085 0.09515076 -0.046205163C 0.09515076 -0.071084864 0.073665105 -0.09181795 0.047268443 -0.09181795z" stroke="none" fill="#8134AF" fill-rule="nonzero" />
                        <path transform="matrix(96 0 0 96 76.049095 335.59888)"  d="M0.047268443 -0.07582386C 0.06445697 -0.07582386 0.07857612 -0.062199257 0.07857612 -0.04561279C 0.07857612 -0.02902632 0.06445697 -0.015401721 0.047268443 -0.015401721C 0.03007992 -0.015401721 0.015960773 -0.02902632 0.015960773 -0.04561279C 0.015960773 -0.062199257 0.03007992 -0.07582386 0.047268443 -0.07582386zM0.047268443 -0.09122558C 0.02087178 -0.09122558 7.806256E-18 -0.071084864 0 -0.04561279C -3.4152368E-18 -0.020140711 0.02087178 0 0.047268443 0C 0.073665105 -4.87891E-19 0.094536886 -0.020140711 0.094536886 -0.04561279C 0.094536886 -0.071084864 0.073665105 -0.09122558 0.047268443 -0.09122558z" stroke="none" fill="#8134AF" fill-rule="nonzero" />
                        <path transform="matrix(96 0 0 96 86.24434 322.00745)"  d="M0.047882322 -0.07582386C 0.065070845 -0.07582386 0.07857612 -0.06279163 0.07857612 -0.046205163C 0.07857612 -0.029618694 0.065070845 -0.015994094 0.047882322 -0.015994094C 0.030693796 -0.015994094 0.01657465 -0.029618694 0.01657465 -0.046205163C 0.01657465 -0.06279163 0.030693796 -0.07582386 0.047882322 -0.07582386zM0.047882322 -0.09181795C 0.021485656 -0.09181795 5.2041704E-18 -0.071084864 0 -0.046205163C -5.3668008E-18 -0.020733085 0.021485656 2.6020852E-18 0.047882322 0C 0.073665105 0 0.09515076 -0.020733085 0.09515076 -0.046205163C 0.09515076 -0.071084864 0.073665105 -0.09181795 0.047882322 -0.09181795z" stroke="none" fill="#8134AF" fill-rule="nonzero" />
                        <path transform="matrix(96 0 0 96 96.49852 307.10806)"  d="M0.047268443 -0.07582386C 0.06445697 -0.07582386 0.07857612 -0.062199257 0.07857612 -0.04561279C 0.07857612 -0.02902632 0.06445697 -0.015401721 0.047268443 -0.015401721C 0.03007992 -0.015401721 0.01657465 -0.02902632 0.01657465 -0.04561279C 0.01657465 -0.062199257 0.03007992 -0.07582386 0.047268443 -0.07582386zM0.047268443 -0.09122558C 0.021485656 -0.09122558 7.806256E-18 -0.071084864 0 -0.04561279C 3.4152368E-18 -0.020140711 0.021485656 0 0.047268443 0C 0.073665105 -4.87891E-19 0.09515076 -0.020140711 0.09515076 -0.04561279C 0.09515076 -0.071084864 0.073665105 -0.09122558 0.047268443 -0.09122558z" stroke="none" fill="#8134AF" fill-rule="nonzero" />
                        <path transform="matrix(96 0 0 96 106.752716 299.4309)"  d="M0.047268443 -0.07582386C 0.06445697 -0.07582386 0.07857612 -0.06279163 0.07857612 -0.046205163C 0.07857612 -0.029618694 0.06445697 -0.015994094 0.047268443 -0.015994094C 0.03007992 -0.015994094 0.015960773 -0.029618694 0.015960773 -0.046205163C 0.015960773 -0.06279163 0.03007992 -0.07582386 0.047268443 -0.07582386zM0.047268443 -0.09181795C 0.02087178 -0.09181795 7.806256E-18 -0.071084864 0 -0.046205163C -4.391019E-18 -0.020733085 0.02087178 2.6020852E-18 0.047268443 0C 0.073665105 0 0.094536886 -0.020733085 0.094536886 -0.046205163C 0.094536886 -0.071084864 0.073665105 -0.09181795 0.047268443 -0.09181795z" stroke="none" fill="#8134AF" fill-rule="nonzero" />
                        <path transform="matrix(96 0 0 96 116.94796 283.62164)"  d="M0.047268443 -0.07582386C 0.06445697 -0.07582386 0.07857612 -0.062199257 0.07857612 -0.04561279C 0.07857612 -0.02902632 0.06445697 -0.015401721 0.047268443 -0.015401721C 0.03007992 -0.015401721 0.01657465 -0.02902632 0.01657465 -0.04561279C 0.01657465 -0.062199257 0.03007992 -0.07582386 0.047268443 -0.07582386zM0.047268443 -0.09122558C 0.021485656 -0.09122558 5.2041704E-18 -0.071084864 0 -0.04561279C 1.951564E-18 -0.020140711 0.021485656 0 0.047268443 0C 0.073665105 -4.87891E-19 0.09515076 -0.020140711 0.09515076 -0.04561279C 0.09515076 -0.071084864 0.073665105 -0.09122558 0.047268443 -0.09122558z" stroke="none" fill="#8134AF" fill-rule="nonzero" />
                        <path transform="matrix(96 0 0 96 127.20214 268.55164)"  d="M0.047268443 -0.07582386C 0.06445697 -0.07582386 0.07857612 -0.06279163 0.07857612 -0.046205163C 0.07857612 -0.029618694 0.06445697 -0.015994094 0.047268443 -0.015994094C 0.03007992 -0.015994094 0.015960773 -0.029618694 0.015960773 -0.046205163C 0.015960773 -0.06279163 0.03007992 -0.07582386 0.047268443 -0.07582386zM0.047268443 -0.09181795C 0.02087178 -0.09181795 7.806256E-18 -0.071084864 0 -0.046205163C 3.4152368E-18 -0.020733085 0.02087178 2.6020852E-18 0.047268443 0C 0.073665105 0 0.094536886 -0.020733085 0.094536886 -0.046205163C 0.094536886 -0.071084864 0.073665105 -0.09181795 0.047268443 -0.09181795z" stroke="none" fill="#8134AF" fill-rule="nonzero" />
                        <path transform="matrix(96 0 0 96 137.3974 261.2157)"  d="M0.047882322 -0.07582386C 0.065070845 -0.07582386 0.07857612 -0.06279163 0.07857612 -0.046205163C 0.07857612 -0.029618694 0.065070845 -0.015994094 0.047882322 -0.015994094C 0.030693796 -0.015994094 0.01657465 -0.029618694 0.01657465 -0.046205163C 0.01657465 -0.06279163 0.030693796 -0.07582386 0.047882322 -0.07582386zM0.047882322 -0.09181795C 0.021485656 -0.09181795 1.0408341E-17 -0.071084864 0 -0.046205163C -1.4636729E-18 -0.020733085 0.021485656 2.6020852E-18 0.047882322 0C 0.073665105 0 0.09515076 -0.020733085 0.09515076 -0.046205163C 0.09515076 -0.071084864 0.073665105 -0.09181795 0.047882322 -0.09181795z" stroke="none" fill="#8134AF" fill-rule="nonzero" />
                        <path transform="matrix(96 0 0 96 147.65158 244.66713)"  d="M0.047268443 -0.07582386C 0.06445697 -0.07582386 0.07857612 -0.062199257 0.07857612 -0.04561279C 0.07857612 -0.02902632 0.06445697 -0.015401721 0.047268443 -0.015401721C 0.03007992 -0.015401721 0.01657465 -0.02902632 0.01657465 -0.04561279C 0.01657465 -0.062199257 0.03007992 -0.07582386 0.047268443 -0.07582386zM0.047268443 -0.09122558C 0.021485656 -0.09122558 7.806256E-18 -0.071084864 0 -0.04561279C 3.4152368E-18 -0.020140711 0.021485656 0 0.047268443 0C 0.073665105 -4.87891E-19 0.09515076 -0.020140711 0.09515076 -0.04561279C 0.09515076 -0.071084864 0.073665105 -0.09122558 0.047268443 -0.09122558z" stroke="none" fill="#8134AF" fill-rule="nonzero" />
                        <path transform="matrix(96 0 0 96 157.90576 236.47815)"  d="M0.047268443 -0.07582386C 0.06445697 -0.07582386 0.07857612 -0.062199257 0.07857612 -0.04561279C 0.07857612 -0.02902632 0.06445697 -0.015994094 0.047268443 -0.015994094C 0.03007992 -0.015994094 0.015960773 -0.02902632 0.015960773 -0.04561279C 0.015960773 -0.062199257 0.03007992 -0.07582386 0.047268443 -0.07582386zM0.047268443 -0.09181795C 0.02087178 -0.09181795 7.806256E-18 -0.071084864 0 -0.04561279C 3.4152368E-18 -0.020733085 0.02087178 5.2041704E-18 0.047268443 0C 0.073665105 3.4152368E-18 0.094536886 -0.020733085 0.094536886 -0.04561279C 0.094536886 -0.071084864 0.073665105 -0.09181795 0.047268443 -0.09181795z" stroke="none" fill="#8134AF" fill-rule="nonzero" />
                        <path transform="matrix(96 0 0 96 168.101 230.67764)"  d="M0.047268443 -0.07582386C 0.06445697 -0.07582386 0.07857612 -0.06279163 0.07857612 -0.046205163C 0.07857612 -0.029618694 0.06445697 -0.015994094 0.047268443 -0.015994094C 0.03007992 -0.015994094 0.01657465 -0.029618694 0.01657465 -0.046205163C 0.01657465 -0.06279163 0.03007992 -0.07582386 0.047268443 -0.07582386zM0.047268443 -0.09181795C 0.021485656 -0.09181795 7.806256E-18 -0.071084864 0 -0.046205163C 3.4152368E-18 -0.020733085 0.021485656 2.6020852E-18 0.047268443 0C 0.073665105 0 0.09515076 -0.020733085 0.09515076 -0.046205163C 0.09515076 -0.071084864 0.073665105 -0.09181795 0.047268443 -0.09181795z" stroke="none" fill="#8134AF" fill-rule="nonzero" />
                        <path transform="matrix(96 0 0 96 178.35521 208.49913)"  d="M0.047268443 -0.07582386C 0.06445697 -0.07582386 0.07857612 -0.06279163 0.07857612 -0.046205163C 0.07857612 -0.029618694 0.06445697 -0.015994094 0.047268443 -0.015994094C 0.03007992 -0.015994094 0.015960773 -0.029618694 0.015960773 -0.046205163C 0.015960773 -0.06279163 0.03007992 -0.07582386 0.047268443 -0.07582386zM0.047268443 -0.09181795C 0.02087178 -0.09181795 7.806256E-18 -0.071084864 0 -0.046205163C -4.391019E-18 -0.020733085 0.02087178 2.6020852E-18 0.047268443 0C 0.073665105 0 0.094536886 -0.020733085 0.094536886 -0.046205163C 0.094536886 -0.071084864 0.073665105 -0.09181795 0.047268443 -0.09181795z" stroke="none" fill="#8134AF" fill-rule="nonzero" />
                        <path transform="matrix(96 0 0 96 188.55045 201.78873)"  d="M0.047882322 -0.07582386C 0.065070845 -0.07582386 0.07857612 -0.062199257 0.07857612 -0.04561279C 0.07857612 -0.02902632 0.065070845 -0.015994094 0.047882322 -0.015994094C 0.030693796 -0.015994094 0.01657465 -0.02902632 0.01657465 -0.04561279C 0.01657465 -0.062199257 0.030693796 -0.07582386 0.047882322 -0.07582386zM0.047882322 -0.09181795C 0.021485656 -0.09181795 7.806256E-18 -0.071084864 0 -0.04561279C -6.3425827E-18 -0.020733085 0.021485656 2.6020852E-18 0.047882322 0C 0.073665105 1.4636729E-18 0.09515076 -0.020733085 0.09515076 -0.04561279C 0.09515076 -0.071084864 0.073665105 -0.09181795 0.047882322 -0.09181795z" stroke="none" fill="#8134AF" fill-rule="nonzero" />
                        <path transform="matrix(96 0 0 96 198.80463 189.44838)"  d="M0.047268443 -0.07582386C 0.06445697 -0.07582386 0.07857612 -0.062199257 0.07857612 -0.04561279C 0.07857612 -0.02902632 0.06445697 -0.015401721 0.047268443 -0.015401721C 0.03007992 -0.015401721 0.01657465 -0.02902632 0.01657465 -0.04561279C 0.01657465 -0.062199257 0.03007992 -0.07582386 0.047268443 -0.07582386zM0.047268443 -0.09122558C 0.021485656 -0.09122558 5.2041704E-18 -0.071084864 0 -0.04561279C 3.903128E-18 -0.020140711 0.021485656 0 0.047268443 0C 0.073665105 -4.87891E-19 0.09515076 -0.020140711 0.09515076 -0.04561279C 0.09515076 -0.071084864 0.073665105 -0.09122558 0.047268443 -0.09122558z" stroke="none" fill="#8134AF" fill-rule="nonzero" />
                        <path transform="matrix(96 0 0 96 209.0588 181.03194)"  d="M0.047268443 -0.07582386C 0.06445697 -0.07582386 0.07857612 -0.062199257 0.07857612 -0.04561279C 0.07857612 -0.02902632 0.06445697 -0.015401721 0.047268443 -0.015401721C 0.03007992 -0.015401721 0.015960773 -0.02902632 0.015960773 -0.04561279C 0.015960773 -0.062199257 0.03007992 -0.07582386 0.047268443 -0.07582386zM0.047268443 -0.09122558C 0.02087178 -0.09122558 1.0408341E-17 -0.071084864 0 -0.04561279C 2.4394549E-18 -0.020140711 0.02087178 0 0.047268443 0C 0.073665105 -4.87891E-19 0.094536886 -0.020140711 0.094536886 -0.04561279C 0.094536886 -0.071084864 0.073665105 -0.09122558 0.047268443 -0.09122558z" stroke="none" fill="#8134AF" fill-rule="nonzero" />
                        <path transform="matrix(96 0 0 96 219.25406 171.98996)"  d="M0.047268443 -0.07582386C 0.06445697 -0.07582386 0.07857612 -0.062199257 0.07857612 -0.04561279C 0.07857612 -0.02902632 0.06445697 -0.015994094 0.047268443 -0.015994094C 0.03007992 -0.015994094 0.01657465 -0.02902632 0.01657465 -0.04561279C 0.01657465 -0.062199257 0.03007992 -0.07582386 0.047268443 -0.07582386zM0.047268443 -0.09181795C 0.021485656 -0.09181795 5.2041704E-18 -0.071084864 0 -0.04561279C 0 -0.020140711 0.021485656 0 0.047268443 0C 0.073665105 -4.87891E-19 0.09515076 -0.020140711 0.09515076 -0.04561279C 0.09515076 -0.071084864 0.073665105 -0.09181795 0.047268443 -0.09181795z" stroke="none" fill="#8134AF" fill-rule="nonzero" />
                        <path transform="matrix(96 0 0 96 229.50824 151.34692)"  d="M0.047268443 -0.07582386C 0.06445697 -0.07582386 0.07857612 -0.062199257 0.07857612 -0.04561279C 0.07857612 -0.02902632 0.06445697 -0.015994094 0.047268443 -0.015994094C 0.03007992 -0.015994094 0.015960773 -0.02902632 0.015960773 -0.04561279C 0.015960773 -0.062199257 0.03007992 -0.07582386 0.047268443 -0.07582386zM0.047268443 -0.09181795C 0.02087178 -0.09181795 1.0408341E-17 -0.071084864 0 -0.04561279C -3.4152368E-18 -0.020733085 0.02087178 5.2041704E-18 0.047268443 0C 0.073665105 3.4152368E-18 0.094536886 -0.020733085 0.094536886 -0.04561279C 0.094536886 -0.071084864 0.073665105 -0.09181795 0.047268443 -0.09181795z" stroke="none" fill="#8134AF" fill-rule="nonzero" />
                        <path transform="matrix(96 0 0 96 239.7035 159.93398)"  d="M0.047882322 -0.07582386C 0.065070845 -0.07582386 0.07857612 -0.062199257 0.07857612 -0.04561279C 0.07857612 -0.02902632 0.065070845 -0.015401721 0.047882322 -0.015401721C 0.030693796 -0.015401721 0.01657465 -0.02902632 0.01657465 -0.04561279C 0.01657465 -0.062199257 0.030693796 -0.07582386 0.047882322 -0.07582386zM0.047882322 -0.09122558C 0.021485656 -0.09122558 2.6020852E-18 -0.071084864 0 -0.04561279C -4.391019E-18 -0.020140711 0.021485656 2.6020852E-18 0.047882322 0C 0.073665105 7.318365E-18 0.09515076 -0.020140711 0.09515076 -0.04561279C 0.09515076 -0.071084864 0.073665105 -0.09122558 0.047882322 -0.09122558z" stroke="none" fill="#8134AF" fill-rule="nonzero" />
                        <path transform="matrix(96 0 0 96 249.95769 149.69774)"  d="M0.047268443 -0.07582386C 0.06445697 -0.07582386 0.07857612 -0.06279163 0.07857612 -0.046205163C 0.07857612 -0.029618694 0.06445697 -0.015994094 0.047268443 -0.015994094C 0.03007992 -0.015994094 0.01657465 -0.029618694 0.01657465 -0.046205163C 0.01657465 -0.06279163 0.03007992 -0.07582386 0.047268443 -0.07582386zM0.047268443 -0.09181795C 0.021485656 -0.09181795 5.2041704E-18 -0.071084864 0 -0.046205163C 0 -0.020733085 0.021485656 2.6020852E-18 0.047268443 0C 0.073665105 -2.4394549E-18 0.09515076 -0.020733085 0.09515076 -0.046205163C 0.09515076 -0.071084864 0.073665105 -0.09181795 0.047268443 -0.09181795z" stroke="none" fill="#8134AF" fill-rule="nonzero" />
                        <path transform="matrix(96 0 0 96 260.21185 137.35739)"  d="M0.047268443 -0.07582386C 0.06445697 -0.07582386 0.07857612 -0.062199257 0.07857612 -0.04561279C 0.07857612 -0.02902632 0.06445697 -0.015994094 0.047268443 -0.015994094C 0.03007992 -0.015994094 0.015960773 -0.02902632 0.015960773 -0.04561279C 0.015960773 -0.062199257 0.03007992 -0.07582386 0.047268443 -0.07582386zM0.047268443 -0.09181795C 0.02087178 -0.09181795 1.0408341E-17 -0.071084864 0 -0.04561279C -3.4152368E-18 -0.020140711 0.02087178 2.6020852E-18 0.047268443 0C 0.073665105 1.4636729E-18 0.094536886 -0.020140711 0.094536886 -0.04561279C 0.094536886 -0.071084864 0.073665105 -0.09181795 0.047268443 -0.09181795z" stroke="none" fill="#8134AF" fill-rule="nonzero" />
                        <path transform="matrix(96 0 0 96 270.4071 138.6085)"  d="M0.047268443 -0.07582386C 0.06445697 -0.07582386 0.07857612 -0.06279163 0.07857612 -0.046205163C 0.07857612 -0.029618694 0.06445697 -0.015994094 0.047268443 -0.015994094C 0.03007992 -0.015994094 0.01657465 -0.029618694 0.01657465 -0.046205163C 0.01657465 -0.06279163 0.03007992 -0.07582386 0.047268443 -0.07582386zM0.047268443 -0.09181795C 0.021485656 -0.09181795 0 -0.071084864 0 -0.046205163C 3.903128E-18 -0.020733085 0.021485656 2.6020852E-18 0.047268443 0C 0.073665105 0 0.09515076 -0.020733085 0.09515076 -0.046205163C 0.09515076 -0.071084864 0.073665105 -0.09181795 0.047268443 -0.09181795z" stroke="none" fill="#8134AF" fill-rule="nonzero" />
                        <path transform="matrix(96 0 0 96 280.6613 132.7511)"  d="M0.047268443 -0.07582386C 0.06445697 -0.07582386 0.07857612 -0.062199257 0.07857612 -0.04561279C 0.07857612 -0.02902632 0.06445697 -0.015994094 0.047268443 -0.015994094C 0.03007992 -0.015994094 0.015960773 -0.02902632 0.015960773 -0.04561279C 0.015960773 -0.062199257 0.03007992 -0.07582386 0.047268443 -0.07582386zM0.047268443 -0.09181795C 0.02087178 -0.09181795 1.0408341E-17 -0.071084864 0 -0.04561279C -3.4152368E-18 -0.020733085 0.02087178 5.2041704E-18 0.047268443 0C 0.073665105 3.4152368E-18 0.094536886 -0.020733085 0.094536886 -0.04561279C 0.094536886 -0.071084864 0.073665105 -0.09181795 0.047268443 -0.09181795z" stroke="none" fill="#8134AF" fill-rule="nonzero" />
                        <path transform="matrix(96 0 0 96 290.85657 136.61815)"  d="M0.047882322 -0.07582386C 0.065070845 -0.07582386 0.07857612 -0.062199257 0.07857612 -0.04561279C 0.07857612 -0.02902632 0.065070845 -0.015401721 0.047882322 -0.015401721C 0.030693796 -0.015401721 0.01657465 -0.02902632 0.01657465 -0.04561279C 0.01657465 -0.062199257 0.030693796 -0.07582386 0.047882322 -0.07582386zM0.047882322 -0.09122558C 0.021485656 -0.09122558 5.2041704E-18 -0.071084864 0 -0.04561279C 4.87891E-19 -0.020140711 0.021485656 5.2041704E-18 0.047882322 0C 0.073665105 1.4636729E-18 0.09515076 -0.020140711 0.09515076 -0.04561279C 0.09515076 -0.071084864 0.073665105 -0.09122558 0.047882322 -0.09122558z" stroke="none" fill="#8134AF" fill-rule="nonzero" />
                        <path transform="matrix(96 0 0 96 301.11075 133.49039)"  d="M0.047268443 -0.07582386C 0.06445697 -0.07582386 0.07857612 -0.062199257 0.07857612 -0.04561279C 0.07857612 -0.02902632 0.06445697 -0.015401721 0.047268443 -0.015401721C 0.03007992 -0.015401721 0.01657465 -0.02902632 0.01657465 -0.04561279C 0.01657465 -0.062199257 0.03007992 -0.07582386 0.047268443 -0.07582386zM0.047268443 -0.09122558C 0.021485656 -0.09122558 0 -0.071084864 0 -0.04561279C 3.903128E-18 -0.020140711 0.021485656 2.6020852E-18 0.047268443 0C 0.073665105 1.4636729E-18 0.09515076 -0.020140711 0.09515076 -0.04561279C 0.09515076 -0.071084864 0.073665105 -0.09122558 0.047268443 -0.09122558z" stroke="none" fill="#8134AF" fill-rule="nonzero" />
                        <path transform="matrix(96 0 0 96 311.36493 125.52887)"  d="M0.047268443 -0.07582386C 0.06445697 -0.07582386 0.07857612 -0.06279163 0.07857612 -0.046205163C 0.07857612 -0.029618694 0.06445697 -0.015994094 0.047268443 -0.015994094C 0.03007992 -0.015994094 0.015960773 -0.029618694 0.015960773 -0.046205163C 0.015960773 -0.06279163 0.03007992 -0.07582386 0.047268443 -0.07582386zM0.047268443 -0.09181795C 0.02087178 -0.09181795 5.2041704E-18 -0.071084864 0 -0.046205163C 9.7578196E-18 -0.020733085 0.02087178 2.6020852E-18 0.047268443 0C 0.073665105 1.4636729E-18 0.094536886 -0.020733085 0.094536886 -0.046205163C 0.094536886 -0.071084864 0.073665105 -0.09181795 0.047268443 -0.09181795z" stroke="none" fill="#8134AF" fill-rule="nonzero" />
                        <path transform="matrix(96 0 0 96 321.56015 130.02145)"  d="M0.047268443 -0.07582386C 0.06445697 -0.07582386 0.07857612 -0.06279163 0.07857612 -0.046205163C 0.07857612 -0.029618694 0.06445697 -0.015994094 0.047268443 -0.015994094C 0.03007992 -0.015994094 0.01657465 -0.029618694 0.01657465 -0.046205163C 0.01657465 -0.06279163 0.03007992 -0.07582386 0.047268443 -0.07582386zM0.047268443 -0.09181795C 0.021485656 -0.09181795 0 -0.071084864 0 -0.046205163C 3.903128E-18 -0.020733085 0.021485656 2.6020852E-18 0.047268443 0C 0.073665105 1.4636729E-18 0.09515076 -0.020733085 0.09515076 -0.046205163C 0.09515076 -0.071084864 0.073665105 -0.09181795 0.047268443 -0.09181795z" stroke="none" fill="#8134AF" fill-rule="nonzero" />
                        <path transform="matrix(96 0 0 96 331.81436 129.85085)"  d="M0.047268443 -0.07582386C 0.06445697 -0.07582386 0.07857612 -0.062199257 0.07857612 -0.04561279C 0.07857612 -0.02902632 0.06445697 -0.015401721 0.047268443 -0.015401721C 0.03007992 -0.015401721 0.015960773 -0.02902632 0.015960773 -0.04561279C 0.015960773 -0.062199257 0.03007992 -0.07582386 0.047268443 -0.07582386zM0.047268443 -0.09122558C 0.02087178 -0.09122558 1.0408341E-17 -0.071084864 0 -0.04561279C 6.3425827E-18 -0.020140711 0.02087178 2.6020852E-18 0.047268443 0C 0.073665105 -4.87891E-19 0.094536886 -0.020140711 0.094536886 -0.04561279C 0.094536886 -0.071084864 0.073665105 -0.09122558 0.047268443 -0.09122558z" stroke="none" fill="#8134AF" fill-rule="nonzero" />
                        <path transform="matrix(96 0 0 96 342.00958 127.29181)"  d="M0.047882322 -0.07582386C 0.065070845 -0.07582386 0.07857612 -0.06279163 0.07857612 -0.046205163C 0.07857612 -0.029618694 0.065070845 -0.015994094 0.047882322 -0.015994094C 0.030693796 -0.015994094 0.01657465 -0.029618694 0.01657465 -0.046205163C 0.01657465 -0.06279163 0.030693796 -0.07582386 0.047882322 -0.07582386zM0.047882322 -0.09181795C 0.021485656 -0.09181795 7.806256E-18 -0.071084864 0 -0.046205163C 5.3668008E-18 -0.020733085 0.021485656 2.6020852E-18 0.047882322 0C 0.073665105 1.4636729E-18 0.09515076 -0.020733085 0.09515076 -0.046205163C 0.09515076 -0.071084864 0.073665105 -0.09181795 0.047882322 -0.09181795z" stroke="none" fill="#8134AF" fill-rule="nonzero" />
                        <path transform="matrix(96 0 0 96 352.26376 128.8841)"  d="M0.047268443 -0.07582386C 0.06445697 -0.07582386 0.07857612 -0.06279163 0.07857612 -0.046205163C 0.07857612 -0.029618694 0.06445697 -0.015994094 0.047268443 -0.015994094C 0.03007992 -0.015994094 0.01657465 -0.029618694 0.01657465 -0.046205163C 0.01657465 -0.06279163 0.03007992 -0.07582386 0.047268443 -0.07582386zM0.047268443 -0.09181795C 0.021485656 -0.09181795 0 -0.071084864 0 -0.046205163C 3.903128E-18 -0.020733085 0.021485656 2.6020852E-18 0.047268443 0C 0.073665105 0 0.09515076 -0.020733085 0.09515076 -0.046205163C 0.09515076 -0.071084864 0.073665105 -0.09181795 0.047268443 -0.09181795z" stroke="none" fill="#8134AF" fill-rule="nonzero" />
                        <path transform="matrix(96 0 0 96 362.51794 128.94095)"  d="M0.047268443 -0.07582386C 0.06445697 -0.07582386 0.07857612 -0.062199257 0.07857612 -0.04561279C 0.07857612 -0.02902632 0.06445697 -0.015994094 0.047268443 -0.015994094C 0.03007992 -0.015994094 0.015960773 -0.02902632 0.015960773 -0.04561279C 0.015960773 -0.062199257 0.03007992 -0.07582386 0.047268443 -0.07582386zM0.047268443 -0.09181795C 0.02087178 -0.09181795 1.0408341E-17 -0.071084864 0 -0.04561279C 6.3425827E-18 -0.020733085 0.02087178 2.6020852E-18 0.047268443 0C 0.073665105 -6.3425827E-18 0.094536886 -0.020733085 0.094536886 -0.04561279C 0.094536886 -0.071084864 0.073665105 -0.09181795 0.047268443 -0.09181795z" stroke="none" fill="#8134AF" fill-rule="nonzero" />
                        <path transform="matrix(96 0 0 96 372.71323 131.15881)"  d="M0.047268443 -0.07582386C 0.06445697 -0.07582386 0.07857612 -0.06279163 0.07857612 -0.046205163C 0.07857612 -0.029618694 0.06445697 -0.015994094 0.047268443 -0.015994094C 0.03007992 -0.015994094 0.01657465 -0.029618694 0.01657465 -0.046205163C 0.01657465 -0.06279163 0.03007992 -0.07582386 0.047268443 -0.07582386zM0.047268443 -0.09181795C 0.021485656 -0.09181795 5.2041704E-18 -0.071084864 0 -0.046205163C 3.903128E-18 -0.020733085 0.021485656 2.6020852E-18 0.047268443 0C 0.073665105 1.4636729E-18 0.09515076 -0.020733085 0.09515076 -0.046205163C 0.09515076 -0.071084864 0.073665105 -0.09181795 0.047268443 -0.09181795z" stroke="none" fill="#8134AF" fill-rule="nonzero" />
                        <path transform="matrix(96 0 0 96 382.9674 127.51927)"  d="M0.047268443 -0.07582386C 0.06445697 -0.07582386 0.07857612 -0.062199257 0.07857612 -0.04561279C 0.07857612 -0.02902632 0.06445697 -0.015401721 0.047268443 -0.015401721C 0.03007992 -0.015401721 0.015960773 -0.02902632 0.015960773 -0.04561279C 0.015960773 -0.062199257 0.03007992 -0.07582386 0.047268443 -0.07582386zM0.047268443 -0.09122558C 0.02087178 -0.09122558 1.0408341E-17 -0.071084864 0 -0.04561279C 2.4394549E-18 -0.020140711 0.02087178 2.6020852E-18 0.047268443 0C 0.073665105 1.4636729E-18 0.094536886 -0.020140711 0.094536886 -0.04561279C 0.094536886 -0.071084864 0.073665105 -0.09122558 0.047268443 -0.09122558z" stroke="none" fill="#8134AF" fill-rule="nonzero" />
                        <path transform="matrix(96 0 0 96 393.16266 136.78871)"  d="M0.047882322 -0.07582386C 0.065070845 -0.07582386 0.07857612 -0.062199257 0.07857612 -0.04561279C 0.07857612 -0.02902632 0.065070845 -0.015401721 0.047882322 -0.015401721C 0.030693796 -0.015401721 0.01657465 -0.02902632 0.01657465 -0.04561279C 0.01657465 -0.062199257 0.030693796 -0.07582386 0.047882322 -0.07582386zM0.047882322 -0.09122558C 0.021485656 -0.09122558 2.6020852E-18 -0.071084864 0 -0.04561279C -4.391019E-18 -0.020140711 0.021485656 2.6020852E-18 0.047882322 0C 0.073665105 1.4636729E-18 0.09515076 -0.020140711 0.09515076 -0.04561279C 0.09515076 -0.071084864 0.073665105 -0.09122558 0.047882322 -0.09122558z" stroke="none" fill="#8134AF" fill-rule="nonzero" />
                        <path transform="matrix(96 0 0 96 403.41684 129.68024)"  d="M0.047268443 -0.07582386C 0.06445697 -0.07582386 0.07857612 -0.06279163 0.07857612 -0.046205163C 0.07857612 -0.029618694 0.06445697 -0.015994094 0.047268443 -0.015994094C 0.03007992 -0.015994094 0.01657465 -0.029618694 0.01657465 -0.046205163C 0.01657465 -0.06279163 0.03007992 -0.07582386 0.047268443 -0.07582386zM0.047268443 -0.09181795C 0.021485656 -0.09181795 5.2041704E-18 -0.071084864 0 -0.046205163C 0 -0.020733085 0.021485656 2.6020852E-18 0.047268443 0C 0.073665105 0 0.09515076 -0.020733085 0.09515076 -0.046205163C 0.09515076 -0.071084864 0.073665105 -0.09181795 0.047268443 -0.09181795z" stroke="none" fill="#8134AF" fill-rule="nonzero" />
                        <path transform="matrix(96 0 0 96 413.67102 122.2874)"  d="M0.047268443 -0.07582386C 0.06445697 -0.07582386 0.07857612 -0.06279163 0.07857612 -0.046205163C 0.07857612 -0.029618694 0.06445697 -0.015994094 0.047268443 -0.015994094C 0.03007992 -0.015994094 0.015960773 -0.029618694 0.015960773 -0.046205163C 0.015960773 -0.06279163 0.03007992 -0.07582386 0.047268443 -0.07582386zM0.047268443 -0.09181795C 0.02087178 -0.09181795 5.2041704E-18 -0.071084864 0 -0.046205163C 1.951564E-18 -0.020733085 0.02087178 2.6020852E-18 0.047268443 0C 0.073665105 -2.4394549E-18 0.094536886 -0.020733085 0.094536886 -0.046205163C 0.094536886 -0.071084864 0.073665105 -0.09181795 0.047268443 -0.09181795z" stroke="none" fill="#8134AF" fill-rule="nonzero" />
                        <path transform="matrix(96 0 0 96 423.8663 123.99344)"  d="M0.047268443 -0.07582386C 0.06445697 -0.07582386 0.07857612 -0.062199257 0.07857612 -0.04561279C 0.07857612 -0.02902632 0.06445697 -0.015994094 0.047268443 -0.015994094C 0.03007992 -0.015994094 0.01657465 -0.02902632 0.01657465 -0.04561279C 0.01657465 -0.062199257 0.03007992 -0.07582386 0.047268443 -0.07582386zM0.047268443 -0.09181795C 0.021485656 -0.09181795 5.2041704E-18 -0.071084864 0 -0.04561279C 4.87891E-19 -0.020733085 0.021485656 2.6020852E-18 0.047268443 0C 0.073665105 1.4636729E-18 0.09515076 -0.020733085 0.09515076 -0.04561279C 0.09515076 -0.071084864 0.073665105 -0.09181795 0.047268443 -0.09181795z" stroke="none" fill="#8134AF" fill-rule="nonzero" />
                        <path transform="matrix(96 0 0 96 434.12048 129.16841)"  d="M0.047268443 -0.07582386C 0.06445697 -0.07582386 0.07857612 -0.06279163 0.07857612 -0.046205163C 0.07857612 -0.029618694 0.06445697 -0.015994094 0.047268443 -0.015994094C 0.03007992 -0.015994094 0.015960773 -0.029618694 0.015960773 -0.046205163C 0.015960773 -0.06279163 0.03007992 -0.07582386 0.047268443 -0.07582386zM0.047268443 -0.09181795C 0.02087178 -0.09181795 2.6020852E-18 -0.07167724 0 -0.046205163C -1.951564E-18 -0.020733085 0.02087178 2.6020852E-18 0.047268443 0C 0.073665105 1.4636729E-18 0.094536886 -0.020733085 0.094536886 -0.046205163C 0.094536886 -0.07167724 0.073665105 -0.09181795 0.047268443 -0.09181795z" stroke="none" fill="#8134AF" fill-rule="nonzero" />
                        <path transform="matrix(96 0 0 96 444.3157 120.012726)"  d="M0.047882322 -0.07582386C 0.065070845 -0.07582386 0.07857612 -0.062199257 0.07857612 -0.04561279C 0.07857612 -0.02902632 0.065070845 -0.015994094 0.047882322 -0.015994094C 0.030693796 -0.015994094 0.01657465 -0.02902632 0.01657465 -0.04561279C 0.01657465 -0.062199257 0.030693796 -0.07582386 0.047882322 -0.07582386zM0.047882322 -0.09181795C 0.021485656 -0.09181795 2.6020852E-18 -0.071084864 0 -0.04561279C -4.391019E-18 -0.020733085 0.021485656 2.6020852E-18 0.047882322 0C 0.073665105 1.4636729E-18 0.09515076 -0.020733085 0.09515076 -0.04561279C 0.09515076 -0.071084864 0.073665105 -0.09181795 0.047882322 -0.09181795z" stroke="none" fill="#8134AF" fill-rule="nonzero" />
                        <path transform="matrix(96 0 0 96 454.5699 118.13608)"  d="M0.047268443 -0.07582386C 0.06445697 -0.07582386 0.07857612 -0.062199257 0.07857612 -0.04561279C 0.07857612 -0.02902632 0.06445697 -0.015994094 0.047268443 -0.015994094C 0.03007992 -0.015994094 0.01657465 -0.02902632 0.01657465 -0.04561279C 0.01657465 -0.062199257 0.03007992 -0.07582386 0.047268443 -0.07582386zM0.047268443 -0.09181795C 0.021485656 -0.09181795 5.2041704E-18 -0.071084864 0 -0.04561279C 0 -0.020733085 0.021485656 2.6020852E-18 0.047268443 0C 0.073665105 1.4636729E-18 0.09515076 -0.020733085 0.09515076 -0.04561279C 0.09515076 -0.071084864 0.073665105 -0.09181795 0.047268443 -0.09181795z" stroke="none" fill="#8134AF" fill-rule="nonzero" />
                        <path transform="matrix(96 0 0 96 464.82407 130.8176)"  d="M0.047268443 -0.07582386C 0.06445697 -0.07582386 0.07857612 -0.062199257 0.07857612 -0.04561279C 0.07857612 -0.02902632 0.06445697 -0.015994094 0.047268443 -0.015994094C 0.03007992 -0.015994094 0.015960773 -0.02902632 0.015960773 -0.04561279C 0.015960773 -0.062199257 0.03007992 -0.07582386 0.047268443 -0.07582386zM0.047268443 -0.09181795C 0.02087178 -0.09181795 5.2041704E-18 -0.071084864 0 -0.04561279C 0 -0.020733085 0.02087178 2.6020852E-18 0.047268443 0C 0.073665105 -6.3425827E-18 0.094536886 -0.020733085 0.094536886 -0.04561279C 0.094536886 -0.071084864 0.073665105 -0.09181795 0.047268443 -0.09181795z" stroke="none" fill="#8134AF" fill-rule="nonzero" />
                        <path transform="matrix(96 0 0 96 475.01932 122.3443)"  d="M0.047268443 -0.07582386C 0.06445697 -0.07582386 0.07857612 -0.062199257 0.07857612 -0.04561279C 0.07857612 -0.02902632 0.06445697 -0.015401721 0.047268443 -0.015401721C 0.03007992 -0.015401721 0.01657465 -0.02902632 0.01657465 -0.04561279C 0.01657465 -0.062199257 0.03007992 -0.07582386 0.047268443 -0.07582386zM0.047268443 -0.09122558C 0.021485656 -0.09122558 5.2041704E-18 -0.071084864 0 -0.04561279C 1.951564E-18 -0.020140711 0.021485656 2.6020852E-18 0.047268443 0C 0.073665105 -4.87891E-19 0.09515076 -0.020140711 0.09515076 -0.04561279C 0.09515076 -0.071084864 0.073665105 -0.09122558 0.047268443 -0.09122558z" stroke="none" fill="#8134AF" fill-rule="nonzero" />
                        <path transform="matrix(96 0 0 96 70.33268 338.49915)"  d="M0 0L0.10681441 -0.050944153L0.21362881 -0.10721967L0.31982934 -0.26242164L0.42664376 -0.3376531L0.5328443 -0.4697525L0.6396587 -0.6219926L0.7464731 -0.75823855L0.85267365 -0.9341736L0.95948803 -1.0259916L1.0656886 -1.2196978L1.172503 -1.2949293L1.2793174 -1.345281L1.385518 -1.5532043L1.4923323 -1.636729L1.5985328 -1.7794911L1.7053473 -1.8416904L1.8121617 -1.986822L1.9183621 -2.0679772L2.0251765 -2.132546L2.1313772 -2.1870444L2.2381916 -2.2344341L2.345006 -2.2664225L2.4512064 -2.2995954L2.5580208 -2.2978182L2.6642215 -2.2930791L2.771036 -2.3001878L2.8778503 -2.3730497L2.9840508 -2.31322L3.0908651 -2.2853785L3.1970656 -2.319736L3.3038802 -2.3653488L3.4106946 -2.3736422L3.516895 -2.3760116L3.6237094 -2.319736L3.72991 -2.3452082L3.8367243 -2.292487L3.943539 -2.3422463L4.0497394 -2.3967447L4.1565537 -2.3967447L4.2627544 -2.2836013" stroke="#DD2A7B" stroke-width="0.016284373" stroke-linecap="round" fill="none" />
                        <path transform="matrix(96 0 0 96 66.03064 340.94446)"  d="M0.04481294 -0.07582386L0 0L0.090239756 0L0.04481294 -0.07582386z" stroke="#DD2A7B" stroke-width="0.016284373" stroke-linecap="round" fill="none" />
                        <path transform="matrix(96 0 0 96 76.22588 336.05383)"  d="M0.045426816 -0.07582386L0 0L0.09085363 0L0.045426816 -0.07582386z" stroke="#DD2A7B" stroke-width="0.016284373" stroke-linecap="round" fill="none" />
                        <path transform="matrix(96 0 0 96 86.480064 330.59448)"  d="M0.045426816 -0.07582386L0 0L0.09085363 0L0.045426816 -0.07582386z" stroke="#DD2A7B" stroke-width="0.016284373" stroke-linecap="round" fill="none" />
                        <path transform="matrix(96 0 0 96 96.67532 315.69513)"  d="M0.045426816 -0.07582386L0 0L0.09085363 0L0.045426816 -0.07582386z" stroke="#DD2A7B" stroke-width="0.016284373" stroke-linecap="round" fill="none" />
                        <path transform="matrix(96 0 0 96 106.929504 308.5298)"  d="M0.045426816 -0.07582386L0 0L0.09085363 0L0.045426816 -0.07582386z" stroke="#DD2A7B" stroke-width="0.016284373" stroke-linecap="round" fill="none" />
                        <path transform="matrix(96 0 0 96 117.183685 295.8482)"  d="M0.04481294 -0.07582386L0 0L0.090239756 0L0.04481294 -0.07582386z" stroke="#DD2A7B" stroke-width="0.016284373" stroke-linecap="round" fill="none" />
                        <path transform="matrix(96 0 0 96 127.37894 281.23315)"  d="M0.045426816 -0.07582386L0 0L0.09085363 0L0.045426816 -0.07582386z" stroke="#DD2A7B" stroke-width="0.016284373" stroke-linecap="round" fill="none" />
                        <path transform="matrix(96 0 0 96 137.63312 268.0967)"  d="M0.045426816 -0.07582386L0 0L0.09085363 0L0.045426816 -0.07582386z" stroke="#DD2A7B" stroke-width="0.016284373" stroke-linecap="round" fill="none" />
                        <path transform="matrix(96 0 0 96 147.82837 251.26378)"  d="M0.045426816 -0.07582386L0 0L0.09085363 0L0.045426816 -0.07582386z" stroke="#DD2A7B" stroke-width="0.016284373" stroke-linecap="round" fill="none" />
                        <path transform="matrix(96 0 0 96 158.08257 242.44926)"  d="M0.045426816 -0.07582386L0 0L0.09085363 0L0.045426816 -0.07582386z" stroke="#DD2A7B" stroke-width="0.016284373" stroke-linecap="round" fill="none" />
                        <path transform="matrix(96 0 0 96 168.33675 223.85349)"  d="M0.04481294 -0.07582386L0 0L0.090239756 0L0.04481294 -0.07582386z" stroke="#DD2A7B" stroke-width="0.016284373" stroke-linecap="round" fill="none" />
                        <path transform="matrix(96 0 0 96 178.532 216.5744)"  d="M0.045426816 -0.07582386L0 0L0.09085363 0L0.045426816 -0.07582386z" stroke="#DD2A7B" stroke-width="0.016284373" stroke-linecap="round" fill="none" />
                        <path transform="matrix(96 0 0 96 188.78618 211.7975)"  d="M0.045426816 -0.07582386L0 0L0.09085363 0L0.045426816 -0.07582386z" stroke="#DD2A7B" stroke-width="0.016284373" stroke-linecap="round" fill="none" />
                        <path transform="matrix(96 0 0 96 198.98141 191.83685)"  d="M0.045426816 -0.07582386L0 0L0.09085363 0L0.045426816 -0.07582386z" stroke="#DD2A7B" stroke-width="0.016284373" stroke-linecap="round" fill="none" />
                        <path transform="matrix(96 0 0 96 209.2356 183.76163)"  d="M0.045426816 -0.07582386L0 0L0.09085363 0L0.045426816 -0.07582386z" stroke="#DD2A7B" stroke-width="0.016284373" stroke-linecap="round" fill="none" />
                        <path transform="matrix(96 0 0 96 219.4898 170.11331)"  d="M0.04481294 -0.07582386L0 0L0.090239756 0L0.04481294 -0.07582386z" stroke="#DD2A7B" stroke-width="0.016284373" stroke-linecap="round" fill="none" />
                        <path transform="matrix(96 0 0 96 229.68504 164.0853)"  d="M0.045426816 -0.07582386L0 0L0.09085363 0L0.045426816 -0.07582386z" stroke="#DD2A7B" stroke-width="0.016284373" stroke-linecap="round" fill="none" />
                        <path transform="matrix(96 0 0 96 239.93922 150.20956)"  d="M0.045426816 -0.07582386L0 0L0.09085363 0L0.045426816 -0.07582386z" stroke="#DD2A7B" stroke-width="0.016284373" stroke-linecap="round" fill="none" />
                        <path transform="matrix(96 0 0 96 250.13448 142.3618)"  d="M0.045426816 -0.07582386L0 0L0.09085363 0L0.045426816 -0.07582386z" stroke="#DD2A7B" stroke-width="0.016284373" stroke-linecap="round" fill="none" />
                        <path transform="matrix(96 0 0 96 260.38864 136.22003)"  d="M0.045426816 -0.07582386L0 0L0.09085363 0L0.045426816 -0.07582386z" stroke="#DD2A7B" stroke-width="0.016284373" stroke-linecap="round" fill="none" />
                        <path transform="matrix(96 0 0 96 270.64282 130.9882)"  d="M0.04481294 -0.07582386L0 0L0.090239756 0L0.04481294 -0.07582386z" stroke="#DD2A7B" stroke-width="0.016284373" stroke-linecap="round" fill="none" />
                        <path transform="matrix(96 0 0 96 280.8381 126.43877)"  d="M0.045426816 -0.07582386L0 0L0.09085363 0L0.045426816 -0.07582386z" stroke="#DD2A7B" stroke-width="0.016284373" stroke-linecap="round" fill="none" />
                        <path transform="matrix(96 0 0 96 291.0923 123.367905)"  d="M0.045426816 -0.07582386L0 0L0.09085363 0L0.045426816 -0.07582386z" stroke="#DD2A7B" stroke-width="0.016284373" stroke-linecap="round" fill="none" />
                        <path transform="matrix(96 0 0 96 301.28754 120.126434)"  d="M0.045426816 -0.07582386L0 0L0.09085363 0L0.045426816 -0.07582386z" stroke="#DD2A7B" stroke-width="0.016284373" stroke-linecap="round" fill="none" />
                        <path transform="matrix(96 0 0 96 311.54172 120.3539)"  d="M0.045426816 -0.07582386L0 0L0.09085363 0L0.045426816 -0.07582386z" stroke="#DD2A7B" stroke-width="0.016284373" stroke-linecap="round" fill="none" />
                        <path transform="matrix(96 0 0 96 321.7959 120.80887)"  d="M0.04481294 -0.07582386L0 0L0.090239756 0L0.04481294 -0.07582386z" stroke="#DD2A7B" stroke-width="0.016284373" stroke-linecap="round" fill="none" />
                        <path transform="matrix(96 0 0 96 331.99115 120.126434)"  d="M0.045426816 -0.07582386L0 0L0.09085363 0L0.045426816 -0.07582386z" stroke="#DD2A7B" stroke-width="0.016284373" stroke-linecap="round" fill="none" />
                        <path transform="matrix(96 0 0 96 342.24533 113.13167)"  d="M0.045426816 -0.07582386L0 0L0.09085363 0L0.045426816 -0.07582386z" stroke="#DD2A7B" stroke-width="0.016284373" stroke-linecap="round" fill="none" />
                        <path transform="matrix(96 0 0 96 352.4406 118.87537)"  d="M0.045426816 -0.07582386L0 0L0.09085363 0L0.045426816 -0.07582386z" stroke="#DD2A7B" stroke-width="0.016284373" stroke-linecap="round" fill="none" />
                        <path transform="matrix(96 0 0 96 362.6948 121.54816)"  d="M0.045426816 -0.07582386L0 0L0.09085363 0L0.045426816 -0.07582386z" stroke="#DD2A7B" stroke-width="0.016284373" stroke-linecap="round" fill="none" />
                        <path transform="matrix(96 0 0 96 372.94897 118.19293)"  d="M0.04481294 -0.07582386L0 0L0.090239756 0L0.04481294 -0.07582386z" stroke="#DD2A7B" stroke-width="0.016284373" stroke-linecap="round" fill="none" />
                        <path transform="matrix(96 0 0 96 383.1442 113.87096)"  d="M0.045426816 -0.07582386L0 0L0.09085363 0L0.045426816 -0.07582386z" stroke="#DD2A7B" stroke-width="0.016284373" stroke-linecap="round" fill="none" />
                        <path transform="matrix(96 0 0 96 393.39838 113.074814)"  d="M0.045426816 -0.07582386L0 0L0.09085363 0L0.045426816 -0.07582386z" stroke="#DD2A7B" stroke-width="0.016284373" stroke-linecap="round" fill="none" />
                        <path transform="matrix(96 0 0 96 403.59363 112.84735)"  d="M0.045426816 -0.07582386L0 0L0.09085363 0L0.045426816 -0.07582386z" stroke="#DD2A7B" stroke-width="0.016284373" stroke-linecap="round" fill="none" />
                        <path transform="matrix(96 0 0 96 413.8478 118.24979)"  d="M0.045426816 -0.07582386L0 0L0.09085363 0L0.045426816 -0.07582386z" stroke="#DD2A7B" stroke-width="0.016284373" stroke-linecap="round" fill="none" />
                        <path transform="matrix(96 0 0 96 424.102 115.80446)"  d="M0.04481294 -0.07582386L0 0L0.090239756 0L0.04481294 -0.07582386z" stroke="#DD2A7B" stroke-width="0.016284373" stroke-linecap="round" fill="none" />
                        <path transform="matrix(96 0 0 96 434.29727 120.86572)"  d="M0.045426816 -0.07582386L0 0L0.09085363 0L0.045426816 -0.07582386z" stroke="#DD2A7B" stroke-width="0.016284373" stroke-linecap="round" fill="none" />
                        <path transform="matrix(96 0 0 96 444.55145 116.08882)"  d="M0.045426816 -0.07582386L0 0L0.09085363 0L0.045426816 -0.07582386z" stroke="#DD2A7B" stroke-width="0.016284373" stroke-linecap="round" fill="none" />
                        <path transform="matrix(96 0 0 96 454.74667 110.856995)"  d="M0.045426816 -0.07582386L0 0L0.09085363 0L0.045426816 -0.07582386z" stroke="#DD2A7B" stroke-width="0.016284373" stroke-linecap="round" fill="none" />
                        <path transform="matrix(96 0 0 96 465.00085 110.856995)"  d="M0.045426816 -0.07582386L0 0L0.09085363 0L0.045426816 -0.07582386z" stroke="#DD2A7B" stroke-width="0.016284373" stroke-linecap="round" fill="none" />
                        <path transform="matrix(96 0 0 96 475.25507 121.71872)"  d="M0.04481294 -0.07582386L0 0L0.090239756 0L0.04481294 -0.07582386z" stroke="#DD2A7B" stroke-width="0.016284373" stroke-linecap="round" fill="none" />
                        <path transform="matrix(96 0 0 96 70.33268 340.43268)"  d="M0 0L0.10681441 -0.049759407L0.21362881 -0.17711979L0.31982934 -0.2902632L0.42664376 -0.42117783L0.5328443 -0.5467611L0.6396587 -0.68300706L0.7464731 -0.84650224L0.85267365 -0.9780093L0.95948803 -1.183563L1.0656886 -1.3541666L1.172503 -1.425844L1.2793174 -1.6349518L1.385518 -1.6847113L1.4923323 -1.8890803L1.5985328 -2.0205872L1.7053473 -2.2255487L1.8121617 -2.3209207L1.9183621 -2.3612022L2.0251765 -2.5211432L2.1313772 -2.5963748L2.2381916 -2.7373598L2.345006 -2.788896L2.4512064 -2.9008548L2.5580208 -2.8961158L2.6642215 -2.9192185L2.771036 -2.9334354L2.8778503 -2.886638L2.9840508 -2.9950423L3.0908651 -2.9446905L3.1970656 -2.871236L3.3038802 -2.9429133L3.4106946 -2.9968195L3.516895 -2.945283L3.6237094 -2.9079633L3.72991 -2.8718286L3.8367243 -2.891377L3.943539 -2.888415L4.0497394 -2.9737167L4.1565537 -2.8534648L4.2627544 -2.948837" stroke="#515BD4" stroke-width="0.016284373" stroke-linecap="round" fill="none" />
                        <path transform="matrix(96 0 0 96 66.03064 345.26642)"  d="M0.04481294 0L0 -0.07582386L0.090239756 -0.07582386L0.04481294 0z" stroke="#515BD4" stroke-width="0.016284373" stroke-linecap="round" fill="none" />
                        <path transform="matrix(96 0 0 96 76.22588 340.4895)"  d="M0.045426816 0L0 -0.07582386L0.09085363 -0.07582386L0.045426816 0z" stroke="#515BD4" stroke-width="0.016284373" stroke-linecap="round" fill="none" />
                        <path transform="matrix(96 0 0 96 86.480064 328.31976)"  d="M0.045426816 0L0 -0.07582386L0.09085363 -0.07582386L0.045426816 0z" stroke="#515BD4" stroke-width="0.016284373" stroke-linecap="round" fill="none" />
                        <path transform="matrix(96 0 0 96 96.67532 317.40115)"  d="M0.045426816 0L0 -0.07582386L0.09085363 -0.07582386L0.045426816 0z" stroke="#515BD4" stroke-width="0.016284373" stroke-linecap="round" fill="none" />
                        <path transform="matrix(96 0 0 96 106.929504 304.8902)"  d="M0.045426816 0L0 -0.07582386L0.09085363 -0.07582386L0.045426816 0z" stroke="#515BD4" stroke-width="0.016284373" stroke-linecap="round" fill="none" />
                        <path transform="matrix(96 0 0 96 117.183685 292.77734)"  d="M0.04481294 0L0 -0.07582386L0.090239756 -0.07582386L0.04481294 0z" stroke="#515BD4" stroke-width="0.016284373" stroke-linecap="round" fill="none" />
                        <path transform="matrix(96 0 0 96 127.37894 279.69772)"  d="M0.045426816 0L0 -0.07582386L0.09085363 -0.07582386L0.045426816 0z" stroke="#515BD4" stroke-width="0.016284373" stroke-linecap="round" fill="none" />
                        <path transform="matrix(96 0 0 96 137.63312 264.05905)"  d="M0.045426816 0L0 -0.07582386L0.09085363 -0.07582386L0.045426816 0z" stroke="#515BD4" stroke-width="0.016284373" stroke-linecap="round" fill="none" />
                        <path transform="matrix(96 0 0 96 147.82837 251.37753)"  d="M0.045426816 0L0 -0.07582386L0.09085363 -0.07582386L0.045426816 0z" stroke="#515BD4" stroke-width="0.016284373" stroke-linecap="round" fill="none" />
                        <path transform="matrix(96 0 0 96 158.08257 231.6444)"  d="M0.045426816 0L0 -0.07582386L0.09085363 -0.07582386L0.045426816 0z" stroke="#515BD4" stroke-width="0.016284373" stroke-linecap="round" fill="none" />
                        <path transform="matrix(96 0 0 96 168.33675 215.26643)"  d="M0.04481294 0L0 -0.07582386L0.090239756 -0.07582386L0.04481294 0z" stroke="#515BD4" stroke-width="0.016284373" stroke-linecap="round" fill="none" />
                        <path transform="matrix(96 0 0 96 178.532 208.38542)"  d="M0.045426816 0L0 -0.07582386L0.09085363 -0.07582386L0.045426816 0z" stroke="#515BD4" stroke-width="0.016284373" stroke-linecap="round" fill="none" />
                        <path transform="matrix(96 0 0 96 188.78618 188.36792)"  d="M0.045426816 0L0 -0.07582386L0.09085363 -0.07582386L0.045426816 0z" stroke="#515BD4" stroke-width="0.016284373" stroke-linecap="round" fill="none" />
                        <path transform="matrix(96 0 0 96 198.98141 183.59102)"  d="M0.045426816 0L0 -0.07582386L0.09085363 -0.07582386L0.045426816 0z" stroke="#515BD4" stroke-width="0.016284373" stroke-linecap="round" fill="none" />
                        <path transform="matrix(96 0 0 96 209.2356 163.97159)"  d="M0.045426816 0L0 -0.07582386L0.09085363 -0.07582386L0.045426816 0z" stroke="#515BD4" stroke-width="0.016284373" stroke-linecap="round" fill="none" />
                        <path transform="matrix(96 0 0 96 219.4898 151.34692)"  d="M0.04481294 0L0 -0.07582386L0.090239756 -0.07582386L0.04481294 0z" stroke="#515BD4" stroke-width="0.016284373" stroke-linecap="round" fill="none" />
                        <path transform="matrix(96 0 0 96 229.68504 131.67064)"  d="M0.045426816 0L0 -0.07582386L0.09085363 -0.07582386L0.045426816 0z" stroke="#515BD4" stroke-width="0.016284373" stroke-linecap="round" fill="none" />
                        <path transform="matrix(96 0 0 96 239.93922 122.45801)"  d="M0.045426816 0L0 -0.075231485L0.09085363 -0.075231485L0.045426816 0z" stroke="#515BD4" stroke-width="0.016284373" stroke-linecap="round" fill="none" />
                        <path transform="matrix(96 0 0 96 250.13448 118.591)"  d="M0.045426816 0L0 -0.07582386L0.09085363 -0.07582386L0.045426816 0z" stroke="#515BD4" stroke-width="0.016284373" stroke-linecap="round" fill="none" />
                        <path transform="matrix(96 0 0 96 260.38864 103.29355)"  d="M0.045426816 0L0 -0.07582386L0.09085363 -0.07582386L0.045426816 0z" stroke="#515BD4" stroke-width="0.016284373" stroke-linecap="round" fill="none" />
                        <path transform="matrix(96 0 0 96 270.64282 96.07132)"  d="M0.04481294 0L0 -0.07582386L0.090239756 -0.07582386L0.04481294 0z" stroke="#515BD4" stroke-width="0.016284373" stroke-linecap="round" fill="none" />
                        <path transform="matrix(96 0 0 96 280.8381 82.47986)"  d="M0.045426816 0L0 -0.07582386L0.09085363 -0.07582386L0.045426816 0z" stroke="#515BD4" stroke-width="0.016284373" stroke-linecap="round" fill="none" />
                        <path transform="matrix(96 0 0 96 291.0923 77.589294)"  d="M0.045426816 0L0 -0.07582386L0.09085363 -0.07582386L0.045426816 0z" stroke="#515BD4" stroke-width="0.016284373" stroke-linecap="round" fill="none" />
                        <path transform="matrix(96 0 0 96 301.28754 66.78433)"  d="M0.045426816 0L0 -0.075231485L0.09085363 -0.075231485L0.045426816 0z" stroke="#515BD4" stroke-width="0.016284373" stroke-linecap="round" fill="none" />
                        <path transform="matrix(96 0 0 96 311.54172 67.23926)"  d="M0.045426816 0L0 -0.07582386L0.09085363 -0.07582386L0.045426816 0z" stroke="#515BD4" stroke-width="0.016284373" stroke-linecap="round" fill="none" />
                        <path transform="matrix(96 0 0 96 321.7959 65.021484)"  d="M0.04481294 0L0 -0.07582386L0.090239756 -0.07582386L0.04481294 0z" stroke="#515BD4" stroke-width="0.016284373" stroke-linecap="round" fill="none" />
                        <path transform="matrix(96 0 0 96 331.99115 63.71347)"  d="M0.045426816 0L0 -0.07582386L0.09085363 -0.07582386L0.045426816 0z" stroke="#515BD4" stroke-width="0.016284373" stroke-linecap="round" fill="none" />
                        <path transform="matrix(96 0 0 96 342.24533 68.1492)"  d="M0.045426816 0L0 -0.07582386L0.09085363 -0.07582386L0.045426816 0z" stroke="#515BD4" stroke-width="0.016284373" stroke-linecap="round" fill="none" />
                        <path transform="matrix(96 0 0 96 352.4406 57.7424)"  d="M0.045426816 0L0 -0.07582386L0.09085363 -0.07582386L0.045426816 0z" stroke="#515BD4" stroke-width="0.016284373" stroke-linecap="round" fill="none" />
                        <path transform="matrix(96 0 0 96 362.6948 62.57611)"  d="M0.045426816 0L0 -0.07582386L0.09085363 -0.07582386L0.045426816 0z" stroke="#515BD4" stroke-width="0.016284373" stroke-linecap="round" fill="none" />
                        <path transform="matrix(96 0 0 96 372.94897 69.62778)"  d="M0.04481294 0L0 -0.07582386L0.090239756 -0.07582386L0.04481294 0z" stroke="#515BD4" stroke-width="0.016284373" stroke-linecap="round" fill="none" />
                        <path transform="matrix(96 0 0 96 383.1442 62.746765)"  d="M0.045426816 0L0 -0.07582386L0.09085363 -0.07582386L0.045426816 0z" stroke="#515BD4" stroke-width="0.016284373" stroke-linecap="round" fill="none" />
                        <path transform="matrix(96 0 0 96 393.39838 57.6286)"  d="M0.045426816 0L0 -0.07582386L0.09085363 -0.07582386L0.045426816 0z" stroke="#515BD4" stroke-width="0.016284373" stroke-linecap="round" fill="none" />
                        <path transform="matrix(96 0 0 96 403.59363 62.57611)"  d="M0.045426816 0L0 -0.07582386L0.09085363 -0.07582386L0.045426816 0z" stroke="#515BD4" stroke-width="0.016284373" stroke-linecap="round" fill="none" />
                        <path transform="matrix(96 0 0 96 413.8478 66.1019)"  d="M0.045426816 0L0 -0.07582386L0.09085363 -0.07582386L0.045426816 0z" stroke="#515BD4" stroke-width="0.016284373" stroke-linecap="round" fill="none" />
                        <path transform="matrix(96 0 0 96 424.102 69.62778)"  d="M0.04481294 0L0 -0.07582386L0.090239756 -0.07582386L0.04481294 0z" stroke="#515BD4" stroke-width="0.016284373" stroke-linecap="round" fill="none" />
                        <path transform="matrix(96 0 0 96 434.29727 67.694275)"  d="M0.045426816 0L0 -0.07582386L0.09085363 -0.07582386L0.045426816 0z" stroke="#515BD4" stroke-width="0.016284373" stroke-linecap="round" fill="none" />
                        <path transform="matrix(96 0 0 96 444.55145 68.03549)"  d="M0.045426816 0L0 -0.07582386L0.09085363 -0.07582386L0.045426816 0z" stroke="#515BD4" stroke-width="0.016284373" stroke-linecap="round" fill="none" />
                        <path transform="matrix(96 0 0 96 454.74667 59.78961)"  d="M0.045426816 0L0 -0.07582386L0.09085363 -0.07582386L0.045426816 0z" stroke="#515BD4" stroke-width="0.016284373" stroke-linecap="round" fill="none" />
                        <path transform="matrix(96 0 0 96 465.00085 71.33377)"  d="M0.045426816 0L0 -0.07582386L0.09085363 -0.07582386L0.045426816 0z" stroke="#515BD4" stroke-width="0.016284373" stroke-linecap="round" fill="none" />
                        <path transform="matrix(96 0 0 96 475.25507 62.17804)"  d="M0.04481294 0L0 -0.07582386L0.090239756 -0.07582386L0.04481294 0z" stroke="#515BD4" stroke-width="0.016284373" stroke-linecap="round" fill="none" />
                        <path transform="matrix(96 0 0 96 70.33268 341.34253)"  d="M0 0L0.10681441 -0.061014507L0.21362881 -0.122621395L0.31982934 -0.22924869L0.42664376 -0.2790081L0.5328443 -0.3737879L0.6396587 -0.5254356L0.7464731 -0.60422134L0.85267365 -0.75823855L0.95948803 -0.90692437L1.0656886 -1.021845L1.172503 -1.1308417L1.2793174 -1.2901903L1.385518 -1.3962252L1.4923323 -1.5650518L1.5985328 -1.7172918L1.7053473 -1.8582768L1.8121617 -1.9483176L1.9183621 -2.1550562L2.0251765 -2.27827L2.1313772 -2.2995954L2.2381916 -2.4536126L2.345006 -2.4820466L2.4512064 -2.601706L2.5580208 -2.6579816L2.6642215 -2.674568L2.771036 -2.7450604L2.8778503 -2.7486148L2.9840508 -2.7432835L3.0908651 -2.693524L3.1970656 -2.668052L3.3038802 -2.7207732L3.4106946 -2.6798995L3.516895 -2.5762339L3.6237094 -2.6644976L3.72991 -2.7225504L3.8367243 -2.672791L3.943539 -2.7065563L4.0497394 -2.6259933L4.1565537 -2.6378407L4.2627544 -2.6828613" stroke="#FEDA77" stroke-width="0.016284373" stroke-linecap="round" fill="none" />
                        <path transform="matrix(96 0 0 96 66.56103 346.17633)"  d="M0 -0.05035178L0.03928806 0L0.07857612 -0.05035178L0.03928806 -0.10070356L0 -0.05035178z" stroke="#FEDA77" stroke-width="0.016284373" stroke-linecap="round" fill="none" />
                        <path transform="matrix(96 0 0 96 76.81521 340.3189)"  d="M0 -0.05035178L0.03928806 0L0.07857612 -0.05035178L0.03928806 -0.10070356L0 -0.05035178z" stroke="#FEDA77" stroke-width="0.016284373" stroke-linecap="round" fill="none" />
                        <path transform="matrix(96 0 0 96 87.06939 334.40466)"  d="M0 -0.05035178L0.03928806 0L0.07857612 -0.05035178L0.03928806 -0.10070356L0 -0.05035178z" stroke="#FEDA77" stroke-width="0.016284373" stroke-linecap="round" fill="none" />
                        <path transform="matrix(96 0 0 96 97.26465 324.1684)"  d="M0 -0.05035178L0.03928806 0L0.07857612 -0.05035178L0.03928806 -0.10070356L0 -0.05035178z" stroke="#FEDA77" stroke-width="0.016284373" stroke-linecap="round" fill="none" />
                        <path transform="matrix(96 0 0 96 107.51883 319.44843)"  d="M0 -0.050944153L0.03928806 0L0.07857612 -0.050944153L0.03928806 -0.10129593L0 -0.050944153z" stroke="#FEDA77" stroke-width="0.016284373" stroke-linecap="round" fill="none" />
                        <path transform="matrix(96 0 0 96 117.71407 310.29266)"  d="M0 -0.05035178L0.03928806 0L0.07857612 -0.05035178L0.03928806 -0.10070356L0 -0.05035178z" stroke="#FEDA77" stroke-width="0.016284373" stroke-linecap="round" fill="none" />
                        <path transform="matrix(96 0 0 96 127.96826 295.73447)"  d="M0 -0.05035178L0.03928806 0L0.07857612 -0.05035178L0.03928806 -0.10070356L0 -0.05035178z" stroke="#FEDA77" stroke-width="0.016284373" stroke-linecap="round" fill="none" />
                        <path transform="matrix(96 0 0 96 138.22244 288.17108)"  d="M0 -0.05035178L0.03928806 0L0.07857612 -0.05035178L0.03928806 -0.10070356L0 -0.05035178z" stroke="#FEDA77" stroke-width="0.016284373" stroke-linecap="round" fill="none" />
                        <path transform="matrix(96 0 0 96 148.4177 273.38538)"  d="M0 -0.05035178L0.03928806 0L0.07857612 -0.05035178L0.03928806 -0.10070356L0 -0.05035178z" stroke="#FEDA77" stroke-width="0.016284373" stroke-linecap="round" fill="none" />
                        <path transform="matrix(96 0 0 96 158.67188 259.11157)"  d="M0 -0.05035178L0.03928806 0L0.07857612 -0.05035178L0.03928806 -0.10070356L0 -0.05035178z" stroke="#FEDA77" stroke-width="0.016284373" stroke-linecap="round" fill="none" />
                        <path transform="matrix(96 0 0 96 168.86714 248.07921)"  d="M0 -0.05035178L0.03928806 0L0.07857612 -0.05035178L0.03928806 -0.10070356L0 -0.05035178z" stroke="#FEDA77" stroke-width="0.016284373" stroke-linecap="round" fill="none" />
                        <path transform="matrix(96 0 0 96 179.12132 237.61551)"  d="M0 -0.05035178L0.03928806 0L0.07857612 -0.05035178L0.03928806 -0.10129593L0 -0.05035178z" stroke="#FEDA77" stroke-width="0.016284373" stroke-linecap="round" fill="none" />
                        <path transform="matrix(96 0 0 96 189.3755 222.31805)"  d="M0 -0.05035178L0.03928806 0L0.07857612 -0.05035178L0.03928806 -0.10070356L0 -0.05035178z" stroke="#FEDA77" stroke-width="0.016284373" stroke-linecap="round" fill="none" />
                        <path transform="matrix(96 0 0 96 199.57074 212.13867)"  d="M0 -0.05035178L0.03928806 0L0.07857612 -0.05035178L0.03928806 -0.10129593L0 -0.05035178z" stroke="#FEDA77" stroke-width="0.016284373" stroke-linecap="round" fill="none" />
                        <path transform="matrix(96 0 0 96 209.82492 195.93132)"  d="M0 -0.05035178L0.03928806 0L0.07857612 -0.05035178L0.03928806 -0.10070356L0 -0.05035178z" stroke="#FEDA77" stroke-width="0.016284373" stroke-linecap="round" fill="none" />
                        <path transform="matrix(96 0 0 96 220.02019 181.3163)"  d="M0 -0.05035178L0.03928806 0L0.07857612 -0.05035178L0.03928806 -0.10070356L0 -0.05035178z" stroke="#FEDA77" stroke-width="0.016284373" stroke-linecap="round" fill="none" />
                        <path transform="matrix(96 0 0 96 230.27437 167.78174)"  d="M0 -0.05035178L0.03928806 0L0.07857612 -0.05035178L0.03928806 -0.10070356L0 -0.05035178z" stroke="#FEDA77" stroke-width="0.016284373" stroke-linecap="round" fill="none" />
                        <path transform="matrix(96 0 0 96 240.52855 159.13783)"  d="M0 -0.05035178L0.03928806 0L0.07857612 -0.05035178L0.03928806 -0.10070356L0 -0.05035178z" stroke="#FEDA77" stroke-width="0.016284373" stroke-linecap="round" fill="none" />
                        <path transform="matrix(96 0 0 96 250.7238 139.29094)"  d="M0 -0.05035178L0.03928806 0L0.07857612 -0.05035178L0.03928806 -0.10070356L0 -0.05035178z" stroke="#FEDA77" stroke-width="0.016284373" stroke-linecap="round" fill="none" />
                        <path transform="matrix(96 0 0 96 260.97797 127.46242)"  d="M0 -0.05035178L0.03928806 0L0.07857612 -0.05035178L0.03928806 -0.10070356L0 -0.05035178z" stroke="#FEDA77" stroke-width="0.016284373" stroke-linecap="round" fill="none" />
                        <path transform="matrix(96 0 0 96 271.17322 125.41516)"  d="M0 -0.05035178L0.03928806 0L0.07857612 -0.05035178L0.03928806 -0.10070356L0 -0.05035178z" stroke="#FEDA77" stroke-width="0.016284373" stroke-linecap="round" fill="none" />
                        <path transform="matrix(96 0 0 96 281.42743 110.629486)"  d="M0 -0.05035178L0.03928806 0L0.07857612 -0.05035178L0.03928806 -0.10070356L0 -0.05035178z" stroke="#FEDA77" stroke-width="0.016284373" stroke-linecap="round" fill="none" />
                        <path transform="matrix(96 0 0 96 291.6816 107.89984)"  d="M0 -0.05035178L0.03928806 0L0.07857612 -0.05035178L0.03928806 -0.10070356L0 -0.05035178z" stroke="#FEDA77" stroke-width="0.016284373" stroke-linecap="round" fill="none" />
                        <path transform="matrix(96 0 0 96 301.87686 96.41254)"  d="M0 -0.05035178L0.03928806 0L0.07857612 -0.05035178L0.03928806 -0.10070356L0 -0.05035178z" stroke="#FEDA77" stroke-width="0.016284373" stroke-linecap="round" fill="none" />
                        <path transform="matrix(96 0 0 96 312.13104 91.0101)"  d="M0 -0.05035178L0.03928806 0L0.07857612 -0.05035178L0.03928806 -0.10070356L0 -0.05035178z" stroke="#FEDA77" stroke-width="0.016284373" stroke-linecap="round" fill="none" />
                        <path transform="matrix(96 0 0 96 322.32626 89.47467)"  d="M0 -0.050944153L0.03928806 0L0.07857612 -0.050944153L0.03928806 -0.10129593L0 -0.050944153z" stroke="#FEDA77" stroke-width="0.016284373" stroke-linecap="round" fill="none" />
                        <path transform="matrix(96 0 0 96 332.58047 82.65051)"  d="M0 -0.05035178L0.03928806 0L0.07857612 -0.05035178L0.03928806 -0.10070356L0 -0.05035178z" stroke="#FEDA77" stroke-width="0.016284373" stroke-linecap="round" fill="none" />
                        <path transform="matrix(96 0 0 96 342.83466 82.309296)"  d="M0 -0.05035178L0.03928806 0L0.07857612 -0.05035178L0.03928806 -0.10070356L0 -0.05035178z" stroke="#FEDA77" stroke-width="0.016284373" stroke-linecap="round" fill="none" />
                        <path transform="matrix(96 0 0 96 353.02988 82.821075)"  d="M0 -0.05035178L0.03928806 0L0.07857612 -0.05035178L0.03928806 -0.10070356L0 -0.05035178z" stroke="#FEDA77" stroke-width="0.016284373" stroke-linecap="round" fill="none" />
                        <path transform="matrix(96 0 0 96 363.28406 87.65488)"  d="M0 -0.050944153L0.03928806 0L0.07857612 -0.050944153L0.03928806 -0.10129593L0 -0.050944153z" stroke="#FEDA77" stroke-width="0.016284373" stroke-linecap="round" fill="none" />
                        <path transform="matrix(96 0 0 96 373.47934 90.043304)"  d="M0 -0.05035178L0.03928806 0L0.07857612 -0.05035178L0.03928806 -0.10070356L0 -0.05035178z" stroke="#FEDA77" stroke-width="0.016284373" stroke-linecap="round" fill="none" />
                        <path transform="matrix(96 0 0 96 383.73352 84.982086)"  d="M0 -0.05035178L0.03928806 0L0.07857612 -0.05035178L0.03928806 -0.10070356L0 -0.05035178z" stroke="#FEDA77" stroke-width="0.016284373" stroke-linecap="round" fill="none" />
                        <path transform="matrix(96 0 0 96 393.9877 88.905945)"  d="M0 -0.05035178L0.03928806 0L0.07857612 -0.05035178L0.03928806 -0.10070356L0 -0.05035178z" stroke="#FEDA77" stroke-width="0.016284373" stroke-linecap="round" fill="none" />
                        <path transform="matrix(96 0 0 96 404.18295 98.91467)"  d="M0 -0.050944153L0.03928806 0L0.07857612 -0.050944153L0.03928806 -0.10129593L0 -0.050944153z" stroke="#FEDA77" stroke-width="0.016284373" stroke-linecap="round" fill="none" />
                        <path transform="matrix(96 0 0 96 414.43713 90.38452)"  d="M0 -0.05035178L0.03928806 0L0.07857612 -0.05035178L0.03928806 -0.10070356L0 -0.05035178z" stroke="#FEDA77" stroke-width="0.016284373" stroke-linecap="round" fill="none" />
                        <path transform="matrix(96 0 0 96 424.63242 84.81152)"  d="M0 -0.05035178L0.03928806 0L0.07857612 -0.05035178L0.03928806 -0.10070356L0 -0.05035178z" stroke="#FEDA77" stroke-width="0.016284373" stroke-linecap="round" fill="none" />
                        <path transform="matrix(96 0 0 96 434.8866 89.58838)"  d="M0 -0.05035178L0.03928806 0L0.07857612 -0.05035178L0.03928806 -0.10070356L0 -0.05035178z" stroke="#FEDA77" stroke-width="0.016284373" stroke-linecap="round" fill="none" />
                        <path transform="matrix(96 0 0 96 445.14078 86.346954)"  d="M0 -0.05035178L0.03928806 0L0.07857612 -0.05035178L0.03928806 -0.10070356L0 -0.05035178z" stroke="#FEDA77" stroke-width="0.016284373" stroke-linecap="round" fill="none" />
                        <path transform="matrix(96 0 0 96 455.336 94.13782)"  d="M0 -0.050944153L0.03928806 0L0.07857612 -0.050944153L0.03928806 -0.10129593L0 -0.050944153z" stroke="#FEDA77" stroke-width="0.016284373" stroke-linecap="round" fill="none" />
                        <path transform="matrix(96 0 0 96 465.59018 92.9436)"  d="M0 -0.05035178L0.03928806 0L0.07857612 -0.05035178L0.03928806 -0.10070356L0 -0.05035178z" stroke="#FEDA77" stroke-width="0.016284373" stroke-linecap="round" fill="none" />
                        <path transform="matrix(96 0 0 96 475.78543 88.62158)"  d="M0 -0.05035178L0.03928806 0L0.07857612 -0.05035178L0.03928806 -0.10070356L0 -0.05035178z" stroke="#FEDA77" stroke-width="0.016284373" stroke-linecap="round" fill="none" />
                        <path transform="matrix(96 0 0 96 394.6949 102.497406)"  d="M0 -0.65398073L0.77593917 -0.65398073L0.77593917 0L0 0" stroke="none" fill="#FFFFFF" fill-rule="evenodd" />
					</g>
				</g>
				<g>
				</g>
				<g clip-path="url(#23)" >
					<text transform="matrix(1 0 0 1 442.6483 54.272606)" x="0" y="2.1697502" style="fill:#000000;font-family:ABeeZee;" font-size="11">
r=3.7
					</text>
				</g>
				<g transform="matrix(1 0 0 1 0 0)">
					<g>
                        <path transform="matrix(96 0 0 96 398.46655 48.757233)"  d="M0 0L0.3928807 0" stroke="#8134AF" stroke-width="0.016284373" stroke-linecap="round" fill="none" />
                        <path transform="matrix(96 0 0 96 412.78705 53.192963)"  d="M0.047268443 -0.07582386C 0.06445697 -0.07582386 0.07857612 -0.06279163 0.07857612 -0.046205163C 0.07857612 -0.029618694 0.06445697 -0.015994094 0.047268443 -0.015994094C 0.03007992 -0.015994094 0.01657465 -0.029618694 0.01657465 -0.046205163C 0.01657465 -0.06279163 0.03007992 -0.07582386 0.047268443 -0.07582386zM0.047268443 -0.09181795C 0.021485656 -0.09181795 5.2041704E-18 -0.071084864 0 -0.046205163C 4.87891E-19 -0.020733085 0.021485656 2.6020852E-18 0.047268443 0C 0.073665105 0 0.09515076 -0.020733085 0.09515076 -0.046205163C 0.09515076 -0.071084864 0.073665105 -0.09181795 0.047268443 -0.09181795z" stroke="none" fill="#8134AF" fill-rule="nonzero" />
					</g>
				</g>
				<g>
				</g>
				<g clip-path="url(#24)" >
					<text transform="matrix(1 0 0 1 442.6483 68.830765)" x="0" y="2.1697502" style="fill:#000000;font-family:ABeeZee;" font-size="11">
r=3.8
					</text>
				</g>
				<g transform="matrix(1 0 0 1 0 0)">
					<g>
                        <path transform="matrix(96 0 0 96 398.46655 63.656616)"  d="M0 0L0.3928807 0" stroke="#DD2A7B" stroke-width="0.016284373" stroke-linecap="round" fill="none" />
                        <path transform="matrix(96 0 0 96 413.0228 66.1019)"  d="M0.04481294 -0.07582386L0 0L0.090239756 0L0.04481294 -0.07582386z" stroke="#DD2A7B" stroke-width="0.016284373" stroke-linecap="round" fill="none" />
					</g>
				</g>
				<g>
				</g>
				<g clip-path="url(#25)" >
					<text transform="matrix(1 0 0 1 442.6483 84.29878)" x="0" y="2.1697502" style="fill:#000000;font-family:ABeeZee;" font-size="11">
r=3.9
					</text>
				</g>
				<g transform="matrix(1 0 0 1 0 0)">
					<g>
                        <path transform="matrix(96 0 0 96 398.46655 78.612854)"  d="M0 0L0.3928807 0" stroke="#515BD4" stroke-width="0.016284373" stroke-linecap="round" fill="none" />
                        <path transform="matrix(96 0 0 96 413.0228 83.446655)"  d="M0.04481294 0L0 -0.07582386L0.090239756 -0.07582386L0.04481294 0z" stroke="#515BD4" stroke-width="0.016284373" stroke-linecap="round" fill="none" />
					</g>
				</g>
				<g>
				</g>
				<g clip-path="url(#26)" >
					<text transform="matrix(1 0 0 1 442.6483 98.85695)" x="0" y="2.1697502" style="fill:#000000;font-family:ABeeZee;" font-size="11">
r=4.0
					</text>
				</g>
				<g transform="matrix(1 0 0 1 0 0)">
					<g clip-path="url(#27)" >
                        <path transform="matrix(96 0 0 96 398.46655 93.51224)"  d="M0 0L0.3928807 0" stroke="#FEDA77" stroke-width="0.016284373" stroke-linecap="round" fill="none" />
                        <path transform="matrix(96 0 0 96 413.55316 98.34604)"  d="M0 -0.05035178L0.03928806 0L0.07857612 -0.05035178L0.03928806 -0.10129593L0 -0.05035178z" stroke="#FEDA77" stroke-width="0.016284373" stroke-linecap="round" fill="none" />
                        <path transform="matrix(96 0 0 96 394.6949 102.497406)"  d="M0 0L0 -0.65398073L0.77593917 -0.65398073L0.77593917 0L0 0z" stroke="#262626" stroke-width="0.0066343737" stroke-linecap="round" fill="none" />
					</g>
					<g>
					</g>
				</g>
			</g>
		</g>
	</g>
</g>
</svg>